<?xml version="1.0" encoding="utf-8" standalone="no"?>
<!DOCTYPE svg PUBLIC "-//W3C//DTD SVG 1.1//EN"
  "http://www.w3.org/Graphics/SVG/1.1/DTD/svg11.dtd">
<!-- Created with matplotlib (http://matplotlib.org/) -->
<svg height="262.97625pt" version="1.1" viewBox="0 0 262.851518 262.97625" width="262.851518pt" xmlns="http://www.w3.org/2000/svg" xmlns:xlink="http://www.w3.org/1999/xlink">
 <defs>
  <style type="text/css">
*{stroke-linecap:butt;stroke-linejoin:round;}
  </style>
 </defs>
 <g id="figure_1">
  <g id="patch_1">
   <path d="M 0 262.97625 
L 262.851518 262.97625 
L 262.851518 0 
L 0 0 
z
" style="fill:#ffffff;"/>
  </g>
  <g id="axes_1">
   <g id="patch_2">
    <path d="M 20.878125 225.42 
L 252.151518 225.42 
L 252.151518 10.7 
L 20.878125 10.7 
z
" style="fill:#ffffff;"/>
   </g>
   <g id="matplotlib.axis_1">
    <g id="xtick_1">
     <g id="line2d_1">
      <defs>
       <path d="M 0 0 
L 0 3.5 
" id="m52ed35f5f0" style="stroke:#000000;stroke-width:0.8;"/>
      </defs>
      <g>
       <use style="stroke:#000000;stroke-width:0.8;" x="39.605327" xlink:href="#m52ed35f5f0" y="225.42"/>
      </g>
     </g>
     <g id="text_1">
      <!-- 284 -->
      <defs>
       <path d="M 19.1875 8.296875 
L 53.609375 8.296875 
L 53.609375 0 
L 7.328125 0 
L 7.328125 8.296875 
Q 12.9375 14.109375 22.625 23.890625 
Q 32.328125 33.6875 34.8125 36.53125 
Q 39.546875 41.84375 41.421875 45.53125 
Q 43.3125 49.21875 43.3125 52.78125 
Q 43.3125 58.59375 39.234375 62.25 
Q 35.15625 65.921875 28.609375 65.921875 
Q 23.96875 65.921875 18.8125 64.3125 
Q 13.671875 62.703125 7.8125 59.421875 
L 7.8125 69.390625 
Q 13.765625 71.78125 18.9375 73 
Q 24.125 74.21875 28.421875 74.21875 
Q 39.75 74.21875 46.484375 68.546875 
Q 53.21875 62.890625 53.21875 53.421875 
Q 53.21875 48.921875 51.53125 44.890625 
Q 49.859375 40.875 45.40625 35.40625 
Q 44.1875 33.984375 37.640625 27.21875 
Q 31.109375 20.453125 19.1875 8.296875 
z
" id="DejaVuSans-32"/>
       <path d="M 31.78125 34.625 
Q 24.75 34.625 20.71875 30.859375 
Q 16.703125 27.09375 16.703125 20.515625 
Q 16.703125 13.921875 20.71875 10.15625 
Q 24.75 6.390625 31.78125 6.390625 
Q 38.8125 6.390625 42.859375 10.171875 
Q 46.921875 13.96875 46.921875 20.515625 
Q 46.921875 27.09375 42.890625 30.859375 
Q 38.875 34.625 31.78125 34.625 
z
M 21.921875 38.8125 
Q 15.578125 40.375 12.03125 44.71875 
Q 8.5 49.078125 8.5 55.328125 
Q 8.5 64.0625 14.71875 69.140625 
Q 20.953125 74.21875 31.78125 74.21875 
Q 42.671875 74.21875 48.875 69.140625 
Q 55.078125 64.0625 55.078125 55.328125 
Q 55.078125 49.078125 51.53125 44.71875 
Q 48 40.375 41.703125 38.8125 
Q 48.828125 37.15625 52.796875 32.3125 
Q 56.78125 27.484375 56.78125 20.515625 
Q 56.78125 9.90625 50.3125 4.234375 
Q 43.84375 -1.421875 31.78125 -1.421875 
Q 19.734375 -1.421875 13.25 4.234375 
Q 6.78125 9.90625 6.78125 20.515625 
Q 6.78125 27.484375 10.78125 32.3125 
Q 14.796875 37.15625 21.921875 38.8125 
z
M 18.3125 54.390625 
Q 18.3125 48.734375 21.84375 45.5625 
Q 25.390625 42.390625 31.78125 42.390625 
Q 38.140625 42.390625 41.71875 45.5625 
Q 45.3125 48.734375 45.3125 54.390625 
Q 45.3125 60.0625 41.71875 63.234375 
Q 38.140625 66.40625 31.78125 66.40625 
Q 25.390625 66.40625 21.84375 63.234375 
Q 18.3125 60.0625 18.3125 54.390625 
z
" id="DejaVuSans-38"/>
       <path d="M 37.796875 64.3125 
L 12.890625 25.390625 
L 37.796875 25.390625 
z
M 35.203125 72.90625 
L 47.609375 72.90625 
L 47.609375 25.390625 
L 58.015625 25.390625 
L 58.015625 17.1875 
L 47.609375 17.1875 
L 47.609375 0 
L 37.796875 0 
L 37.796875 17.1875 
L 4.890625 17.1875 
L 4.890625 26.703125 
z
" id="DejaVuSans-34"/>
      </defs>
      <g transform="translate(30.061577 240.018438)scale(0.1 -0.1)">
       <use xlink:href="#DejaVuSans-32"/>
       <use x="63.623047" xlink:href="#DejaVuSans-38"/>
       <use x="127.246094" xlink:href="#DejaVuSans-34"/>
      </g>
     </g>
    </g>
    <g id="xtick_2">
     <g id="line2d_2">
      <g>
       <use style="stroke:#000000;stroke-width:0.8;" x="80.679202" xlink:href="#m52ed35f5f0" y="225.42"/>
      </g>
     </g>
     <g id="text_2">
      <!-- 285 -->
      <defs>
       <path d="M 10.796875 72.90625 
L 49.515625 72.90625 
L 49.515625 64.59375 
L 19.828125 64.59375 
L 19.828125 46.734375 
Q 21.96875 47.46875 24.109375 47.828125 
Q 26.265625 48.1875 28.421875 48.1875 
Q 40.625 48.1875 47.75 41.5 
Q 54.890625 34.8125 54.890625 23.390625 
Q 54.890625 11.625 47.5625 5.09375 
Q 40.234375 -1.421875 26.90625 -1.421875 
Q 22.3125 -1.421875 17.546875 -0.640625 
Q 12.796875 0.140625 7.71875 1.703125 
L 7.71875 11.625 
Q 12.109375 9.234375 16.796875 8.0625 
Q 21.484375 6.890625 26.703125 6.890625 
Q 35.15625 6.890625 40.078125 11.328125 
Q 45.015625 15.765625 45.015625 23.390625 
Q 45.015625 31 40.078125 35.4375 
Q 35.15625 39.890625 26.703125 39.890625 
Q 22.75 39.890625 18.8125 39.015625 
Q 14.890625 38.140625 10.796875 36.28125 
z
" id="DejaVuSans-35"/>
      </defs>
      <g transform="translate(71.135452 240.018438)scale(0.1 -0.1)">
       <use xlink:href="#DejaVuSans-32"/>
       <use x="63.623047" xlink:href="#DejaVuSans-38"/>
       <use x="127.246094" xlink:href="#DejaVuSans-35"/>
      </g>
     </g>
    </g>
    <g id="xtick_3">
     <g id="line2d_3">
      <g>
       <use style="stroke:#000000;stroke-width:0.8;" x="121.753076" xlink:href="#m52ed35f5f0" y="225.42"/>
      </g>
     </g>
     <g id="text_3">
      <!-- 286 -->
      <defs>
       <path d="M 33.015625 40.375 
Q 26.375 40.375 22.484375 35.828125 
Q 18.609375 31.296875 18.609375 23.390625 
Q 18.609375 15.53125 22.484375 10.953125 
Q 26.375 6.390625 33.015625 6.390625 
Q 39.65625 6.390625 43.53125 10.953125 
Q 47.40625 15.53125 47.40625 23.390625 
Q 47.40625 31.296875 43.53125 35.828125 
Q 39.65625 40.375 33.015625 40.375 
z
M 52.59375 71.296875 
L 52.59375 62.3125 
Q 48.875 64.0625 45.09375 64.984375 
Q 41.3125 65.921875 37.59375 65.921875 
Q 27.828125 65.921875 22.671875 59.328125 
Q 17.53125 52.734375 16.796875 39.40625 
Q 19.671875 43.65625 24.015625 45.921875 
Q 28.375 48.1875 33.59375 48.1875 
Q 44.578125 48.1875 50.953125 41.515625 
Q 57.328125 34.859375 57.328125 23.390625 
Q 57.328125 12.15625 50.6875 5.359375 
Q 44.046875 -1.421875 33.015625 -1.421875 
Q 20.359375 -1.421875 13.671875 8.265625 
Q 6.984375 17.96875 6.984375 36.375 
Q 6.984375 53.65625 15.1875 63.9375 
Q 23.390625 74.21875 37.203125 74.21875 
Q 40.921875 74.21875 44.703125 73.484375 
Q 48.484375 72.75 52.59375 71.296875 
z
" id="DejaVuSans-36"/>
      </defs>
      <g transform="translate(112.209326 240.018438)scale(0.1 -0.1)">
       <use xlink:href="#DejaVuSans-32"/>
       <use x="63.623047" xlink:href="#DejaVuSans-38"/>
       <use x="127.246094" xlink:href="#DejaVuSans-36"/>
      </g>
     </g>
    </g>
    <g id="xtick_4">
     <g id="line2d_4">
      <g>
       <use style="stroke:#000000;stroke-width:0.8;" x="162.826951" xlink:href="#m52ed35f5f0" y="225.42"/>
      </g>
     </g>
     <g id="text_4">
      <!-- 287 -->
      <defs>
       <path d="M 8.203125 72.90625 
L 55.078125 72.90625 
L 55.078125 68.703125 
L 28.609375 0 
L 18.3125 0 
L 43.21875 64.59375 
L 8.203125 64.59375 
z
" id="DejaVuSans-37"/>
      </defs>
      <g transform="translate(153.283201 240.018438)scale(0.1 -0.1)">
       <use xlink:href="#DejaVuSans-32"/>
       <use x="63.623047" xlink:href="#DejaVuSans-38"/>
       <use x="127.246094" xlink:href="#DejaVuSans-37"/>
      </g>
     </g>
    </g>
    <g id="xtick_5">
     <g id="line2d_5">
      <g>
       <use style="stroke:#000000;stroke-width:0.8;" x="203.900826" xlink:href="#m52ed35f5f0" y="225.42"/>
      </g>
     </g>
     <g id="text_5">
      <!-- 288 -->
      <g transform="translate(194.357076 240.018438)scale(0.1 -0.1)">
       <use xlink:href="#DejaVuSans-32"/>
       <use x="63.623047" xlink:href="#DejaVuSans-38"/>
       <use x="127.246094" xlink:href="#DejaVuSans-38"/>
      </g>
     </g>
    </g>
    <g id="xtick_6">
     <g id="line2d_6">
      <g>
       <use style="stroke:#000000;stroke-width:0.8;" x="244.974701" xlink:href="#m52ed35f5f0" y="225.42"/>
      </g>
     </g>
     <g id="text_6">
      <!-- 289 -->
      <defs>
       <path d="M 10.984375 1.515625 
L 10.984375 10.5 
Q 14.703125 8.734375 18.5 7.8125 
Q 22.3125 6.890625 25.984375 6.890625 
Q 35.75 6.890625 40.890625 13.453125 
Q 46.046875 20.015625 46.78125 33.40625 
Q 43.953125 29.203125 39.59375 26.953125 
Q 35.25 24.703125 29.984375 24.703125 
Q 19.046875 24.703125 12.671875 31.3125 
Q 6.296875 37.9375 6.296875 49.421875 
Q 6.296875 60.640625 12.9375 67.421875 
Q 19.578125 74.21875 30.609375 74.21875 
Q 43.265625 74.21875 49.921875 64.515625 
Q 56.59375 54.828125 56.59375 36.375 
Q 56.59375 19.140625 48.40625 8.859375 
Q 40.234375 -1.421875 26.421875 -1.421875 
Q 22.703125 -1.421875 18.890625 -0.6875 
Q 15.09375 0.046875 10.984375 1.515625 
z
M 30.609375 32.421875 
Q 37.25 32.421875 41.125 36.953125 
Q 45.015625 41.5 45.015625 49.421875 
Q 45.015625 57.28125 41.125 61.84375 
Q 37.25 66.40625 30.609375 66.40625 
Q 23.96875 66.40625 20.09375 61.84375 
Q 16.21875 57.28125 16.21875 49.421875 
Q 16.21875 41.5 20.09375 36.953125 
Q 23.96875 32.421875 30.609375 32.421875 
z
" id="DejaVuSans-39"/>
      </defs>
      <g transform="translate(235.430951 240.018438)scale(0.1 -0.1)">
       <use xlink:href="#DejaVuSans-32"/>
       <use x="63.623047" xlink:href="#DejaVuSans-38"/>
       <use x="127.246094" xlink:href="#DejaVuSans-39"/>
      </g>
     </g>
    </g>
    <g id="text_7">
     <!-- binding energy / eV -->
     <defs>
      <path d="M 48.6875 27.296875 
Q 48.6875 37.203125 44.609375 42.84375 
Q 40.53125 48.484375 33.40625 48.484375 
Q 26.265625 48.484375 22.1875 42.84375 
Q 18.109375 37.203125 18.109375 27.296875 
Q 18.109375 17.390625 22.1875 11.75 
Q 26.265625 6.109375 33.40625 6.109375 
Q 40.53125 6.109375 44.609375 11.75 
Q 48.6875 17.390625 48.6875 27.296875 
z
M 18.109375 46.390625 
Q 20.953125 51.265625 25.265625 53.625 
Q 29.59375 56 35.59375 56 
Q 45.5625 56 51.78125 48.09375 
Q 58.015625 40.1875 58.015625 27.296875 
Q 58.015625 14.40625 51.78125 6.484375 
Q 45.5625 -1.421875 35.59375 -1.421875 
Q 29.59375 -1.421875 25.265625 0.953125 
Q 20.953125 3.328125 18.109375 8.203125 
L 18.109375 0 
L 9.078125 0 
L 9.078125 75.984375 
L 18.109375 75.984375 
z
" id="DejaVuSans-62"/>
      <path d="M 9.421875 54.6875 
L 18.40625 54.6875 
L 18.40625 0 
L 9.421875 0 
z
M 9.421875 75.984375 
L 18.40625 75.984375 
L 18.40625 64.59375 
L 9.421875 64.59375 
z
" id="DejaVuSans-69"/>
      <path d="M 54.890625 33.015625 
L 54.890625 0 
L 45.90625 0 
L 45.90625 32.71875 
Q 45.90625 40.484375 42.875 44.328125 
Q 39.84375 48.1875 33.796875 48.1875 
Q 26.515625 48.1875 22.3125 43.546875 
Q 18.109375 38.921875 18.109375 30.90625 
L 18.109375 0 
L 9.078125 0 
L 9.078125 54.6875 
L 18.109375 54.6875 
L 18.109375 46.1875 
Q 21.34375 51.125 25.703125 53.5625 
Q 30.078125 56 35.796875 56 
Q 45.21875 56 50.046875 50.171875 
Q 54.890625 44.34375 54.890625 33.015625 
z
" id="DejaVuSans-6e"/>
      <path d="M 45.40625 46.390625 
L 45.40625 75.984375 
L 54.390625 75.984375 
L 54.390625 0 
L 45.40625 0 
L 45.40625 8.203125 
Q 42.578125 3.328125 38.25 0.953125 
Q 33.9375 -1.421875 27.875 -1.421875 
Q 17.96875 -1.421875 11.734375 6.484375 
Q 5.515625 14.40625 5.515625 27.296875 
Q 5.515625 40.1875 11.734375 48.09375 
Q 17.96875 56 27.875 56 
Q 33.9375 56 38.25 53.625 
Q 42.578125 51.265625 45.40625 46.390625 
z
M 14.796875 27.296875 
Q 14.796875 17.390625 18.875 11.75 
Q 22.953125 6.109375 30.078125 6.109375 
Q 37.203125 6.109375 41.296875 11.75 
Q 45.40625 17.390625 45.40625 27.296875 
Q 45.40625 37.203125 41.296875 42.84375 
Q 37.203125 48.484375 30.078125 48.484375 
Q 22.953125 48.484375 18.875 42.84375 
Q 14.796875 37.203125 14.796875 27.296875 
z
" id="DejaVuSans-64"/>
      <path d="M 45.40625 27.984375 
Q 45.40625 37.75 41.375 43.109375 
Q 37.359375 48.484375 30.078125 48.484375 
Q 22.859375 48.484375 18.828125 43.109375 
Q 14.796875 37.75 14.796875 27.984375 
Q 14.796875 18.265625 18.828125 12.890625 
Q 22.859375 7.515625 30.078125 7.515625 
Q 37.359375 7.515625 41.375 12.890625 
Q 45.40625 18.265625 45.40625 27.984375 
z
M 54.390625 6.78125 
Q 54.390625 -7.171875 48.1875 -13.984375 
Q 42 -20.796875 29.203125 -20.796875 
Q 24.46875 -20.796875 20.265625 -20.09375 
Q 16.0625 -19.390625 12.109375 -17.921875 
L 12.109375 -9.1875 
Q 16.0625 -11.328125 19.921875 -12.34375 
Q 23.78125 -13.375 27.78125 -13.375 
Q 36.625 -13.375 41.015625 -8.765625 
Q 45.40625 -4.15625 45.40625 5.171875 
L 45.40625 9.625 
Q 42.625 4.78125 38.28125 2.390625 
Q 33.9375 0 27.875 0 
Q 17.828125 0 11.671875 7.65625 
Q 5.515625 15.328125 5.515625 27.984375 
Q 5.515625 40.671875 11.671875 48.328125 
Q 17.828125 56 27.875 56 
Q 33.9375 56 38.28125 53.609375 
Q 42.625 51.21875 45.40625 46.390625 
L 45.40625 54.6875 
L 54.390625 54.6875 
z
" id="DejaVuSans-67"/>
      <path id="DejaVuSans-20"/>
      <path d="M 56.203125 29.59375 
L 56.203125 25.203125 
L 14.890625 25.203125 
Q 15.484375 15.921875 20.484375 11.0625 
Q 25.484375 6.203125 34.421875 6.203125 
Q 39.59375 6.203125 44.453125 7.46875 
Q 49.3125 8.734375 54.109375 11.28125 
L 54.109375 2.78125 
Q 49.265625 0.734375 44.1875 -0.34375 
Q 39.109375 -1.421875 33.890625 -1.421875 
Q 20.796875 -1.421875 13.15625 6.1875 
Q 5.515625 13.8125 5.515625 26.8125 
Q 5.515625 40.234375 12.765625 48.109375 
Q 20.015625 56 32.328125 56 
Q 43.359375 56 49.78125 48.890625 
Q 56.203125 41.796875 56.203125 29.59375 
z
M 47.21875 32.234375 
Q 47.125 39.59375 43.09375 43.984375 
Q 39.0625 48.390625 32.421875 48.390625 
Q 24.90625 48.390625 20.390625 44.140625 
Q 15.875 39.890625 15.1875 32.171875 
z
" id="DejaVuSans-65"/>
      <path d="M 41.109375 46.296875 
Q 39.59375 47.171875 37.8125 47.578125 
Q 36.03125 48 33.890625 48 
Q 26.265625 48 22.1875 43.046875 
Q 18.109375 38.09375 18.109375 28.8125 
L 18.109375 0 
L 9.078125 0 
L 9.078125 54.6875 
L 18.109375 54.6875 
L 18.109375 46.1875 
Q 20.953125 51.171875 25.484375 53.578125 
Q 30.03125 56 36.53125 56 
Q 37.453125 56 38.578125 55.875 
Q 39.703125 55.765625 41.0625 55.515625 
z
" id="DejaVuSans-72"/>
      <path d="M 32.171875 -5.078125 
Q 28.375 -14.84375 24.75 -17.8125 
Q 21.140625 -20.796875 15.09375 -20.796875 
L 7.90625 -20.796875 
L 7.90625 -13.28125 
L 13.1875 -13.28125 
Q 16.890625 -13.28125 18.9375 -11.515625 
Q 21 -9.765625 23.484375 -3.21875 
L 25.09375 0.875 
L 2.984375 54.6875 
L 12.5 54.6875 
L 29.59375 11.921875 
L 46.6875 54.6875 
L 56.203125 54.6875 
z
" id="DejaVuSans-79"/>
      <path d="M 25.390625 72.90625 
L 33.6875 72.90625 
L 8.296875 -9.28125 
L 0 -9.28125 
z
" id="DejaVuSans-2f"/>
      <path d="M 28.609375 0 
L 0.78125 72.90625 
L 11.078125 72.90625 
L 34.1875 11.53125 
L 57.328125 72.90625 
L 67.578125 72.90625 
L 39.796875 0 
z
" id="DejaVuSans-56"/>
     </defs>
     <g transform="translate(87.417947 253.696562)scale(0.1 -0.1)">
      <use xlink:href="#DejaVuSans-62"/>
      <use x="63.476562" xlink:href="#DejaVuSans-69"/>
      <use x="91.259766" xlink:href="#DejaVuSans-6e"/>
      <use x="154.638672" xlink:href="#DejaVuSans-64"/>
      <use x="218.115234" xlink:href="#DejaVuSans-69"/>
      <use x="245.898438" xlink:href="#DejaVuSans-6e"/>
      <use x="309.277344" xlink:href="#DejaVuSans-67"/>
      <use x="372.753906" xlink:href="#DejaVuSans-20"/>
      <use x="404.541016" xlink:href="#DejaVuSans-65"/>
      <use x="466.064453" xlink:href="#DejaVuSans-6e"/>
      <use x="529.443359" xlink:href="#DejaVuSans-65"/>
      <use x="590.966797" xlink:href="#DejaVuSans-72"/>
      <use x="632.064453" xlink:href="#DejaVuSans-67"/>
      <use x="695.541016" xlink:href="#DejaVuSans-79"/>
      <use x="754.720703" xlink:href="#DejaVuSans-20"/>
      <use x="786.507812" xlink:href="#DejaVuSans-2f"/>
      <use x="820.199219" xlink:href="#DejaVuSans-20"/>
      <use x="851.986328" xlink:href="#DejaVuSans-65"/>
      <use x="913.509766" xlink:href="#DejaVuSans-56"/>
     </g>
    </g>
   </g>
   <g id="matplotlib.axis_2">
    <g id="text_8">
     <!-- intensity -->
     <defs>
      <path d="M 18.3125 70.21875 
L 18.3125 54.6875 
L 36.8125 54.6875 
L 36.8125 47.703125 
L 18.3125 47.703125 
L 18.3125 18.015625 
Q 18.3125 11.328125 20.140625 9.421875 
Q 21.96875 7.515625 27.59375 7.515625 
L 36.8125 7.515625 
L 36.8125 0 
L 27.59375 0 
Q 17.1875 0 13.234375 3.875 
Q 9.28125 7.765625 9.28125 18.015625 
L 9.28125 47.703125 
L 2.6875 47.703125 
L 2.6875 54.6875 
L 9.28125 54.6875 
L 9.28125 70.21875 
z
" id="DejaVuSans-74"/>
      <path d="M 44.28125 53.078125 
L 44.28125 44.578125 
Q 40.484375 46.53125 36.375 47.5 
Q 32.28125 48.484375 27.875 48.484375 
Q 21.1875 48.484375 17.84375 46.4375 
Q 14.5 44.390625 14.5 40.28125 
Q 14.5 37.15625 16.890625 35.375 
Q 19.28125 33.59375 26.515625 31.984375 
L 29.59375 31.296875 
Q 39.15625 29.25 43.1875 25.515625 
Q 47.21875 21.78125 47.21875 15.09375 
Q 47.21875 7.46875 41.1875 3.015625 
Q 35.15625 -1.421875 24.609375 -1.421875 
Q 20.21875 -1.421875 15.453125 -0.5625 
Q 10.6875 0.296875 5.421875 2 
L 5.421875 11.28125 
Q 10.40625 8.6875 15.234375 7.390625 
Q 20.0625 6.109375 24.8125 6.109375 
Q 31.15625 6.109375 34.5625 8.28125 
Q 37.984375 10.453125 37.984375 14.40625 
Q 37.984375 18.0625 35.515625 20.015625 
Q 33.0625 21.96875 24.703125 23.78125 
L 21.578125 24.515625 
Q 13.234375 26.265625 9.515625 29.90625 
Q 5.8125 33.546875 5.8125 39.890625 
Q 5.8125 47.609375 11.28125 51.796875 
Q 16.75 56 26.8125 56 
Q 31.78125 56 36.171875 55.265625 
Q 40.578125 54.546875 44.28125 53.078125 
z
" id="DejaVuSans-73"/>
     </defs>
     <g transform="translate(14.798438 139.736562)rotate(-90)scale(0.1 -0.1)">
      <use xlink:href="#DejaVuSans-69"/>
      <use x="27.783203" xlink:href="#DejaVuSans-6e"/>
      <use x="91.162109" xlink:href="#DejaVuSans-74"/>
      <use x="130.371094" xlink:href="#DejaVuSans-65"/>
      <use x="191.894531" xlink:href="#DejaVuSans-6e"/>
      <use x="255.273438" xlink:href="#DejaVuSans-73"/>
      <use x="307.373047" xlink:href="#DejaVuSans-69"/>
      <use x="335.15625" xlink:href="#DejaVuSans-74"/>
      <use x="374.365234" xlink:href="#DejaVuSans-79"/>
     </g>
    </g>
   </g>
   <g id="line2d_7">
    <path clip-path="url(#p226677cfa6)" d="M 31.390552 181.457799 
L 35.881423 180.850655 
L 39.474119 180.168988 
L 43.066816 179.282385 
L 46.659512 178.173201 
L 50.252209 176.840817 
L 54.743079 174.898309 
L 61.030298 171.866403 
L 66.419343 169.320507 
L 70.012039 167.85645 
L 72.706562 166.96472 
L 75.401084 166.297726 
L 78.095606 165.888445 
L 80.790129 165.757579 
L 83.484651 165.911819 
L 86.179174 166.343283 
L 88.873696 167.030176 
L 91.568218 167.938622 
L 95.160915 169.418941 
L 100.54996 171.975234 
L 107.735353 175.40743 
L 112.226223 177.279289 
L 115.81892 178.543314 
L 119.411616 179.582112 
L 123.004313 180.402315 
L 126.597009 181.025516 
L 131.08788 181.573575 
L 136.476925 181.976539 
L 143.662318 182.240672 
L 154.440407 182.365265 
L 185.876501 182.391524 
L 211.025377 182.391557 
L 211.025377 182.391557 
" style="fill:none;stroke:#377eb8;stroke-dasharray:1.5,0;stroke-dashoffset:0;stroke-width:1.5;"/>
   </g>
   <g id="line2d_8">
    <path clip-path="url(#p226677cfa6)" d="M 31.390552 182.391556 
L 83.484651 182.291445 
L 91.568218 182.065355 
L 96.957263 181.733742 
L 101.448134 181.271841 
L 105.939004 180.574597 
L 109.531701 179.805829 
L 113.124397 178.822698 
L 116.717094 177.614228 
L 120.30979 176.189297 
L 124.800661 174.158413 
L 136.476925 168.64427 
L 140.069621 167.308758 
L 142.764143 166.544139 
L 145.458666 166.024939 
L 148.153188 165.77721 
L 150.847711 165.813583 
L 153.542233 166.132194 
L 156.236755 166.716849 
L 158.931278 167.538382 
L 162.523974 168.932452 
L 167.014845 170.993732 
L 176.89476 175.709736 
L 181.385631 177.53592 
L 184.978327 178.75764 
L 188.571024 179.753932 
L 192.16372 180.534779 
L 196.654591 181.244715 
L 201.145462 181.716283 
L 206.534506 182.055789 
L 211.025377 182.213595 
L 211.025377 182.213595 
" style="fill:none;stroke:#ff7f00;stroke-dasharray:1.5,0;stroke-dashoffset:0;stroke-width:1.5;"/>
   </g>
   <g id="line2d_9">
    <path clip-path="url(#p226677cfa6)" d="M 31.390552 182.391557 
L 96.059089 182.291521 
L 104.142656 182.065573 
L 109.531701 181.73414 
L 114.022571 181.27246 
L 118.513442 180.575507 
L 122.106139 179.807017 
L 125.698835 178.824188 
L 129.291532 177.616024 
L 132.884228 176.19137 
L 137.375099 174.160737 
L 149.051362 168.646291 
L 152.644059 167.310347 
L 155.338581 166.545314 
L 158.033104 166.025641 
L 160.727626 165.777404 
L 163.422148 165.813258 
L 166.116671 166.131368 
L 168.811193 166.715563 
L 171.505715 167.5367 
L 175.098412 168.930367 
L 179.589283 170.991373 
L 189.469198 175.707587 
L 193.960069 177.534106 
L 197.552765 178.756131 
L 201.145462 179.752727 
L 204.738158 180.533853 
L 209.229029 181.244084 
L 211.025377 181.457799 
L 211.025377 181.457799 
" style="fill:none;stroke:#4daf4a;stroke-dasharray:1.5,0;stroke-dashoffset:0;stroke-width:1.5;"/>
   </g>
   <g id="line2d_10">
    <path clip-path="url(#p226677cfa6)" d="M 31.390552 182.391513 
L 70.012039 182.287279 
L 78.095606 182.053487 
L 83.484651 181.71209 
L 87.975522 181.23821 
L 92.466392 180.525246 
L 96.059089 179.741525 
L 99.651785 178.742109 
L 103.244482 177.517254 
L 106.837178 176.077524 
L 111.328049 174.033419 
L 123.004313 168.536548 
L 126.597009 167.2245 
L 129.291532 166.482295 
L 131.986054 165.988582 
L 134.680576 165.768186 
L 137.375099 165.832353 
L 140.069621 166.1778 
L 142.764143 166.786989 
L 145.458666 167.629607 
L 149.051362 169.044972 
L 153.542233 171.120545 
L 163.422148 175.824557 
L 167.014845 177.296618 
L 170.607541 178.55784 
L 174.200238 179.593798 
L 177.792934 180.411354 
L 181.385631 181.032249 
L 185.876501 181.578 
L 191.265546 181.979023 
L 198.450939 182.241691 
L 209.229029 182.365472 
L 211.025377 182.372581 
L 211.025377 182.372581 
" style="fill:none;stroke:#f781bf;stroke-dasharray:1.5,0;stroke-dashoffset:0;stroke-width:1.5;"/>
   </g>
   <g id="line2d_11">
    <path clip-path="url(#p226677cfa6)" d="M 31.390552 182.391516 
L 70.012039 182.292287 
L 78.095606 182.067765 
L 83.484651 181.738148 
L 87.975522 181.278697 
L 92.466392 180.58468 
L 96.059089 179.818989 
L 99.651785 178.839219 
L 103.244482 177.634145 
L 106.837178 176.212298 
L 111.328049 174.184204 
L 123.004313 168.66673 
L 126.597009 167.326437 
L 129.291532 166.557226 
L 131.986054 166.032783 
L 134.680576 165.779415 
L 137.375099 165.810035 
L 140.069621 166.123075 
L 142.764143 166.702619 
L 145.458666 167.519743 
L 149.051362 168.909331 
L 153.542233 170.967552 
L 164.320322 176.075803 
L 167.913019 177.515759 
L 171.505715 178.740864 
L 175.098412 179.740531 
L 178.691108 180.524482 
L 183.181979 181.237689 
L 187.67285 181.711753 
L 193.061894 182.053302 
L 200.247287 182.271734 
L 211.025377 182.371475 
L 211.025377 182.371475 
" style="fill:none;stroke:#a65628;stroke-dasharray:1.5,0;stroke-dashoffset:0;stroke-width:1.5;"/>
   </g>
   <g id="line2d_12">
    <path clip-path="url(#p226677cfa6)" d="M 31.390552 182.391551 
L 77.197432 182.290343 
L 85.280999 182.06221 
L 90.670044 181.727996 
L 95.160915 181.262905 
L 99.651785 180.561469 
L 103.244482 179.788705 
L 106.837178 178.801214 
L 110.429875 177.588348 
L 114.022571 176.159431 
L 118.513442 174.12496 
L 130.189706 168.615256 
L 133.782402 167.285976 
L 136.476925 166.527331 
L 139.171447 166.014939 
L 141.865969 165.774526 
L 144.560492 165.818351 
L 147.255014 166.144171 
L 149.949536 166.73543 
L 152.644059 167.562654 
L 156.236755 168.962492 
L 160.727626 171.027683 
L 170.607541 175.740603 
L 175.098412 177.561969 
L 178.691108 178.779299 
L 182.283805 179.771223 
L 185.876501 180.548055 
L 190.367372 181.253768 
L 194.858243 181.722115 
L 200.247287 182.058988 
L 207.43268 182.273998 
L 211.025377 182.324799 
L 211.025377 182.324799 
" style="fill:none;stroke:#984ea3;stroke-dasharray:1.5,0;stroke-dashoffset:0;stroke-width:1.5;"/>
   </g>
   <g id="line2d_13">
    <path clip-path="url(#p226677cfa6)" d="M 31.390552 181.457705 
L 35.881423 180.850375 
L 39.474119 180.168339 
L 43.066816 179.280926 
L 46.659512 178.170017 
L 50.252209 176.834072 
L 54.743079 174.881785 
L 61.030298 171.81284 
L 67.317517 168.771881 
L 70.910213 167.253896 
L 74.50291 166.002891 
L 77.197432 165.269054 
L 80.790129 164.563636 
L 84.382825 164.117867 
L 93.364567 163.225406 
L 96.059089 162.666278 
L 97.855437 162.126964 
L 99.651785 161.420804 
L 101.448134 160.521529 
L 103.244482 159.406282 
L 105.04083 158.056628 
L 106.837178 156.459485 
L 108.633527 154.607928 
L 110.429875 152.501845 
L 113.124397 148.883208 
L 115.81892 144.765759 
L 118.513442 140.243103 
L 123.004313 132.166284 
L 127.495183 124.086067 
L 130.189706 119.593796 
L 132.884228 115.595533 
L 134.680576 113.28904 
L 136.476925 111.322 
L 138.273273 109.732185 
L 140.069621 108.550045 
L 141.865969 107.797973 
L 143.662318 107.489833 
L 144.560492 107.50418 
L 146.35684 107.868819 
L 148.153188 108.674016 
L 149.949536 109.903878 
L 151.745885 111.535071 
L 153.542233 113.537672 
L 155.338581 115.876166 
L 157.134929 118.510554 
L 159.829452 122.921557 
L 163.422148 129.419475 
L 175.996586 152.93596 
L 178.691108 157.359162 
L 181.385631 161.397034 
L 184.080153 165.016345 
L 186.774676 168.203659 
L 189.469198 170.962604 
L 192.16372 173.310713 
L 194.858243 175.276077 
L 197.552765 176.894068 
L 200.247287 178.204306 
L 202.94181 179.248009 
L 205.636332 180.065825 
L 209.229029 180.870772 
L 211.025377 181.17402 
L 211.025377 181.17402 
" style="fill:none;stroke:#000000;stroke-dasharray:0.5,0;stroke-dashoffset:0;stroke-width:0.5;"/>
   </g>
   <g id="line2d_14">
    <path clip-path="url(#p226677cfa6)" d="M 31.390552 148.189356 
L 36.216732 147.526557 
L 40.077676 146.766567 
L 43.938621 145.765598 
L 47.799565 144.505577 
L 51.660509 142.99322 
L 56.486689 140.811781 
L 68.069522 135.346617 
L 70.96523 134.249369 
L 73.860938 133.380834 
L 76.756647 132.789559 
L 79.652355 132.509673 
L 82.548063 132.557625 
L 85.443771 132.930583 
L 88.339479 133.606713 
L 91.235187 134.547293 
L 94.130896 135.700384 
L 97.99184 137.463424 
L 109.574673 142.941141 
L 113.435617 144.461091 
L 117.296561 145.729425 
L 121.157505 146.73849 
L 125.018449 147.505712 
L 128.879394 148.064186 
L 133.705574 148.529722 
L 139.49699 148.847785 
L 147.218879 149.035721 
L 161.69742 149.116172 
L 224.437763 149.123115 
L 224.437763 149.123115 
" style="fill:none;stroke:#377eb8;stroke-dasharray:4.5,1.5,4.5,1.5;stroke-dashoffset:0;stroke-width:1.5;"/>
   </g>
   <g id="line2d_15">
    <path clip-path="url(#p226677cfa6)" d="M 31.390552 149.122692 
L 60.347634 149.020481 
L 69.034758 148.761321 
L 74.826175 148.364416 
L 79.652355 147.799704 
L 83.513299 147.138271 
L 87.374243 146.249634 
L 91.235187 145.107606 
L 95.096132 143.706559 
L 98.957076 142.070403 
L 104.748492 139.316373 
L 111.505145 136.094324 
L 115.366089 134.524865 
L 118.261797 133.589411 
L 121.157505 132.919382 
L 124.053213 132.553176 
L 126.948922 132.51224 
L 129.84463 132.798989 
L 132.740338 133.396577 
L 135.636046 134.270527 
L 138.531754 135.372031 
L 142.392698 137.09256 
L 155.906003 143.418488 
L 159.766947 144.866128 
L 163.627892 146.056723 
L 167.488836 146.991035 
L 171.34978 147.692149 
L 176.17596 148.29598 
L 181.002141 148.670697 
L 187.758793 148.945943 
L 197.411154 149.084636 
L 221.542055 149.122793 
L 224.437763 149.122949 
L 224.437763 149.122949 
" style="fill:none;stroke:#ff7f00;stroke-dasharray:4.5,1.5,4.5,1.5;stroke-dashoffset:0;stroke-width:1.5;"/>
   </g>
   <g id="line2d_16">
    <path clip-path="url(#p226677cfa6)" d="M 31.390552 149.123115 
L 109.574673 149.021459 
L 118.261797 148.764314 
L 124.053213 148.370054 
L 128.879394 147.808613 
L 132.740338 147.15052 
L 136.601282 146.265756 
L 140.462226 145.127883 
L 144.323171 143.730871 
L 148.184115 142.098098 
L 153.975531 139.346614 
L 160.732184 136.121675 
L 164.593128 134.547293 
L 167.488836 133.606713 
L 170.384544 132.930583 
L 173.280252 132.557625 
L 176.17596 132.509673 
L 179.071669 132.789559 
L 181.967377 133.380834 
L 184.863085 134.249369 
L 187.758793 135.346617 
L 191.619737 137.063526 
L 205.133042 143.393421 
L 208.993986 144.84501 
L 212.854931 146.039772 
L 216.715875 146.97804 
L 220.576819 147.682615 
L 224.437763 148.189356 
L 224.437763 148.189356 
" style="fill:none;stroke:#4daf4a;stroke-dasharray:4.5,1.5,4.5,1.5;stroke-dashoffset:0;stroke-width:1.5;"/>
   </g>
   <g id="line2d_17">
    <path clip-path="url(#p226677cfa6)" d="M 31.390552 149.123112 
L 80.617591 149.024658 
L 89.304715 148.774134 
L 95.096132 148.388596 
L 99.922312 147.837962 
L 103.783256 147.190933 
L 107.6442 146.319029 
L 111.505145 145.194992 
L 115.366089 143.811469 
L 119.227033 142.19008 
L 124.053213 139.919557 
L 132.740338 135.788682 
L 135.636046 134.622746 
L 138.531754 133.665255 
L 141.427462 132.968914 
L 144.323171 132.57352 
L 147.218879 132.502195 
L 150.114587 132.759151 
L 153.010295 133.329273 
L 155.906003 134.179597 
L 158.801711 135.262462 
L 162.662656 136.967027 
L 176.17596 143.309444 
L 180.036905 144.77414 
L 183.897849 145.982796 
L 187.758793 146.934291 
L 191.619737 147.65047 
L 195.480682 148.166723 
L 200.306862 148.59257 
L 206.098278 148.879912 
L 214.785403 149.05809 
L 224.437763 149.110942 
L 224.437763 149.110942 
" style="fill:none;stroke:#f781bf;stroke-dasharray:4.5,1.5,4.5,1.5;stroke-dashoffset:0;stroke-width:1.5;"/>
   </g>
   <g id="line2d_18">
    <path clip-path="url(#p226677cfa6)" d="M 31.390552 149.123112 
L 80.617591 149.024658 
L 89.304715 148.774134 
L 95.096132 148.388596 
L 99.922312 147.837962 
L 103.783256 147.190933 
L 107.6442 146.319029 
L 111.505145 145.194992 
L 115.366089 143.811469 
L 119.227033 142.19008 
L 124.053213 139.919557 
L 132.740338 135.788682 
L 135.636046 134.622746 
L 138.531754 133.665255 
L 141.427462 132.968914 
L 144.323171 132.57352 
L 147.218879 132.502195 
L 150.114587 132.759151 
L 153.010295 133.329273 
L 155.906003 134.179597 
L 158.801711 135.262462 
L 162.662656 136.967027 
L 176.17596 143.309444 
L 180.036905 144.77414 
L 183.897849 145.982796 
L 187.758793 146.934291 
L 191.619737 147.65047 
L 195.480682 148.166723 
L 200.306862 148.59257 
L 206.098278 148.879912 
L 214.785403 149.05809 
L 224.437763 149.110942 
L 224.437763 149.110942 
" style="fill:none;stroke:#a65628;stroke-dasharray:4.5,1.5,4.5,1.5;stroke-dashoffset:0;stroke-width:1.5;"/>
   </g>
   <g id="line2d_19">
    <path clip-path="url(#p226677cfa6)" d="M 31.390552 149.122692 
L 60.347634 149.020481 
L 69.034758 148.761321 
L 74.826175 148.364416 
L 79.652355 147.799704 
L 83.513299 147.138271 
L 87.374243 146.249634 
L 91.235187 145.107606 
L 95.096132 143.706559 
L 98.957076 142.070403 
L 104.748492 139.316373 
L 111.505145 136.094324 
L 115.366089 134.524865 
L 118.261797 133.589411 
L 121.157505 132.919382 
L 124.053213 132.553176 
L 126.948922 132.51224 
L 129.84463 132.798989 
L 132.740338 133.396577 
L 135.636046 134.270527 
L 138.531754 135.372031 
L 142.392698 137.09256 
L 155.906003 143.418488 
L 159.766947 144.866128 
L 163.627892 146.056723 
L 167.488836 146.991035 
L 171.34978 147.692149 
L 176.17596 148.29598 
L 181.002141 148.670697 
L 187.758793 148.945943 
L 197.411154 149.084636 
L 221.542055 149.122793 
L 224.437763 149.122949 
L 224.437763 149.122949 
" style="fill:none;stroke:#984ea3;stroke-dasharray:4.5,1.5,4.5,1.5;stroke-dashoffset:0;stroke-width:1.5;"/>
   </g>
   <g id="line2d_20">
    <path clip-path="url(#p226677cfa6)" d="M 31.390552 148.188506 
L 36.216732 147.524114 
L 40.077676 146.761104 
L 43.938621 145.753805 
L 47.799565 144.480994 
L 51.660509 142.943733 
L 55.521453 141.171903 
L 61.31287 138.215053 
L 69.999994 133.736342 
L 74.826175 131.556721 
L 78.687119 130.043037 
L 84.478535 128.048038 
L 90.269951 125.998616 
L 93.16566 124.765054 
L 96.061368 123.286808 
L 98.957076 121.497832 
L 101.852784 119.353387 
L 104.748492 116.837279 
L 107.6442 113.966438 
L 110.539909 110.792253 
L 115.366089 105.067706 
L 121.157505 98.172953 
L 124.053213 95.034897 
L 126.948922 92.281167 
L 128.879394 90.716288 
L 130.809866 89.401576 
L 132.740338 88.359365 
L 134.67081 87.605799 
L 136.601282 87.150569 
L 138.531754 86.996885 
L 140.462226 87.141684 
L 142.392698 87.576045 
L 144.323171 88.285798 
L 146.253643 89.252281 
L 148.184115 90.453212 
L 150.114587 91.863638 
L 153.010295 94.313556 
L 155.906003 97.0826 
L 159.766947 101.117868 
L 166.5236 108.623473 
L 174.245488 117.164474 
L 180.036905 123.229907 
L 184.863085 127.954962 
L 188.724029 131.468175 
L 192.584973 134.699915 
L 196.445918 137.608868 
L 199.341626 139.557465 
L 202.237334 141.294923 
L 205.133042 142.817073 
L 208.02875 144.125989 
L 210.924458 145.229893 
L 213.820167 146.142434 
L 217.681111 147.092812 
L 221.542055 147.784451 
L 224.437763 148.16468 
L 224.437763 148.16468 
" style="fill:none;stroke:#000000;stroke-dasharray:1.5,0.5,1.5,0.5;stroke-dashoffset:0;stroke-width:0.5;"/>
   </g>
   <g id="line2d_21">
    <path clip-path="url(#p226677cfa6)" d="M 31.390552 114.920914 
L 36.083242 114.280458 
L 39.837394 113.552165 
L 43.591546 112.597613 
L 47.345699 111.398744 
L 51.099851 109.958932 
L 55.792541 107.872325 
L 68.932073 101.730748 
L 71.747688 100.72144 
L 74.563302 99.941938 
L 77.378916 99.433855 
L 80.19453 99.225082 
L 83.010144 99.327249 
L 85.825758 99.734653 
L 88.641372 100.424783 
L 91.456986 101.360385 
L 95.211139 102.904446 
L 99.903829 105.1217 
L 108.350671 109.143868 
L 112.104823 110.695861 
L 115.858975 112.019257 
L 119.613128 113.096872 
L 123.36728 113.936883 
L 127.121432 114.564859 
L 131.814122 115.105164 
L 137.44535 115.489965 
L 144.953655 115.730495 
L 157.154649 115.838458 
L 203.143013 115.854672 
L 219.09816 115.854672 
L 219.09816 115.854672 
" style="fill:none;stroke:#377eb8;stroke-dasharray:4.5,1.5,1.5,1.5;stroke-dashoffset:0;stroke-width:1.5;"/>
   </g>
   <g id="line2d_22">
    <path clip-path="url(#p226677cfa6)" d="M 31.390552 115.853632 
L 56.731079 115.743939 
L 65.177921 115.480485 
L 70.80915 115.087639 
L 75.50184 114.537503 
L 79.255992 113.899534 
L 83.010144 113.047939 
L 86.764296 111.957835 
L 90.518448 110.622148 
L 94.2726 109.059541 
L 98.965291 106.86698 
L 108.350671 102.410863 
L 112.104823 100.958473 
L 114.920437 100.116054 
L 117.736051 99.535634 
L 120.551666 99.248889 
L 123.36728 99.271754 
L 126.182894 99.60295 
L 128.998508 100.224109 
L 131.814122 101.101456 
L 134.629736 102.188855 
L 138.383888 103.870652 
L 151.523421 110.037629 
L 155.277573 111.46569 
L 159.031725 112.651996 
L 162.785877 113.594456 
L 166.540029 114.311997 
L 171.23272 114.941564 
L 175.92541 115.341699 
L 182.495176 115.645067 
L 191.880556 115.805804 
L 212.528393 115.85372 
L 219.09816 115.854452 
L 219.09816 115.854452 
" style="fill:none;stroke:#ff7f00;stroke-dasharray:4.5,1.5,1.5,1.5;stroke-dashoffset:0;stroke-width:1.5;"/>
   </g>
   <g id="line2d_23">
    <path clip-path="url(#p226677cfa6)" d="M 31.390552 115.854672 
L 104.596519 115.747156 
L 113.043361 115.489965 
L 118.674589 115.105164 
L 123.36728 114.564859 
L 127.121432 113.936883 
L 130.875584 113.096872 
L 134.629736 112.019257 
L 138.383888 110.695861 
L 142.13804 109.143868 
L 146.830731 106.959635 
L 156.216111 102.492786 
L 159.970263 101.024056 
L 162.785877 100.165354 
L 165.601491 99.565997 
L 168.417105 99.258639 
L 171.23272 99.260345 
L 174.048334 99.57102 
L 176.863948 100.173418 
L 179.679562 101.034727 
L 182.495176 102.10953 
L 186.249328 103.78058 
L 199.388861 109.958932 
L 203.143013 111.398744 
L 206.897165 112.597613 
L 210.651317 113.552165 
L 214.405469 114.280458 
L 219.09816 114.920914 
L 219.09816 114.920914 
" style="fill:none;stroke:#4daf4a;stroke-dasharray:4.5,1.5,1.5,1.5;stroke-dashoffset:0;stroke-width:1.5;"/>
   </g>
   <g id="line2d_24">
    <path clip-path="url(#p226677cfa6)" d="M 31.390552 115.854656 
L 73.624764 115.756373 
L 82.071606 115.517354 
L 87.702834 115.156088 
L 92.395524 114.644749 
L 96.149677 114.046404 
L 99.903829 113.240973 
L 103.657981 112.200946 
L 107.412133 110.914932 
L 111.166285 109.395753 
L 115.858975 107.238356 
L 126.182894 102.338311 
L 129.937046 100.900789 
L 132.75266 100.073076 
L 135.568274 99.509681 
L 138.383888 99.241397 
L 141.199502 99.28314 
L 144.015117 99.632578 
L 146.830731 100.270348 
L 149.646345 101.161829 
L 153.400497 102.663054 
L 158.093187 104.854983 
L 166.540029 108.901445 
L 170.294182 110.483449 
L 174.048334 111.84187 
L 177.802486 112.95526 
L 181.556638 113.828577 
L 185.31079 114.485376 
L 190.00348 115.054126 
L 195.634709 115.462279 
L 202.204475 115.69937 
L 212.528393 115.82524 
L 219.09816 115.845719 
L 219.09816 115.845719 
" style="fill:none;stroke:#f781bf;stroke-dasharray:4.5,1.5,1.5,1.5;stroke-dashoffset:0;stroke-width:1.5;"/>
   </g>
   <g id="line2d_25">
    <path clip-path="url(#p226677cfa6)" d="M 31.390552 115.854656 
L 73.624764 115.756373 
L 82.071606 115.517354 
L 87.702834 115.156088 
L 92.395524 114.644749 
L 96.149677 114.046404 
L 99.903829 113.240973 
L 103.657981 112.200946 
L 107.412133 110.914932 
L 111.166285 109.395753 
L 115.858975 107.238356 
L 126.182894 102.338311 
L 129.937046 100.900789 
L 132.75266 100.073076 
L 135.568274 99.509681 
L 138.383888 99.241397 
L 141.199502 99.28314 
L 144.015117 99.632578 
L 146.830731 100.270348 
L 149.646345 101.161829 
L 153.400497 102.663054 
L 158.093187 104.854983 
L 166.540029 108.901445 
L 170.294182 110.483449 
L 174.048334 111.84187 
L 177.802486 112.95526 
L 181.556638 113.828577 
L 185.31079 114.485376 
L 190.00348 115.054126 
L 195.634709 115.462279 
L 202.204475 115.69937 
L 212.528393 115.82524 
L 219.09816 115.845719 
L 219.09816 115.845719 
" style="fill:none;stroke:#a65628;stroke-dasharray:4.5,1.5,1.5,1.5;stroke-dashoffset:0;stroke-width:1.5;"/>
   </g>
   <g id="line2d_26">
    <path clip-path="url(#p226677cfa6)" d="M 31.390552 115.853632 
L 56.731079 115.743939 
L 65.177921 115.480485 
L 70.80915 115.087639 
L 75.50184 114.537503 
L 79.255992 113.899534 
L 83.010144 113.047939 
L 86.764296 111.957835 
L 90.518448 110.622148 
L 94.2726 109.059541 
L 98.965291 106.86698 
L 108.350671 102.410863 
L 112.104823 100.958473 
L 114.920437 100.116054 
L 117.736051 99.535634 
L 120.551666 99.248889 
L 123.36728 99.271754 
L 126.182894 99.60295 
L 128.998508 100.224109 
L 131.814122 101.101456 
L 134.629736 102.188855 
L 138.383888 103.870652 
L 151.523421 110.037629 
L 155.277573 111.46569 
L 159.031725 112.651996 
L 162.785877 113.594456 
L 166.540029 114.311997 
L 171.23272 114.941564 
L 175.92541 115.341699 
L 182.495176 115.645067 
L 191.880556 115.805804 
L 212.528393 115.85372 
L 219.09816 115.854452 
L 219.09816 115.854452 
" style="fill:none;stroke:#984ea3;stroke-dasharray:4.5,1.5,1.5,1.5;stroke-dashoffset:0;stroke-width:1.5;"/>
   </g>
   <g id="line2d_27">
    <path clip-path="url(#p226677cfa6)" d="M 31.390552 114.918801 
L 36.083242 114.274814 
L 39.837394 113.540229 
L 43.591546 112.573184 
L 47.345699 111.350363 
L 51.099851 109.866195 
L 54.854003 108.13819 
L 59.546693 105.702068 
L 67.993535 100.9492 
L 75.50184 96.843576 
L 87.702834 90.346623 
L 91.456986 87.96513 
L 94.2726 85.912653 
L 97.088215 83.582651 
L 99.903829 80.952939 
L 102.719443 78.028445 
L 106.473595 73.736961 
L 113.043361 65.6901 
L 116.797513 61.262357 
L 119.613128 58.269187 
L 121.490204 56.504211 
L 123.36728 54.965471 
L 125.244356 53.683841 
L 127.121432 52.684582 
L 128.998508 51.986533 
L 130.875584 51.601567 
L 132.75266 51.534338 
L 134.629736 51.782323 
L 136.506812 52.33615 
L 138.383888 53.180179 
L 140.260964 54.293323 
L 142.13804 55.650039 
L 144.015117 57.221453 
L 146.830731 59.912989 
L 149.646345 62.910106 
L 154.339035 68.30677 
L 164.662953 80.355162 
L 169.355644 85.461878 
L 174.048334 90.244658 
L 178.741024 94.694851 
L 183.433714 98.79497 
L 187.187866 101.795329 
L 190.942018 104.514744 
L 194.696171 106.923252 
L 198.450323 108.999067 
L 201.265937 110.332394 
L 204.081551 111.476949 
L 207.835703 112.724304 
L 211.589855 113.682875 
L 215.344007 114.393845 
L 219.09816 114.902567 
L 219.09816 114.902567 
" style="fill:none;stroke:#000000;stroke-dasharray:1.5,0.5,0.5,0.5;stroke-dashoffset:0;stroke-width:0.5;"/>
   </g>
   <g id="line2d_28">
    <path clip-path="url(#p226677cfa6)" d="M 31.390552 81.652471 
L 36.216732 80.989672 
L 40.077676 80.229682 
L 43.938621 79.228712 
L 47.799565 77.968691 
L 51.660509 76.456334 
L 56.486689 74.274895 
L 68.069522 68.809731 
L 70.96523 67.712484 
L 73.860938 66.843949 
L 76.756647 66.252674 
L 79.652355 65.972788 
L 82.548063 66.020739 
L 85.443771 66.393698 
L 88.339479 67.069828 
L 91.235187 68.010408 
L 94.130896 69.163498 
L 97.99184 70.926539 
L 109.574673 76.404255 
L 113.435617 77.924206 
L 117.296561 79.19254 
L 121.157505 80.201605 
L 125.018449 80.968826 
L 128.879394 81.527301 
L 133.705574 81.992837 
L 139.49699 82.310899 
L 147.218879 82.498836 
L 161.69742 82.579286 
L 224.437763 82.586229 
L 224.437763 82.586229 
" style="fill:none;stroke:#377eb8;stroke-dasharray:1.5,1.5;stroke-dashoffset:0;stroke-width:1.5;"/>
   </g>
   <g id="line2d_29">
    <path clip-path="url(#p226677cfa6)" d="M 31.390552 82.585806 
L 60.347634 82.483595 
L 69.034758 82.224436 
L 74.826175 81.82753 
L 79.652355 81.262819 
L 83.513299 80.601386 
L 87.374243 79.712748 
L 91.235187 78.57072 
L 95.096132 77.169674 
L 98.957076 75.533518 
L 104.748492 72.779487 
L 111.505145 69.557438 
L 115.366089 67.98798 
L 118.261797 67.052525 
L 121.157505 66.382497 
L 124.053213 66.016291 
L 126.948922 65.975354 
L 129.84463 66.262104 
L 132.740338 66.859691 
L 135.636046 67.733641 
L 138.531754 68.835146 
L 142.392698 70.555675 
L 155.906003 76.881602 
L 159.766947 78.329242 
L 163.627892 79.519837 
L 167.488836 80.45415 
L 171.34978 81.155263 
L 176.17596 81.759095 
L 181.002141 82.133812 
L 187.758793 82.409057 
L 197.411154 82.547751 
L 221.542055 82.585907 
L 224.437763 82.586064 
L 224.437763 82.586064 
" style="fill:none;stroke:#ff7f00;stroke-dasharray:1.5,1.5;stroke-dashoffset:0;stroke-width:1.5;"/>
   </g>
   <g id="line2d_30">
    <path clip-path="url(#p226677cfa6)" d="M 31.390552 82.586229 
L 109.574673 82.484573 
L 118.261797 82.227428 
L 124.053213 81.833169 
L 128.879394 81.271727 
L 132.740338 80.613635 
L 136.601282 79.728871 
L 140.462226 78.590997 
L 144.323171 77.193985 
L 148.184115 75.561212 
L 153.975531 72.809729 
L 160.732184 69.584789 
L 164.593128 68.010408 
L 167.488836 67.069828 
L 170.384544 66.393698 
L 173.280252 66.020739 
L 176.17596 65.972788 
L 179.071669 66.252674 
L 181.967377 66.843949 
L 184.863085 67.712484 
L 187.758793 68.809731 
L 191.619737 70.52664 
L 205.133042 76.856535 
L 208.993986 78.308124 
L 212.854931 79.502887 
L 216.715875 80.441155 
L 220.576819 81.145729 
L 224.437763 81.652471 
L 224.437763 81.652471 
" style="fill:none;stroke:#4daf4a;stroke-dasharray:1.5,1.5;stroke-dashoffset:0;stroke-width:1.5;"/>
   </g>
   <g id="line2d_31">
    <path clip-path="url(#p226677cfa6)" d="M 31.390552 82.586227 
L 80.617591 82.487773 
L 89.304715 82.237248 
L 95.096132 81.85171 
L 99.922312 81.301076 
L 103.783256 80.654048 
L 107.6442 79.782143 
L 111.505145 78.658107 
L 115.366089 77.274584 
L 119.227033 75.653195 
L 124.053213 73.382672 
L 132.740338 69.251797 
L 135.636046 68.08586 
L 138.531754 67.128369 
L 141.427462 66.432029 
L 144.323171 66.036635 
L 147.218879 65.96531 
L 150.114587 66.222265 
L 153.010295 66.792387 
L 155.906003 67.642712 
L 158.801711 68.725576 
L 162.662656 70.430141 
L 176.17596 76.772559 
L 180.036905 78.237254 
L 183.897849 79.445911 
L 187.758793 80.397406 
L 191.619737 81.113584 
L 195.480682 81.629838 
L 200.306862 82.055684 
L 206.098278 82.343027 
L 214.785403 82.521204 
L 224.437763 82.574056 
L 224.437763 82.574056 
" style="fill:none;stroke:#f781bf;stroke-dasharray:1.5,1.5;stroke-dashoffset:0;stroke-width:1.5;"/>
   </g>
   <g id="line2d_32">
    <path clip-path="url(#p226677cfa6)" d="M 31.390552 82.586227 
L 80.617591 82.487773 
L 89.304715 82.237248 
L 95.096132 81.85171 
L 99.922312 81.301076 
L 103.783256 80.654048 
L 107.6442 79.782143 
L 111.505145 78.658107 
L 115.366089 77.274584 
L 119.227033 75.653195 
L 124.053213 73.382672 
L 132.740338 69.251797 
L 135.636046 68.08586 
L 138.531754 67.128369 
L 141.427462 66.432029 
L 144.323171 66.036635 
L 147.218879 65.96531 
L 150.114587 66.222265 
L 153.010295 66.792387 
L 155.906003 67.642712 
L 158.801711 68.725576 
L 162.662656 70.430141 
L 176.17596 76.772559 
L 180.036905 78.237254 
L 183.897849 79.445911 
L 187.758793 80.397406 
L 191.619737 81.113584 
L 195.480682 81.629838 
L 200.306862 82.055684 
L 206.098278 82.343027 
L 214.785403 82.521204 
L 224.437763 82.574056 
L 224.437763 82.574056 
" style="fill:none;stroke:#a65628;stroke-dasharray:1.5,1.5;stroke-dashoffset:0;stroke-width:1.5;"/>
   </g>
   <g id="line2d_33">
    <path clip-path="url(#p226677cfa6)" d="M 31.390552 82.585806 
L 60.347634 82.483595 
L 69.034758 82.224436 
L 74.826175 81.82753 
L 79.652355 81.262819 
L 83.513299 80.601386 
L 87.374243 79.712748 
L 91.235187 78.57072 
L 95.096132 77.169674 
L 98.957076 75.533518 
L 104.748492 72.779487 
L 111.505145 69.557438 
L 115.366089 67.98798 
L 118.261797 67.052525 
L 121.157505 66.382497 
L 124.053213 66.016291 
L 126.948922 65.975354 
L 129.84463 66.262104 
L 132.740338 66.859691 
L 135.636046 67.733641 
L 138.531754 68.835146 
L 142.392698 70.555675 
L 155.906003 76.881602 
L 159.766947 78.329242 
L 163.627892 79.519837 
L 167.488836 80.45415 
L 171.34978 81.155263 
L 176.17596 81.759095 
L 181.002141 82.133812 
L 187.758793 82.409057 
L 197.411154 82.547751 
L 221.542055 82.585907 
L 224.437763 82.586064 
L 224.437763 82.586064 
" style="fill:none;stroke:#984ea3;stroke-dasharray:1.5,1.5;stroke-dashoffset:0;stroke-width:1.5;"/>
   </g>
   <g id="line2d_34">
    <path clip-path="url(#p226677cfa6)" d="M 31.390552 81.65162 
L 36.216732 80.987228 
L 40.077676 80.224219 
L 43.938621 79.21692 
L 47.799565 77.944109 
L 51.660509 76.406847 
L 55.521453 74.635017 
L 61.31287 71.678168 
L 69.999994 67.199457 
L 74.826175 65.019835 
L 78.687119 63.506151 
L 84.478535 61.511152 
L 90.269951 59.46173 
L 93.16566 58.228169 
L 96.061368 56.749923 
L 98.957076 54.960946 
L 101.852784 52.816502 
L 104.748492 50.300394 
L 107.6442 47.429553 
L 110.539909 44.255367 
L 115.366089 38.53082 
L 121.157505 31.636067 
L 124.053213 28.498012 
L 126.948922 25.744281 
L 128.879394 24.179402 
L 130.809866 22.864691 
L 132.740338 21.822479 
L 134.67081 21.068913 
L 136.601282 20.613683 
L 138.531754 20.46 
L 140.462226 20.604799 
L 142.392698 21.03916 
L 144.323171 21.748913 
L 146.253643 22.715395 
L 148.184115 23.916327 
L 150.114587 25.326753 
L 153.010295 27.77667 
L 155.906003 30.545715 
L 159.766947 34.580983 
L 166.5236 42.086588 
L 174.245488 50.627588 
L 180.036905 56.693022 
L 184.863085 61.418077 
L 188.724029 64.93129 
L 192.584973 68.16303 
L 196.445918 71.071983 
L 199.341626 73.020579 
L 202.237334 74.758037 
L 205.133042 76.280188 
L 208.02875 77.589104 
L 210.924458 78.693008 
L 213.820167 79.605549 
L 217.681111 80.555926 
L 221.542055 81.247566 
L 224.437763 81.627795 
L 224.437763 81.627795 
" style="fill:none;stroke:#000000;stroke-dasharray:0.5,0.5;stroke-dashoffset:0;stroke-width:0.5;"/>
   </g>
   <g id="line2d_35">
    <path clip-path="url(#p226677cfa6)" d="M 31.390552 214.726242 
L 35.595523 214.165332 
L 39.800494 213.36571 
L 44.005464 212.282894 
L 47.159192 211.269453 
L 51.364163 209.65445 
L 55.569134 207.782654 
L 69.235289 201.417843 
L 72.389017 200.327318 
L 75.542745 199.537996 
L 77.645231 199.206312 
L 79.747716 199.04288 
L 81.850201 199.052797 
L 83.952687 199.235753 
L 86.055172 199.586047 
L 89.2089 200.400371 
L 92.362628 201.511063 
L 95.516356 202.846664 
L 100.77257 205.352957 
L 108.131269 208.852286 
L 112.33624 210.589701 
L 116.54121 212.038747 
L 120.746181 213.179855 
L 124.951152 214.031123 
L 129.156123 214.634129 
L 134.412336 215.117382 
L 140.719792 215.428248 
L 149.129734 215.595632 
L 167.00086 215.657576 
L 241.639091 215.66 
L 241.639091 215.66 
" style="fill:none;stroke:#377eb8;stroke-dasharray:1.5,1.5,1.5,1.5,4.5,1.5;stroke-dashoffset:0;stroke-width:1.5;"/>
   </g>
   <g id="line2d_36">
    <path clip-path="url(#p226677cfa6)" d="M 31.390552 215.66 
L 89.2089 215.550441 
L 97.618842 215.291102 
L 102.875055 214.936463 
L 107.080026 214.4769 
L 111.284997 213.804868 
L 115.489968 212.870533 
L 118.643696 211.975041 
L 122.848667 210.511073 
L 127.053637 208.760878 
L 132.309851 206.283591 
L 139.66855 202.754259 
L 142.822278 201.430928 
L 145.976006 200.33753 
L 149.129734 199.544658 
L 151.232219 199.210337 
L 153.334705 199.044144 
L 155.43719 199.05126 
L 157.539676 199.231463 
L 159.642161 199.579137 
L 162.795889 200.389949 
L 165.949617 201.497818 
L 169.103345 202.831426 
L 174.359559 205.336349 
L 181.718258 208.837291 
L 185.923228 210.576819 
L 190.128199 212.028322 
L 194.33317 213.171876 
L 198.538141 214.025331 
L 202.743111 214.630135 
L 207.999325 215.115039 
L 214.306781 215.427129 
L 222.716723 215.595277 
L 239.536606 215.656977 
L 241.639091 215.658034 
L 241.639091 215.658034 
" style="fill:none;stroke:#ff7f00;stroke-dasharray:1.5,1.5,1.5,1.5,4.5,1.5;stroke-dashoffset:0;stroke-width:1.5;"/>
   </g>
   <g id="line2d_37">
    <path clip-path="url(#p226677cfa6)" d="M 31.390552 215.66 
L 127.053637 215.55387 
L 135.463579 215.301177 
L 140.719792 214.954418 
L 144.924763 214.503892 
L 149.129734 213.84347 
L 153.334705 212.92297 
L 156.488433 212.038747 
L 160.693404 210.589701 
L 164.898374 208.852286 
L 170.154588 206.384074 
L 178.564529 202.381347 
L 181.718258 201.11205 
L 184.871986 200.092884 
L 188.025714 199.390543 
L 190.128199 199.122877 
L 192.230685 199.026061 
L 194.33317 199.103121 
L 196.435655 199.351647 
L 198.538141 199.763922 
L 201.691869 200.660552 
L 204.845597 201.836466 
L 209.050568 203.708758 
L 221.66548 209.65445 
L 225.870451 211.269453 
L 230.075422 212.581937 
L 234.280392 213.590672 
L 238.485363 214.325944 
L 241.639091 214.726242 
L 241.639091 214.726242 
" style="fill:none;stroke:#4daf4a;stroke-dasharray:1.5,1.5,1.5,1.5,4.5,1.5;stroke-dashoffset:0;stroke-width:1.5;"/>
   </g>
   <g id="line2d_38">
    <path clip-path="url(#p226677cfa6)" d="M 31.390552 215.66 
L 96.567599 215.552009 
L 104.977541 215.295704 
L 110.233754 214.944657 
L 114.438725 214.489211 
L 118.643696 213.822462 
L 122.848667 212.894416 
L 126.002395 212.004041 
L 130.207365 210.546838 
L 134.412336 208.802421 
L 139.66855 206.329204 
L 147.027249 202.796111 
L 150.180977 201.46717 
L 153.334705 200.365887 
L 156.488433 199.563252 
L 158.590918 199.22167 
L 160.693404 199.047864 
L 162.795889 199.047251 
L 164.898374 199.219851 
L 167.00086 199.560282 
L 170.154588 200.361371 
L 173.308316 201.461408 
L 176.462044 202.789465 
L 181.718258 205.290526 
L 189.076956 208.79584 
L 193.281927 210.541175 
L 197.486898 211.999451 
L 201.691869 213.149761 
L 205.89684 214.009267 
L 210.10181 214.619046 
L 215.358024 215.10853 
L 221.66548 215.424019 
L 230.075422 215.594291 
L 241.639091 215.651385 
L 241.639091 215.651385 
" style="fill:none;stroke:#f781bf;stroke-dasharray:1.5,1.5,1.5,1.5,4.5,1.5;stroke-dashoffset:0;stroke-width:1.5;"/>
   </g>
   <g id="line2d_39">
    <path clip-path="url(#p226677cfa6)" d="M 31.390552 215.66 
L 95.516356 215.562766 
L 103.926298 215.327544 
L 109.182511 215.001661 
L 114.438725 214.438999 
L 118.643696 213.750823 
L 122.848667 212.797343 
L 126.002395 211.886334 
L 130.207365 210.401954 
L 134.412336 208.634483 
L 139.66855 206.145367 
L 147.027249 202.628395 
L 150.180977 201.322475 
L 153.334705 200.253322 
L 156.488433 199.490284 
L 158.590918 199.178061 
L 160.693404 199.03497 
L 162.795889 199.065475 
L 164.898374 199.268623 
L 167.00086 199.638089 
L 170.154588 200.478032 
L 173.308316 201.609221 
L 177.513287 203.443907 
L 192.230685 210.278989 
L 196.435655 211.785959 
L 200.640626 212.985408 
L 204.845597 213.889305 
L 209.050568 214.535853 
L 213.255538 214.975623 
L 218.511752 215.313038 
L 225.870451 215.53992 
L 238.485363 215.645553 
L 241.639091 215.651978 
L 241.639091 215.651978 
" style="fill:none;stroke:#a65628;stroke-dasharray:1.5,1.5,1.5,1.5,4.5,1.5;stroke-dashoffset:0;stroke-width:1.5;"/>
   </g>
   <g id="line2d_40">
    <path clip-path="url(#p226677cfa6)" d="M 31.390552 215.659982 
L 73.44026 215.558508 
L 81.850201 215.314882 
L 87.106415 214.978926 
L 91.311386 214.54084 
L 95.516356 213.896469 
L 99.721327 212.995186 
L 102.875055 212.126691 
L 107.080026 210.698611 
L 111.284997 208.979363 
L 116.54121 206.524495 
L 124.951152 202.507049 
L 128.10488 201.218702 
L 131.258608 200.173696 
L 134.412336 199.440111 
L 136.514822 199.149575 
L 138.617307 199.029057 
L 140.719792 199.08232 
L 142.822278 199.3077 
L 144.924763 199.698187 
L 148.078491 200.566057 
L 151.232219 201.719391 
L 155.43719 203.572885 
L 169.103345 209.968676 
L 173.308316 211.530719 
L 177.513287 212.787047 
L 181.718258 213.743206 
L 185.923228 214.433647 
L 190.128199 214.907601 
L 195.384413 215.274845 
L 202.743111 215.524884 
L 214.306781 215.639902 
L 241.639091 215.659937 
L 241.639091 215.659937 
" style="fill:none;stroke:#984ea3;stroke-dasharray:1.5,1.5,1.5,1.5,4.5,1.5;stroke-dashoffset:0;stroke-width:1.5;"/>
   </g>
   <g id="line2d_41">
    <path clip-path="url(#p226677cfa6)" d="M 31.390552 214.726224 
L 35.595523 214.165279 
L 39.800494 213.365565 
L 44.005464 212.282509 
L 47.159192 211.268675 
L 51.364163 209.652534 
L 55.569134 207.778124 
L 69.235289 201.36167 
L 72.389017 200.232721 
L 75.542745 199.382176 
L 78.696473 198.852021 
L 81.850201 198.656854 
L 85.003929 198.779488 
L 88.157658 199.169691 
L 92.362628 199.962004 
L 98.670085 201.182912 
L 101.823813 201.524127 
L 103.926298 201.562162 
L 106.028783 201.406747 
L 108.131269 201.026198 
L 110.233754 200.393705 
L 112.33624 199.488208 
L 114.438725 198.29512 
L 116.54121 196.806916 
L 118.643696 195.023569 
L 120.746181 192.952842 
L 122.848667 190.610425 
L 126.002395 186.641109 
L 129.156123 182.227106 
L 133.361094 175.908702 
L 139.66855 166.394392 
L 142.822278 162.062468 
L 144.924763 159.469555 
L 147.027249 157.176231 
L 149.129734 155.229906 
L 151.232219 153.669793 
L 153.334705 152.525442 
L 155.43719 151.815656 
L 157.539676 151.547852 
L 159.642161 151.717936 
L 161.744646 152.310712 
L 163.847132 153.300819 
L 165.949617 154.654137 
L 168.052102 156.329591 
L 170.154588 158.281207 
L 173.308316 161.619786 
L 176.462044 165.305865 
L 182.7695 173.134269 
L 189.076956 180.854453 
L 193.281927 185.694841 
L 197.486898 190.220083 
L 201.691869 194.40957 
L 205.89684 198.248936 
L 210.10181 201.716693 
L 213.255538 204.056366 
L 216.409267 206.158618 
L 219.562995 208.014528 
L 222.716723 209.620881 
L 225.870451 210.981685 
L 229.024179 212.108503 
L 232.177907 213.019677 
L 235.331635 213.738702 
L 239.536606 214.444618 
L 241.639091 214.707576 
L 241.639091 214.707576 
" style="fill:none;stroke:#000000;stroke-dasharray:0.5,0.5,0.5,0.5,1.5,0.5;stroke-dashoffset:0;stroke-width:0.5;"/>
   </g>
   <g id="patch_3">
    <path d="M 20.878125 225.42 
L 20.878125 10.7 
" style="fill:none;stroke:#000000;stroke-linecap:square;stroke-linejoin:miter;stroke-width:0.8;"/>
   </g>
   <g id="patch_4">
    <path d="M 252.151518 225.42 
L 252.151518 10.7 
" style="fill:none;stroke:#000000;stroke-linecap:square;stroke-linejoin:miter;stroke-width:0.8;"/>
   </g>
   <g id="patch_5">
    <path d="M 20.878125 225.42 
L 252.151518 225.42 
" style="fill:none;stroke:#000000;stroke-linecap:square;stroke-linejoin:miter;stroke-width:0.8;"/>
   </g>
   <g id="patch_6">
    <path d="M 20.878125 10.7 
L 252.151518 10.7 
" style="fill:none;stroke:#000000;stroke-linecap:square;stroke-linejoin:miter;stroke-width:0.8;"/>
   </g>
   <g id="text_9">
    <!-- C6 -->
    <defs>
     <path d="M 64.40625 67.28125 
L 64.40625 56.890625 
Q 59.421875 61.53125 53.78125 63.8125 
Q 48.140625 66.109375 41.796875 66.109375 
Q 29.296875 66.109375 22.65625 58.46875 
Q 16.015625 50.828125 16.015625 36.375 
Q 16.015625 21.96875 22.65625 14.328125 
Q 29.296875 6.6875 41.796875 6.6875 
Q 48.140625 6.6875 53.78125 8.984375 
Q 59.421875 11.28125 64.40625 15.921875 
L 64.40625 5.609375 
Q 59.234375 2.09375 53.4375 0.328125 
Q 47.65625 -1.421875 41.21875 -1.421875 
Q 24.65625 -1.421875 15.125 8.703125 
Q 5.609375 18.84375 5.609375 36.375 
Q 5.609375 53.953125 15.125 64.078125 
Q 24.65625 74.21875 41.21875 74.21875 
Q 47.75 74.21875 53.53125 72.484375 
Q 59.328125 70.75 64.40625 67.28125 
z
" id="DejaVuSans-43"/>
    </defs>
    <g style="fill:#377eb8;" transform="translate(76.008342 164.093914)scale(0.07 -0.07)">
     <use xlink:href="#DejaVuSans-43"/>
     <use x="69.824219" xlink:href="#DejaVuSans-36"/>
    </g>
   </g>
   <g id="text_10">
    <!-- C5 -->
    <g style="fill:#ff7f00;" transform="translate(144.486542 164.093914)scale(0.07 -0.07)">
     <use xlink:href="#DejaVuSans-43"/>
     <use x="69.824219" xlink:href="#DejaVuSans-35"/>
    </g>
   </g>
   <g id="text_11">
    <!-- C1 -->
    <defs>
     <path d="M 12.40625 8.296875 
L 28.515625 8.296875 
L 28.515625 63.921875 
L 10.984375 60.40625 
L 10.984375 69.390625 
L 28.421875 72.90625 
L 38.28125 72.90625 
L 38.28125 8.296875 
L 54.390625 8.296875 
L 54.390625 0 
L 12.40625 0 
z
" id="DejaVuSans-31"/>
    </defs>
    <g style="fill:#4daf4a;" transform="translate(157.065868 164.093914)scale(0.07 -0.07)">
     <use xlink:href="#DejaVuSans-43"/>
     <use x="69.824219" xlink:href="#DejaVuSans-31"/>
    </g>
   </g>
   <g id="text_12">
    <!-- C2 -->
    <g style="fill:#f781bf;" transform="translate(130.751603 164.093914)scale(0.07 -0.07)">
     <use xlink:href="#DejaVuSans-43"/>
     <use x="69.824219" xlink:href="#DejaVuSans-32"/>
    </g>
   </g>
   <g id="text_13">
    <!-- C3 -->
    <defs>
     <path d="M 40.578125 39.3125 
Q 47.65625 37.796875 51.625 33 
Q 55.609375 28.21875 55.609375 21.1875 
Q 55.609375 10.40625 48.1875 4.484375 
Q 40.765625 -1.421875 27.09375 -1.421875 
Q 22.515625 -1.421875 17.65625 -0.515625 
Q 12.796875 0.390625 7.625 2.203125 
L 7.625 11.71875 
Q 11.71875 9.328125 16.59375 8.109375 
Q 21.484375 6.890625 26.8125 6.890625 
Q 36.078125 6.890625 40.9375 10.546875 
Q 45.796875 14.203125 45.796875 21.1875 
Q 45.796875 27.640625 41.28125 31.265625 
Q 36.765625 34.90625 28.71875 34.90625 
L 20.21875 34.90625 
L 20.21875 43.015625 
L 29.109375 43.015625 
Q 36.375 43.015625 40.234375 45.921875 
Q 44.09375 48.828125 44.09375 54.296875 
Q 44.09375 59.90625 40.109375 62.90625 
Q 36.140625 65.921875 28.71875 65.921875 
Q 24.65625 65.921875 20.015625 65.03125 
Q 15.375 64.15625 9.8125 62.3125 
L 9.8125 71.09375 
Q 15.4375 72.65625 20.34375 73.4375 
Q 25.25 74.21875 29.59375 74.21875 
Q 40.828125 74.21875 47.359375 69.109375 
Q 53.90625 64.015625 53.90625 55.328125 
Q 53.90625 49.265625 50.4375 45.09375 
Q 46.96875 40.921875 40.578125 39.3125 
z
" id="DejaVuSans-33"/>
    </defs>
    <g style="fill:#a65628;" transform="translate(131.0682 159.103647)scale(0.07 -0.07)">
     <use xlink:href="#DejaVuSans-43"/>
     <use x="69.824219" xlink:href="#DejaVuSans-33"/>
    </g>
   </g>
   <g id="text_14">
    <!-- C4 -->
    <g style="fill:#984ea3;" transform="translate(138.129004 164.093914)scale(0.07 -0.07)">
     <use xlink:href="#DejaVuSans-43"/>
     <use x="69.824219" xlink:href="#DejaVuSans-34"/>
    </g>
   </g>
   <g id="text_15">
    <!-- C6 -->
    <g style="fill:#377eb8;" transform="translate(76.008342 130.825471)scale(0.07 -0.07)">
     <use xlink:href="#DejaVuSans-43"/>
     <use x="69.824219" xlink:href="#DejaVuSans-36"/>
    </g>
   </g>
   <g id="text_16">
    <!-- C5 -->
    <g style="fill:#ff7f00;" transform="translate(121.189604 130.825471)scale(0.07 -0.07)">
     <use xlink:href="#DejaVuSans-43"/>
     <use x="69.824219" xlink:href="#DejaVuSans-35"/>
    </g>
   </g>
   <g id="text_17">
    <!-- C1 -->
    <g style="fill:#4daf4a;" transform="translate(170.478254 130.825471)scale(0.07 -0.07)">
     <use xlink:href="#DejaVuSans-43"/>
     <use x="69.824219" xlink:href="#DejaVuSans-31"/>
    </g>
   </g>
   <g id="text_18">
    <!-- C2 -->
    <g style="fill:#f781bf;" transform="translate(141.726542 130.825471)scale(0.07 -0.07)">
     <use xlink:href="#DejaVuSans-43"/>
     <use x="69.824219" xlink:href="#DejaVuSans-32"/>
    </g>
   </g>
   <g id="text_19">
    <!-- C3 -->
    <g style="fill:#a65628;" transform="translate(141.726542 125.835205)scale(0.07 -0.07)">
     <use xlink:href="#DejaVuSans-43"/>
     <use x="69.824219" xlink:href="#DejaVuSans-33"/>
    </g>
   </g>
   <g id="text_20">
    <!-- C4 -->
    <g style="fill:#984ea3;" transform="translate(121.189604 125.835205)scale(0.07 -0.07)">
     <use xlink:href="#DejaVuSans-43"/>
     <use x="69.824219" xlink:href="#DejaVuSans-34"/>
    </g>
   </g>
   <g id="text_21">
    <!-- C6 -->
    <g style="fill:#377eb8;" transform="translate(76.008342 97.557028)scale(0.07 -0.07)">
     <use xlink:href="#DejaVuSans-43"/>
     <use x="69.824219" xlink:href="#DejaVuSans-36"/>
    </g>
   </g>
   <g id="text_22">
    <!-- C5 -->
    <g style="fill:#ff7f00;" transform="translate(117.082217 97.557028)scale(0.07 -0.07)">
     <use xlink:href="#DejaVuSans-43"/>
     <use x="69.824219" xlink:href="#DejaVuSans-35"/>
    </g>
   </g>
   <g id="text_23">
    <!-- C1 -->
    <g style="fill:#4daf4a;" transform="translate(165.13865 97.557028)scale(0.07 -0.07)">
     <use xlink:href="#DejaVuSans-43"/>
     <use x="69.824219" xlink:href="#DejaVuSans-31"/>
    </g>
   </g>
   <g id="text_24">
    <!-- C2 -->
    <g style="fill:#f781bf;" transform="translate(134.743983 97.557028)scale(0.07 -0.07)">
     <use xlink:href="#DejaVuSans-43"/>
     <use x="69.824219" xlink:href="#DejaVuSans-32"/>
    </g>
   </g>
   <g id="text_25">
    <!-- C3 -->
    <g style="fill:#a65628;" transform="translate(134.743983 92.566762)scale(0.07 -0.07)">
     <use xlink:href="#DejaVuSans-43"/>
     <use x="69.824219" xlink:href="#DejaVuSans-33"/>
    </g>
   </g>
   <g id="text_26">
    <!-- C4 -->
    <g style="fill:#984ea3;" transform="translate(117.082217 92.566762)scale(0.07 -0.07)">
     <use xlink:href="#DejaVuSans-43"/>
     <use x="69.824219" xlink:href="#DejaVuSans-34"/>
    </g>
   </g>
   <g id="text_27">
    <!-- C6 -->
    <g style="fill:#377eb8;" transform="translate(76.008342 64.288586)scale(0.07 -0.07)">
     <use xlink:href="#DejaVuSans-43"/>
     <use x="69.824219" xlink:href="#DejaVuSans-36"/>
    </g>
   </g>
   <g id="text_28">
    <!-- C5 -->
    <g style="fill:#ff7f00;" transform="translate(121.189604 64.288586)scale(0.07 -0.07)">
     <use xlink:href="#DejaVuSans-43"/>
     <use x="69.824219" xlink:href="#DejaVuSans-35"/>
    </g>
   </g>
   <g id="text_29">
    <!-- C1 -->
    <g style="fill:#4daf4a;" transform="translate(170.478254 64.288586)scale(0.07 -0.07)">
     <use xlink:href="#DejaVuSans-43"/>
     <use x="69.824219" xlink:href="#DejaVuSans-31"/>
    </g>
   </g>
   <g id="text_30">
    <!-- C2 -->
    <g style="fill:#f781bf;" transform="translate(141.726542 64.288586)scale(0.07 -0.07)">
     <use xlink:href="#DejaVuSans-43"/>
     <use x="69.824219" xlink:href="#DejaVuSans-32"/>
    </g>
   </g>
   <g id="text_31">
    <!-- C3 -->
    <g style="fill:#a65628;" transform="translate(141.726542 59.298319)scale(0.07 -0.07)">
     <use xlink:href="#DejaVuSans-43"/>
     <use x="69.824219" xlink:href="#DejaVuSans-33"/>
    </g>
   </g>
   <g id="text_32">
    <!-- C4 -->
    <g style="fill:#984ea3;" transform="translate(121.189604 59.298319)scale(0.07 -0.07)">
     <use xlink:href="#DejaVuSans-43"/>
     <use x="69.824219" xlink:href="#DejaVuSans-34"/>
    </g>
   </g>
   <g id="text_33">
    <!-- C6 -->
    <g style="fill:#377eb8;" transform="translate(76.008342 197.362357)scale(0.07 -0.07)">
     <use xlink:href="#DejaVuSans-43"/>
     <use x="69.824219" xlink:href="#DejaVuSans-36"/>
    </g>
   </g>
   <g id="text_34">
    <!-- C5 -->
    <g style="fill:#ff7f00;" transform="translate(149.629155 197.362357)scale(0.07 -0.07)">
     <use xlink:href="#DejaVuSans-43"/>
     <use x="69.824219" xlink:href="#DejaVuSans-35"/>
    </g>
   </g>
   <g id="text_35">
    <!-- C1 -->
    <g style="fill:#4daf4a;" transform="translate(187.679582 197.362357)scale(0.07 -0.07)">
     <use xlink:href="#DejaVuSans-43"/>
     <use x="69.824219" xlink:href="#DejaVuSans-31"/>
    </g>
   </g>
   <g id="text_36">
    <!-- C2 -->
    <g style="fill:#f781bf;" transform="translate(157.081188 197.362357)scale(0.07 -0.07)">
     <use xlink:href="#DejaVuSans-43"/>
     <use x="69.824219" xlink:href="#DejaVuSans-32"/>
    </g>
   </g>
   <g id="text_37">
    <!-- C3 -->
    <g style="fill:#a65628;" transform="translate(156.705363 192.37209)scale(0.07 -0.07)">
     <use xlink:href="#DejaVuSans-43"/>
     <use x="69.824219" xlink:href="#DejaVuSans-33"/>
    </g>
   </g>
   <g id="text_38">
    <!-- C4 -->
    <g style="fill:#984ea3;" transform="translate(134.354192 197.362357)scale(0.07 -0.07)">
     <use xlink:href="#DejaVuSans-43"/>
     <use x="69.824219" xlink:href="#DejaVuSans-34"/>
    </g>
   </g>
   <g id="legend_1">
    <g id="patch_7">
     <path d="M 189.054018 75.8125 
L 246.551518 75.8125 
Q 248.151518 75.8125 248.151518 74.2125 
L 248.151518 16.3 
Q 248.151518 14.7 246.551518 14.7 
L 189.054018 14.7 
Q 187.454018 14.7 187.454018 16.3 
L 187.454018 74.2125 
Q 187.454018 75.8125 189.054018 75.8125 
z
" style="fill:#ffffff;opacity:0.8;stroke:#cccccc;stroke-linejoin:miter;"/>
    </g>
    <g id="line2d_42">
     <path d="M 190.654018 21.17875 
L 206.654018 21.17875 
" style="fill:none;stroke:#000000;stroke-dasharray:1.5,1.5;stroke-dashoffset:0;stroke-width:1.5;"/>
    </g>
    <g id="line2d_43"/>
    <g id="text_39">
     <!-- Schmitz -->
     <defs>
      <path d="M 53.515625 70.515625 
L 53.515625 60.890625 
Q 47.90625 63.578125 42.921875 64.890625 
Q 37.9375 66.21875 33.296875 66.21875 
Q 25.25 66.21875 20.875 63.09375 
Q 16.5 59.96875 16.5 54.203125 
Q 16.5 49.359375 19.40625 46.890625 
Q 22.3125 44.4375 30.421875 42.921875 
L 36.375 41.703125 
Q 47.40625 39.59375 52.65625 34.296875 
Q 57.90625 29 57.90625 20.125 
Q 57.90625 9.515625 50.796875 4.046875 
Q 43.703125 -1.421875 29.984375 -1.421875 
Q 24.8125 -1.421875 18.96875 -0.25 
Q 13.140625 0.921875 6.890625 3.21875 
L 6.890625 13.375 
Q 12.890625 10.015625 18.65625 8.296875 
Q 24.421875 6.59375 29.984375 6.59375 
Q 38.421875 6.59375 43.015625 9.90625 
Q 47.609375 13.234375 47.609375 19.390625 
Q 47.609375 24.75 44.3125 27.78125 
Q 41.015625 30.8125 33.5 32.328125 
L 27.484375 33.5 
Q 16.453125 35.6875 11.515625 40.375 
Q 6.59375 45.0625 6.59375 53.421875 
Q 6.59375 63.09375 13.40625 68.65625 
Q 20.21875 74.21875 32.171875 74.21875 
Q 37.3125 74.21875 42.625 73.28125 
Q 47.953125 72.359375 53.515625 70.515625 
z
" id="DejaVuSans-53"/>
      <path d="M 48.78125 52.59375 
L 48.78125 44.1875 
Q 44.96875 46.296875 41.140625 47.34375 
Q 37.3125 48.390625 33.40625 48.390625 
Q 24.65625 48.390625 19.8125 42.84375 
Q 14.984375 37.3125 14.984375 27.296875 
Q 14.984375 17.28125 19.8125 11.734375 
Q 24.65625 6.203125 33.40625 6.203125 
Q 37.3125 6.203125 41.140625 7.25 
Q 44.96875 8.296875 48.78125 10.40625 
L 48.78125 2.09375 
Q 45.015625 0.34375 40.984375 -0.53125 
Q 36.96875 -1.421875 32.421875 -1.421875 
Q 20.0625 -1.421875 12.78125 6.34375 
Q 5.515625 14.109375 5.515625 27.296875 
Q 5.515625 40.671875 12.859375 48.328125 
Q 20.21875 56 33.015625 56 
Q 37.15625 56 41.109375 55.140625 
Q 45.0625 54.296875 48.78125 52.59375 
z
" id="DejaVuSans-63"/>
      <path d="M 54.890625 33.015625 
L 54.890625 0 
L 45.90625 0 
L 45.90625 32.71875 
Q 45.90625 40.484375 42.875 44.328125 
Q 39.84375 48.1875 33.796875 48.1875 
Q 26.515625 48.1875 22.3125 43.546875 
Q 18.109375 38.921875 18.109375 30.90625 
L 18.109375 0 
L 9.078125 0 
L 9.078125 75.984375 
L 18.109375 75.984375 
L 18.109375 46.1875 
Q 21.34375 51.125 25.703125 53.5625 
Q 30.078125 56 35.796875 56 
Q 45.21875 56 50.046875 50.171875 
Q 54.890625 44.34375 54.890625 33.015625 
z
" id="DejaVuSans-68"/>
      <path d="M 52 44.1875 
Q 55.375 50.25 60.0625 53.125 
Q 64.75 56 71.09375 56 
Q 79.640625 56 84.28125 50.015625 
Q 88.921875 44.046875 88.921875 33.015625 
L 88.921875 0 
L 79.890625 0 
L 79.890625 32.71875 
Q 79.890625 40.578125 77.09375 44.375 
Q 74.3125 48.1875 68.609375 48.1875 
Q 61.625 48.1875 57.5625 43.546875 
Q 53.515625 38.921875 53.515625 30.90625 
L 53.515625 0 
L 44.484375 0 
L 44.484375 32.71875 
Q 44.484375 40.625 41.703125 44.40625 
Q 38.921875 48.1875 33.109375 48.1875 
Q 26.21875 48.1875 22.15625 43.53125 
Q 18.109375 38.875 18.109375 30.90625 
L 18.109375 0 
L 9.078125 0 
L 9.078125 54.6875 
L 18.109375 54.6875 
L 18.109375 46.1875 
Q 21.1875 51.21875 25.484375 53.609375 
Q 29.78125 56 35.6875 56 
Q 41.65625 56 45.828125 52.96875 
Q 50 49.953125 52 44.1875 
z
" id="DejaVuSans-6d"/>
      <path d="M 5.515625 54.6875 
L 48.1875 54.6875 
L 48.1875 46.484375 
L 14.40625 7.171875 
L 48.1875 7.171875 
L 48.1875 0 
L 4.296875 0 
L 4.296875 8.203125 
L 38.09375 47.515625 
L 5.515625 47.515625 
z
" id="DejaVuSans-7a"/>
     </defs>
     <g transform="translate(213.054018 23.97875)scale(0.08 -0.08)">
      <use xlink:href="#DejaVuSans-53"/>
      <use x="63.476562" xlink:href="#DejaVuSans-63"/>
      <use x="118.457031" xlink:href="#DejaVuSans-68"/>
      <use x="181.835938" xlink:href="#DejaVuSans-6d"/>
      <use x="279.248047" xlink:href="#DejaVuSans-69"/>
      <use x="307.03125" xlink:href="#DejaVuSans-74"/>
      <use x="346.240234" xlink:href="#DejaVuSans-7a"/>
     </g>
    </g>
    <g id="line2d_44">
     <path d="M 190.654018 32.92125 
L 206.654018 32.92125 
" style="fill:none;stroke:#000000;stroke-dasharray:4.5,1.5,1.5,1.5;stroke-dashoffset:0;stroke-width:1.5;"/>
    </g>
    <g id="line2d_45"/>
    <g id="text_40">
     <!-- Tonisoo -->
     <defs>
      <path d="M -0.296875 72.90625 
L 61.375 72.90625 
L 61.375 64.59375 
L 35.5 64.59375 
L 35.5 0 
L 25.59375 0 
L 25.59375 64.59375 
L -0.296875 64.59375 
z
" id="DejaVuSans-54"/>
      <path d="M 30.609375 48.390625 
Q 23.390625 48.390625 19.1875 42.75 
Q 14.984375 37.109375 14.984375 27.296875 
Q 14.984375 17.484375 19.15625 11.84375 
Q 23.34375 6.203125 30.609375 6.203125 
Q 37.796875 6.203125 41.984375 11.859375 
Q 46.1875 17.53125 46.1875 27.296875 
Q 46.1875 37.015625 41.984375 42.703125 
Q 37.796875 48.390625 30.609375 48.390625 
z
M 30.609375 56 
Q 42.328125 56 49.015625 48.375 
Q 55.71875 40.765625 55.71875 27.296875 
Q 55.71875 13.875 49.015625 6.21875 
Q 42.328125 -1.421875 30.609375 -1.421875 
Q 18.84375 -1.421875 12.171875 6.21875 
Q 5.515625 13.875 5.515625 27.296875 
Q 5.515625 40.765625 12.171875 48.375 
Q 18.84375 56 30.609375 56 
z
" id="DejaVuSans-6f"/>
     </defs>
     <g transform="translate(213.054018 35.72125)scale(0.08 -0.08)">
      <use xlink:href="#DejaVuSans-54"/>
      <use x="60.818359" xlink:href="#DejaVuSans-6f"/>
      <use x="122" xlink:href="#DejaVuSans-6e"/>
      <use x="185.378906" xlink:href="#DejaVuSans-69"/>
      <use x="213.162109" xlink:href="#DejaVuSans-73"/>
      <use x="265.261719" xlink:href="#DejaVuSans-6f"/>
      <use x="326.443359" xlink:href="#DejaVuSans-6f"/>
     </g>
    </g>
    <g id="line2d_46">
     <path d="M 190.654018 44.66375 
L 206.654018 44.66375 
" style="fill:none;stroke:#000000;stroke-dasharray:4.5,1.5,4.5,1.5;stroke-dashoffset:0;stroke-width:1.5;"/>
    </g>
    <g id="line2d_47"/>
    <g id="text_41">
     <!-- Garcia -->
     <defs>
      <path d="M 59.515625 10.40625 
L 59.515625 29.984375 
L 43.40625 29.984375 
L 43.40625 38.09375 
L 69.28125 38.09375 
L 69.28125 6.78125 
Q 63.578125 2.734375 56.6875 0.65625 
Q 49.8125 -1.421875 42 -1.421875 
Q 24.90625 -1.421875 15.25 8.5625 
Q 5.609375 18.5625 5.609375 36.375 
Q 5.609375 54.25 15.25 64.234375 
Q 24.90625 74.21875 42 74.21875 
Q 49.125 74.21875 55.546875 72.453125 
Q 61.96875 70.703125 67.390625 67.28125 
L 67.390625 56.78125 
Q 61.921875 61.421875 55.765625 63.765625 
Q 49.609375 66.109375 42.828125 66.109375 
Q 29.4375 66.109375 22.71875 58.640625 
Q 16.015625 51.171875 16.015625 36.375 
Q 16.015625 21.625 22.71875 14.15625 
Q 29.4375 6.6875 42.828125 6.6875 
Q 48.046875 6.6875 52.140625 7.59375 
Q 56.25 8.5 59.515625 10.40625 
z
" id="DejaVuSans-47"/>
      <path d="M 34.28125 27.484375 
Q 23.390625 27.484375 19.1875 25 
Q 14.984375 22.515625 14.984375 16.5 
Q 14.984375 11.71875 18.140625 8.90625 
Q 21.296875 6.109375 26.703125 6.109375 
Q 34.1875 6.109375 38.703125 11.40625 
Q 43.21875 16.703125 43.21875 25.484375 
L 43.21875 27.484375 
z
M 52.203125 31.203125 
L 52.203125 0 
L 43.21875 0 
L 43.21875 8.296875 
Q 40.140625 3.328125 35.546875 0.953125 
Q 30.953125 -1.421875 24.3125 -1.421875 
Q 15.921875 -1.421875 10.953125 3.296875 
Q 6 8.015625 6 15.921875 
Q 6 25.140625 12.171875 29.828125 
Q 18.359375 34.515625 30.609375 34.515625 
L 43.21875 34.515625 
L 43.21875 35.40625 
Q 43.21875 41.609375 39.140625 45 
Q 35.0625 48.390625 27.6875 48.390625 
Q 23 48.390625 18.546875 47.265625 
Q 14.109375 46.140625 10.015625 43.890625 
L 10.015625 52.203125 
Q 14.9375 54.109375 19.578125 55.046875 
Q 24.21875 56 28.609375 56 
Q 40.484375 56 46.34375 49.84375 
Q 52.203125 43.703125 52.203125 31.203125 
z
" id="DejaVuSans-61"/>
     </defs>
     <g transform="translate(213.054018 47.46375)scale(0.08 -0.08)">
      <use xlink:href="#DejaVuSans-47"/>
      <use x="77.490234" xlink:href="#DejaVuSans-61"/>
      <use x="138.769531" xlink:href="#DejaVuSans-72"/>
      <use x="179.851562" xlink:href="#DejaVuSans-63"/>
      <use x="234.832031" xlink:href="#DejaVuSans-69"/>
      <use x="262.615234" xlink:href="#DejaVuSans-61"/>
     </g>
    </g>
    <g id="line2d_48">
     <path d="M 190.654018 56.40625 
L 206.654018 56.40625 
" style="fill:none;stroke:#000000;stroke-dasharray:1.5,0;stroke-dashoffset:0;stroke-width:1.5;"/>
    </g>
    <g id="line2d_49"/>
    <g id="text_42">
     <!-- dKS -->
     <defs>
      <path d="M 9.8125 72.90625 
L 19.671875 72.90625 
L 19.671875 42.09375 
L 52.390625 72.90625 
L 65.09375 72.90625 
L 28.90625 38.921875 
L 67.671875 0 
L 54.6875 0 
L 19.671875 35.109375 
L 19.671875 0 
L 9.8125 0 
z
" id="DejaVuSans-4b"/>
     </defs>
     <g transform="translate(213.054018 59.20625)scale(0.08 -0.08)">
      <use xlink:href="#DejaVuSans-64"/>
      <use x="63.476562" xlink:href="#DejaVuSans-4b"/>
      <use x="129.052734" xlink:href="#DejaVuSans-53"/>
     </g>
    </g>
    <g id="line2d_50">
     <path d="M 190.654018 68.14875 
L 206.654018 68.14875 
" style="fill:none;stroke:#000000;stroke-dasharray:1.5,1.5,1.5,1.5,4.5,1.5;stroke-dashoffset:0;stroke-width:1.5;"/>
    </g>
    <g id="line2d_51"/>
    <g id="text_43">
     <!-- 1s -->
     <g transform="translate(213.054018 70.94875)scale(0.08 -0.08)">
      <use xlink:href="#DejaVuSans-31"/>
      <use x="63.623047" xlink:href="#DejaVuSans-73"/>
     </g>
    </g>
   </g>
  </g>
 </g>
 <defs>
  <clipPath id="p226677cfa6">
   <rect height="214.72" width="231.273393" x="20.878125" y="10.7"/>
  </clipPath>
 </defs>
</svg>
