<?xml version="1.0" encoding="utf-8" standalone="no"?>
<!DOCTYPE svg PUBLIC "-//W3C//DTD SVG 1.1//EN"
  "http://www.w3.org/Graphics/SVG/1.1/DTD/svg11.dtd">
<!-- Created with matplotlib (https://matplotlib.org/) -->
<svg height="244.088572pt" version="1.1" viewBox="0 0 247.523735 244.088572" width="247.523735pt" xmlns="http://www.w3.org/2000/svg" xmlns:xlink="http://www.w3.org/1999/xlink">
 <defs>
  <style type="text/css">
*{stroke-linecap:butt;stroke-linejoin:round;white-space:pre;}
  </style>
 </defs>
 <g id="figure_1">
  <g id="patch_1">
   <path d="M -0 244.088572 
L 247.523735 244.088572 
L 247.523735 0 
L -0 0 
z
" style="fill:#ffffff;"/>
  </g>
  <g id="axes_1">
   <g id="patch_2">
    <path d="M 46.965625 206.510447 
L 240.323735 206.510447 
L 240.323735 9.280002 
L 46.965625 9.280002 
z
" style="fill:#ffffff;"/>
   </g>
   <g id="PathCollection_1">
    <defs>
     <path d="M 0 2 
C 0.530406 2 1.03916 1.789267 1.414214 1.414214 
C 1.789267 1.03916 2 0.530406 2 0 
C 2 -0.530406 1.789267 -1.03916 1.414214 -1.414214 
C 1.03916 -1.789267 0.530406 -2 0 -2 
C -0.530406 -2 -1.03916 -1.789267 -1.414214 -1.414214 
C -1.789267 -1.03916 -2 -0.530406 -2 0 
C -2 0.530406 -1.789267 1.03916 -1.414214 1.414214 
C -1.03916 1.789267 -0.530406 2 0 2 
z
" id="m7e79d06060" style="stroke:#377eb8;"/>
    </defs>
    <g clip-path="url(#p5e778ac0e8)">
     <use style="fill:#377eb8;stroke:#377eb8;" x="69.303867" xlink:href="#m7e79d06060" y="183.702972"/>
     <use style="fill:#377eb8;stroke:#377eb8;" x="113.855988" xlink:href="#m7e79d06060" y="136.80218"/>
     <use style="fill:#377eb8;stroke:#377eb8;" x="125.876201" xlink:href="#m7e79d06060" y="107.897358"/>
     <use style="fill:#377eb8;stroke:#377eb8;" x="103.427037" xlink:href="#m7e79d06060" y="133.319919"/>
     <use style="fill:#377eb8;stroke:#377eb8;" x="103.787556" xlink:href="#m7e79d06060" y="133.360438"/>
     <use style="fill:#377eb8;stroke:#377eb8;" x="110.590364" xlink:href="#m7e79d06060" y="145.240957"/>
     <use style="fill:#377eb8;stroke:#377eb8;" x="231.344171" xlink:href="#m7e79d06060" y="18.43542"/>
     <use style="fill:#377eb8;stroke:#377eb8;" x="226.96706" xlink:href="#m7e79d06060" y="21.399511"/>
    </g>
   </g>
   <g id="PathCollection_2">
    <defs>
     <path d="M -0 2 
L 2 -2 
L -2 -2 
z
" id="m0cf0f2a6db" style="stroke:#ff7f00;"/>
    </defs>
    <g clip-path="url(#p5e778ac0e8)">
     <use style="fill:#ff7f00;stroke:#ff7f00;" x="72.116717" xlink:href="#m0cf0f2a6db" y="182.41391"/>
     <use style="fill:#ff7f00;stroke:#ff7f00;" x="116.352694" xlink:href="#m0cf0f2a6db" y="135.377277"/>
     <use style="fill:#ff7f00;stroke:#ff7f00;" x="128.313933" xlink:href="#m0cf0f2a6db" y="106.722319"/>
     <use style="fill:#ff7f00;stroke:#ff7f00;" x="103.715866" xlink:href="#m0cf0f2a6db" y="133.863024"/>
     <use style="fill:#ff7f00;stroke:#ff7f00;" x="104.381905" xlink:href="#m0cf0f2a6db" y="134.01367"/>
     <use style="fill:#ff7f00;stroke:#ff7f00;" x="111.091175" xlink:href="#m0cf0f2a6db" y="145.630818"/>
    </g>
   </g>
   <g id="PathCollection_3">
    <defs>
     <path d="M 0 -2 
L -2 2 
L 2 2 
z
" id="m0eecd188e9" style="stroke:#4daf4a;"/>
    </defs>
    <g clip-path="url(#p5e778ac0e8)">
     <use style="fill:#4daf4a;stroke:#4daf4a;" x="71.534168" xlink:href="#m0eecd188e9" y="184.856973"/>
     <use style="fill:#4daf4a;stroke:#4daf4a;" x="115.155257" xlink:href="#m0eecd188e9" y="138.302148"/>
     <use style="fill:#4daf4a;stroke:#4daf4a;" x="123.168375" xlink:href="#m0eecd188e9" y="114.240596"/>
     <use style="fill:#4daf4a;stroke:#4daf4a;" x="106.406005" xlink:href="#m0eecd188e9" y="133.589783"/>
     <use style="fill:#4daf4a;stroke:#4daf4a;" x="106.60768" xlink:href="#m0eecd188e9" y="133.82744"/>
     <use style="fill:#4daf4a;stroke:#4daf4a;" x="111.105461" xlink:href="#m0eecd188e9" y="147.961417"/>
    </g>
   </g>
   <g id="PathCollection_4">
    <defs>
     <path d="M 0 -2 
L -1.902113 -0.618034 
L -1.175571 1.618034 
L 1.175571 1.618034 
L 1.902113 -0.618034 
z
" id="m81329c1e8c" style="stroke:#f781bf;"/>
    </defs>
    <g clip-path="url(#p5e778ac0e8)">
     <use style="fill:#f781bf;stroke:#f781bf;" x="70.469594" xlink:href="#m81329c1e8c" y="185.419039"/>
     <use style="fill:#f781bf;stroke:#f781bf;" x="116.524646" xlink:href="#m81329c1e8c" y="136.591795"/>
     <use style="fill:#f781bf;stroke:#f781bf;" x="128.349883" xlink:href="#m81329c1e8c" y="108.63007"/>
     <use style="fill:#f781bf;stroke:#f781bf;" x="107.928456" xlink:href="#m81329c1e8c" y="132.048259"/>
     <use style="fill:#f781bf;stroke:#f781bf;" x="108.541172" xlink:href="#m81329c1e8c" y="131.649046"/>
     <use style="fill:#f781bf;stroke:#f781bf;" x="118.289457" xlink:href="#m81329c1e8c" y="140.952999"/>
    </g>
   </g>
   <g id="PathCollection_5">
    <defs>
     <path d="M -0.765367 -1.847759 
L -1.847759 -0.765367 
L -1.847759 0.765367 
L -0.765367 1.847759 
L 0.765367 1.847759 
L 1.847759 0.765367 
L 1.847759 -0.765367 
L 0.765367 -1.847759 
z
" id="m21d6ef2dc3" style="stroke:#a65628;"/>
    </defs>
    <g clip-path="url(#p5e778ac0e8)">
     <use style="fill:#a65628;stroke:#a65628;" x="78.19022" xlink:href="#m21d6ef2dc3" y="176.506766"/>
     <use style="fill:#a65628;stroke:#a65628;" x="120.341893" xlink:href="#m21d6ef2dc3" y="130.648029"/>
     <use style="fill:#a65628;stroke:#a65628;" x="135.979745" xlink:href="#m21d6ef2dc3" y="99.036513"/>
     <use style="fill:#a65628;stroke:#a65628;" x="113.701801" xlink:href="#m21d6ef2dc3" y="124.794651"/>
     <use style="fill:#a65628;stroke:#a65628;" x="113.842722" xlink:href="#m21d6ef2dc3" y="124.870493"/>
     <use style="fill:#a65628;stroke:#a65628;" x="124.611652" xlink:href="#m21d6ef2dc3" y="132.573961"/>
     <use style="fill:#a65628;stroke:#a65628;" x="83.204172" xlink:href="#m21d6ef2dc3" y="171.258829"/>
     <use style="fill:#a65628;stroke:#a65628;" x="80.979653" xlink:href="#m21d6ef2dc3" y="174.39928"/>
     <use style="fill:#a65628;stroke:#a65628;" x="67.601903" xlink:href="#m21d6ef2dc3" y="192.839915"/>
     <use style="fill:#a65628;stroke:#a65628;" x="73.706044" xlink:href="#m21d6ef2dc3" y="183.975694"/>
    </g>
   </g>
   <g id="PathCollection_6">
    <defs>
     <path d="M 0 -2 
L -0.449028 -0.618034 
L -1.902113 -0.618034 
L -0.726543 0.236068 
L -1.175571 1.618034 
L -0 0.763932 
L 1.175571 1.618034 
L 0.726543 0.236068 
L 1.902113 -0.618034 
L 0.449028 -0.618034 
z
" id="m3751f471ab" style="stroke:#984ea3;"/>
    </defs>
    <g clip-path="url(#p5e778ac0e8)">
     <use style="fill:#984ea3;stroke:#984ea3;" x="57.012853" xlink:href="#m3751f471ab" y="196.398279"/>
     <use style="fill:#984ea3;stroke:#984ea3;" x="104.856448" xlink:href="#m3751f471ab" y="146.971309"/>
     <use style="fill:#984ea3;stroke:#984ea3;" x="109.641226" xlink:href="#m3751f471ab" y="122.348211"/>
     <use style="fill:#984ea3;stroke:#984ea3;" x="86.255144" xlink:href="#m3751f471ab" y="148.972823"/>
     <use style="fill:#984ea3;stroke:#984ea3;" x="87.394208" xlink:href="#m3751f471ab" y="147.986351"/>
     <use style="fill:#984ea3;stroke:#984ea3;" x="99.039565" xlink:href="#m3751f471ab" y="156.868235"/>
    </g>
   </g>
   <g id="PathCollection_7">
    <defs>
     <path d="M -2 2 
L 2 2 
L 2 -2 
L -2 -2 
z
" id="maf218f53d1" style="stroke:#999999;"/>
    </defs>
    <g clip-path="url(#p5e778ac0e8)">
     <use style="fill:#999999;stroke:#999999;" x="59.236011" xlink:href="#maf218f53d1" y="193.359904"/>
     <use style="fill:#999999;stroke:#999999;" x="106.566105" xlink:href="#maf218f53d1" y="144.509544"/>
     <use style="fill:#999999;stroke:#999999;" x="109.667024" xlink:href="#maf218f53d1" y="120.112935"/>
     <use style="fill:#999999;stroke:#999999;" x="87.888113" xlink:href="#maf218f53d1" y="145.931072"/>
     <use style="fill:#999999;stroke:#999999;" x="88.798553" xlink:href="#maf218f53d1" y="145.023299"/>
     <use style="fill:#999999;stroke:#999999;" x="100.542916" xlink:href="#maf218f53d1" y="154.181021"/>
    </g>
   </g>
   <g id="PathCollection_8">
    <defs>
     <path d="M -0 2.828427 
L 1.697056 0 
L 0 -2.828427 
L -1.697056 -0 
z
" id="mabdf1da7bd" style="stroke:#e41a1c;"/>
    </defs>
    <g clip-path="url(#p5e778ac0e8)">
     <use style="fill:#e41a1c;stroke:#e41a1c;" x="61.584732" xlink:href="#mabdf1da7bd" y="190.274257"/>
     <use style="fill:#e41a1c;stroke:#e41a1c;" x="104.723507" xlink:href="#mabdf1da7bd" y="144.814213"/>
     <use style="fill:#e41a1c;stroke:#e41a1c;" x="108.236881" xlink:href="#mabdf1da7bd" y="118.715303"/>
     <use style="fill:#e41a1c;stroke:#e41a1c;" x="86.76561" xlink:href="#mabdf1da7bd" y="145.251866"/>
     <use style="fill:#e41a1c;stroke:#e41a1c;" x="86.751376" xlink:href="#mabdf1da7bd" y="144.553439"/>
     <use style="fill:#e41a1c;stroke:#e41a1c;" x="100.866202" xlink:href="#mabdf1da7bd" y="152.338204"/>
    </g>
   </g>
   <g id="matplotlib.axis_1">
    <g id="xtick_1">
     <g id="line2d_1">
      <defs>
       <path d="M 0 0 
L 0 3.5 
" id="m0d8bcbf6fa" style="stroke:#000000;stroke-width:0.8;"/>
      </defs>
      <g>
       <use style="stroke:#000000;stroke-width:0.8;" x="65.438452" xlink:href="#m0d8bcbf6fa" y="206.510447"/>
      </g>
     </g>
     <g id="text_1">
      <!-- 290 -->
      <defs>
       <path d="M 19.1875 8.296875 
L 53.609375 8.296875 
L 53.609375 0 
L 7.328125 0 
L 7.328125 8.296875 
Q 12.9375 14.109375 22.625 23.890625 
Q 32.328125 33.6875 34.8125 36.53125 
Q 39.546875 41.84375 41.421875 45.53125 
Q 43.3125 49.21875 43.3125 52.78125 
Q 43.3125 58.59375 39.234375 62.25 
Q 35.15625 65.921875 28.609375 65.921875 
Q 23.96875 65.921875 18.8125 64.3125 
Q 13.671875 62.703125 7.8125 59.421875 
L 7.8125 69.390625 
Q 13.765625 71.78125 18.9375 73 
Q 24.125 74.21875 28.421875 74.21875 
Q 39.75 74.21875 46.484375 68.546875 
Q 53.21875 62.890625 53.21875 53.421875 
Q 53.21875 48.921875 51.53125 44.890625 
Q 49.859375 40.875 45.40625 35.40625 
Q 44.1875 33.984375 37.640625 27.21875 
Q 31.109375 20.453125 19.1875 8.296875 
z
" id="DejaVuSans-50"/>
       <path d="M 10.984375 1.515625 
L 10.984375 10.5 
Q 14.703125 8.734375 18.5 7.8125 
Q 22.3125 6.890625 25.984375 6.890625 
Q 35.75 6.890625 40.890625 13.453125 
Q 46.046875 20.015625 46.78125 33.40625 
Q 43.953125 29.203125 39.59375 26.953125 
Q 35.25 24.703125 29.984375 24.703125 
Q 19.046875 24.703125 12.671875 31.3125 
Q 6.296875 37.9375 6.296875 49.421875 
Q 6.296875 60.640625 12.9375 67.421875 
Q 19.578125 74.21875 30.609375 74.21875 
Q 43.265625 74.21875 49.921875 64.515625 
Q 56.59375 54.828125 56.59375 36.375 
Q 56.59375 19.140625 48.40625 8.859375 
Q 40.234375 -1.421875 26.421875 -1.421875 
Q 22.703125 -1.421875 18.890625 -0.6875 
Q 15.09375 0.046875 10.984375 1.515625 
z
M 30.609375 32.421875 
Q 37.25 32.421875 41.125 36.953125 
Q 45.015625 41.5 45.015625 49.421875 
Q 45.015625 57.28125 41.125 61.84375 
Q 37.25 66.40625 30.609375 66.40625 
Q 23.96875 66.40625 20.09375 61.84375 
Q 16.21875 57.28125 16.21875 49.421875 
Q 16.21875 41.5 20.09375 36.953125 
Q 23.96875 32.421875 30.609375 32.421875 
z
" id="DejaVuSans-57"/>
       <path d="M 31.78125 66.40625 
Q 24.171875 66.40625 20.328125 58.90625 
Q 16.5 51.421875 16.5 36.375 
Q 16.5 21.390625 20.328125 13.890625 
Q 24.171875 6.390625 31.78125 6.390625 
Q 39.453125 6.390625 43.28125 13.890625 
Q 47.125 21.390625 47.125 36.375 
Q 47.125 51.421875 43.28125 58.90625 
Q 39.453125 66.40625 31.78125 66.40625 
z
M 31.78125 74.21875 
Q 44.046875 74.21875 50.515625 64.515625 
Q 56.984375 54.828125 56.984375 36.375 
Q 56.984375 17.96875 50.515625 8.265625 
Q 44.046875 -1.421875 31.78125 -1.421875 
Q 19.53125 -1.421875 13.0625 8.265625 
Q 6.59375 17.96875 6.59375 36.375 
Q 6.59375 54.828125 13.0625 64.515625 
Q 19.53125 74.21875 31.78125 74.21875 
z
" id="DejaVuSans-48"/>
      </defs>
      <g transform="translate(55.894702 221.108885)scale(0.1 -0.1)">
       <use xlink:href="#DejaVuSans-50"/>
       <use x="63.623047" xlink:href="#DejaVuSans-57"/>
       <use x="127.246094" xlink:href="#DejaVuSans-48"/>
      </g>
     </g>
    </g>
    <g id="xtick_2">
     <g id="line2d_2">
      <g>
       <use style="stroke:#000000;stroke-width:0.8;" x="117.767138" xlink:href="#m0d8bcbf6fa" y="206.510447"/>
      </g>
     </g>
     <g id="text_2">
      <!-- 292 -->
      <g transform="translate(108.223388 221.108885)scale(0.1 -0.1)">
       <use xlink:href="#DejaVuSans-50"/>
       <use x="63.623047" xlink:href="#DejaVuSans-57"/>
       <use x="127.246094" xlink:href="#DejaVuSans-50"/>
      </g>
     </g>
    </g>
    <g id="xtick_3">
     <g id="line2d_3">
      <g>
       <use style="stroke:#000000;stroke-width:0.8;" x="170.095825" xlink:href="#m0d8bcbf6fa" y="206.510447"/>
      </g>
     </g>
     <g id="text_3">
      <!-- 294 -->
      <defs>
       <path d="M 37.796875 64.3125 
L 12.890625 25.390625 
L 37.796875 25.390625 
z
M 35.203125 72.90625 
L 47.609375 72.90625 
L 47.609375 25.390625 
L 58.015625 25.390625 
L 58.015625 17.1875 
L 47.609375 17.1875 
L 47.609375 0 
L 37.796875 0 
L 37.796875 17.1875 
L 4.890625 17.1875 
L 4.890625 26.703125 
z
" id="DejaVuSans-52"/>
      </defs>
      <g transform="translate(160.552075 221.108885)scale(0.1 -0.1)">
       <use xlink:href="#DejaVuSans-50"/>
       <use x="63.623047" xlink:href="#DejaVuSans-57"/>
       <use x="127.246094" xlink:href="#DejaVuSans-52"/>
      </g>
     </g>
    </g>
    <g id="xtick_4">
     <g id="line2d_4">
      <g>
       <use style="stroke:#000000;stroke-width:0.8;" x="222.424511" xlink:href="#m0d8bcbf6fa" y="206.510447"/>
      </g>
     </g>
     <g id="text_4">
      <!-- 296 -->
      <defs>
       <path d="M 33.015625 40.375 
Q 26.375 40.375 22.484375 35.828125 
Q 18.609375 31.296875 18.609375 23.390625 
Q 18.609375 15.53125 22.484375 10.953125 
Q 26.375 6.390625 33.015625 6.390625 
Q 39.65625 6.390625 43.53125 10.953125 
Q 47.40625 15.53125 47.40625 23.390625 
Q 47.40625 31.296875 43.53125 35.828125 
Q 39.65625 40.375 33.015625 40.375 
z
M 52.59375 71.296875 
L 52.59375 62.3125 
Q 48.875 64.0625 45.09375 64.984375 
Q 41.3125 65.921875 37.59375 65.921875 
Q 27.828125 65.921875 22.671875 59.328125 
Q 17.53125 52.734375 16.796875 39.40625 
Q 19.671875 43.65625 24.015625 45.921875 
Q 28.375 48.1875 33.59375 48.1875 
Q 44.578125 48.1875 50.953125 41.515625 
Q 57.328125 34.859375 57.328125 23.390625 
Q 57.328125 12.15625 50.6875 5.359375 
Q 44.046875 -1.421875 33.015625 -1.421875 
Q 20.359375 -1.421875 13.671875 8.265625 
Q 6.984375 17.96875 6.984375 36.375 
Q 6.984375 53.65625 15.1875 63.9375 
Q 23.390625 74.21875 37.203125 74.21875 
Q 40.921875 74.21875 44.703125 73.484375 
Q 48.484375 72.75 52.59375 71.296875 
z
" id="DejaVuSans-54"/>
      </defs>
      <g transform="translate(212.880761 221.108885)scale(0.1 -0.1)">
       <use xlink:href="#DejaVuSans-50"/>
       <use x="63.623047" xlink:href="#DejaVuSans-57"/>
       <use x="127.246094" xlink:href="#DejaVuSans-54"/>
      </g>
     </g>
    </g>
    <g id="text_5">
     <!-- $\Delta$KS binding energy / eV -->
     <defs>
      <path d="M 34.1875 63.1875 
L 14.15625 8.203125 
L 54.25 8.203125 
z
M 0.78125 0 
L 28.609375 72.90625 
L 39.796875 72.90625 
L 67.578125 0 
z
" id="DejaVuSans-916"/>
      <path d="M 9.8125 72.90625 
L 19.671875 72.90625 
L 19.671875 42.09375 
L 52.390625 72.90625 
L 65.09375 72.90625 
L 28.90625 38.921875 
L 67.671875 0 
L 54.6875 0 
L 19.671875 35.109375 
L 19.671875 0 
L 9.8125 0 
z
" id="DejaVuSans-75"/>
      <path d="M 53.515625 70.515625 
L 53.515625 60.890625 
Q 47.90625 63.578125 42.921875 64.890625 
Q 37.9375 66.21875 33.296875 66.21875 
Q 25.25 66.21875 20.875 63.09375 
Q 16.5 59.96875 16.5 54.203125 
Q 16.5 49.359375 19.40625 46.890625 
Q 22.3125 44.4375 30.421875 42.921875 
L 36.375 41.703125 
Q 47.40625 39.59375 52.65625 34.296875 
Q 57.90625 29 57.90625 20.125 
Q 57.90625 9.515625 50.796875 4.046875 
Q 43.703125 -1.421875 29.984375 -1.421875 
Q 24.8125 -1.421875 18.96875 -0.25 
Q 13.140625 0.921875 6.890625 3.21875 
L 6.890625 13.375 
Q 12.890625 10.015625 18.65625 8.296875 
Q 24.421875 6.59375 29.984375 6.59375 
Q 38.421875 6.59375 43.015625 9.90625 
Q 47.609375 13.234375 47.609375 19.390625 
Q 47.609375 24.75 44.3125 27.78125 
Q 41.015625 30.8125 33.5 32.328125 
L 27.484375 33.5 
Q 16.453125 35.6875 11.515625 40.375 
Q 6.59375 45.0625 6.59375 53.421875 
Q 6.59375 63.09375 13.40625 68.65625 
Q 20.21875 74.21875 32.171875 74.21875 
Q 37.3125 74.21875 42.625 73.28125 
Q 47.953125 72.359375 53.515625 70.515625 
z
" id="DejaVuSans-83"/>
      <path id="DejaVuSans-32"/>
      <path d="M 48.6875 27.296875 
Q 48.6875 37.203125 44.609375 42.84375 
Q 40.53125 48.484375 33.40625 48.484375 
Q 26.265625 48.484375 22.1875 42.84375 
Q 18.109375 37.203125 18.109375 27.296875 
Q 18.109375 17.390625 22.1875 11.75 
Q 26.265625 6.109375 33.40625 6.109375 
Q 40.53125 6.109375 44.609375 11.75 
Q 48.6875 17.390625 48.6875 27.296875 
z
M 18.109375 46.390625 
Q 20.953125 51.265625 25.265625 53.625 
Q 29.59375 56 35.59375 56 
Q 45.5625 56 51.78125 48.09375 
Q 58.015625 40.1875 58.015625 27.296875 
Q 58.015625 14.40625 51.78125 6.484375 
Q 45.5625 -1.421875 35.59375 -1.421875 
Q 29.59375 -1.421875 25.265625 0.953125 
Q 20.953125 3.328125 18.109375 8.203125 
L 18.109375 0 
L 9.078125 0 
L 9.078125 75.984375 
L 18.109375 75.984375 
z
" id="DejaVuSans-98"/>
      <path d="M 9.421875 54.6875 
L 18.40625 54.6875 
L 18.40625 0 
L 9.421875 0 
z
M 9.421875 75.984375 
L 18.40625 75.984375 
L 18.40625 64.59375 
L 9.421875 64.59375 
z
" id="DejaVuSans-105"/>
      <path d="M 54.890625 33.015625 
L 54.890625 0 
L 45.90625 0 
L 45.90625 32.71875 
Q 45.90625 40.484375 42.875 44.328125 
Q 39.84375 48.1875 33.796875 48.1875 
Q 26.515625 48.1875 22.3125 43.546875 
Q 18.109375 38.921875 18.109375 30.90625 
L 18.109375 0 
L 9.078125 0 
L 9.078125 54.6875 
L 18.109375 54.6875 
L 18.109375 46.1875 
Q 21.34375 51.125 25.703125 53.5625 
Q 30.078125 56 35.796875 56 
Q 45.21875 56 50.046875 50.171875 
Q 54.890625 44.34375 54.890625 33.015625 
z
" id="DejaVuSans-110"/>
      <path d="M 45.40625 46.390625 
L 45.40625 75.984375 
L 54.390625 75.984375 
L 54.390625 0 
L 45.40625 0 
L 45.40625 8.203125 
Q 42.578125 3.328125 38.25 0.953125 
Q 33.9375 -1.421875 27.875 -1.421875 
Q 17.96875 -1.421875 11.734375 6.484375 
Q 5.515625 14.40625 5.515625 27.296875 
Q 5.515625 40.1875 11.734375 48.09375 
Q 17.96875 56 27.875 56 
Q 33.9375 56 38.25 53.625 
Q 42.578125 51.265625 45.40625 46.390625 
z
M 14.796875 27.296875 
Q 14.796875 17.390625 18.875 11.75 
Q 22.953125 6.109375 30.078125 6.109375 
Q 37.203125 6.109375 41.296875 11.75 
Q 45.40625 17.390625 45.40625 27.296875 
Q 45.40625 37.203125 41.296875 42.84375 
Q 37.203125 48.484375 30.078125 48.484375 
Q 22.953125 48.484375 18.875 42.84375 
Q 14.796875 37.203125 14.796875 27.296875 
z
" id="DejaVuSans-100"/>
      <path d="M 45.40625 27.984375 
Q 45.40625 37.75 41.375 43.109375 
Q 37.359375 48.484375 30.078125 48.484375 
Q 22.859375 48.484375 18.828125 43.109375 
Q 14.796875 37.75 14.796875 27.984375 
Q 14.796875 18.265625 18.828125 12.890625 
Q 22.859375 7.515625 30.078125 7.515625 
Q 37.359375 7.515625 41.375 12.890625 
Q 45.40625 18.265625 45.40625 27.984375 
z
M 54.390625 6.78125 
Q 54.390625 -7.171875 48.1875 -13.984375 
Q 42 -20.796875 29.203125 -20.796875 
Q 24.46875 -20.796875 20.265625 -20.09375 
Q 16.0625 -19.390625 12.109375 -17.921875 
L 12.109375 -9.1875 
Q 16.0625 -11.328125 19.921875 -12.34375 
Q 23.78125 -13.375 27.78125 -13.375 
Q 36.625 -13.375 41.015625 -8.765625 
Q 45.40625 -4.15625 45.40625 5.171875 
L 45.40625 9.625 
Q 42.625 4.78125 38.28125 2.390625 
Q 33.9375 0 27.875 0 
Q 17.828125 0 11.671875 7.65625 
Q 5.515625 15.328125 5.515625 27.984375 
Q 5.515625 40.671875 11.671875 48.328125 
Q 17.828125 56 27.875 56 
Q 33.9375 56 38.28125 53.609375 
Q 42.625 51.21875 45.40625 46.390625 
L 45.40625 54.6875 
L 54.390625 54.6875 
z
" id="DejaVuSans-103"/>
      <path d="M 56.203125 29.59375 
L 56.203125 25.203125 
L 14.890625 25.203125 
Q 15.484375 15.921875 20.484375 11.0625 
Q 25.484375 6.203125 34.421875 6.203125 
Q 39.59375 6.203125 44.453125 7.46875 
Q 49.3125 8.734375 54.109375 11.28125 
L 54.109375 2.78125 
Q 49.265625 0.734375 44.1875 -0.34375 
Q 39.109375 -1.421875 33.890625 -1.421875 
Q 20.796875 -1.421875 13.15625 6.1875 
Q 5.515625 13.8125 5.515625 26.8125 
Q 5.515625 40.234375 12.765625 48.109375 
Q 20.015625 56 32.328125 56 
Q 43.359375 56 49.78125 48.890625 
Q 56.203125 41.796875 56.203125 29.59375 
z
M 47.21875 32.234375 
Q 47.125 39.59375 43.09375 43.984375 
Q 39.0625 48.390625 32.421875 48.390625 
Q 24.90625 48.390625 20.390625 44.140625 
Q 15.875 39.890625 15.1875 32.171875 
z
" id="DejaVuSans-101"/>
      <path d="M 41.109375 46.296875 
Q 39.59375 47.171875 37.8125 47.578125 
Q 36.03125 48 33.890625 48 
Q 26.265625 48 22.1875 43.046875 
Q 18.109375 38.09375 18.109375 28.8125 
L 18.109375 0 
L 9.078125 0 
L 9.078125 54.6875 
L 18.109375 54.6875 
L 18.109375 46.1875 
Q 20.953125 51.171875 25.484375 53.578125 
Q 30.03125 56 36.53125 56 
Q 37.453125 56 38.578125 55.875 
Q 39.703125 55.765625 41.0625 55.515625 
z
" id="DejaVuSans-114"/>
      <path d="M 32.171875 -5.078125 
Q 28.375 -14.84375 24.75 -17.8125 
Q 21.140625 -20.796875 15.09375 -20.796875 
L 7.90625 -20.796875 
L 7.90625 -13.28125 
L 13.1875 -13.28125 
Q 16.890625 -13.28125 18.9375 -11.515625 
Q 21 -9.765625 23.484375 -3.21875 
L 25.09375 0.875 
L 2.984375 54.6875 
L 12.5 54.6875 
L 29.59375 11.921875 
L 46.6875 54.6875 
L 56.203125 54.6875 
z
" id="DejaVuSans-121"/>
      <path d="M 25.390625 72.90625 
L 33.6875 72.90625 
L 8.296875 -9.28125 
L 0 -9.28125 
z
" id="DejaVuSans-47"/>
      <path d="M 28.609375 0 
L 0.78125 72.90625 
L 11.078125 72.90625 
L 34.1875 11.53125 
L 57.328125 72.90625 
L 67.578125 72.90625 
L 39.796875 0 
z
" id="DejaVuSans-86"/>
     </defs>
     <g transform="translate(83.04468 234.788572)scale(0.1 -0.1)">
      <use transform="translate(0 0.015625)" xlink:href="#DejaVuSans-916"/>
      <use transform="translate(68.408203 0.015625)" xlink:href="#DejaVuSans-75"/>
      <use transform="translate(133.984375 0.015625)" xlink:href="#DejaVuSans-83"/>
      <use transform="translate(197.460938 0.015625)" xlink:href="#DejaVuSans-32"/>
      <use transform="translate(229.248047 0.015625)" xlink:href="#DejaVuSans-98"/>
      <use transform="translate(292.724609 0.015625)" xlink:href="#DejaVuSans-105"/>
      <use transform="translate(320.507812 0.015625)" xlink:href="#DejaVuSans-110"/>
      <use transform="translate(383.886719 0.015625)" xlink:href="#DejaVuSans-100"/>
      <use transform="translate(447.363281 0.015625)" xlink:href="#DejaVuSans-105"/>
      <use transform="translate(475.146484 0.015625)" xlink:href="#DejaVuSans-110"/>
      <use transform="translate(538.525391 0.015625)" xlink:href="#DejaVuSans-103"/>
      <use transform="translate(602.001953 0.015625)" xlink:href="#DejaVuSans-32"/>
      <use transform="translate(633.789062 0.015625)" xlink:href="#DejaVuSans-101"/>
      <use transform="translate(695.3125 0.015625)" xlink:href="#DejaVuSans-110"/>
      <use transform="translate(758.691406 0.015625)" xlink:href="#DejaVuSans-101"/>
      <use transform="translate(820.214844 0.015625)" xlink:href="#DejaVuSans-114"/>
      <use transform="translate(861.328125 0.015625)" xlink:href="#DejaVuSans-103"/>
      <use transform="translate(924.804688 0.015625)" xlink:href="#DejaVuSans-121"/>
      <use transform="translate(983.984375 0.015625)" xlink:href="#DejaVuSans-32"/>
      <use transform="translate(1015.771484 0.015625)" xlink:href="#DejaVuSans-47"/>
      <use transform="translate(1049.462891 0.015625)" xlink:href="#DejaVuSans-32"/>
      <use transform="translate(1081.25 0.015625)" xlink:href="#DejaVuSans-101"/>
      <use transform="translate(1142.773438 0.015625)" xlink:href="#DejaVuSans-86"/>
     </g>
    </g>
   </g>
   <g id="matplotlib.axis_2">
    <g id="ytick_1">
     <g id="line2d_5">
      <defs>
       <path d="M 0 0 
L -3.5 0 
" id="mf835b9579c" style="stroke:#000000;stroke-width:0.8;"/>
      </defs>
      <g>
       <use style="stroke:#000000;stroke-width:0.8;" x="46.965625" xlink:href="#mf835b9579c" y="192.813423"/>
      </g>
     </g>
     <g id="text_6">
      <!-- 269 -->
      <g transform="translate(20.878125 196.612641)scale(0.1 -0.1)">
       <use xlink:href="#DejaVuSans-50"/>
       <use x="63.623047" xlink:href="#DejaVuSans-54"/>
       <use x="127.246094" xlink:href="#DejaVuSans-57"/>
      </g>
     </g>
    </g>
    <g id="ytick_2">
     <g id="line2d_6">
      <g>
       <use style="stroke:#000000;stroke-width:0.8;" x="46.965625" xlink:href="#mf835b9579c" y="166.839965"/>
      </g>
     </g>
     <g id="text_7">
      <!-- 270 -->
      <defs>
       <path d="M 8.203125 72.90625 
L 55.078125 72.90625 
L 55.078125 68.703125 
L 28.609375 0 
L 18.3125 0 
L 43.21875 64.59375 
L 8.203125 64.59375 
z
" id="DejaVuSans-55"/>
      </defs>
      <g transform="translate(20.878125 170.639184)scale(0.1 -0.1)">
       <use xlink:href="#DejaVuSans-50"/>
       <use x="63.623047" xlink:href="#DejaVuSans-55"/>
       <use x="127.246094" xlink:href="#DejaVuSans-48"/>
      </g>
     </g>
    </g>
    <g id="ytick_3">
     <g id="line2d_7">
      <g>
       <use style="stroke:#000000;stroke-width:0.8;" x="46.965625" xlink:href="#mf835b9579c" y="140.866507"/>
      </g>
     </g>
     <g id="text_8">
      <!-- 271 -->
      <defs>
       <path d="M 12.40625 8.296875 
L 28.515625 8.296875 
L 28.515625 63.921875 
L 10.984375 60.40625 
L 10.984375 69.390625 
L 28.421875 72.90625 
L 38.28125 72.90625 
L 38.28125 8.296875 
L 54.390625 8.296875 
L 54.390625 0 
L 12.40625 0 
z
" id="DejaVuSans-49"/>
      </defs>
      <g transform="translate(20.878125 144.665726)scale(0.1 -0.1)">
       <use xlink:href="#DejaVuSans-50"/>
       <use x="63.623047" xlink:href="#DejaVuSans-55"/>
       <use x="127.246094" xlink:href="#DejaVuSans-49"/>
      </g>
     </g>
    </g>
    <g id="ytick_4">
     <g id="line2d_8">
      <g>
       <use style="stroke:#000000;stroke-width:0.8;" x="46.965625" xlink:href="#mf835b9579c" y="114.893049"/>
      </g>
     </g>
     <g id="text_9">
      <!-- 272 -->
      <g transform="translate(20.878125 118.692268)scale(0.1 -0.1)">
       <use xlink:href="#DejaVuSans-50"/>
       <use x="63.623047" xlink:href="#DejaVuSans-55"/>
       <use x="127.246094" xlink:href="#DejaVuSans-50"/>
      </g>
     </g>
    </g>
    <g id="ytick_5">
     <g id="line2d_9">
      <g>
       <use style="stroke:#000000;stroke-width:0.8;" x="46.965625" xlink:href="#mf835b9579c" y="88.919592"/>
      </g>
     </g>
     <g id="text_10">
      <!-- 273 -->
      <defs>
       <path d="M 40.578125 39.3125 
Q 47.65625 37.796875 51.625 33 
Q 55.609375 28.21875 55.609375 21.1875 
Q 55.609375 10.40625 48.1875 4.484375 
Q 40.765625 -1.421875 27.09375 -1.421875 
Q 22.515625 -1.421875 17.65625 -0.515625 
Q 12.796875 0.390625 7.625 2.203125 
L 7.625 11.71875 
Q 11.71875 9.328125 16.59375 8.109375 
Q 21.484375 6.890625 26.8125 6.890625 
Q 36.078125 6.890625 40.9375 10.546875 
Q 45.796875 14.203125 45.796875 21.1875 
Q 45.796875 27.640625 41.28125 31.265625 
Q 36.765625 34.90625 28.71875 34.90625 
L 20.21875 34.90625 
L 20.21875 43.015625 
L 29.109375 43.015625 
Q 36.375 43.015625 40.234375 45.921875 
Q 44.09375 48.828125 44.09375 54.296875 
Q 44.09375 59.90625 40.109375 62.90625 
Q 36.140625 65.921875 28.71875 65.921875 
Q 24.65625 65.921875 20.015625 65.03125 
Q 15.375 64.15625 9.8125 62.3125 
L 9.8125 71.09375 
Q 15.4375 72.65625 20.34375 73.4375 
Q 25.25 74.21875 29.59375 74.21875 
Q 40.828125 74.21875 47.359375 69.109375 
Q 53.90625 64.015625 53.90625 55.328125 
Q 53.90625 49.265625 50.4375 45.09375 
Q 46.96875 40.921875 40.578125 39.3125 
z
" id="DejaVuSans-51"/>
      </defs>
      <g transform="translate(20.878125 92.718811)scale(0.1 -0.1)">
       <use xlink:href="#DejaVuSans-50"/>
       <use x="63.623047" xlink:href="#DejaVuSans-55"/>
       <use x="127.246094" xlink:href="#DejaVuSans-51"/>
      </g>
     </g>
    </g>
    <g id="ytick_6">
     <g id="line2d_10">
      <g>
       <use style="stroke:#000000;stroke-width:0.8;" x="46.965625" xlink:href="#mf835b9579c" y="62.946134"/>
      </g>
     </g>
     <g id="text_11">
      <!-- 274 -->
      <g transform="translate(20.878125 66.745353)scale(0.1 -0.1)">
       <use xlink:href="#DejaVuSans-50"/>
       <use x="63.623047" xlink:href="#DejaVuSans-55"/>
       <use x="127.246094" xlink:href="#DejaVuSans-52"/>
      </g>
     </g>
    </g>
    <g id="ytick_7">
     <g id="line2d_11">
      <g>
       <use style="stroke:#000000;stroke-width:0.8;" x="46.965625" xlink:href="#mf835b9579c" y="36.972676"/>
      </g>
     </g>
     <g id="text_12">
      <!-- 275 -->
      <defs>
       <path d="M 10.796875 72.90625 
L 49.515625 72.90625 
L 49.515625 64.59375 
L 19.828125 64.59375 
L 19.828125 46.734375 
Q 21.96875 47.46875 24.109375 47.828125 
Q 26.265625 48.1875 28.421875 48.1875 
Q 40.625 48.1875 47.75 41.5 
Q 54.890625 34.8125 54.890625 23.390625 
Q 54.890625 11.625 47.5625 5.09375 
Q 40.234375 -1.421875 26.90625 -1.421875 
Q 22.3125 -1.421875 17.546875 -0.640625 
Q 12.796875 0.140625 7.71875 1.703125 
L 7.71875 11.625 
Q 12.109375 9.234375 16.796875 8.0625 
Q 21.484375 6.890625 26.703125 6.890625 
Q 35.15625 6.890625 40.078125 11.328125 
Q 45.015625 15.765625 45.015625 23.390625 
Q 45.015625 31 40.078125 35.4375 
Q 35.15625 39.890625 26.703125 39.890625 
Q 22.75 39.890625 18.8125 39.015625 
Q 14.890625 38.140625 10.796875 36.28125 
z
" id="DejaVuSans-53"/>
      </defs>
      <g transform="translate(20.878125 40.771895)scale(0.1 -0.1)">
       <use xlink:href="#DejaVuSans-50"/>
       <use x="63.623047" xlink:href="#DejaVuSans-55"/>
       <use x="127.246094" xlink:href="#DejaVuSans-53"/>
      </g>
     </g>
    </g>
    <g id="ytick_8">
     <g id="line2d_12">
      <g>
       <use style="stroke:#000000;stroke-width:0.8;" x="46.965625" xlink:href="#mf835b9579c" y="10.999219"/>
      </g>
     </g>
     <g id="text_13">
      <!-- 276 -->
      <g transform="translate(20.878125 14.798438)scale(0.1 -0.1)">
       <use xlink:href="#DejaVuSans-50"/>
       <use x="63.623047" xlink:href="#DejaVuSans-55"/>
       <use x="127.246094" xlink:href="#DejaVuSans-54"/>
      </g>
     </g>
    </g>
    <g id="text_14">
     <!-- 1s binding energy / eV -->
     <defs>
      <path d="M 44.28125 53.078125 
L 44.28125 44.578125 
Q 40.484375 46.53125 36.375 47.5 
Q 32.28125 48.484375 27.875 48.484375 
Q 21.1875 48.484375 17.84375 46.4375 
Q 14.5 44.390625 14.5 40.28125 
Q 14.5 37.15625 16.890625 35.375 
Q 19.28125 33.59375 26.515625 31.984375 
L 29.59375 31.296875 
Q 39.15625 29.25 43.1875 25.515625 
Q 47.21875 21.78125 47.21875 15.09375 
Q 47.21875 7.46875 41.1875 3.015625 
Q 35.15625 -1.421875 24.609375 -1.421875 
Q 20.21875 -1.421875 15.453125 -0.5625 
Q 10.6875 0.296875 5.421875 2 
L 5.421875 11.28125 
Q 10.40625 8.6875 15.234375 7.390625 
Q 20.0625 6.109375 24.8125 6.109375 
Q 31.15625 6.109375 34.5625 8.28125 
Q 37.984375 10.453125 37.984375 14.40625 
Q 37.984375 18.0625 35.515625 20.015625 
Q 33.0625 21.96875 24.703125 23.78125 
L 21.578125 24.515625 
Q 13.234375 26.265625 9.515625 29.90625 
Q 5.8125 33.546875 5.8125 39.890625 
Q 5.8125 47.609375 11.28125 51.796875 
Q 16.75 56 26.8125 56 
Q 31.78125 56 36.171875 55.265625 
Q 40.578125 54.546875 44.28125 53.078125 
z
" id="DejaVuSans-115"/>
     </defs>
     <g transform="translate(14.798438 164.3671)rotate(-90)scale(0.1 -0.1)">
      <use xlink:href="#DejaVuSans-49"/>
      <use x="63.623047" xlink:href="#DejaVuSans-115"/>
      <use x="115.722656" xlink:href="#DejaVuSans-32"/>
      <use x="147.509766" xlink:href="#DejaVuSans-98"/>
      <use x="210.986328" xlink:href="#DejaVuSans-105"/>
      <use x="238.769531" xlink:href="#DejaVuSans-110"/>
      <use x="302.148438" xlink:href="#DejaVuSans-100"/>
      <use x="365.625" xlink:href="#DejaVuSans-105"/>
      <use x="393.408203" xlink:href="#DejaVuSans-110"/>
      <use x="456.787109" xlink:href="#DejaVuSans-103"/>
      <use x="520.263672" xlink:href="#DejaVuSans-32"/>
      <use x="552.050781" xlink:href="#DejaVuSans-101"/>
      <use x="613.574219" xlink:href="#DejaVuSans-110"/>
      <use x="676.953125" xlink:href="#DejaVuSans-101"/>
      <use x="738.476562" xlink:href="#DejaVuSans-114"/>
      <use x="779.574219" xlink:href="#DejaVuSans-103"/>
      <use x="843.050781" xlink:href="#DejaVuSans-121"/>
      <use x="902.230469" xlink:href="#DejaVuSans-32"/>
      <use x="934.017578" xlink:href="#DejaVuSans-47"/>
      <use x="967.708984" xlink:href="#DejaVuSans-32"/>
      <use x="999.496094" xlink:href="#DejaVuSans-101"/>
      <use x="1061.019531" xlink:href="#DejaVuSans-86"/>
     </g>
    </g>
   </g>
   <g id="line2d_13">
    <path clip-path="url(#p5e778ac0e8)" d="M 67.261884 183.702972 
L 108.554212 136.80218 
L 134.002553 107.897358 
L 111.620059 133.319919 
L 111.584386 133.360438 
L 101.124556 145.240957 
L 212.766503 18.43542 
L 210.156863 21.399511 
L 68.396799 182.41391 
L 109.808723 135.377277 
L 135.037079 106.722319 
L 111.141899 133.863024 
L 111.009268 134.01367 
L 100.781315 145.630818 
L 66.245881 184.856973 
L 107.233613 138.302148 
L 128.417849 114.240596 
L 111.382466 133.589783 
L 111.173228 133.82744 
L 98.729413 147.961417 
L 65.751028 185.419039 
L 108.739438 136.591795 
L 133.357461 108.63007 
L 112.739653 132.048259 
L 113.091126 131.649046 
L 104.899754 140.952999 
L 73.597558 176.506766 
L 113.97244 130.648029 
L 141.803806 99.036513 
L 119.125863 124.794651 
L 119.05909 124.870493 
L 112.276814 132.573961 
L 78.217939 171.258829 
L 75.453028 174.39928 
L 59.21755 192.839915 
L 67.021775 183.975694 
L 56.084701 196.398279 
L 99.601123 146.971309 
L 121.279754 122.348211 
L 97.838952 148.972823 
L 98.70746 147.986351 
L 90.887685 156.868235 
L 58.759743 193.359904 
L 101.768506 144.509544 
L 123.247733 120.112935 
L 100.516966 145.931072 
L 101.316186 145.023299 
L 93.253558 154.181021 
L 61.476403 190.274257 
L 101.50027 144.814213 
L 124.478234 118.715303 
L 101.114952 145.251866 
L 101.729859 144.553439 
L 94.876008 152.338204 
" style="fill:none;stroke:#000000;stroke-linecap:square;"/>
   </g>
   <g id="line2d_14">
    <path clip-path="url(#p5e778ac0e8)" d="M 67.261884 183.702972 
L 108.554212 136.80218 
L 134.002553 107.897358 
L 111.620059 133.319919 
L 111.584386 133.360438 
L 101.124556 145.240957 
L 212.766503 18.43542 
L 210.156863 21.399511 
L 68.396799 182.41391 
L 109.808723 135.377277 
L 135.037079 106.722319 
L 111.141899 133.863024 
L 111.009268 134.01367 
L 100.781315 145.630818 
L 66.245881 184.856973 
L 107.233613 138.302148 
L 128.417849 114.240596 
L 111.382466 133.589783 
L 111.173228 133.82744 
L 98.729413 147.961417 
L 65.751028 185.419039 
L 108.739438 136.591795 
L 133.357461 108.63007 
L 112.739653 132.048259 
L 113.091126 131.649046 
L 104.899754 140.952999 
L 73.597558 176.506766 
L 113.97244 130.648029 
L 141.803806 99.036513 
L 119.125863 124.794651 
L 119.05909 124.870493 
L 112.276814 132.573961 
L 78.217939 171.258829 
L 75.453028 174.39928 
L 59.21755 192.839915 
L 67.021775 183.975694 
L 56.084701 196.398279 
L 99.601123 146.971309 
L 121.279754 122.348211 
L 97.838952 148.972823 
L 98.70746 147.986351 
L 90.887685 156.868235 
L 58.759743 193.359904 
L 101.768506 144.509544 
L 123.247733 120.112935 
L 100.516966 145.931072 
L 101.316186 145.023299 
L 93.253558 154.181021 
L 61.476403 190.274257 
L 101.50027 144.814213 
L 124.478234 118.715303 
L 101.114952 145.251866 
L 101.729859 144.553439 
L 94.876008 152.338204 
" style="fill:none;stroke:#000000;stroke-linecap:square;"/>
   </g>
   <g id="patch_3">
    <path d="M 46.965625 206.510447 
L 46.965625 9.280002 
" style="fill:none;stroke:#000000;stroke-linecap:square;stroke-linejoin:miter;stroke-width:0.8;"/>
   </g>
   <g id="patch_4">
    <path d="M 240.323735 206.510447 
L 240.323735 9.280002 
" style="fill:none;stroke:#000000;stroke-linecap:square;stroke-linejoin:miter;stroke-width:0.8;"/>
   </g>
   <g id="patch_5">
    <path d="M 46.965625 206.510447 
L 240.323735 206.510447 
" style="fill:none;stroke:#000000;stroke-linecap:square;stroke-linejoin:miter;stroke-width:0.8;"/>
   </g>
   <g id="patch_6">
    <path d="M 46.965625 9.280002 
L 240.323735 9.280002 
" style="fill:none;stroke:#000000;stroke-linecap:square;stroke-linejoin:miter;stroke-width:0.8;"/>
   </g>
   <g id="legend_1">
    <g id="patch_7">
     <path d="M 51.865625 97.077502 
L 93.645781 97.077502 
Q 95.045781 97.077502 95.045781 95.677502 
L 95.045781 14.180002 
Q 95.045781 12.780002 93.645781 12.780002 
L 51.865625 12.780002 
Q 50.465625 12.780002 50.465625 14.180002 
L 50.465625 95.677502 
Q 50.465625 97.077502 51.865625 97.077502 
z
" style="fill:#ffffff;opacity:0.8;stroke:#cccccc;stroke-linejoin:miter;"/>
    </g>
    <g id="PathCollection_9">
     <g>
      <use style="fill:#377eb8;stroke:#377eb8;" x="60.265625" xlink:href="#m7e79d06060" y="19.061409"/>
     </g>
    </g>
    <g id="text_15">
     <!-- TFSI -->
     <defs>
      <path d="M -0.296875 72.90625 
L 61.375 72.90625 
L 61.375 64.59375 
L 35.5 64.59375 
L 35.5 0 
L 25.59375 0 
L 25.59375 64.59375 
L -0.296875 64.59375 
z
" id="DejaVuSans-84"/>
      <path d="M 9.8125 72.90625 
L 51.703125 72.90625 
L 51.703125 64.59375 
L 19.671875 64.59375 
L 19.671875 43.109375 
L 48.578125 43.109375 
L 48.578125 34.8125 
L 19.671875 34.8125 
L 19.671875 0 
L 9.8125 0 
z
" id="DejaVuSans-70"/>
      <path d="M 9.8125 72.90625 
L 19.671875 72.90625 
L 19.671875 0 
L 9.8125 0 
z
" id="DejaVuSans-73"/>
     </defs>
     <g transform="translate(72.865625 20.898909)scale(0.07 -0.07)">
      <use xlink:href="#DejaVuSans-84"/>
      <use x="61.083984" xlink:href="#DejaVuSans-70"/>
      <use x="118.587891" xlink:href="#DejaVuSans-83"/>
      <use x="182.064453" xlink:href="#DejaVuSans-73"/>
     </g>
    </g>
    <g id="PathCollection_10">
     <g>
      <use style="fill:#ff7f00;stroke:#ff7f00;" x="60.265625" xlink:href="#m0cf0f2a6db" y="29.336096"/>
     </g>
    </g>
    <g id="text_16">
     <!-- FSI -->
     <g transform="translate(72.865625 31.173596)scale(0.07 -0.07)">
      <use xlink:href="#DejaVuSans-70"/>
      <use x="57.503906" xlink:href="#DejaVuSans-83"/>
      <use x="120.980469" xlink:href="#DejaVuSans-73"/>
     </g>
    </g>
    <g id="PathCollection_11">
     <g>
      <use style="fill:#4daf4a;stroke:#4daf4a;" x="60.265625" xlink:href="#m0eecd188e9" y="39.610784"/>
     </g>
    </g>
    <g id="text_17">
     <!-- BF4 -->
     <defs>
      <path d="M 19.671875 34.8125 
L 19.671875 8.109375 
L 35.5 8.109375 
Q 43.453125 8.109375 47.28125 11.40625 
Q 51.125 14.703125 51.125 21.484375 
Q 51.125 28.328125 47.28125 31.5625 
Q 43.453125 34.8125 35.5 34.8125 
z
M 19.671875 64.796875 
L 19.671875 42.828125 
L 34.28125 42.828125 
Q 41.5 42.828125 45.03125 45.53125 
Q 48.578125 48.25 48.578125 53.8125 
Q 48.578125 59.328125 45.03125 62.0625 
Q 41.5 64.796875 34.28125 64.796875 
z
M 9.8125 72.90625 
L 35.015625 72.90625 
Q 46.296875 72.90625 52.390625 68.21875 
Q 58.5 63.53125 58.5 54.890625 
Q 58.5 48.1875 55.375 44.234375 
Q 52.25 40.28125 46.1875 39.3125 
Q 53.46875 37.75 57.5 32.78125 
Q 61.53125 27.828125 61.53125 20.40625 
Q 61.53125 10.640625 54.890625 5.3125 
Q 48.25 0 35.984375 0 
L 9.8125 0 
z
" id="DejaVuSans-66"/>
     </defs>
     <g transform="translate(72.865625 41.448284)scale(0.07 -0.07)">
      <use xlink:href="#DejaVuSans-66"/>
      <use x="68.603516" xlink:href="#DejaVuSans-70"/>
      <use x="126.123047" xlink:href="#DejaVuSans-52"/>
     </g>
    </g>
    <g id="PathCollection_12">
     <g>
      <use style="fill:#f781bf;stroke:#f781bf;" x="60.265625" xlink:href="#m81329c1e8c" y="49.885471"/>
     </g>
    </g>
    <g id="text_18">
     <!-- PF6 -->
     <defs>
      <path d="M 19.671875 64.796875 
L 19.671875 37.40625 
L 32.078125 37.40625 
Q 38.96875 37.40625 42.71875 40.96875 
Q 46.484375 44.53125 46.484375 51.125 
Q 46.484375 57.671875 42.71875 61.234375 
Q 38.96875 64.796875 32.078125 64.796875 
z
M 9.8125 72.90625 
L 32.078125 72.90625 
Q 44.34375 72.90625 50.609375 67.359375 
Q 56.890625 61.8125 56.890625 51.125 
Q 56.890625 40.328125 50.609375 34.8125 
Q 44.34375 29.296875 32.078125 29.296875 
L 19.671875 29.296875 
L 19.671875 0 
L 9.8125 0 
z
" id="DejaVuSans-80"/>
     </defs>
     <g transform="translate(72.865625 51.722971)scale(0.07 -0.07)">
      <use xlink:href="#DejaVuSans-80"/>
      <use x="60.302734" xlink:href="#DejaVuSans-70"/>
      <use x="117.822266" xlink:href="#DejaVuSans-54"/>
     </g>
    </g>
    <g id="PathCollection_13">
     <g>
      <use style="fill:#a65628;stroke:#a65628;" x="60.265625" xlink:href="#m21d6ef2dc3" y="60.160159"/>
     </g>
    </g>
    <g id="text_19">
     <!-- BCN4 -->
     <defs>
      <path d="M 64.40625 67.28125 
L 64.40625 56.890625 
Q 59.421875 61.53125 53.78125 63.8125 
Q 48.140625 66.109375 41.796875 66.109375 
Q 29.296875 66.109375 22.65625 58.46875 
Q 16.015625 50.828125 16.015625 36.375 
Q 16.015625 21.96875 22.65625 14.328125 
Q 29.296875 6.6875 41.796875 6.6875 
Q 48.140625 6.6875 53.78125 8.984375 
Q 59.421875 11.28125 64.40625 15.921875 
L 64.40625 5.609375 
Q 59.234375 2.09375 53.4375 0.328125 
Q 47.65625 -1.421875 41.21875 -1.421875 
Q 24.65625 -1.421875 15.125 8.703125 
Q 5.609375 18.84375 5.609375 36.375 
Q 5.609375 53.953125 15.125 64.078125 
Q 24.65625 74.21875 41.21875 74.21875 
Q 47.75 74.21875 53.53125 72.484375 
Q 59.328125 70.75 64.40625 67.28125 
z
" id="DejaVuSans-67"/>
      <path d="M 9.8125 72.90625 
L 23.09375 72.90625 
L 55.421875 11.921875 
L 55.421875 72.90625 
L 64.984375 72.90625 
L 64.984375 0 
L 51.703125 0 
L 19.390625 60.984375 
L 19.390625 0 
L 9.8125 0 
z
" id="DejaVuSans-78"/>
     </defs>
     <g transform="translate(72.865625 61.997659)scale(0.07 -0.07)">
      <use xlink:href="#DejaVuSans-66"/>
      <use x="68.587891" xlink:href="#DejaVuSans-67"/>
      <use x="138.412109" xlink:href="#DejaVuSans-78"/>
      <use x="213.216797" xlink:href="#DejaVuSans-52"/>
     </g>
    </g>
    <g id="PathCollection_14">
     <g>
      <use style="fill:#984ea3;stroke:#984ea3;" x="60.265625" xlink:href="#m3751f471ab" y="70.434846"/>
     </g>
    </g>
    <g id="text_20">
     <!-- Cl -->
     <defs>
      <path d="M 9.421875 75.984375 
L 18.40625 75.984375 
L 18.40625 0 
L 9.421875 0 
z
" id="DejaVuSans-108"/>
     </defs>
     <g transform="translate(72.865625 72.272346)scale(0.07 -0.07)">
      <use xlink:href="#DejaVuSans-67"/>
      <use x="69.824219" xlink:href="#DejaVuSans-108"/>
     </g>
    </g>
    <g id="PathCollection_15">
     <g>
      <use style="fill:#999999;stroke:#999999;" x="60.265625" xlink:href="#maf218f53d1" y="80.709534"/>
     </g>
    </g>
    <g id="text_21">
     <!-- Br -->
     <g transform="translate(72.865625 82.547034)scale(0.07 -0.07)">
      <use xlink:href="#DejaVuSans-66"/>
      <use x="68.603516" xlink:href="#DejaVuSans-114"/>
     </g>
    </g>
    <g id="PathCollection_16">
     <g>
      <use style="fill:#e41a1c;stroke:#e41a1c;" x="60.265625" xlink:href="#mabdf1da7bd" y="90.984221"/>
     </g>
    </g>
    <g id="text_22">
     <!-- I -->
     <g transform="translate(72.865625 92.821721)scale(0.07 -0.07)">
      <use xlink:href="#DejaVuSans-73"/>
     </g>
    </g>
   </g>
  </g>
 </g>
 <defs>
  <clipPath id="p5e778ac0e8">
   <rect height="197.230445" width="193.35811" x="46.965625" y="9.280002"/>
  </clipPath>
 </defs>
</svg>
