<?xml version="1.0" encoding="utf-8" standalone="no"?>
<!DOCTYPE svg PUBLIC "-//W3C//DTD SVG 1.1//EN"
  "http://www.w3.org/Graphics/SVG/1.1/DTD/svg11.dtd">
<!-- Created with matplotlib (https://matplotlib.org/) -->
<svg height="224.596892pt" version="1.1" viewBox="0 0 232.359833 224.596892" width="232.359833pt" xmlns="http://www.w3.org/2000/svg" xmlns:xlink="http://www.w3.org/1999/xlink">
 <defs>
  <style type="text/css">
*{stroke-linecap:butt;stroke-linejoin:round;}
  </style>
 </defs>
 <g id="figure_1">
  <g id="patch_1">
   <path d="M 0 224.596892 
L 232.359833 224.596892 
L 232.359833 0 
L 0 0 
z
" style="fill:#ffffff;"/>
  </g>
  <g id="axes_1">
   <g id="patch_2">
    <path d="M 39.32125 191.862205 
L 221.659833 191.862205 
L 221.659833 10.7 
L 39.32125 10.7 
z
" style="fill:#ffffff;"/>
   </g>
   <g id="line2d_1">
    <path clip-path="url(#pa3245c7214)" d="M 10.147077 216.215666 
L 13.793848 212.793735 
L 17.44062 209.371803 
L 21.087392 205.949872 
L 24.734163 202.527941 
L 28.380935 199.106009 
L 32.027707 195.684078 
L 35.674478 192.262146 
L 39.32125 188.840215 
L 42.968022 185.418284 
L 46.614793 181.996352 
L 50.261565 178.574421 
L 53.908337 175.15249 
L 57.555108 171.730558 
L 61.20188 168.308627 
L 64.848652 164.886695 
L 68.495423 161.464764 
L 72.142195 158.042833 
L 75.788967 154.620901 
L 79.435738 151.19897 
L 83.08251 147.777038 
L 86.729281 144.355107 
L 90.376053 140.933176 
L 94.022825 137.511244 
L 97.669596 134.089313 
L 101.316368 130.667382 
L 104.96314 127.24545 
L 108.609911 123.823519 
L 112.256683 120.401587 
L 115.903455 116.979656 
L 119.550226 113.557725 
L 123.196998 110.135793 
L 126.84377 106.713862 
L 130.490541 103.291931 
L 134.137313 99.869999 
L 137.784085 96.448068 
L 141.430856 93.026136 
L 145.077628 89.604205 
L 148.7244 86.182274 
L 152.371171 82.760342 
L 156.017943 79.338411 
L 159.664715 75.91648 
L 163.311486 72.494548 
L 166.958258 69.072617 
L 170.60503 65.650685 
L 174.251801 62.228754 
L 177.898573 58.806823 
L 181.545344 55.384891 
L 185.192116 51.96296 
L 188.838888 48.541029 
L 192.485659 45.119097 
L 196.132431 41.697166 
L 199.779203 38.275234 
L 203.425974 34.853303 
L 207.072746 31.431372 
L 210.719518 28.00944 
L 214.366289 24.587509 
L 218.013061 21.165578 
L 221.659833 17.743646 
L 225.306604 14.321715 
L 228.953376 10.899783 
L 232.600148 7.477852 
L 233.359833 6.765005 
" style="fill:none;stroke:#000000;stroke-dasharray:4.44,1.92;stroke-dashoffset:0;stroke-width:1.2;"/>
   </g>
   <g id="PathCollection_1">
    <defs>
     <path d="M -2 2 
L 2 -2 
M -2 -2 
L 2 2 
" id="m412b97a42e" style="stroke:#aa0a3c;stroke-opacity:0.45;stroke-width:1.5;"/>
    </defs>
    <g clip-path="url(#pa3245c7214)">
     <use style="fill:#aa0a3c;fill-opacity:0.45;stroke:#aa0a3c;stroke-opacity:0.45;stroke-width:1.5;" x="88.470104" xlink:href="#m412b97a42e" y="222.560425"/>
     <use style="fill:#aa0a3c;fill-opacity:0.45;stroke:#aa0a3c;stroke-opacity:0.45;stroke-width:1.5;" x="150.566603" xlink:href="#m412b97a42e" y="96.995951"/>
     <use style="fill:#aa0a3c;fill-opacity:0.45;stroke:#aa0a3c;stroke-opacity:0.45;stroke-width:1.5;" x="167.320309" xlink:href="#m412b97a42e" y="70.829832"/>
     <use style="fill:#aa0a3c;fill-opacity:0.45;stroke:#aa0a3c;stroke-opacity:0.45;stroke-width:1.5;" x="136.03079" xlink:href="#m412b97a42e" y="112.903652"/>
     <use style="fill:#aa0a3c;fill-opacity:0.45;stroke:#aa0a3c;stroke-opacity:0.45;stroke-width:1.5;" x="136.533278" xlink:href="#m412b97a42e" y="108.639188"/>
     <use style="fill:#aa0a3c;fill-opacity:0.45;stroke:#aa0a3c;stroke-opacity:0.45;stroke-width:1.5;" x="146.014994" xlink:href="#m412b97a42e" y="194.663793"/>
     <use style="fill:#aa0a3c;fill-opacity:0.45;stroke:#aa0a3c;stroke-opacity:0.45;stroke-width:1.5;" x="255.436908" xlink:href="#m412b97a42e" y="-1"/>
    </g>
   </g>
   <g id="PathCollection_2">
    <defs>
     <path d="M -2.44949 0 
L 2.44949 0 
M 0 2.44949 
L 0 -2.44949 
" id="mc634bf1c8c" style="stroke:#4daf4a;stroke-opacity:0.45;stroke-width:1.5;"/>
    </defs>
    <g clip-path="url(#pa3245c7214)">
     <use style="fill:#4daf4a;fill-opacity:0.45;stroke:#4daf4a;stroke-opacity:0.45;stroke-width:1.5;" x="88.470104" xlink:href="#mc634bf1c8c" y="136.873617"/>
     <use style="fill:#4daf4a;fill-opacity:0.45;stroke:#4daf4a;stroke-opacity:0.45;stroke-width:1.5;" x="150.566603" xlink:href="#mc634bf1c8c" y="88.102211"/>
     <use style="fill:#4daf4a;fill-opacity:0.45;stroke:#4daf4a;stroke-opacity:0.45;stroke-width:1.5;" x="167.320309" xlink:href="#mc634bf1c8c" y="55.182902"/>
     <use style="fill:#4daf4a;fill-opacity:0.45;stroke:#4daf4a;stroke-opacity:0.45;stroke-width:1.5;" x="136.03079" xlink:href="#mc634bf1c8c" y="86.666274"/>
     <use style="fill:#4daf4a;fill-opacity:0.45;stroke:#4daf4a;stroke-opacity:0.45;stroke-width:1.5;" x="136.533278" xlink:href="#mc634bf1c8c" y="84.951092"/>
     <use style="fill:#4daf4a;fill-opacity:0.45;stroke:#4daf4a;stroke-opacity:0.45;stroke-width:1.5;" x="146.014994" xlink:href="#mc634bf1c8c" y="99.475316"/>
     <use style="fill:#4daf4a;fill-opacity:0.45;stroke:#4daf4a;stroke-opacity:0.45;stroke-width:1.5;" x="314.320982" xlink:href="#mc634bf1c8c" y="20.388219"/>
     <use style="fill:#4daf4a;fill-opacity:0.45;stroke:#4daf4a;stroke-opacity:0.45;stroke-width:1.5;" x="308.220188" xlink:href="#mc634bf1c8c" y="23.641536"/>
    </g>
   </g>
   <g id="PathCollection_3">
    <g clip-path="url(#pa3245c7214)">
     <use style="fill:#aa0a3c;fill-opacity:0.45;stroke:#aa0a3c;stroke-opacity:0.45;stroke-width:1.5;" x="92.390639" xlink:href="#m412b97a42e" y="182.934189"/>
     <use style="fill:#aa0a3c;fill-opacity:0.45;stroke:#aa0a3c;stroke-opacity:0.45;stroke-width:1.5;" x="154.046498" xlink:href="#m412b97a42e" y="56.277801"/>
     <use style="fill:#aa0a3c;fill-opacity:0.45;stroke:#aa0a3c;stroke-opacity:0.45;stroke-width:1.5;" x="170.718007" xlink:href="#m412b97a42e" y="34.21607"/>
     <use style="fill:#aa0a3c;fill-opacity:0.45;stroke:#aa0a3c;stroke-opacity:0.45;stroke-width:1.5;" x="136.433357" xlink:href="#m412b97a42e" y="71.793148"/>
     <use style="fill:#aa0a3c;fill-opacity:0.45;stroke:#aa0a3c;stroke-opacity:0.45;stroke-width:1.5;" x="137.361679" xlink:href="#m412b97a42e" y="69.609317"/>
     <use style="fill:#aa0a3c;fill-opacity:0.45;stroke:#aa0a3c;stroke-opacity:0.45;stroke-width:1.5;" x="146.713023" xlink:href="#m412b97a42e" y="154.802895"/>
    </g>
   </g>
   <g id="PathCollection_4">
    <g clip-path="url(#pa3245c7214)">
     <use style="fill:#4daf4a;fill-opacity:0.45;stroke:#4daf4a;stroke-opacity:0.45;stroke-width:1.5;" x="92.390639" xlink:href="#mc634bf1c8c" y="139.606786"/>
     <use style="fill:#4daf4a;fill-opacity:0.45;stroke:#4daf4a;stroke-opacity:0.45;stroke-width:1.5;" x="154.046498" xlink:href="#mc634bf1c8c" y="90.740543"/>
     <use style="fill:#4daf4a;fill-opacity:0.45;stroke:#4daf4a;stroke-opacity:0.45;stroke-width:1.5;" x="170.718007" xlink:href="#mc634bf1c8c" y="57.564953"/>
     <use style="fill:#4daf4a;fill-opacity:0.45;stroke:#4daf4a;stroke-opacity:0.45;stroke-width:1.5;" x="136.433357" xlink:href="#mc634bf1c8c" y="90.569669"/>
     <use style="fill:#4daf4a;fill-opacity:0.45;stroke:#4daf4a;stroke-opacity:0.45;stroke-width:1.5;" x="137.361679" xlink:href="#mc634bf1c8c" y="88.865849"/>
     <use style="fill:#4daf4a;fill-opacity:0.45;stroke:#4daf4a;stroke-opacity:0.45;stroke-width:1.5;" x="146.713023" xlink:href="#mc634bf1c8c" y="102.285619"/>
    </g>
   </g>
   <g id="PathCollection_5">
    <g clip-path="url(#pa3245c7214)">
     <use style="fill:#aa0a3c;fill-opacity:0.45;stroke:#aa0a3c;stroke-opacity:0.45;stroke-width:1.5;" x="91.578686" xlink:href="#m412b97a42e" y="186.226425"/>
     <use style="fill:#aa0a3c;fill-opacity:0.45;stroke:#aa0a3c;stroke-opacity:0.45;stroke-width:1.5;" x="152.377517" xlink:href="#m412b97a42e" y="57.306168"/>
     <use style="fill:#aa0a3c;fill-opacity:0.45;stroke:#aa0a3c;stroke-opacity:0.45;stroke-width:1.5;" x="163.546156" xlink:href="#m412b97a42e" y="22.538916"/>
     <use style="fill:#aa0a3c;fill-opacity:0.45;stroke:#aa0a3c;stroke-opacity:0.45;stroke-width:1.5;" x="140.182858" xlink:href="#m412b97a42e" y="76.220212"/>
     <use style="fill:#aa0a3c;fill-opacity:0.45;stroke:#aa0a3c;stroke-opacity:0.45;stroke-width:1.5;" x="140.463951" xlink:href="#m412b97a42e" y="75.896316"/>
     <use style="fill:#aa0a3c;fill-opacity:0.45;stroke:#aa0a3c;stroke-opacity:0.45;stroke-width:1.5;" x="146.732934" xlink:href="#m412b97a42e" y="152.826962"/>
    </g>
   </g>
   <g id="PathCollection_6">
    <g clip-path="url(#pa3245c7214)">
     <use style="fill:#aa0a3c;fill-opacity:0.45;stroke:#aa0a3c;stroke-opacity:0.45;stroke-width:1.5;" x="90.094887" xlink:href="#m412b97a42e" y="184.777843"/>
     <use style="fill:#aa0a3c;fill-opacity:0.45;stroke:#aa0a3c;stroke-opacity:0.45;stroke-width:1.5;" x="154.286164" xlink:href="#m412b97a42e" y="56.298984"/>
     <use style="fill:#aa0a3c;fill-opacity:0.45;stroke:#aa0a3c;stroke-opacity:0.45;stroke-width:1.5;" x="170.768113" xlink:href="#m412b97a42e" y="23.448885"/>
     <use style="fill:#aa0a3c;fill-opacity:0.45;stroke:#aa0a3c;stroke-opacity:0.45;stroke-width:1.5;" x="142.304842" xlink:href="#m412b97a42e" y="72.638206"/>
     <use style="fill:#aa0a3c;fill-opacity:0.45;stroke:#aa0a3c;stroke-opacity:0.45;stroke-width:1.5;" x="143.158843" xlink:href="#m412b97a42e" y="72.40763"/>
     <use style="fill:#aa0a3c;fill-opacity:0.45;stroke:#aa0a3c;stroke-opacity:0.45;stroke-width:1.5;" x="156.745948" xlink:href="#m412b97a42e" y="150.27761"/>
    </g>
   </g>
   <g id="PathCollection_7">
    <g clip-path="url(#pa3245c7214)">
     <use style="fill:#4daf4a;fill-opacity:0.45;stroke:#4daf4a;stroke-opacity:0.45;stroke-width:1.5;" x="90.094887" xlink:href="#mc634bf1c8c" y="140.037497"/>
     <use style="fill:#4daf4a;fill-opacity:0.45;stroke:#4daf4a;stroke-opacity:0.45;stroke-width:1.5;" x="154.286164" xlink:href="#mc634bf1c8c" y="89.706537"/>
     <use style="fill:#4daf4a;fill-opacity:0.45;stroke:#4daf4a;stroke-opacity:0.45;stroke-width:1.5;" x="170.768113" xlink:href="#mc634bf1c8c" y="57.174666"/>
     <use style="fill:#4daf4a;fill-opacity:0.45;stroke:#4daf4a;stroke-opacity:0.45;stroke-width:1.5;" x="142.304842" xlink:href="#mc634bf1c8c" y="88.267742"/>
     <use style="fill:#4daf4a;fill-opacity:0.45;stroke:#4daf4a;stroke-opacity:0.45;stroke-width:1.5;" x="143.158843" xlink:href="#mc634bf1c8c" y="87.531682"/>
     <use style="fill:#4daf4a;fill-opacity:0.45;stroke:#4daf4a;stroke-opacity:0.45;stroke-width:1.5;" x="156.745948" xlink:href="#mc634bf1c8c" y="97.131035"/>
    </g>
   </g>
   <g id="PathCollection_8">
    <g clip-path="url(#pa3245c7214)">
     <use style="fill:#aa0a3c;fill-opacity:0.45;stroke:#aa0a3c;stroke-opacity:0.45;stroke-width:1.5;" x="100.855854" xlink:href="#m412b97a42e" y="226.456993"/>
     <use style="fill:#aa0a3c;fill-opacity:0.45;stroke:#aa0a3c;stroke-opacity:0.45;stroke-width:1.5;" x="159.606621" xlink:href="#m412b97a42e" y="99.958636"/>
     <use style="fill:#aa0a3c;fill-opacity:0.45;stroke:#aa0a3c;stroke-opacity:0.45;stroke-width:1.5;" x="181.402573" xlink:href="#m412b97a42e" y="76.333961"/>
     <use style="fill:#aa0a3c;fill-opacity:0.45;stroke:#aa0a3c;stroke-opacity:0.45;stroke-width:1.5;" x="150.351699" xlink:href="#m412b97a42e" y="112.461168"/>
     <use style="fill:#aa0a3c;fill-opacity:0.45;stroke:#aa0a3c;stroke-opacity:0.45;stroke-width:1.5;" x="150.548114" xlink:href="#m412b97a42e" y="113.989373"/>
     <use style="fill:#aa0a3c;fill-opacity:0.45;stroke:#aa0a3c;stroke-opacity:0.45;stroke-width:1.5;" x="165.557788" xlink:href="#m412b97a42e" y="196.404118"/>
     <use style="fill:#aa0a3c;fill-opacity:0.45;stroke:#aa0a3c;stroke-opacity:0.45;stroke-width:1.5;" x="107.844272" xlink:href="#m412b97a42e" y="37.33426"/>
     <use style="fill:#aa0a3c;fill-opacity:0.45;stroke:#aa0a3c;stroke-opacity:0.45;stroke-width:1.5;" x="104.74375" xlink:href="#m412b97a42e" y="39.538866"/>
     <use style="fill:#aa0a3c;fill-opacity:0.45;stroke:#aa0a3c;stroke-opacity:0.45;stroke-width:1.5;" x="86.097916" xlink:href="#m412b97a42e" y="47.754797"/>
     <use style="fill:#aa0a3c;fill-opacity:0.45;stroke:#aa0a3c;stroke-opacity:0.45;stroke-width:1.5;" x="94.605834" xlink:href="#m412b97a42e" y="46.097511"/>
    </g>
   </g>
   <g id="PathCollection_9">
    <g clip-path="url(#pa3245c7214)">
     <use style="fill:#4daf4a;fill-opacity:0.45;stroke:#4daf4a;stroke-opacity:0.45;stroke-width:1.5;" x="100.855854" xlink:href="#mc634bf1c8c" y="128.966885"/>
     <use style="fill:#4daf4a;fill-opacity:0.45;stroke:#4daf4a;stroke-opacity:0.45;stroke-width:1.5;" x="159.606621" xlink:href="#mc634bf1c8c" y="81.008918"/>
     <use style="fill:#4daf4a;fill-opacity:0.45;stroke:#4daf4a;stroke-opacity:0.45;stroke-width:1.5;" x="181.402573" xlink:href="#mc634bf1c8c" y="45.714906"/>
     <use style="fill:#4daf4a;fill-opacity:0.45;stroke:#4daf4a;stroke-opacity:0.45;stroke-width:1.5;" x="150.351699" xlink:href="#mc634bf1c8c" y="77.682817"/>
     <use style="fill:#4daf4a;fill-opacity:0.45;stroke:#4daf4a;stroke-opacity:0.45;stroke-width:1.5;" x="150.548114" xlink:href="#mc634bf1c8c" y="76.332552"/>
     <use style="fill:#4daf4a;fill-opacity:0.45;stroke:#4daf4a;stroke-opacity:0.45;stroke-width:1.5;" x="165.557788" xlink:href="#mc634bf1c8c" y="86.060688"/>
     <use style="fill:#4daf4a;fill-opacity:0.45;stroke:#4daf4a;stroke-opacity:0.45;stroke-width:1.5;" x="107.844272" xlink:href="#mc634bf1c8c" y="117.844199"/>
     <use style="fill:#4daf4a;fill-opacity:0.45;stroke:#4daf4a;stroke-opacity:0.45;stroke-width:1.5;" x="104.74375" xlink:href="#mc634bf1c8c" y="120.046269"/>
     <use style="fill:#4daf4a;fill-opacity:0.45;stroke:#4daf4a;stroke-opacity:0.45;stroke-width:1.5;" x="86.097916" xlink:href="#mc634bf1c8c" y="135.005012"/>
     <use style="fill:#4daf4a;fill-opacity:0.45;stroke:#4daf4a;stroke-opacity:0.45;stroke-width:1.5;" x="94.605834" xlink:href="#mc634bf1c8c" y="127.667437"/>
    </g>
   </g>
   <g id="PathCollection_10">
    <g clip-path="url(#pa3245c7214)">
     <use style="fill:#aa0a3c;fill-opacity:0.45;stroke:#aa0a3c;stroke-opacity:0.45;stroke-width:1.5;" x="71.338957" xlink:href="#m412b97a42e" y="200.872857"/>
     <use style="fill:#aa0a3c;fill-opacity:0.45;stroke:#aa0a3c;stroke-opacity:0.45;stroke-width:1.5;" x="138.023094" xlink:href="#m412b97a42e" y="65.179387"/>
     <use style="fill:#aa0a3c;fill-opacity:0.45;stroke:#aa0a3c;stroke-opacity:0.45;stroke-width:1.5;" x="144.692091" xlink:href="#m412b97a42e" y="22.169639"/>
     <use style="fill:#aa0a3c;fill-opacity:0.45;stroke:#aa0a3c;stroke-opacity:0.45;stroke-width:1.5;" x="112.096699" xlink:href="#m412b97a42e" y="91.341419"/>
     <use style="fill:#aa0a3c;fill-opacity:0.45;stroke:#aa0a3c;stroke-opacity:0.45;stroke-width:1.5;" x="113.684321" xlink:href="#m412b97a42e" y="91.494342"/>
     <use style="fill:#aa0a3c;fill-opacity:0.45;stroke:#aa0a3c;stroke-opacity:0.45;stroke-width:1.5;" x="129.915555" xlink:href="#m412b97a42e" y="162.119399"/>
    </g>
   </g>
   <g id="PathCollection_11">
    <g clip-path="url(#pa3245c7214)">
     <use style="fill:#4daf4a;fill-opacity:0.45;stroke:#4daf4a;stroke-opacity:0.45;stroke-width:1.5;" x="71.338957" xlink:href="#mc634bf1c8c" y="148.290514"/>
     <use style="fill:#4daf4a;fill-opacity:0.45;stroke:#4daf4a;stroke-opacity:0.45;stroke-width:1.5;" x="138.023094" xlink:href="#mc634bf1c8c" y="96.674115"/>
     <use style="fill:#4daf4a;fill-opacity:0.45;stroke:#4daf4a;stroke-opacity:0.45;stroke-width:1.5;" x="144.692091" xlink:href="#mc634bf1c8c" y="71.456694"/>
     <use style="fill:#4daf4a;fill-opacity:0.45;stroke:#4daf4a;stroke-opacity:0.45;stroke-width:1.5;" x="112.096699" xlink:href="#mc634bf1c8c" y="103.988342"/>
     <use style="fill:#4daf4a;fill-opacity:0.45;stroke:#4daf4a;stroke-opacity:0.45;stroke-width:1.5;" x="113.684321" xlink:href="#mc634bf1c8c" y="102.785783"/>
     <use style="fill:#4daf4a;fill-opacity:0.45;stroke:#4daf4a;stroke-opacity:0.45;stroke-width:1.5;" x="129.915555" xlink:href="#mc634bf1c8c" y="109.981595"/>
    </g>
   </g>
   <g id="PathCollection_12">
    <g clip-path="url(#pa3245c7214)">
     <use style="fill:#aa0a3c;fill-opacity:0.45;stroke:#aa0a3c;stroke-opacity:0.45;stroke-width:1.5;" x="74.437582" xlink:href="#m412b97a42e" y="198.697493"/>
     <use style="fill:#aa0a3c;fill-opacity:0.45;stroke:#aa0a3c;stroke-opacity:0.45;stroke-width:1.5;" x="140.406004" xlink:href="#m412b97a42e" y="63.877965"/>
     <use style="fill:#aa0a3c;fill-opacity:0.45;stroke:#aa0a3c;stroke-opacity:0.45;stroke-width:1.5;" x="144.728048" xlink:href="#m412b97a42e" y="26.035912"/>
     <use style="fill:#aa0a3c;fill-opacity:0.45;stroke:#aa0a3c;stroke-opacity:0.45;stroke-width:1.5;" x="114.372722" xlink:href="#m412b97a42e" y="88.439929"/>
     <use style="fill:#aa0a3c;fill-opacity:0.45;stroke:#aa0a3c;stroke-opacity:0.45;stroke-width:1.5;" x="115.641689" xlink:href="#m412b97a42e" y="89.261079"/>
     <use style="fill:#aa0a3c;fill-opacity:0.45;stroke:#aa0a3c;stroke-opacity:0.45;stroke-width:1.5;" x="132.010917" xlink:href="#m412b97a42e" y="160.979754"/>
    </g>
   </g>
   <g id="PathCollection_13">
    <g clip-path="url(#pa3245c7214)">
     <use style="fill:#4daf4a;fill-opacity:0.45;stroke:#4daf4a;stroke-opacity:0.45;stroke-width:1.5;" x="74.437582" xlink:href="#mc634bf1c8c" y="147.351911"/>
     <use style="fill:#4daf4a;fill-opacity:0.45;stroke:#4daf4a;stroke-opacity:0.45;stroke-width:1.5;" x="140.406004" xlink:href="#mc634bf1c8c" y="96.072101"/>
     <use style="fill:#4daf4a;fill-opacity:0.45;stroke:#4daf4a;stroke-opacity:0.45;stroke-width:1.5;" x="144.728048" xlink:href="#mc634bf1c8c" y="71.132392"/>
     <use style="fill:#4daf4a;fill-opacity:0.45;stroke:#4daf4a;stroke-opacity:0.45;stroke-width:1.5;" x="114.372722" xlink:href="#mc634bf1c8c" y="102.306889"/>
     <use style="fill:#4daf4a;fill-opacity:0.45;stroke:#4daf4a;stroke-opacity:0.45;stroke-width:1.5;" x="115.641689" xlink:href="#mc634bf1c8c" y="101.148103"/>
     <use style="fill:#4daf4a;fill-opacity:0.45;stroke:#4daf4a;stroke-opacity:0.45;stroke-width:1.5;" x="132.010917" xlink:href="#mc634bf1c8c" y="109.280737"/>
    </g>
   </g>
   <g id="PathCollection_14">
    <g clip-path="url(#pa3245c7214)">
     <use style="fill:#aa0a3c;fill-opacity:0.45;stroke:#aa0a3c;stroke-opacity:0.45;stroke-width:1.5;" x="77.711216" xlink:href="#m412b97a42e" y="198.234931"/>
     <use style="fill:#aa0a3c;fill-opacity:0.45;stroke:#aa0a3c;stroke-opacity:0.45;stroke-width:1.5;" x="137.837802" xlink:href="#m412b97a42e" y="64.815547"/>
     <use style="fill:#aa0a3c;fill-opacity:0.45;stroke:#aa0a3c;stroke-opacity:0.45;stroke-width:1.5;" x="142.734723" xlink:href="#m412b97a42e" y="29.14847"/>
     <use style="fill:#aa0a3c;fill-opacity:0.45;stroke:#aa0a3c;stroke-opacity:0.45;stroke-width:1.5;" x="112.808184" xlink:href="#m412b97a42e" y="86.516598"/>
     <use style="fill:#aa0a3c;fill-opacity:0.45;stroke:#aa0a3c;stroke-opacity:0.45;stroke-width:1.5;" x="112.788346" xlink:href="#m412b97a42e" y="90.295388"/>
     <use style="fill:#aa0a3c;fill-opacity:0.45;stroke:#aa0a3c;stroke-opacity:0.45;stroke-width:1.5;" x="132.461512" xlink:href="#m412b97a42e" y="160.891836"/>
    </g>
   </g>
   <g id="PathCollection_15">
    <g clip-path="url(#pa3245c7214)">
     <use style="fill:#4daf4a;fill-opacity:0.45;stroke:#4daf4a;stroke-opacity:0.45;stroke-width:1.5;" x="77.711216" xlink:href="#mc634bf1c8c" y="146.446981"/>
     <use style="fill:#4daf4a;fill-opacity:0.45;stroke:#4daf4a;stroke-opacity:0.45;stroke-width:1.5;" x="137.837802" xlink:href="#mc634bf1c8c" y="97.894197"/>
     <use style="fill:#4daf4a;fill-opacity:0.45;stroke:#4daf4a;stroke-opacity:0.45;stroke-width:1.5;" x="142.734723" xlink:href="#mc634bf1c8c" y="71.910172"/>
     <use style="fill:#4daf4a;fill-opacity:0.45;stroke:#4daf4a;stroke-opacity:0.45;stroke-width:1.5;" x="112.808184" xlink:href="#mc634bf1c8c" y="102.60457"/>
     <use style="fill:#4daf4a;fill-opacity:0.45;stroke:#4daf4a;stroke-opacity:0.45;stroke-width:1.5;" x="112.788346" xlink:href="#mc634bf1c8c" y="101.99686"/>
     <use style="fill:#4daf4a;fill-opacity:0.45;stroke:#4daf4a;stroke-opacity:0.45;stroke-width:1.5;" x="132.461512" xlink:href="#mc634bf1c8c" y="109.049991"/>
    </g>
   </g>
   <g id="matplotlib.axis_1">
    <g id="xtick_1">
     <g id="line2d_2">
      <defs>
       <path d="M 0 0 
L 0 3.5 
" id="m86d479c1fe" style="stroke:#000000;stroke-width:0.8;"/>
      </defs>
      <g>
       <use style="stroke:#000000;stroke-width:0.8;" x="46.614793" xlink:href="#m86d479c1fe" y="191.862205"/>
      </g>
     </g>
     <g id="text_1">
      <!-- 289 -->
      <defs>
       <path d="M 19.1875 8.296875 
L 53.609375 8.296875 
L 53.609375 0 
L 7.328125 0 
L 7.328125 8.296875 
Q 12.9375 14.109375 22.625 23.890625 
Q 32.328125 33.6875 34.8125 36.53125 
Q 39.546875 41.84375 41.421875 45.53125 
Q 43.3125 49.21875 43.3125 52.78125 
Q 43.3125 58.59375 39.234375 62.25 
Q 35.15625 65.921875 28.609375 65.921875 
Q 23.96875 65.921875 18.8125 64.3125 
Q 13.671875 62.703125 7.8125 59.421875 
L 7.8125 69.390625 
Q 13.765625 71.78125 18.9375 73 
Q 24.125 74.21875 28.421875 74.21875 
Q 39.75 74.21875 46.484375 68.546875 
Q 53.21875 62.890625 53.21875 53.421875 
Q 53.21875 48.921875 51.53125 44.890625 
Q 49.859375 40.875 45.40625 35.40625 
Q 44.1875 33.984375 37.640625 27.21875 
Q 31.109375 20.453125 19.1875 8.296875 
z
" id="DejaVuSans-50"/>
       <path d="M 31.78125 34.625 
Q 24.75 34.625 20.71875 30.859375 
Q 16.703125 27.09375 16.703125 20.515625 
Q 16.703125 13.921875 20.71875 10.15625 
Q 24.75 6.390625 31.78125 6.390625 
Q 38.8125 6.390625 42.859375 10.171875 
Q 46.921875 13.96875 46.921875 20.515625 
Q 46.921875 27.09375 42.890625 30.859375 
Q 38.875 34.625 31.78125 34.625 
z
M 21.921875 38.8125 
Q 15.578125 40.375 12.03125 44.71875 
Q 8.5 49.078125 8.5 55.328125 
Q 8.5 64.0625 14.71875 69.140625 
Q 20.953125 74.21875 31.78125 74.21875 
Q 42.671875 74.21875 48.875 69.140625 
Q 55.078125 64.0625 55.078125 55.328125 
Q 55.078125 49.078125 51.53125 44.71875 
Q 48 40.375 41.703125 38.8125 
Q 48.828125 37.15625 52.796875 32.3125 
Q 56.78125 27.484375 56.78125 20.515625 
Q 56.78125 9.90625 50.3125 4.234375 
Q 43.84375 -1.421875 31.78125 -1.421875 
Q 19.734375 -1.421875 13.25 4.234375 
Q 6.78125 9.90625 6.78125 20.515625 
Q 6.78125 27.484375 10.78125 32.3125 
Q 14.796875 37.15625 21.921875 38.8125 
z
M 18.3125 54.390625 
Q 18.3125 48.734375 21.84375 45.5625 
Q 25.390625 42.390625 31.78125 42.390625 
Q 38.140625 42.390625 41.71875 45.5625 
Q 45.3125 48.734375 45.3125 54.390625 
Q 45.3125 60.0625 41.71875 63.234375 
Q 38.140625 66.40625 31.78125 66.40625 
Q 25.390625 66.40625 21.84375 63.234375 
Q 18.3125 60.0625 18.3125 54.390625 
z
" id="DejaVuSans-56"/>
       <path d="M 10.984375 1.515625 
L 10.984375 10.5 
Q 14.703125 8.734375 18.5 7.8125 
Q 22.3125 6.890625 25.984375 6.890625 
Q 35.75 6.890625 40.890625 13.453125 
Q 46.046875 20.015625 46.78125 33.40625 
Q 43.953125 29.203125 39.59375 26.953125 
Q 35.25 24.703125 29.984375 24.703125 
Q 19.046875 24.703125 12.671875 31.3125 
Q 6.296875 37.9375 6.296875 49.421875 
Q 6.296875 60.640625 12.9375 67.421875 
Q 19.578125 74.21875 30.609375 74.21875 
Q 43.265625 74.21875 49.921875 64.515625 
Q 56.59375 54.828125 56.59375 36.375 
Q 56.59375 19.140625 48.40625 8.859375 
Q 40.234375 -1.421875 26.421875 -1.421875 
Q 22.703125 -1.421875 18.890625 -0.6875 
Q 15.09375 0.046875 10.984375 1.515625 
z
M 30.609375 32.421875 
Q 37.25 32.421875 41.125 36.953125 
Q 45.015625 41.5 45.015625 49.421875 
Q 45.015625 57.28125 41.125 61.84375 
Q 37.25 66.40625 30.609375 66.40625 
Q 23.96875 66.40625 20.09375 61.84375 
Q 16.21875 57.28125 16.21875 49.421875 
Q 16.21875 41.5 20.09375 36.953125 
Q 23.96875 32.421875 30.609375 32.421875 
z
" id="DejaVuSans-57"/>
      </defs>
      <g transform="translate(39.934168 204.181111)scale(0.07 -0.07)">
       <use xlink:href="#DejaVuSans-50"/>
       <use x="63.623047" xlink:href="#DejaVuSans-56"/>
       <use x="127.246094" xlink:href="#DejaVuSans-57"/>
      </g>
     </g>
    </g>
    <g id="xtick_2">
     <g id="line2d_3">
      <g>
       <use style="stroke:#000000;stroke-width:0.8;" x="83.08251" xlink:href="#m86d479c1fe" y="191.862205"/>
      </g>
     </g>
     <g id="text_2">
      <!-- 290 -->
      <defs>
       <path d="M 31.78125 66.40625 
Q 24.171875 66.40625 20.328125 58.90625 
Q 16.5 51.421875 16.5 36.375 
Q 16.5 21.390625 20.328125 13.890625 
Q 24.171875 6.390625 31.78125 6.390625 
Q 39.453125 6.390625 43.28125 13.890625 
Q 47.125 21.390625 47.125 36.375 
Q 47.125 51.421875 43.28125 58.90625 
Q 39.453125 66.40625 31.78125 66.40625 
z
M 31.78125 74.21875 
Q 44.046875 74.21875 50.515625 64.515625 
Q 56.984375 54.828125 56.984375 36.375 
Q 56.984375 17.96875 50.515625 8.265625 
Q 44.046875 -1.421875 31.78125 -1.421875 
Q 19.53125 -1.421875 13.0625 8.265625 
Q 6.59375 17.96875 6.59375 36.375 
Q 6.59375 54.828125 13.0625 64.515625 
Q 19.53125 74.21875 31.78125 74.21875 
z
" id="DejaVuSans-48"/>
      </defs>
      <g transform="translate(76.401885 204.181111)scale(0.07 -0.07)">
       <use xlink:href="#DejaVuSans-50"/>
       <use x="63.623047" xlink:href="#DejaVuSans-57"/>
       <use x="127.246094" xlink:href="#DejaVuSans-48"/>
      </g>
     </g>
    </g>
    <g id="xtick_3">
     <g id="line2d_4">
      <g>
       <use style="stroke:#000000;stroke-width:0.8;" x="119.550226" xlink:href="#m86d479c1fe" y="191.862205"/>
      </g>
     </g>
     <g id="text_3">
      <!-- 291 -->
      <defs>
       <path d="M 12.40625 8.296875 
L 28.515625 8.296875 
L 28.515625 63.921875 
L 10.984375 60.40625 
L 10.984375 69.390625 
L 28.421875 72.90625 
L 38.28125 72.90625 
L 38.28125 8.296875 
L 54.390625 8.296875 
L 54.390625 0 
L 12.40625 0 
z
" id="DejaVuSans-49"/>
      </defs>
      <g transform="translate(112.869601 204.181111)scale(0.07 -0.07)">
       <use xlink:href="#DejaVuSans-50"/>
       <use x="63.623047" xlink:href="#DejaVuSans-57"/>
       <use x="127.246094" xlink:href="#DejaVuSans-49"/>
      </g>
     </g>
    </g>
    <g id="xtick_4">
     <g id="line2d_5">
      <g>
       <use style="stroke:#000000;stroke-width:0.8;" x="156.017943" xlink:href="#m86d479c1fe" y="191.862205"/>
      </g>
     </g>
     <g id="text_4">
      <!-- 292 -->
      <g transform="translate(149.337318 204.181111)scale(0.07 -0.07)">
       <use xlink:href="#DejaVuSans-50"/>
       <use x="63.623047" xlink:href="#DejaVuSans-57"/>
       <use x="127.246094" xlink:href="#DejaVuSans-50"/>
      </g>
     </g>
    </g>
    <g id="xtick_5">
     <g id="line2d_6">
      <g>
       <use style="stroke:#000000;stroke-width:0.8;" x="192.485659" xlink:href="#m86d479c1fe" y="191.862205"/>
      </g>
     </g>
     <g id="text_5">
      <!-- 293 -->
      <defs>
       <path d="M 40.578125 39.3125 
Q 47.65625 37.796875 51.625 33 
Q 55.609375 28.21875 55.609375 21.1875 
Q 55.609375 10.40625 48.1875 4.484375 
Q 40.765625 -1.421875 27.09375 -1.421875 
Q 22.515625 -1.421875 17.65625 -0.515625 
Q 12.796875 0.390625 7.625 2.203125 
L 7.625 11.71875 
Q 11.71875 9.328125 16.59375 8.109375 
Q 21.484375 6.890625 26.8125 6.890625 
Q 36.078125 6.890625 40.9375 10.546875 
Q 45.796875 14.203125 45.796875 21.1875 
Q 45.796875 27.640625 41.28125 31.265625 
Q 36.765625 34.90625 28.71875 34.90625 
L 20.21875 34.90625 
L 20.21875 43.015625 
L 29.109375 43.015625 
Q 36.375 43.015625 40.234375 45.921875 
Q 44.09375 48.828125 44.09375 54.296875 
Q 44.09375 59.90625 40.109375 62.90625 
Q 36.140625 65.921875 28.71875 65.921875 
Q 24.65625 65.921875 20.015625 65.03125 
Q 15.375 64.15625 9.8125 62.3125 
L 9.8125 71.09375 
Q 15.4375 72.65625 20.34375 73.4375 
Q 25.25 74.21875 29.59375 74.21875 
Q 40.828125 74.21875 47.359375 69.109375 
Q 53.90625 64.015625 53.90625 55.328125 
Q 53.90625 49.265625 50.4375 45.09375 
Q 46.96875 40.921875 40.578125 39.3125 
z
" id="DejaVuSans-51"/>
      </defs>
      <g transform="translate(185.805034 204.181111)scale(0.07 -0.07)">
       <use xlink:href="#DejaVuSans-50"/>
       <use x="63.623047" xlink:href="#DejaVuSans-57"/>
       <use x="127.246094" xlink:href="#DejaVuSans-51"/>
      </g>
     </g>
    </g>
    <g id="xtick_6">
     <g id="line2d_7">
      <defs>
       <path d="M 0 0 
L 0 2 
" id="m24a9e313ec" style="stroke:#000000;stroke-width:0.6;"/>
      </defs>
      <g>
       <use style="stroke:#000000;stroke-width:0.6;" x="53.908337" xlink:href="#m24a9e313ec" y="191.862205"/>
      </g>
     </g>
    </g>
    <g id="xtick_7">
     <g id="line2d_8">
      <g>
       <use style="stroke:#000000;stroke-width:0.6;" x="61.20188" xlink:href="#m24a9e313ec" y="191.862205"/>
      </g>
     </g>
    </g>
    <g id="xtick_8">
     <g id="line2d_9">
      <g>
       <use style="stroke:#000000;stroke-width:0.6;" x="68.495423" xlink:href="#m24a9e313ec" y="191.862205"/>
      </g>
     </g>
    </g>
    <g id="xtick_9">
     <g id="line2d_10">
      <g>
       <use style="stroke:#000000;stroke-width:0.6;" x="75.788967" xlink:href="#m24a9e313ec" y="191.862205"/>
      </g>
     </g>
    </g>
    <g id="xtick_10">
     <g id="line2d_11">
      <g>
       <use style="stroke:#000000;stroke-width:0.6;" x="90.376053" xlink:href="#m24a9e313ec" y="191.862205"/>
      </g>
     </g>
    </g>
    <g id="xtick_11">
     <g id="line2d_12">
      <g>
       <use style="stroke:#000000;stroke-width:0.6;" x="97.669596" xlink:href="#m24a9e313ec" y="191.862205"/>
      </g>
     </g>
    </g>
    <g id="xtick_12">
     <g id="line2d_13">
      <g>
       <use style="stroke:#000000;stroke-width:0.6;" x="104.96314" xlink:href="#m24a9e313ec" y="191.862205"/>
      </g>
     </g>
    </g>
    <g id="xtick_13">
     <g id="line2d_14">
      <g>
       <use style="stroke:#000000;stroke-width:0.6;" x="112.256683" xlink:href="#m24a9e313ec" y="191.862205"/>
      </g>
     </g>
    </g>
    <g id="xtick_14">
     <g id="line2d_15">
      <g>
       <use style="stroke:#000000;stroke-width:0.6;" x="126.84377" xlink:href="#m24a9e313ec" y="191.862205"/>
      </g>
     </g>
    </g>
    <g id="xtick_15">
     <g id="line2d_16">
      <g>
       <use style="stroke:#000000;stroke-width:0.6;" x="134.137313" xlink:href="#m24a9e313ec" y="191.862205"/>
      </g>
     </g>
    </g>
    <g id="xtick_16">
     <g id="line2d_17">
      <g>
       <use style="stroke:#000000;stroke-width:0.6;" x="141.430856" xlink:href="#m24a9e313ec" y="191.862205"/>
      </g>
     </g>
    </g>
    <g id="xtick_17">
     <g id="line2d_18">
      <g>
       <use style="stroke:#000000;stroke-width:0.6;" x="148.7244" xlink:href="#m24a9e313ec" y="191.862205"/>
      </g>
     </g>
    </g>
    <g id="xtick_18">
     <g id="line2d_19">
      <g>
       <use style="stroke:#000000;stroke-width:0.6;" x="163.311486" xlink:href="#m24a9e313ec" y="191.862205"/>
      </g>
     </g>
    </g>
    <g id="xtick_19">
     <g id="line2d_20">
      <g>
       <use style="stroke:#000000;stroke-width:0.6;" x="170.60503" xlink:href="#m24a9e313ec" y="191.862205"/>
      </g>
     </g>
    </g>
    <g id="xtick_20">
     <g id="line2d_21">
      <g>
       <use style="stroke:#000000;stroke-width:0.6;" x="177.898573" xlink:href="#m24a9e313ec" y="191.862205"/>
      </g>
     </g>
    </g>
    <g id="xtick_21">
     <g id="line2d_22">
      <g>
       <use style="stroke:#000000;stroke-width:0.6;" x="185.192116" xlink:href="#m24a9e313ec" y="191.862205"/>
      </g>
     </g>
    </g>
    <g id="xtick_22">
     <g id="line2d_23">
      <g>
       <use style="stroke:#000000;stroke-width:0.6;" x="199.779203" xlink:href="#m24a9e313ec" y="191.862205"/>
      </g>
     </g>
    </g>
    <g id="xtick_23">
     <g id="line2d_24">
      <g>
       <use style="stroke:#000000;stroke-width:0.6;" x="207.072746" xlink:href="#m24a9e313ec" y="191.862205"/>
      </g>
     </g>
    </g>
    <g id="xtick_24">
     <g id="line2d_25">
      <g>
       <use style="stroke:#000000;stroke-width:0.6;" x="214.366289" xlink:href="#m24a9e313ec" y="191.862205"/>
      </g>
     </g>
    </g>
    <g id="xtick_25">
     <g id="line2d_26">
      <g>
       <use style="stroke:#000000;stroke-width:0.6;" x="221.659833" xlink:href="#m24a9e313ec" y="191.862205"/>
      </g>
     </g>
    </g>
    <g id="text_6">
     <!-- $\Delta$KS binding energy / eV -->
     <defs>
      <path d="M 34.1875 63.1875 
L 14.15625 8.203125 
L 54.25 8.203125 
z
M 0.78125 0 
L 28.609375 72.90625 
L 39.796875 72.90625 
L 67.578125 0 
z
" id="DejaVuSans-916"/>
      <path d="M 9.8125 72.90625 
L 19.671875 72.90625 
L 19.671875 42.09375 
L 52.390625 72.90625 
L 65.09375 72.90625 
L 28.90625 38.921875 
L 67.671875 0 
L 54.6875 0 
L 19.671875 35.109375 
L 19.671875 0 
L 9.8125 0 
z
" id="DejaVuSans-75"/>
      <path d="M 53.515625 70.515625 
L 53.515625 60.890625 
Q 47.90625 63.578125 42.921875 64.890625 
Q 37.9375 66.21875 33.296875 66.21875 
Q 25.25 66.21875 20.875 63.09375 
Q 16.5 59.96875 16.5 54.203125 
Q 16.5 49.359375 19.40625 46.890625 
Q 22.3125 44.4375 30.421875 42.921875 
L 36.375 41.703125 
Q 47.40625 39.59375 52.65625 34.296875 
Q 57.90625 29 57.90625 20.125 
Q 57.90625 9.515625 50.796875 4.046875 
Q 43.703125 -1.421875 29.984375 -1.421875 
Q 24.8125 -1.421875 18.96875 -0.25 
Q 13.140625 0.921875 6.890625 3.21875 
L 6.890625 13.375 
Q 12.890625 10.015625 18.65625 8.296875 
Q 24.421875 6.59375 29.984375 6.59375 
Q 38.421875 6.59375 43.015625 9.90625 
Q 47.609375 13.234375 47.609375 19.390625 
Q 47.609375 24.75 44.3125 27.78125 
Q 41.015625 30.8125 33.5 32.328125 
L 27.484375 33.5 
Q 16.453125 35.6875 11.515625 40.375 
Q 6.59375 45.0625 6.59375 53.421875 
Q 6.59375 63.09375 13.40625 68.65625 
Q 20.21875 74.21875 32.171875 74.21875 
Q 37.3125 74.21875 42.625 73.28125 
Q 47.953125 72.359375 53.515625 70.515625 
z
" id="DejaVuSans-83"/>
      <path id="DejaVuSans-32"/>
      <path d="M 48.6875 27.296875 
Q 48.6875 37.203125 44.609375 42.84375 
Q 40.53125 48.484375 33.40625 48.484375 
Q 26.265625 48.484375 22.1875 42.84375 
Q 18.109375 37.203125 18.109375 27.296875 
Q 18.109375 17.390625 22.1875 11.75 
Q 26.265625 6.109375 33.40625 6.109375 
Q 40.53125 6.109375 44.609375 11.75 
Q 48.6875 17.390625 48.6875 27.296875 
z
M 18.109375 46.390625 
Q 20.953125 51.265625 25.265625 53.625 
Q 29.59375 56 35.59375 56 
Q 45.5625 56 51.78125 48.09375 
Q 58.015625 40.1875 58.015625 27.296875 
Q 58.015625 14.40625 51.78125 6.484375 
Q 45.5625 -1.421875 35.59375 -1.421875 
Q 29.59375 -1.421875 25.265625 0.953125 
Q 20.953125 3.328125 18.109375 8.203125 
L 18.109375 0 
L 9.078125 0 
L 9.078125 75.984375 
L 18.109375 75.984375 
z
" id="DejaVuSans-98"/>
      <path d="M 9.421875 54.6875 
L 18.40625 54.6875 
L 18.40625 0 
L 9.421875 0 
z
M 9.421875 75.984375 
L 18.40625 75.984375 
L 18.40625 64.59375 
L 9.421875 64.59375 
z
" id="DejaVuSans-105"/>
      <path d="M 54.890625 33.015625 
L 54.890625 0 
L 45.90625 0 
L 45.90625 32.71875 
Q 45.90625 40.484375 42.875 44.328125 
Q 39.84375 48.1875 33.796875 48.1875 
Q 26.515625 48.1875 22.3125 43.546875 
Q 18.109375 38.921875 18.109375 30.90625 
L 18.109375 0 
L 9.078125 0 
L 9.078125 54.6875 
L 18.109375 54.6875 
L 18.109375 46.1875 
Q 21.34375 51.125 25.703125 53.5625 
Q 30.078125 56 35.796875 56 
Q 45.21875 56 50.046875 50.171875 
Q 54.890625 44.34375 54.890625 33.015625 
z
" id="DejaVuSans-110"/>
      <path d="M 45.40625 46.390625 
L 45.40625 75.984375 
L 54.390625 75.984375 
L 54.390625 0 
L 45.40625 0 
L 45.40625 8.203125 
Q 42.578125 3.328125 38.25 0.953125 
Q 33.9375 -1.421875 27.875 -1.421875 
Q 17.96875 -1.421875 11.734375 6.484375 
Q 5.515625 14.40625 5.515625 27.296875 
Q 5.515625 40.1875 11.734375 48.09375 
Q 17.96875 56 27.875 56 
Q 33.9375 56 38.25 53.625 
Q 42.578125 51.265625 45.40625 46.390625 
z
M 14.796875 27.296875 
Q 14.796875 17.390625 18.875 11.75 
Q 22.953125 6.109375 30.078125 6.109375 
Q 37.203125 6.109375 41.296875 11.75 
Q 45.40625 17.390625 45.40625 27.296875 
Q 45.40625 37.203125 41.296875 42.84375 
Q 37.203125 48.484375 30.078125 48.484375 
Q 22.953125 48.484375 18.875 42.84375 
Q 14.796875 37.203125 14.796875 27.296875 
z
" id="DejaVuSans-100"/>
      <path d="M 45.40625 27.984375 
Q 45.40625 37.75 41.375 43.109375 
Q 37.359375 48.484375 30.078125 48.484375 
Q 22.859375 48.484375 18.828125 43.109375 
Q 14.796875 37.75 14.796875 27.984375 
Q 14.796875 18.265625 18.828125 12.890625 
Q 22.859375 7.515625 30.078125 7.515625 
Q 37.359375 7.515625 41.375 12.890625 
Q 45.40625 18.265625 45.40625 27.984375 
z
M 54.390625 6.78125 
Q 54.390625 -7.171875 48.1875 -13.984375 
Q 42 -20.796875 29.203125 -20.796875 
Q 24.46875 -20.796875 20.265625 -20.09375 
Q 16.0625 -19.390625 12.109375 -17.921875 
L 12.109375 -9.1875 
Q 16.0625 -11.328125 19.921875 -12.34375 
Q 23.78125 -13.375 27.78125 -13.375 
Q 36.625 -13.375 41.015625 -8.765625 
Q 45.40625 -4.15625 45.40625 5.171875 
L 45.40625 9.625 
Q 42.625 4.78125 38.28125 2.390625 
Q 33.9375 0 27.875 0 
Q 17.828125 0 11.671875 7.65625 
Q 5.515625 15.328125 5.515625 27.984375 
Q 5.515625 40.671875 11.671875 48.328125 
Q 17.828125 56 27.875 56 
Q 33.9375 56 38.28125 53.609375 
Q 42.625 51.21875 45.40625 46.390625 
L 45.40625 54.6875 
L 54.390625 54.6875 
z
" id="DejaVuSans-103"/>
      <path d="M 56.203125 29.59375 
L 56.203125 25.203125 
L 14.890625 25.203125 
Q 15.484375 15.921875 20.484375 11.0625 
Q 25.484375 6.203125 34.421875 6.203125 
Q 39.59375 6.203125 44.453125 7.46875 
Q 49.3125 8.734375 54.109375 11.28125 
L 54.109375 2.78125 
Q 49.265625 0.734375 44.1875 -0.34375 
Q 39.109375 -1.421875 33.890625 -1.421875 
Q 20.796875 -1.421875 13.15625 6.1875 
Q 5.515625 13.8125 5.515625 26.8125 
Q 5.515625 40.234375 12.765625 48.109375 
Q 20.015625 56 32.328125 56 
Q 43.359375 56 49.78125 48.890625 
Q 56.203125 41.796875 56.203125 29.59375 
z
M 47.21875 32.234375 
Q 47.125 39.59375 43.09375 43.984375 
Q 39.0625 48.390625 32.421875 48.390625 
Q 24.90625 48.390625 20.390625 44.140625 
Q 15.875 39.890625 15.1875 32.171875 
z
" id="DejaVuSans-101"/>
      <path d="M 41.109375 46.296875 
Q 39.59375 47.171875 37.8125 47.578125 
Q 36.03125 48 33.890625 48 
Q 26.265625 48 22.1875 43.046875 
Q 18.109375 38.09375 18.109375 28.8125 
L 18.109375 0 
L 9.078125 0 
L 9.078125 54.6875 
L 18.109375 54.6875 
L 18.109375 46.1875 
Q 20.953125 51.171875 25.484375 53.578125 
Q 30.03125 56 36.53125 56 
Q 37.453125 56 38.578125 55.875 
Q 39.703125 55.765625 41.0625 55.515625 
z
" id="DejaVuSans-114"/>
      <path d="M 32.171875 -5.078125 
Q 28.375 -14.84375 24.75 -17.8125 
Q 21.140625 -20.796875 15.09375 -20.796875 
L 7.90625 -20.796875 
L 7.90625 -13.28125 
L 13.1875 -13.28125 
Q 16.890625 -13.28125 18.9375 -11.515625 
Q 21 -9.765625 23.484375 -3.21875 
L 25.09375 0.875 
L 2.984375 54.6875 
L 12.5 54.6875 
L 29.59375 11.921875 
L 46.6875 54.6875 
L 56.203125 54.6875 
z
" id="DejaVuSans-121"/>
      <path d="M 25.390625 72.90625 
L 33.6875 72.90625 
L 8.296875 -9.28125 
L 0 -9.28125 
z
" id="DejaVuSans-47"/>
      <path d="M 28.609375 0 
L 0.78125 72.90625 
L 11.078125 72.90625 
L 34.1875 11.53125 
L 57.328125 72.90625 
L 67.578125 72.90625 
L 39.796875 0 
z
" id="DejaVuSans-86"/>
     </defs>
     <g transform="translate(82.010541 215.716892)scale(0.08 -0.08)">
      <use transform="translate(0 0.015625)" xlink:href="#DejaVuSans-916"/>
      <use transform="translate(68.408203 0.015625)" xlink:href="#DejaVuSans-75"/>
      <use transform="translate(133.984375 0.015625)" xlink:href="#DejaVuSans-83"/>
      <use transform="translate(197.460938 0.015625)" xlink:href="#DejaVuSans-32"/>
      <use transform="translate(229.248047 0.015625)" xlink:href="#DejaVuSans-98"/>
      <use transform="translate(292.724609 0.015625)" xlink:href="#DejaVuSans-105"/>
      <use transform="translate(320.507812 0.015625)" xlink:href="#DejaVuSans-110"/>
      <use transform="translate(383.886719 0.015625)" xlink:href="#DejaVuSans-100"/>
      <use transform="translate(447.363281 0.015625)" xlink:href="#DejaVuSans-105"/>
      <use transform="translate(475.146484 0.015625)" xlink:href="#DejaVuSans-110"/>
      <use transform="translate(538.525391 0.015625)" xlink:href="#DejaVuSans-103"/>
      <use transform="translate(602.001953 0.015625)" xlink:href="#DejaVuSans-32"/>
      <use transform="translate(633.789062 0.015625)" xlink:href="#DejaVuSans-101"/>
      <use transform="translate(695.3125 0.015625)" xlink:href="#DejaVuSans-110"/>
      <use transform="translate(758.691406 0.015625)" xlink:href="#DejaVuSans-101"/>
      <use transform="translate(820.214844 0.015625)" xlink:href="#DejaVuSans-114"/>
      <use transform="translate(861.328125 0.015625)" xlink:href="#DejaVuSans-103"/>
      <use transform="translate(924.804688 0.015625)" xlink:href="#DejaVuSans-121"/>
      <use transform="translate(983.984375 0.015625)" xlink:href="#DejaVuSans-32"/>
      <use transform="translate(1015.771484 0.015625)" xlink:href="#DejaVuSans-47"/>
      <use transform="translate(1049.462891 0.015625)" xlink:href="#DejaVuSans-32"/>
      <use transform="translate(1081.25 0.015625)" xlink:href="#DejaVuSans-101"/>
      <use transform="translate(1142.773438 0.015625)" xlink:href="#DejaVuSans-86"/>
     </g>
    </g>
   </g>
   <g id="matplotlib.axis_2">
    <g id="ytick_1">
     <g id="line2d_27">
      <defs>
       <path d="M 0 0 
L -3.5 0 
" id="mc863d177e2" style="stroke:#000000;stroke-width:0.8;"/>
      </defs>
      <g>
       <use style="stroke:#000000;stroke-width:0.8;" x="39.32125" xlink:href="#mc863d177e2" y="159.253008"/>
      </g>
     </g>
     <g id="text_7">
      <!-- 288 -->
      <g transform="translate(18.96 161.912461)scale(0.07 -0.07)">
       <use xlink:href="#DejaVuSans-50"/>
       <use x="63.623047" xlink:href="#DejaVuSans-56"/>
       <use x="127.246094" xlink:href="#DejaVuSans-56"/>
      </g>
     </g>
    </g>
    <g id="ytick_2">
     <g id="line2d_28">
      <g>
       <use style="stroke:#000000;stroke-width:0.8;" x="39.32125" xlink:href="#mc863d177e2" y="123.020567"/>
      </g>
     </g>
     <g id="text_8">
      <!-- 290 -->
      <g transform="translate(18.96 125.68002)scale(0.07 -0.07)">
       <use xlink:href="#DejaVuSans-50"/>
       <use x="63.623047" xlink:href="#DejaVuSans-57"/>
       <use x="127.246094" xlink:href="#DejaVuSans-48"/>
      </g>
     </g>
    </g>
    <g id="ytick_3">
     <g id="line2d_29">
      <g>
       <use style="stroke:#000000;stroke-width:0.8;" x="39.32125" xlink:href="#mc863d177e2" y="86.788126"/>
      </g>
     </g>
     <g id="text_9">
      <!-- 292 -->
      <g transform="translate(18.96 89.447579)scale(0.07 -0.07)">
       <use xlink:href="#DejaVuSans-50"/>
       <use x="63.623047" xlink:href="#DejaVuSans-57"/>
       <use x="127.246094" xlink:href="#DejaVuSans-50"/>
      </g>
     </g>
    </g>
    <g id="ytick_4">
     <g id="line2d_30">
      <g>
       <use style="stroke:#000000;stroke-width:0.8;" x="39.32125" xlink:href="#mc863d177e2" y="50.555685"/>
      </g>
     </g>
     <g id="text_10">
      <!-- 294 -->
      <defs>
       <path d="M 37.796875 64.3125 
L 12.890625 25.390625 
L 37.796875 25.390625 
z
M 35.203125 72.90625 
L 47.609375 72.90625 
L 47.609375 25.390625 
L 58.015625 25.390625 
L 58.015625 17.1875 
L 47.609375 17.1875 
L 47.609375 0 
L 37.796875 0 
L 37.796875 17.1875 
L 4.890625 17.1875 
L 4.890625 26.703125 
z
" id="DejaVuSans-52"/>
      </defs>
      <g transform="translate(18.96 53.215138)scale(0.07 -0.07)">
       <use xlink:href="#DejaVuSans-50"/>
       <use x="63.623047" xlink:href="#DejaVuSans-57"/>
       <use x="127.246094" xlink:href="#DejaVuSans-52"/>
      </g>
     </g>
    </g>
    <g id="ytick_5">
     <g id="line2d_31">
      <g>
       <use style="stroke:#000000;stroke-width:0.8;" x="39.32125" xlink:href="#mc863d177e2" y="14.323244"/>
      </g>
     </g>
     <g id="text_11">
      <!-- 296 -->
      <defs>
       <path d="M 33.015625 40.375 
Q 26.375 40.375 22.484375 35.828125 
Q 18.609375 31.296875 18.609375 23.390625 
Q 18.609375 15.53125 22.484375 10.953125 
Q 26.375 6.390625 33.015625 6.390625 
Q 39.65625 6.390625 43.53125 10.953125 
Q 47.40625 15.53125 47.40625 23.390625 
Q 47.40625 31.296875 43.53125 35.828125 
Q 39.65625 40.375 33.015625 40.375 
z
M 52.59375 71.296875 
L 52.59375 62.3125 
Q 48.875 64.0625 45.09375 64.984375 
Q 41.3125 65.921875 37.59375 65.921875 
Q 27.828125 65.921875 22.671875 59.328125 
Q 17.53125 52.734375 16.796875 39.40625 
Q 19.671875 43.65625 24.015625 45.921875 
Q 28.375 48.1875 33.59375 48.1875 
Q 44.578125 48.1875 50.953125 41.515625 
Q 57.328125 34.859375 57.328125 23.390625 
Q 57.328125 12.15625 50.6875 5.359375 
Q 44.046875 -1.421875 33.015625 -1.421875 
Q 20.359375 -1.421875 13.671875 8.265625 
Q 6.984375 17.96875 6.984375 36.375 
Q 6.984375 53.65625 15.1875 63.9375 
Q 23.390625 74.21875 37.203125 74.21875 
Q 40.921875 74.21875 44.703125 73.484375 
Q 48.484375 72.75 52.59375 71.296875 
z
" id="DejaVuSans-54"/>
      </defs>
      <g transform="translate(18.96 16.982697)scale(0.07 -0.07)">
       <use xlink:href="#DejaVuSans-50"/>
       <use x="63.623047" xlink:href="#DejaVuSans-57"/>
       <use x="127.246094" xlink:href="#DejaVuSans-54"/>
      </g>
     </g>
    </g>
    <g id="ytick_6">
     <g id="line2d_32">
      <defs>
       <path d="M 0 0 
L -2 0 
" id="mee11e6a2d3" style="stroke:#000000;stroke-width:0.6;"/>
      </defs>
      <g>
       <use style="stroke:#000000;stroke-width:0.6;" x="39.32125" xlink:href="#mee11e6a2d3" y="186.427339"/>
      </g>
     </g>
    </g>
    <g id="ytick_7">
     <g id="line2d_33">
      <g>
       <use style="stroke:#000000;stroke-width:0.6;" x="39.32125" xlink:href="#mee11e6a2d3" y="177.369228"/>
      </g>
     </g>
    </g>
    <g id="ytick_8">
     <g id="line2d_34">
      <g>
       <use style="stroke:#000000;stroke-width:0.6;" x="39.32125" xlink:href="#mee11e6a2d3" y="168.311118"/>
      </g>
     </g>
    </g>
    <g id="ytick_9">
     <g id="line2d_35">
      <g>
       <use style="stroke:#000000;stroke-width:0.6;" x="39.32125" xlink:href="#mee11e6a2d3" y="150.194898"/>
      </g>
     </g>
    </g>
    <g id="ytick_10">
     <g id="line2d_36">
      <g>
       <use style="stroke:#000000;stroke-width:0.6;" x="39.32125" xlink:href="#mee11e6a2d3" y="141.136787"/>
      </g>
     </g>
    </g>
    <g id="ytick_11">
     <g id="line2d_37">
      <g>
       <use style="stroke:#000000;stroke-width:0.6;" x="39.32125" xlink:href="#mee11e6a2d3" y="132.078677"/>
      </g>
     </g>
    </g>
    <g id="ytick_12">
     <g id="line2d_38">
      <g>
       <use style="stroke:#000000;stroke-width:0.6;" x="39.32125" xlink:href="#mee11e6a2d3" y="113.962457"/>
      </g>
     </g>
    </g>
    <g id="ytick_13">
     <g id="line2d_39">
      <g>
       <use style="stroke:#000000;stroke-width:0.6;" x="39.32125" xlink:href="#mee11e6a2d3" y="104.904346"/>
      </g>
     </g>
    </g>
    <g id="ytick_14">
     <g id="line2d_40">
      <g>
       <use style="stroke:#000000;stroke-width:0.6;" x="39.32125" xlink:href="#mee11e6a2d3" y="95.846236"/>
      </g>
     </g>
    </g>
    <g id="ytick_15">
     <g id="line2d_41">
      <g>
       <use style="stroke:#000000;stroke-width:0.6;" x="39.32125" xlink:href="#mee11e6a2d3" y="77.730016"/>
      </g>
     </g>
    </g>
    <g id="ytick_16">
     <g id="line2d_42">
      <g>
       <use style="stroke:#000000;stroke-width:0.6;" x="39.32125" xlink:href="#mee11e6a2d3" y="68.671906"/>
      </g>
     </g>
    </g>
    <g id="ytick_17">
     <g id="line2d_43">
      <g>
       <use style="stroke:#000000;stroke-width:0.6;" x="39.32125" xlink:href="#mee11e6a2d3" y="59.613795"/>
      </g>
     </g>
    </g>
    <g id="ytick_18">
     <g id="line2d_44">
      <g>
       <use style="stroke:#000000;stroke-width:0.6;" x="39.32125" xlink:href="#mee11e6a2d3" y="41.497575"/>
      </g>
     </g>
    </g>
    <g id="ytick_19">
     <g id="line2d_45">
      <g>
       <use style="stroke:#000000;stroke-width:0.6;" x="39.32125" xlink:href="#mee11e6a2d3" y="32.439465"/>
      </g>
     </g>
    </g>
    <g id="ytick_20">
     <g id="line2d_46">
      <g>
       <use style="stroke:#000000;stroke-width:0.6;" x="39.32125" xlink:href="#mee11e6a2d3" y="23.381354"/>
      </g>
     </g>
    </g>
    <g id="text_12">
     <!-- $V(q)$ binding energy / eV -->
     <defs>
      <path d="M 20.609375 0 
L 7.8125 72.90625 
L 17.484375 72.90625 
L 28.078125 10.203125 
L 63.484375 72.90625 
L 74.21875 72.90625 
L 32.078125 0 
z
" id="DejaVuSans-Oblique-86"/>
      <path d="M 31 75.875 
Q 24.46875 64.65625 21.28125 53.65625 
Q 18.109375 42.671875 18.109375 31.390625 
Q 18.109375 20.125 21.3125 9.0625 
Q 24.515625 -2 31 -13.1875 
L 23.1875 -13.1875 
Q 15.875 -1.703125 12.234375 9.375 
Q 8.59375 20.453125 8.59375 31.390625 
Q 8.59375 42.28125 12.203125 53.3125 
Q 15.828125 64.359375 23.1875 75.875 
z
" id="DejaVuSans-40"/>
      <path d="M 41.703125 8.203125 
Q 38.09375 3.46875 33.171875 1.015625 
Q 28.265625 -1.421875 22.3125 -1.421875 
Q 14.015625 -1.421875 9.296875 4.171875 
Q 4.59375 9.765625 4.59375 19.578125 
Q 4.59375 27.484375 7.5 34.859375 
Q 10.40625 42.234375 15.828125 48.09375 
Q 19.34375 51.90625 23.90625 53.953125 
Q 28.46875 56 33.5 56 
Q 39.546875 56 43.453125 53.609375 
Q 47.359375 51.21875 49.125 46.390625 
L 50.6875 54.59375 
L 59.71875 54.59375 
L 45.125 -20.609375 
L 36.078125 -20.609375 
z
M 13.921875 20.90625 
Q 13.921875 13.671875 16.9375 9.890625 
Q 19.96875 6.109375 25.6875 6.109375 
Q 34.1875 6.109375 40.1875 14.234375 
Q 46.1875 22.359375 46.1875 33.984375 
Q 46.1875 41.015625 43.078125 44.75 
Q 39.984375 48.484375 34.1875 48.484375 
Q 29.9375 48.484375 26.3125 46.5 
Q 22.703125 44.53125 20.015625 40.71875 
Q 17.1875 36.71875 15.546875 31.34375 
Q 13.921875 25.984375 13.921875 20.90625 
z
" id="DejaVuSans-Oblique-113"/>
      <path d="M 8.015625 75.875 
L 15.828125 75.875 
Q 23.140625 64.359375 26.78125 53.3125 
Q 30.421875 42.28125 30.421875 31.390625 
Q 30.421875 20.453125 26.78125 9.375 
Q 23.140625 -1.703125 15.828125 -13.1875 
L 8.015625 -13.1875 
Q 14.5 -2 17.703125 9.0625 
Q 20.90625 20.125 20.90625 31.390625 
Q 20.90625 42.671875 17.703125 53.65625 
Q 14.5 64.65625 8.015625 75.875 
z
" id="DejaVuSans-41"/>
     </defs>
     <g transform="translate(13.28 150.241102)rotate(-90)scale(0.08 -0.08)">
      <use transform="translate(0 0.015625)" xlink:href="#DejaVuSans-Oblique-86"/>
      <use transform="translate(68.408203 0.015625)" xlink:href="#DejaVuSans-40"/>
      <use transform="translate(107.421875 0.015625)" xlink:href="#DejaVuSans-Oblique-113"/>
      <use transform="translate(170.898438 0.015625)" xlink:href="#DejaVuSans-41"/>
      <use transform="translate(209.912109 0.015625)" xlink:href="#DejaVuSans-32"/>
      <use transform="translate(241.699219 0.015625)" xlink:href="#DejaVuSans-98"/>
      <use transform="translate(305.175781 0.015625)" xlink:href="#DejaVuSans-105"/>
      <use transform="translate(332.958984 0.015625)" xlink:href="#DejaVuSans-110"/>
      <use transform="translate(396.337891 0.015625)" xlink:href="#DejaVuSans-100"/>
      <use transform="translate(459.814453 0.015625)" xlink:href="#DejaVuSans-105"/>
      <use transform="translate(487.597656 0.015625)" xlink:href="#DejaVuSans-110"/>
      <use transform="translate(550.976562 0.015625)" xlink:href="#DejaVuSans-103"/>
      <use transform="translate(614.453125 0.015625)" xlink:href="#DejaVuSans-32"/>
      <use transform="translate(646.240234 0.015625)" xlink:href="#DejaVuSans-101"/>
      <use transform="translate(707.763672 0.015625)" xlink:href="#DejaVuSans-110"/>
      <use transform="translate(771.142578 0.015625)" xlink:href="#DejaVuSans-101"/>
      <use transform="translate(832.666016 0.015625)" xlink:href="#DejaVuSans-114"/>
      <use transform="translate(873.779297 0.015625)" xlink:href="#DejaVuSans-103"/>
      <use transform="translate(937.255859 0.015625)" xlink:href="#DejaVuSans-121"/>
      <use transform="translate(996.435547 0.015625)" xlink:href="#DejaVuSans-32"/>
      <use transform="translate(1028.222656 0.015625)" xlink:href="#DejaVuSans-47"/>
      <use transform="translate(1061.914062 0.015625)" xlink:href="#DejaVuSans-32"/>
      <use transform="translate(1093.701172 0.015625)" xlink:href="#DejaVuSans-101"/>
      <use transform="translate(1155.224609 0.015625)" xlink:href="#DejaVuSans-86"/>
     </g>
    </g>
   </g>
   <g id="patch_3">
    <path d="M 39.32125 191.862205 
L 39.32125 10.7 
" style="fill:none;stroke:#000000;stroke-linecap:square;stroke-linejoin:miter;stroke-width:0.8;"/>
   </g>
   <g id="patch_4">
    <path d="M 221.659833 191.862205 
L 221.659833 10.7 
" style="fill:none;stroke:#000000;stroke-linecap:square;stroke-linejoin:miter;stroke-width:0.8;"/>
   </g>
   <g id="patch_5">
    <path d="M 39.32125 191.862205 
L 221.659833 191.862205 
" style="fill:none;stroke:#000000;stroke-linecap:square;stroke-linejoin:miter;stroke-width:0.8;"/>
   </g>
   <g id="patch_6">
    <path d="M 39.32125 10.7 
L 221.659833 10.7 
" style="fill:none;stroke:#000000;stroke-linecap:square;stroke-linejoin:miter;stroke-width:0.8;"/>
   </g>
   <g id="PathCollection_16">
    <defs>
     <path d="M -0 2.828427 
L 2.828427 0 
L 0 -2.828427 
L -2.828427 -0 
z
" id="m6096c01c66" style="stroke:#333366;stroke-width:0.7;"/>
    </defs>
    <g clip-path="url(#pa3245c7214)">
     <use style="fill:#0055ff;stroke:#333366;stroke-width:0.7;" x="91.578686" xlink:href="#m6096c01c66" y="138.597991"/>
     <use style="fill:#0055ff;stroke:#333366;stroke-width:0.7;" x="152.377517" xlink:href="#m6096c01c66" y="91.39433"/>
     <use style="fill:#0055ff;stroke:#333366;stroke-width:0.7;" x="163.546156" xlink:href="#m6096c01c66" y="61.869338"/>
     <use style="fill:#0055ff;stroke:#333366;stroke-width:0.7;" x="140.182858" xlink:href="#m6096c01c66" y="89.699919"/>
     <use style="fill:#0055ff;stroke:#333366;stroke-width:0.7;" x="140.463951" xlink:href="#m6096c01c66" y="89.122318"/>
     <use style="fill:#0055ff;stroke:#333366;stroke-width:0.7;" x="146.732934" xlink:href="#m6096c01c66" y="100.331103"/>
    </g>
   </g>
  </g>
 </g>
 <defs>
  <clipPath id="pa3245c7214">
   <rect height="181.162205" width="182.338583" x="39.32125" y="10.7"/>
  </clipPath>
 </defs>
</svg>
