<?xml version="1.0" encoding="utf-8" standalone="no"?>
<!DOCTYPE svg PUBLIC "-//W3C//DTD SVG 1.1//EN"
  "http://www.w3.org/Graphics/SVG/1.1/DTD/svg11.dtd">
<!-- Created with matplotlib (https://matplotlib.org/) -->
<svg height="283.464567pt" version="1.1" viewBox="0 0 235.275591 283.464567" width="235.275591pt" xmlns="http://www.w3.org/2000/svg" xmlns:xlink="http://www.w3.org/1999/xlink">
 <defs>
  <style type="text/css">
*{stroke-linecap:butt;stroke-linejoin:round;}
  </style>
 </defs>
 <g id="figure_1">
  <g id="patch_1">
   <path d="M 0 283.464567 
L 235.275591 283.464567 
L 235.275591 0 
L 0 0 
z
" style="fill:#ffffff;"/>
  </g>
  <g id="axes_1">
   <g id="patch_2">
    <path d="M 22 247.264567 
L 221.367102 247.264567 
L 221.367102 13.32 
L 22 13.32 
z
" style="fill:#ffffff;"/>
   </g>
   <g id="PathCollection_1">
    <defs>
     <path d="M 0 1.732051 
C 0.459345 1.732051 0.899939 1.549551 1.224745 1.224745 
C 1.549551 0.899939 1.732051 0.459345 1.732051 0 
C 1.732051 -0.459345 1.549551 -0.899939 1.224745 -1.224745 
C 0.899939 -1.549551 0.459345 -1.732051 0 -1.732051 
C -0.459345 -1.732051 -0.899939 -1.549551 -1.224745 -1.224745 
C -1.549551 -0.899939 -1.732051 -0.459345 -1.732051 0 
C -1.732051 0.459345 -1.549551 0.899939 -1.224745 1.224745 
C -0.899939 1.549551 -0.459345 1.732051 0 1.732051 
z
" id="ma8b6047e29" style="stroke:#02ad51;"/>
    </defs>
    <g clip-path="url(#p3d9561b183)">
     <use style="fill:#02ad51;stroke:#02ad51;" x="64.17381" xlink:href="#ma8b6047e29" y="185.999578"/>
    </g>
   </g>
   <g id="PathCollection_2">
    <g clip-path="url(#p3d9561b183)">
     <use style="fill:#02ad51;stroke:#02ad51;" x="128.093817" xlink:href="#ma8b6047e29" y="157.20965"/>
    </g>
   </g>
   <g id="PathCollection_3">
    <g clip-path="url(#p3d9561b183)">
     <use style="fill:#02ad51;stroke:#02ad51;" x="139.83581" xlink:href="#ma8b6047e29" y="166.060953"/>
    </g>
   </g>
   <g id="PathCollection_4">
    <g clip-path="url(#p3d9561b183)">
     <use style="fill:#02ad51;stroke:#02ad51;" x="115.273132" xlink:href="#ma8b6047e29" y="158.836218"/>
    </g>
   </g>
   <g id="PathCollection_5">
    <g clip-path="url(#p3d9561b183)">
     <use style="fill:#02ad51;stroke:#02ad51;" x="115.568655" xlink:href="#ma8b6047e29" y="158.655532"/>
    </g>
   </g>
   <g id="PathCollection_6">
    <g clip-path="url(#p3d9561b183)">
     <use style="fill:#02ad51;stroke:#02ad51;" x="122.159463" xlink:href="#ma8b6047e29" y="156.309191"/>
    </g>
   </g>
   <g id="PathCollection_7">
    <g clip-path="url(#p3d9561b183)">
     <use style="fill:#02ad51;stroke:#02ad51;" x="64.17381" xlink:href="#ma8b6047e29" y="141.644481"/>
    </g>
   </g>
   <g id="PathCollection_8">
    <g clip-path="url(#p3d9561b183)">
     <use style="fill:#02ad51;stroke:#02ad51;" x="106.34762" xlink:href="#ma8b6047e29" y="122.857025"/>
    </g>
   </g>
   <g id="PathCollection_9">
    <g clip-path="url(#p3d9561b183)">
     <use style="fill:#02ad51;stroke:#02ad51;" x="152.355413" xlink:href="#ma8b6047e29" y="135.81236"/>
    </g>
   </g>
   <g id="PathCollection_10">
    <g clip-path="url(#p3d9561b183)">
     <use style="fill:#02ad51;stroke:#02ad51;" x="125.517534" xlink:href="#ma8b6047e29" y="120.810177"/>
    </g>
   </g>
   <g id="PathCollection_11">
    <g clip-path="url(#p3d9561b183)">
     <use style="fill:#02ad51;stroke:#02ad51;" x="125.517534" xlink:href="#ma8b6047e29" y="120.810177"/>
    </g>
   </g>
   <g id="PathCollection_12">
    <g clip-path="url(#p3d9561b183)">
     <use style="fill:#02ad51;stroke:#02ad51;" x="106.34762" xlink:href="#ma8b6047e29" y="122.857025"/>
    </g>
   </g>
   <g id="PathCollection_13">
    <g clip-path="url(#p3d9561b183)">
     <use style="fill:#02ad51;stroke:#02ad51;" x="64.17381" xlink:href="#ma8b6047e29" y="97.33004"/>
    </g>
   </g>
   <g id="PathCollection_14">
    <g clip-path="url(#p3d9561b183)">
     <use style="fill:#02ad51;stroke:#02ad51;" x="102.513637" xlink:href="#ma8b6047e29" y="77.595899"/>
    </g>
   </g>
   <g id="PathCollection_15">
    <g clip-path="url(#p3d9561b183)">
     <use style="fill:#02ad51;stroke:#02ad51;" x="147.371235" xlink:href="#ma8b6047e29" y="93.04786"/>
    </g>
   </g>
   <g id="PathCollection_16">
    <g clip-path="url(#p3d9561b183)">
     <use style="fill:#02ad51;stroke:#02ad51;" x="118.999763" xlink:href="#ma8b6047e29" y="76.286091"/>
    </g>
   </g>
   <g id="PathCollection_17">
    <g clip-path="url(#p3d9561b183)">
     <use style="fill:#02ad51;stroke:#02ad51;" x="118.999763" xlink:href="#ma8b6047e29" y="76.286091"/>
    </g>
   </g>
   <g id="PathCollection_18">
    <g clip-path="url(#p3d9561b183)">
     <use style="fill:#02ad51;stroke:#02ad51;" x="102.513637" xlink:href="#ma8b6047e29" y="77.595899"/>
    </g>
   </g>
   <g id="PathCollection_19">
    <g clip-path="url(#p3d9561b183)">
     <use style="fill:#02ad51;stroke:#02ad51;" x="64.17381" xlink:href="#ma8b6047e29" y="54.998345"/>
    </g>
   </g>
   <g id="PathCollection_20">
    <g clip-path="url(#p3d9561b183)">
     <use style="fill:#02ad51;stroke:#02ad51;" x="106.34762" xlink:href="#ma8b6047e29" y="36.210889"/>
    </g>
   </g>
   <g id="PathCollection_21">
    <g clip-path="url(#p3d9561b183)">
     <use style="fill:#02ad51;stroke:#02ad51;" x="152.355413" xlink:href="#ma8b6047e29" y="49.166224"/>
    </g>
   </g>
   <g id="PathCollection_22">
    <g clip-path="url(#p3d9561b183)">
     <use style="fill:#02ad51;stroke:#02ad51;" x="125.517534" xlink:href="#ma8b6047e29" y="34.164041"/>
    </g>
   </g>
   <g id="PathCollection_23">
    <g clip-path="url(#p3d9561b183)">
     <use style="fill:#02ad51;stroke:#02ad51;" x="125.517534" xlink:href="#ma8b6047e29" y="34.164041"/>
    </g>
   </g>
   <g id="PathCollection_24">
    <g clip-path="url(#p3d9561b183)">
     <use style="fill:#02ad51;stroke:#02ad51;" x="106.34762" xlink:href="#ma8b6047e29" y="36.210889"/>
    </g>
   </g>
   <g id="PathCollection_25">
    <g clip-path="url(#p3d9561b183)">
     <use style="fill:#02ad51;stroke:#02ad51;" x="64.17381" xlink:href="#ma8b6047e29" y="229.760743"/>
    </g>
   </g>
   <g id="PathCollection_26">
    <g clip-path="url(#p3d9561b183)">
     <use style="fill:#02ad51;stroke:#02ad51;" x="132.894116" xlink:href="#ma8b6047e29" y="205.515511"/>
    </g>
   </g>
   <g id="PathCollection_27">
    <g clip-path="url(#p3d9561b183)">
     <use style="fill:#02ad51;stroke:#02ad51;" x="168.411749" xlink:href="#ma8b6047e29" y="222.446419"/>
    </g>
   </g>
   <g id="PathCollection_28">
    <g clip-path="url(#p3d9561b183)">
     <use style="fill:#02ad51;stroke:#02ad51;" x="139.850111" xlink:href="#ma8b6047e29" y="205.603351"/>
    </g>
   </g>
   <g id="PathCollection_29">
    <g clip-path="url(#p3d9561b183)">
     <use style="fill:#02ad51;stroke:#02ad51;" x="139.499302" xlink:href="#ma8b6047e29" y="205.532389"/>
    </g>
   </g>
   <g id="PathCollection_30">
    <g clip-path="url(#p3d9561b183)">
     <use style="fill:#02ad51;stroke:#02ad51;" x="118.635918" xlink:href="#ma8b6047e29" y="213.424439"/>
    </g>
   </g>
   <g id="matplotlib.axis_1">
    <g id="xtick_1">
     <g id="line2d_1">
      <defs>
       <path d="M 0 0 
L 0 3.5 
" id="m6fac867830" style="stroke:#000000;stroke-width:0.8;"/>
      </defs>
      <g>
       <use style="stroke:#000000;stroke-width:0.8;" x="25.833983" xlink:href="#m6fac867830" y="247.264567"/>
      </g>
     </g>
     <g id="text_1">
      <!-- 284 -->
      <defs>
       <path d="M 19.1875 8.296875 
L 53.609375 8.296875 
L 53.609375 0 
L 7.328125 0 
L 7.328125 8.296875 
Q 12.9375 14.109375 22.625 23.890625 
Q 32.328125 33.6875 34.8125 36.53125 
Q 39.546875 41.84375 41.421875 45.53125 
Q 43.3125 49.21875 43.3125 52.78125 
Q 43.3125 58.59375 39.234375 62.25 
Q 35.15625 65.921875 28.609375 65.921875 
Q 23.96875 65.921875 18.8125 64.3125 
Q 13.671875 62.703125 7.8125 59.421875 
L 7.8125 69.390625 
Q 13.765625 71.78125 18.9375 73 
Q 24.125 74.21875 28.421875 74.21875 
Q 39.75 74.21875 46.484375 68.546875 
Q 53.21875 62.890625 53.21875 53.421875 
Q 53.21875 48.921875 51.53125 44.890625 
Q 49.859375 40.875 45.40625 35.40625 
Q 44.1875 33.984375 37.640625 27.21875 
Q 31.109375 20.453125 19.1875 8.296875 
z
" id="DejaVuSans-50"/>
       <path d="M 31.78125 34.625 
Q 24.75 34.625 20.71875 30.859375 
Q 16.703125 27.09375 16.703125 20.515625 
Q 16.703125 13.921875 20.71875 10.15625 
Q 24.75 6.390625 31.78125 6.390625 
Q 38.8125 6.390625 42.859375 10.171875 
Q 46.921875 13.96875 46.921875 20.515625 
Q 46.921875 27.09375 42.890625 30.859375 
Q 38.875 34.625 31.78125 34.625 
z
M 21.921875 38.8125 
Q 15.578125 40.375 12.03125 44.71875 
Q 8.5 49.078125 8.5 55.328125 
Q 8.5 64.0625 14.71875 69.140625 
Q 20.953125 74.21875 31.78125 74.21875 
Q 42.671875 74.21875 48.875 69.140625 
Q 55.078125 64.0625 55.078125 55.328125 
Q 55.078125 49.078125 51.53125 44.71875 
Q 48 40.375 41.703125 38.8125 
Q 48.828125 37.15625 52.796875 32.3125 
Q 56.78125 27.484375 56.78125 20.515625 
Q 56.78125 9.90625 50.3125 4.234375 
Q 43.84375 -1.421875 31.78125 -1.421875 
Q 19.734375 -1.421875 13.25 4.234375 
Q 6.78125 9.90625 6.78125 20.515625 
Q 6.78125 27.484375 10.78125 32.3125 
Q 14.796875 37.15625 21.921875 38.8125 
z
M 18.3125 54.390625 
Q 18.3125 48.734375 21.84375 45.5625 
Q 25.390625 42.390625 31.78125 42.390625 
Q 38.140625 42.390625 41.71875 45.5625 
Q 45.3125 48.734375 45.3125 54.390625 
Q 45.3125 60.0625 41.71875 63.234375 
Q 38.140625 66.40625 31.78125 66.40625 
Q 25.390625 66.40625 21.84375 63.234375 
Q 18.3125 60.0625 18.3125 54.390625 
z
" id="DejaVuSans-56"/>
       <path d="M 37.796875 64.3125 
L 12.890625 25.390625 
L 37.796875 25.390625 
z
M 35.203125 72.90625 
L 47.609375 72.90625 
L 47.609375 25.390625 
L 58.015625 25.390625 
L 58.015625 17.1875 
L 47.609375 17.1875 
L 47.609375 0 
L 37.796875 0 
L 37.796875 17.1875 
L 4.890625 17.1875 
L 4.890625 26.703125 
z
" id="DejaVuSans-52"/>
      </defs>
      <g transform="translate(19.153358 259.583473)scale(0.07 -0.07)">
       <use xlink:href="#DejaVuSans-50"/>
       <use x="63.623047" xlink:href="#DejaVuSans-56"/>
       <use x="127.246094" xlink:href="#DejaVuSans-52"/>
      </g>
     </g>
    </g>
    <g id="xtick_2">
     <g id="line2d_2">
      <g>
       <use style="stroke:#000000;stroke-width:0.8;" x="64.17381" xlink:href="#m6fac867830" y="247.264567"/>
      </g>
     </g>
     <g id="text_2">
      <!-- 285 -->
      <defs>
       <path d="M 10.796875 72.90625 
L 49.515625 72.90625 
L 49.515625 64.59375 
L 19.828125 64.59375 
L 19.828125 46.734375 
Q 21.96875 47.46875 24.109375 47.828125 
Q 26.265625 48.1875 28.421875 48.1875 
Q 40.625 48.1875 47.75 41.5 
Q 54.890625 34.8125 54.890625 23.390625 
Q 54.890625 11.625 47.5625 5.09375 
Q 40.234375 -1.421875 26.90625 -1.421875 
Q 22.3125 -1.421875 17.546875 -0.640625 
Q 12.796875 0.140625 7.71875 1.703125 
L 7.71875 11.625 
Q 12.109375 9.234375 16.796875 8.0625 
Q 21.484375 6.890625 26.703125 6.890625 
Q 35.15625 6.890625 40.078125 11.328125 
Q 45.015625 15.765625 45.015625 23.390625 
Q 45.015625 31 40.078125 35.4375 
Q 35.15625 39.890625 26.703125 39.890625 
Q 22.75 39.890625 18.8125 39.015625 
Q 14.890625 38.140625 10.796875 36.28125 
z
" id="DejaVuSans-53"/>
      </defs>
      <g transform="translate(57.493185 259.583473)scale(0.07 -0.07)">
       <use xlink:href="#DejaVuSans-50"/>
       <use x="63.623047" xlink:href="#DejaVuSans-56"/>
       <use x="127.246094" xlink:href="#DejaVuSans-53"/>
      </g>
     </g>
    </g>
    <g id="xtick_3">
     <g id="line2d_3">
      <g>
       <use style="stroke:#000000;stroke-width:0.8;" x="102.513637" xlink:href="#m6fac867830" y="247.264567"/>
      </g>
     </g>
     <g id="text_3">
      <!-- 286 -->
      <defs>
       <path d="M 33.015625 40.375 
Q 26.375 40.375 22.484375 35.828125 
Q 18.609375 31.296875 18.609375 23.390625 
Q 18.609375 15.53125 22.484375 10.953125 
Q 26.375 6.390625 33.015625 6.390625 
Q 39.65625 6.390625 43.53125 10.953125 
Q 47.40625 15.53125 47.40625 23.390625 
Q 47.40625 31.296875 43.53125 35.828125 
Q 39.65625 40.375 33.015625 40.375 
z
M 52.59375 71.296875 
L 52.59375 62.3125 
Q 48.875 64.0625 45.09375 64.984375 
Q 41.3125 65.921875 37.59375 65.921875 
Q 27.828125 65.921875 22.671875 59.328125 
Q 17.53125 52.734375 16.796875 39.40625 
Q 19.671875 43.65625 24.015625 45.921875 
Q 28.375 48.1875 33.59375 48.1875 
Q 44.578125 48.1875 50.953125 41.515625 
Q 57.328125 34.859375 57.328125 23.390625 
Q 57.328125 12.15625 50.6875 5.359375 
Q 44.046875 -1.421875 33.015625 -1.421875 
Q 20.359375 -1.421875 13.671875 8.265625 
Q 6.984375 17.96875 6.984375 36.375 
Q 6.984375 53.65625 15.1875 63.9375 
Q 23.390625 74.21875 37.203125 74.21875 
Q 40.921875 74.21875 44.703125 73.484375 
Q 48.484375 72.75 52.59375 71.296875 
z
" id="DejaVuSans-54"/>
      </defs>
      <g transform="translate(95.833012 259.583473)scale(0.07 -0.07)">
       <use xlink:href="#DejaVuSans-50"/>
       <use x="63.623047" xlink:href="#DejaVuSans-56"/>
       <use x="127.246094" xlink:href="#DejaVuSans-54"/>
      </g>
     </g>
    </g>
    <g id="xtick_4">
     <g id="line2d_4">
      <g>
       <use style="stroke:#000000;stroke-width:0.8;" x="140.853465" xlink:href="#m6fac867830" y="247.264567"/>
      </g>
     </g>
     <g id="text_4">
      <!-- 287 -->
      <defs>
       <path d="M 8.203125 72.90625 
L 55.078125 72.90625 
L 55.078125 68.703125 
L 28.609375 0 
L 18.3125 0 
L 43.21875 64.59375 
L 8.203125 64.59375 
z
" id="DejaVuSans-55"/>
      </defs>
      <g transform="translate(134.17284 259.583473)scale(0.07 -0.07)">
       <use xlink:href="#DejaVuSans-50"/>
       <use x="63.623047" xlink:href="#DejaVuSans-56"/>
       <use x="127.246094" xlink:href="#DejaVuSans-55"/>
      </g>
     </g>
    </g>
    <g id="xtick_5">
     <g id="line2d_5">
      <g>
       <use style="stroke:#000000;stroke-width:0.8;" x="179.193292" xlink:href="#m6fac867830" y="247.264567"/>
      </g>
     </g>
     <g id="text_5">
      <!-- 288 -->
      <g transform="translate(172.512667 259.583473)scale(0.07 -0.07)">
       <use xlink:href="#DejaVuSans-50"/>
       <use x="63.623047" xlink:href="#DejaVuSans-56"/>
       <use x="127.246094" xlink:href="#DejaVuSans-56"/>
      </g>
     </g>
    </g>
    <g id="xtick_6">
     <g id="line2d_6">
      <g>
       <use style="stroke:#000000;stroke-width:0.8;" x="217.533119" xlink:href="#m6fac867830" y="247.264567"/>
      </g>
     </g>
     <g id="text_6">
      <!-- 289 -->
      <defs>
       <path d="M 10.984375 1.515625 
L 10.984375 10.5 
Q 14.703125 8.734375 18.5 7.8125 
Q 22.3125 6.890625 25.984375 6.890625 
Q 35.75 6.890625 40.890625 13.453125 
Q 46.046875 20.015625 46.78125 33.40625 
Q 43.953125 29.203125 39.59375 26.953125 
Q 35.25 24.703125 29.984375 24.703125 
Q 19.046875 24.703125 12.671875 31.3125 
Q 6.296875 37.9375 6.296875 49.421875 
Q 6.296875 60.640625 12.9375 67.421875 
Q 19.578125 74.21875 30.609375 74.21875 
Q 43.265625 74.21875 49.921875 64.515625 
Q 56.59375 54.828125 56.59375 36.375 
Q 56.59375 19.140625 48.40625 8.859375 
Q 40.234375 -1.421875 26.421875 -1.421875 
Q 22.703125 -1.421875 18.890625 -0.6875 
Q 15.09375 0.046875 10.984375 1.515625 
z
M 30.609375 32.421875 
Q 37.25 32.421875 41.125 36.953125 
Q 45.015625 41.5 45.015625 49.421875 
Q 45.015625 57.28125 41.125 61.84375 
Q 37.25 66.40625 30.609375 66.40625 
Q 23.96875 66.40625 20.09375 61.84375 
Q 16.21875 57.28125 16.21875 49.421875 
Q 16.21875 41.5 20.09375 36.953125 
Q 23.96875 32.421875 30.609375 32.421875 
z
" id="DejaVuSans-57"/>
      </defs>
      <g transform="translate(210.852494 259.583473)scale(0.07 -0.07)">
       <use xlink:href="#DejaVuSans-50"/>
       <use x="63.623047" xlink:href="#DejaVuSans-56"/>
       <use x="127.246094" xlink:href="#DejaVuSans-57"/>
      </g>
     </g>
    </g>
    <g id="xtick_7">
     <g id="line2d_7">
      <defs>
       <path d="M 0 0 
L 0 2 
" id="m1a40ee44b7" style="stroke:#000000;stroke-width:0.6;"/>
      </defs>
      <g>
       <use style="stroke:#000000;stroke-width:0.6;" x="33.501948" xlink:href="#m1a40ee44b7" y="247.264567"/>
      </g>
     </g>
    </g>
    <g id="xtick_8">
     <g id="line2d_8">
      <g>
       <use style="stroke:#000000;stroke-width:0.6;" x="41.169914" xlink:href="#m1a40ee44b7" y="247.264567"/>
      </g>
     </g>
    </g>
    <g id="xtick_9">
     <g id="line2d_9">
      <g>
       <use style="stroke:#000000;stroke-width:0.6;" x="48.837879" xlink:href="#m1a40ee44b7" y="247.264567"/>
      </g>
     </g>
    </g>
    <g id="xtick_10">
     <g id="line2d_10">
      <g>
       <use style="stroke:#000000;stroke-width:0.6;" x="56.505845" xlink:href="#m1a40ee44b7" y="247.264567"/>
      </g>
     </g>
    </g>
    <g id="xtick_11">
     <g id="line2d_11">
      <g>
       <use style="stroke:#000000;stroke-width:0.6;" x="71.841775" xlink:href="#m1a40ee44b7" y="247.264567"/>
      </g>
     </g>
    </g>
    <g id="xtick_12">
     <g id="line2d_12">
      <g>
       <use style="stroke:#000000;stroke-width:0.6;" x="79.509741" xlink:href="#m1a40ee44b7" y="247.264567"/>
      </g>
     </g>
    </g>
    <g id="xtick_13">
     <g id="line2d_13">
      <g>
       <use style="stroke:#000000;stroke-width:0.6;" x="87.177706" xlink:href="#m1a40ee44b7" y="247.264567"/>
      </g>
     </g>
    </g>
    <g id="xtick_14">
     <g id="line2d_14">
      <g>
       <use style="stroke:#000000;stroke-width:0.6;" x="94.845672" xlink:href="#m1a40ee44b7" y="247.264567"/>
      </g>
     </g>
    </g>
    <g id="xtick_15">
     <g id="line2d_15">
      <g>
       <use style="stroke:#000000;stroke-width:0.6;" x="110.181603" xlink:href="#m1a40ee44b7" y="247.264567"/>
      </g>
     </g>
    </g>
    <g id="xtick_16">
     <g id="line2d_16">
      <g>
       <use style="stroke:#000000;stroke-width:0.6;" x="117.849568" xlink:href="#m1a40ee44b7" y="247.264567"/>
      </g>
     </g>
    </g>
    <g id="xtick_17">
     <g id="line2d_17">
      <g>
       <use style="stroke:#000000;stroke-width:0.6;" x="125.517534" xlink:href="#m1a40ee44b7" y="247.264567"/>
      </g>
     </g>
    </g>
    <g id="xtick_18">
     <g id="line2d_18">
      <g>
       <use style="stroke:#000000;stroke-width:0.6;" x="133.185499" xlink:href="#m1a40ee44b7" y="247.264567"/>
      </g>
     </g>
    </g>
    <g id="xtick_19">
     <g id="line2d_19">
      <g>
       <use style="stroke:#000000;stroke-width:0.6;" x="148.52143" xlink:href="#m1a40ee44b7" y="247.264567"/>
      </g>
     </g>
    </g>
    <g id="xtick_20">
     <g id="line2d_20">
      <g>
       <use style="stroke:#000000;stroke-width:0.6;" x="156.189395" xlink:href="#m1a40ee44b7" y="247.264567"/>
      </g>
     </g>
    </g>
    <g id="xtick_21">
     <g id="line2d_21">
      <g>
       <use style="stroke:#000000;stroke-width:0.6;" x="163.857361" xlink:href="#m1a40ee44b7" y="247.264567"/>
      </g>
     </g>
    </g>
    <g id="xtick_22">
     <g id="line2d_22">
      <g>
       <use style="stroke:#000000;stroke-width:0.6;" x="171.525326" xlink:href="#m1a40ee44b7" y="247.264567"/>
      </g>
     </g>
    </g>
    <g id="xtick_23">
     <g id="line2d_23">
      <g>
       <use style="stroke:#000000;stroke-width:0.6;" x="186.861257" xlink:href="#m1a40ee44b7" y="247.264567"/>
      </g>
     </g>
    </g>
    <g id="xtick_24">
     <g id="line2d_24">
      <g>
       <use style="stroke:#000000;stroke-width:0.6;" x="194.529223" xlink:href="#m1a40ee44b7" y="247.264567"/>
      </g>
     </g>
    </g>
    <g id="xtick_25">
     <g id="line2d_25">
      <g>
       <use style="stroke:#000000;stroke-width:0.6;" x="202.197188" xlink:href="#m1a40ee44b7" y="247.264567"/>
      </g>
     </g>
    </g>
    <g id="xtick_26">
     <g id="line2d_26">
      <g>
       <use style="stroke:#000000;stroke-width:0.6;" x="209.865154" xlink:href="#m1a40ee44b7" y="247.264567"/>
      </g>
     </g>
    </g>
    <g id="text_7">
     <!-- binding energy / eV -->
     <defs>
      <path d="M 48.6875 27.296875 
Q 48.6875 37.203125 44.609375 42.84375 
Q 40.53125 48.484375 33.40625 48.484375 
Q 26.265625 48.484375 22.1875 42.84375 
Q 18.109375 37.203125 18.109375 27.296875 
Q 18.109375 17.390625 22.1875 11.75 
Q 26.265625 6.109375 33.40625 6.109375 
Q 40.53125 6.109375 44.609375 11.75 
Q 48.6875 17.390625 48.6875 27.296875 
z
M 18.109375 46.390625 
Q 20.953125 51.265625 25.265625 53.625 
Q 29.59375 56 35.59375 56 
Q 45.5625 56 51.78125 48.09375 
Q 58.015625 40.1875 58.015625 27.296875 
Q 58.015625 14.40625 51.78125 6.484375 
Q 45.5625 -1.421875 35.59375 -1.421875 
Q 29.59375 -1.421875 25.265625 0.953125 
Q 20.953125 3.328125 18.109375 8.203125 
L 18.109375 0 
L 9.078125 0 
L 9.078125 75.984375 
L 18.109375 75.984375 
z
" id="DejaVuSans-98"/>
      <path d="M 9.421875 54.6875 
L 18.40625 54.6875 
L 18.40625 0 
L 9.421875 0 
z
M 9.421875 75.984375 
L 18.40625 75.984375 
L 18.40625 64.59375 
L 9.421875 64.59375 
z
" id="DejaVuSans-105"/>
      <path d="M 54.890625 33.015625 
L 54.890625 0 
L 45.90625 0 
L 45.90625 32.71875 
Q 45.90625 40.484375 42.875 44.328125 
Q 39.84375 48.1875 33.796875 48.1875 
Q 26.515625 48.1875 22.3125 43.546875 
Q 18.109375 38.921875 18.109375 30.90625 
L 18.109375 0 
L 9.078125 0 
L 9.078125 54.6875 
L 18.109375 54.6875 
L 18.109375 46.1875 
Q 21.34375 51.125 25.703125 53.5625 
Q 30.078125 56 35.796875 56 
Q 45.21875 56 50.046875 50.171875 
Q 54.890625 44.34375 54.890625 33.015625 
z
" id="DejaVuSans-110"/>
      <path d="M 45.40625 46.390625 
L 45.40625 75.984375 
L 54.390625 75.984375 
L 54.390625 0 
L 45.40625 0 
L 45.40625 8.203125 
Q 42.578125 3.328125 38.25 0.953125 
Q 33.9375 -1.421875 27.875 -1.421875 
Q 17.96875 -1.421875 11.734375 6.484375 
Q 5.515625 14.40625 5.515625 27.296875 
Q 5.515625 40.1875 11.734375 48.09375 
Q 17.96875 56 27.875 56 
Q 33.9375 56 38.25 53.625 
Q 42.578125 51.265625 45.40625 46.390625 
z
M 14.796875 27.296875 
Q 14.796875 17.390625 18.875 11.75 
Q 22.953125 6.109375 30.078125 6.109375 
Q 37.203125 6.109375 41.296875 11.75 
Q 45.40625 17.390625 45.40625 27.296875 
Q 45.40625 37.203125 41.296875 42.84375 
Q 37.203125 48.484375 30.078125 48.484375 
Q 22.953125 48.484375 18.875 42.84375 
Q 14.796875 37.203125 14.796875 27.296875 
z
" id="DejaVuSans-100"/>
      <path d="M 45.40625 27.984375 
Q 45.40625 37.75 41.375 43.109375 
Q 37.359375 48.484375 30.078125 48.484375 
Q 22.859375 48.484375 18.828125 43.109375 
Q 14.796875 37.75 14.796875 27.984375 
Q 14.796875 18.265625 18.828125 12.890625 
Q 22.859375 7.515625 30.078125 7.515625 
Q 37.359375 7.515625 41.375 12.890625 
Q 45.40625 18.265625 45.40625 27.984375 
z
M 54.390625 6.78125 
Q 54.390625 -7.171875 48.1875 -13.984375 
Q 42 -20.796875 29.203125 -20.796875 
Q 24.46875 -20.796875 20.265625 -20.09375 
Q 16.0625 -19.390625 12.109375 -17.921875 
L 12.109375 -9.1875 
Q 16.0625 -11.328125 19.921875 -12.34375 
Q 23.78125 -13.375 27.78125 -13.375 
Q 36.625 -13.375 41.015625 -8.765625 
Q 45.40625 -4.15625 45.40625 5.171875 
L 45.40625 9.625 
Q 42.625 4.78125 38.28125 2.390625 
Q 33.9375 0 27.875 0 
Q 17.828125 0 11.671875 7.65625 
Q 5.515625 15.328125 5.515625 27.984375 
Q 5.515625 40.671875 11.671875 48.328125 
Q 17.828125 56 27.875 56 
Q 33.9375 56 38.28125 53.609375 
Q 42.625 51.21875 45.40625 46.390625 
L 45.40625 54.6875 
L 54.390625 54.6875 
z
" id="DejaVuSans-103"/>
      <path id="DejaVuSans-32"/>
      <path d="M 56.203125 29.59375 
L 56.203125 25.203125 
L 14.890625 25.203125 
Q 15.484375 15.921875 20.484375 11.0625 
Q 25.484375 6.203125 34.421875 6.203125 
Q 39.59375 6.203125 44.453125 7.46875 
Q 49.3125 8.734375 54.109375 11.28125 
L 54.109375 2.78125 
Q 49.265625 0.734375 44.1875 -0.34375 
Q 39.109375 -1.421875 33.890625 -1.421875 
Q 20.796875 -1.421875 13.15625 6.1875 
Q 5.515625 13.8125 5.515625 26.8125 
Q 5.515625 40.234375 12.765625 48.109375 
Q 20.015625 56 32.328125 56 
Q 43.359375 56 49.78125 48.890625 
Q 56.203125 41.796875 56.203125 29.59375 
z
M 47.21875 32.234375 
Q 47.125 39.59375 43.09375 43.984375 
Q 39.0625 48.390625 32.421875 48.390625 
Q 24.90625 48.390625 20.390625 44.140625 
Q 15.875 39.890625 15.1875 32.171875 
z
" id="DejaVuSans-101"/>
      <path d="M 41.109375 46.296875 
Q 39.59375 47.171875 37.8125 47.578125 
Q 36.03125 48 33.890625 48 
Q 26.265625 48 22.1875 43.046875 
Q 18.109375 38.09375 18.109375 28.8125 
L 18.109375 0 
L 9.078125 0 
L 9.078125 54.6875 
L 18.109375 54.6875 
L 18.109375 46.1875 
Q 20.953125 51.171875 25.484375 53.578125 
Q 30.03125 56 36.53125 56 
Q 37.453125 56 38.578125 55.875 
Q 39.703125 55.765625 41.0625 55.515625 
z
" id="DejaVuSans-114"/>
      <path d="M 32.171875 -5.078125 
Q 28.375 -14.84375 24.75 -17.8125 
Q 21.140625 -20.796875 15.09375 -20.796875 
L 7.90625 -20.796875 
L 7.90625 -13.28125 
L 13.1875 -13.28125 
Q 16.890625 -13.28125 18.9375 -11.515625 
Q 21 -9.765625 23.484375 -3.21875 
L 25.09375 0.875 
L 2.984375 54.6875 
L 12.5 54.6875 
L 29.59375 11.921875 
L 46.6875 54.6875 
L 56.203125 54.6875 
z
" id="DejaVuSans-121"/>
      <path d="M 25.390625 72.90625 
L 33.6875 72.90625 
L 8.296875 -9.28125 
L 0 -9.28125 
z
" id="DejaVuSans-47"/>
      <path d="M 28.609375 0 
L 0.78125 72.90625 
L 11.078125 72.90625 
L 34.1875 11.53125 
L 57.328125 72.90625 
L 67.578125 72.90625 
L 39.796875 0 
z
" id="DejaVuSans-86"/>
     </defs>
     <g transform="translate(82.406051 271.118004)scale(0.08 -0.08)">
      <use xlink:href="#DejaVuSans-98"/>
      <use x="63.476562" xlink:href="#DejaVuSans-105"/>
      <use x="91.259766" xlink:href="#DejaVuSans-110"/>
      <use x="154.638672" xlink:href="#DejaVuSans-100"/>
      <use x="218.115234" xlink:href="#DejaVuSans-105"/>
      <use x="245.898438" xlink:href="#DejaVuSans-110"/>
      <use x="309.277344" xlink:href="#DejaVuSans-103"/>
      <use x="372.753906" xlink:href="#DejaVuSans-32"/>
      <use x="404.541016" xlink:href="#DejaVuSans-101"/>
      <use x="466.064453" xlink:href="#DejaVuSans-110"/>
      <use x="529.443359" xlink:href="#DejaVuSans-101"/>
      <use x="590.966797" xlink:href="#DejaVuSans-114"/>
      <use x="632.064453" xlink:href="#DejaVuSans-103"/>
      <use x="695.541016" xlink:href="#DejaVuSans-121"/>
      <use x="754.720703" xlink:href="#DejaVuSans-32"/>
      <use x="786.507812" xlink:href="#DejaVuSans-47"/>
      <use x="820.199219" xlink:href="#DejaVuSans-32"/>
      <use x="851.986328" xlink:href="#DejaVuSans-101"/>
      <use x="913.509766" xlink:href="#DejaVuSans-86"/>
     </g>
    </g>
   </g>
   <g id="matplotlib.axis_2">
    <g id="text_8">
     <!-- intensity / arb. units -->
     <defs>
      <path d="M 18.3125 70.21875 
L 18.3125 54.6875 
L 36.8125 54.6875 
L 36.8125 47.703125 
L 18.3125 47.703125 
L 18.3125 18.015625 
Q 18.3125 11.328125 20.140625 9.421875 
Q 21.96875 7.515625 27.59375 7.515625 
L 36.8125 7.515625 
L 36.8125 0 
L 27.59375 0 
Q 17.1875 0 13.234375 3.875 
Q 9.28125 7.765625 9.28125 18.015625 
L 9.28125 47.703125 
L 2.6875 47.703125 
L 2.6875 54.6875 
L 9.28125 54.6875 
L 9.28125 70.21875 
z
" id="DejaVuSans-116"/>
      <path d="M 44.28125 53.078125 
L 44.28125 44.578125 
Q 40.484375 46.53125 36.375 47.5 
Q 32.28125 48.484375 27.875 48.484375 
Q 21.1875 48.484375 17.84375 46.4375 
Q 14.5 44.390625 14.5 40.28125 
Q 14.5 37.15625 16.890625 35.375 
Q 19.28125 33.59375 26.515625 31.984375 
L 29.59375 31.296875 
Q 39.15625 29.25 43.1875 25.515625 
Q 47.21875 21.78125 47.21875 15.09375 
Q 47.21875 7.46875 41.1875 3.015625 
Q 35.15625 -1.421875 24.609375 -1.421875 
Q 20.21875 -1.421875 15.453125 -0.5625 
Q 10.6875 0.296875 5.421875 2 
L 5.421875 11.28125 
Q 10.40625 8.6875 15.234375 7.390625 
Q 20.0625 6.109375 24.8125 6.109375 
Q 31.15625 6.109375 34.5625 8.28125 
Q 37.984375 10.453125 37.984375 14.40625 
Q 37.984375 18.0625 35.515625 20.015625 
Q 33.0625 21.96875 24.703125 23.78125 
L 21.578125 24.515625 
Q 13.234375 26.265625 9.515625 29.90625 
Q 5.8125 33.546875 5.8125 39.890625 
Q 5.8125 47.609375 11.28125 51.796875 
Q 16.75 56 26.8125 56 
Q 31.78125 56 36.171875 55.265625 
Q 40.578125 54.546875 44.28125 53.078125 
z
" id="DejaVuSans-115"/>
      <path d="M 34.28125 27.484375 
Q 23.390625 27.484375 19.1875 25 
Q 14.984375 22.515625 14.984375 16.5 
Q 14.984375 11.71875 18.140625 8.90625 
Q 21.296875 6.109375 26.703125 6.109375 
Q 34.1875 6.109375 38.703125 11.40625 
Q 43.21875 16.703125 43.21875 25.484375 
L 43.21875 27.484375 
z
M 52.203125 31.203125 
L 52.203125 0 
L 43.21875 0 
L 43.21875 8.296875 
Q 40.140625 3.328125 35.546875 0.953125 
Q 30.953125 -1.421875 24.3125 -1.421875 
Q 15.921875 -1.421875 10.953125 3.296875 
Q 6 8.015625 6 15.921875 
Q 6 25.140625 12.171875 29.828125 
Q 18.359375 34.515625 30.609375 34.515625 
L 43.21875 34.515625 
L 43.21875 35.40625 
Q 43.21875 41.609375 39.140625 45 
Q 35.0625 48.390625 27.6875 48.390625 
Q 23 48.390625 18.546875 47.265625 
Q 14.109375 46.140625 10.015625 43.890625 
L 10.015625 52.203125 
Q 14.9375 54.109375 19.578125 55.046875 
Q 24.21875 56 28.609375 56 
Q 40.484375 56 46.34375 49.84375 
Q 52.203125 43.703125 52.203125 31.203125 
z
" id="DejaVuSans-97"/>
      <path d="M 10.6875 12.40625 
L 21 12.40625 
L 21 0 
L 10.6875 0 
z
" id="DejaVuSans-46"/>
      <path d="M 8.5 21.578125 
L 8.5 54.6875 
L 17.484375 54.6875 
L 17.484375 21.921875 
Q 17.484375 14.15625 20.5 10.265625 
Q 23.53125 6.390625 29.59375 6.390625 
Q 36.859375 6.390625 41.078125 11.03125 
Q 45.3125 15.671875 45.3125 23.6875 
L 45.3125 54.6875 
L 54.296875 54.6875 
L 54.296875 0 
L 45.3125 0 
L 45.3125 8.40625 
Q 42.046875 3.421875 37.71875 1 
Q 33.40625 -1.421875 27.6875 -1.421875 
Q 18.265625 -1.421875 13.375 4.4375 
Q 8.5 10.296875 8.5 21.578125 
z
M 31.109375 56 
z
" id="DejaVuSans-117"/>
     </defs>
     <g transform="translate(16.33625 170.534158)rotate(-90)scale(0.08 -0.08)">
      <use xlink:href="#DejaVuSans-105"/>
      <use x="27.783203" xlink:href="#DejaVuSans-110"/>
      <use x="91.162109" xlink:href="#DejaVuSans-116"/>
      <use x="130.371094" xlink:href="#DejaVuSans-101"/>
      <use x="191.894531" xlink:href="#DejaVuSans-110"/>
      <use x="255.273438" xlink:href="#DejaVuSans-115"/>
      <use x="307.373047" xlink:href="#DejaVuSans-105"/>
      <use x="335.15625" xlink:href="#DejaVuSans-116"/>
      <use x="374.365234" xlink:href="#DejaVuSans-121"/>
      <use x="433.544922" xlink:href="#DejaVuSans-32"/>
      <use x="465.332031" xlink:href="#DejaVuSans-47"/>
      <use x="499.023438" xlink:href="#DejaVuSans-32"/>
      <use x="530.810547" xlink:href="#DejaVuSans-97"/>
      <use x="592.089844" xlink:href="#DejaVuSans-114"/>
      <use x="633.203125" xlink:href="#DejaVuSans-98"/>
      <use x="696.679688" xlink:href="#DejaVuSans-46"/>
      <use x="728.466797" xlink:href="#DejaVuSans-32"/>
      <use x="760.253906" xlink:href="#DejaVuSans-117"/>
      <use x="823.632812" xlink:href="#DejaVuSans-110"/>
      <use x="887.011719" xlink:href="#DejaVuSans-105"/>
      <use x="914.794922" xlink:href="#DejaVuSans-116"/>
      <use x="954.003906" xlink:href="#DejaVuSans-115"/>
     </g>
    </g>
   </g>
   <g id="line2d_27">
    <path clip-path="url(#p3d9561b183)" d="M -1 195.249894 
L 10.294521 195.110009 
L 17.937045 194.804232 
L 24.051064 194.307273 
L 28.636579 193.722007 
L 33.222093 192.921678 
L 37.807608 191.906547 
L 43.921627 190.298706 
L 53.092656 187.840062 
L 57.67817 186.868701 
L 62.263685 186.192372 
L 66.849199 185.803016 
L 77.548733 185.132175 
L 80.605743 184.642128 
L 83.662752 183.852822 
L 86.719762 182.688904 
L 89.776772 181.100627 
L 92.833781 179.072855 
L 95.890791 176.63121 
L 98.947801 173.844392 
L 103.533315 169.266392 
L 108.11883 164.669199 
L 111.175839 161.882287 
L 114.232849 159.517387 
L 115.761354 158.540871 
L 117.289858 157.723154 
L 118.818363 157.077277 
L 120.346868 156.613471 
L 121.875373 156.338967 
L 123.403878 156.257877 
L 124.932383 156.371166 
L 126.460887 156.676695 
L 127.989392 157.169348 
L 129.517897 157.841221 
L 131.046402 158.681878 
L 132.574907 159.678651 
L 135.631916 162.08081 
L 138.688926 164.915351 
L 143.27444 169.661792 
L 150.916964 177.74637 
L 153.973974 180.712396 
L 157.030984 183.409097 
L 160.087993 185.794008 
L 163.145003 187.848242 
L 166.202013 189.573066 
L 169.259022 190.985631 
L 172.316032 192.114374 
L 175.373042 192.994595 
L 178.430051 193.66453 
L 183.015566 194.357603 
L 187.60108 194.778163 
L 193.715099 195.072976 
L 202.886128 195.232062 
L 224.285196 195.276319 
L 236.275591 195.276856 
L 236.275591 195.276856 
" style="fill:none;stroke:#000000;stroke-dasharray:1,0;stroke-dashoffset:0;"/>
   </g>
   <g id="line2d_28">
    <path clip-path="url(#p3d9561b183)" d="M -1 151.926813 
L 11.207339 151.763189 
L 17.57175 151.502138 
L 23.936161 150.994837 
L 28.70947 150.383839 
L 33.482778 149.53578 
L 38.256087 148.447751 
L 44.620498 146.704082 
L 55.758218 143.529341 
L 60.531526 142.392382 
L 66.895938 141.129326 
L 73.260349 139.878973 
L 76.442555 139.103726 
L 79.62476 138.140311 
L 82.806966 136.937889 
L 85.989172 135.469997 
L 89.171377 133.741572 
L 92.353583 131.791809 
L 105.082406 123.541135 
L 108.264611 121.92236 
L 111.446817 120.686771 
L 113.03792 120.234386 
L 114.629023 119.900025 
L 116.220125 119.686953 
L 117.811228 119.59638 
L 119.402331 119.627519 
L 120.993434 119.777695 
L 124.17564 120.415998 
L 127.357845 121.459035 
L 130.540051 122.837876 
L 133.722257 124.475432 
L 138.495565 127.25011 
L 157.588799 138.843742 
L 162.362108 141.41739 
L 167.135416 143.761692 
L 171.908725 145.826563 
L 176.682033 147.568042 
L 179.864239 148.536653 
L 184.637547 149.701874 
L 189.410856 150.54753 
L 194.184164 151.12352 
L 198.957473 151.491107 
L 205.321884 151.76025 
L 214.868501 151.910965 
L 236.275591 151.95321 
L 236.275591 151.95321 
" style="fill:none;stroke:#000000;stroke-dasharray:3,1,3,1;stroke-dashoffset:0;"/>
   </g>
   <g id="line2d_29">
    <path clip-path="url(#p3d9561b183)" d="M -1 108.603831 
L 10.235424 108.465157 
L 18.066334 108.149327 
L 24.331061 107.627052 
L 29.029607 107.005236 
L 33.728153 106.147312 
L 38.426699 105.047502 
L 43.125245 103.739154 
L 52.522336 100.806863 
L 61.919428 97.978638 
L 69.750338 95.661228 
L 74.448884 94.020944 
L 77.581248 92.717337 
L 80.713611 91.202735 
L 83.845975 89.466124 
L 88.544521 86.496581 
L 99.507795 79.2104 
L 102.640159 77.535078 
L 105.772523 76.246533 
L 107.338705 75.773968 
L 108.904886 75.426117 
L 110.471068 75.20782 
L 112.03725 75.121526 
L 113.603432 75.167276 
L 115.169614 75.342776 
L 116.735796 75.643529 
L 119.86816 76.593096 
L 123.000524 77.945108 
L 126.132888 79.611366 
L 130.831434 82.494446 
L 144.927071 91.592811 
L 149.625617 94.342956 
L 154.324163 96.89538 
L 159.022709 99.242593 
L 163.721254 101.361969 
L 168.4198 103.217209 
L 173.118346 104.773024 
L 177.816892 106.011665 
L 182.515438 106.942221 
L 187.213984 107.599529 
L 191.912529 108.035205 
L 198.177257 108.368743 
L 206.008167 108.549609 
L 221.669986 108.625999 
L 236.275591 108.630562 
L 236.275591 108.630562 
" style="fill:none;stroke:#000000;stroke-dasharray:3,1,1,1;stroke-dashoffset:0;"/>
   </g>
   <g id="line2d_30">
    <path clip-path="url(#p3d9561b183)" d="M -1 65.280677 
L 11.207339 65.117053 
L 17.57175 64.856002 
L 23.936161 64.348701 
L 28.70947 63.737703 
L 33.482778 62.889644 
L 38.256087 61.801615 
L 44.620498 60.057946 
L 55.758218 56.883206 
L 60.531526 55.746246 
L 66.895938 54.48319 
L 73.260349 53.232837 
L 76.442555 52.45759 
L 79.62476 51.494176 
L 82.806966 50.291753 
L 85.989172 48.823861 
L 89.171377 47.095437 
L 92.353583 45.145673 
L 105.082406 36.894999 
L 108.264611 35.276224 
L 111.446817 34.040636 
L 113.03792 33.58825 
L 114.629023 33.253889 
L 116.220125 33.040817 
L 117.811228 32.950244 
L 119.402331 32.981383 
L 120.993434 33.131559 
L 124.17564 33.769862 
L 127.357845 34.812899 
L 130.540051 36.19174 
L 133.722257 37.829296 
L 138.495565 40.603974 
L 157.588799 52.197606 
L 162.362108 54.771254 
L 167.135416 57.115556 
L 171.908725 59.180427 
L 176.682033 60.921906 
L 179.864239 61.890517 
L 184.637547 63.055739 
L 189.410856 63.901394 
L 194.184164 64.477384 
L 198.957473 64.844971 
L 205.321884 65.114114 
L 214.868501 65.264829 
L 236.275591 65.307074 
L 236.275591 65.307074 
" style="fill:none;stroke:#000000;stroke-dasharray:1,1;stroke-dashoffset:0;"/>
   </g>
   <g id="line2d_31">
    <path clip-path="url(#p3d9561b183)" d="M -1 238.573023 
L 10.995555 238.415141 
L 17.681093 238.142356 
L 22.695247 237.766004 
L 27.7094 237.180593 
L 32.723554 236.343875 
L 37.737707 235.250703 
L 44.423245 233.49863 
L 52.780168 231.312489 
L 56.122937 230.620069 
L 59.465706 230.110421 
L 62.808475 229.816082 
L 66.151244 229.745826 
L 69.494013 229.880662 
L 74.508167 230.357142 
L 81.193705 231.077693 
L 84.536474 231.252869 
L 87.879243 231.172518 
L 91.222012 230.752138 
L 94.564781 229.928508 
L 97.90755 228.665786 
L 101.250319 226.95978 
L 104.593088 224.840358 
L 107.935857 222.371866 
L 112.95001 218.234789 
L 119.635548 212.618998 
L 122.978318 210.115258 
L 126.321087 208.015653 
L 127.992471 207.157878 
L 129.663856 206.445591 
L 131.33524 205.888685 
L 133.006625 205.494146 
L 134.678009 205.265879 
L 136.349394 205.204626 
L 138.020778 205.307991 
L 139.692163 205.570576 
L 141.363547 205.984213 
L 143.034932 206.538297 
L 146.377701 208.015702 
L 149.72047 209.886022 
L 153.063239 212.023785 
L 161.420161 217.804405 
L 166.434315 221.177877 
L 171.448468 224.314071 
L 176.462622 227.171642 
L 181.476775 229.733625 
L 186.490929 231.976979 
L 189.833698 233.280054 
L 193.176467 234.4195 
L 196.519236 235.391526 
L 199.862005 236.198345 
L 204.876159 237.119519 
L 209.890312 237.742042 
L 214.904466 238.133566 
L 221.590004 238.413064 
L 231.618311 238.562 
L 236.275591 238.58331 
L 236.275591 238.58331 
" style="fill:none;stroke:#000000;stroke-dasharray:1,1,1,1,3,1;stroke-dashoffset:0;"/>
   </g>
   <g id="patch_3">
    <path d="M 22 247.264567 
L 22 13.32 
" style="fill:none;stroke:#000000;stroke-linecap:square;stroke-linejoin:miter;stroke-width:0.8;"/>
   </g>
   <g id="patch_4">
    <path d="M 221.367102 247.264567 
L 221.367102 13.32 
" style="fill:none;stroke:#000000;stroke-linecap:square;stroke-linejoin:miter;stroke-width:0.8;"/>
   </g>
   <g id="patch_5">
    <path d="M 22 247.264567 
L 221.367102 247.264567 
" style="fill:none;stroke:#000000;stroke-linecap:square;stroke-linejoin:miter;stroke-width:0.8;"/>
   </g>
   <g id="patch_6">
    <path d="M 22 13.32 
L 221.367102 13.32 
" style="fill:none;stroke:#000000;stroke-linecap:square;stroke-linejoin:miter;stroke-width:0.8;"/>
   </g>
   <g id="text_9">
    <g id="patch_7">
     <path d="M 64.17381 183.49013 
C 65.629071 183.49013 67.024923 182.911949 68.053948 181.882924 
C 69.082973 180.8539 69.661154 179.458047 69.661154 178.002786 
C 69.661154 176.547526 69.082973 175.151673 68.053948 174.122648 
C 67.024923 173.093624 65.629071 172.515442 64.17381 172.515442 
C 62.718549 172.515442 61.322697 173.093624 60.293672 174.122648 
C 59.264647 175.151673 58.686466 176.547526 58.686466 178.002786 
C 58.686466 179.458047 59.264647 180.8539 60.293672 181.882924 
C 61.322697 182.911949 62.718549 183.49013 64.17381 183.49013 
z
" style="fill:#cccccc;opacity:0.05;stroke:#000000;stroke-linejoin:miter;"/>
    </g>
    <!-- 6 -->
    <g transform="translate(61.946935 179.934349)scale(0.07 -0.07)">
     <use xlink:href="#DejaVuSans-54"/>
    </g>
   </g>
   <g id="text_10">
    <g id="patch_8">
     <path d="M 128.093817 154.700202 
C 129.549077 154.700202 130.94493 154.122021 131.973955 153.092996 
C 133.002979 152.063971 133.58116 150.668119 133.58116 149.212858 
C 133.58116 147.757598 133.002979 146.361745 131.973955 145.33272 
C 130.94493 144.303695 129.549077 143.725514 128.093817 143.725514 
C 126.638556 143.725514 125.242703 144.303695 124.213679 145.33272 
C 123.184654 146.361745 122.606473 147.757598 122.606473 149.212858 
C 122.606473 150.668119 123.184654 152.063971 124.213679 153.092996 
C 125.242703 154.122021 126.638556 154.700202 128.093817 154.700202 
z
" style="fill:#cccccc;opacity:0.05;stroke:#000000;stroke-linejoin:miter;"/>
    </g>
    <!-- 5 -->
    <g style="fill:#005ac8;" transform="translate(125.866942 151.144421)scale(0.07 -0.07)">
     <use xlink:href="#DejaVuSans-53"/>
    </g>
   </g>
   <g id="text_11">
    <g id="patch_9">
     <path d="M 139.83581 163.551505 
C 141.291071 163.551505 142.686924 162.973324 143.715948 161.944299 
C 144.744973 160.915274 145.323154 159.519422 145.323154 158.064161 
C 145.323154 156.6089 144.744973 155.213048 143.715948 154.184023 
C 142.686924 153.154998 141.291071 152.576817 139.83581 152.576817 
C 138.38055 152.576817 136.984697 153.154998 135.955672 154.184023 
C 134.926648 155.213048 134.348467 156.6089 134.348467 158.064161 
C 134.348467 159.519422 134.926648 160.915274 135.955672 161.944299 
C 136.984697 162.973324 138.38055 163.551505 139.83581 163.551505 
z
" style="fill:#cccccc;opacity:0.05;stroke:#000000;stroke-linejoin:miter;"/>
    </g>
    <!-- 1 -->
    <defs>
     <path d="M 12.40625 8.296875 
L 28.515625 8.296875 
L 28.515625 63.921875 
L 10.984375 60.40625 
L 10.984375 69.390625 
L 28.421875 72.90625 
L 38.28125 72.90625 
L 38.28125 8.296875 
L 54.390625 8.296875 
L 54.390625 0 
L 12.40625 0 
z
" id="DejaVuSans-49"/>
    </defs>
    <g transform="translate(137.608935 159.995724)scale(0.07 -0.07)">
     <use xlink:href="#DejaVuSans-49"/>
    </g>
   </g>
   <g id="text_12">
    <g id="patch_10">
     <path d="M 115.273132 156.32677 
C 116.728392 156.32677 118.124245 155.748588 119.15327 154.719564 
C 120.182294 153.690539 120.760476 152.294686 120.760476 150.839426 
C 120.760476 149.384165 120.182294 147.988312 119.15327 146.959288 
C 118.124245 145.930263 116.728392 145.352082 115.273132 145.352082 
C 113.817871 145.352082 112.422018 145.930263 111.392994 146.959288 
C 110.363969 147.988312 109.785788 149.384165 109.785788 150.839426 
C 109.785788 152.294686 110.363969 153.690539 111.392994 154.719564 
C 112.422018 155.748588 113.817871 156.32677 115.273132 156.32677 
z
" style="fill:#cccccc;opacity:0.05;stroke:#000000;stroke-linejoin:miter;"/>
    </g>
    <!-- 2 -->
    <g transform="translate(113.046257 152.770988)scale(0.07 -0.07)">
     <use xlink:href="#DejaVuSans-50"/>
    </g>
   </g>
   <g id="text_13">
    <g id="patch_11">
     <path d="M 115.568655 172.175618 
C 117.023916 172.175618 118.419769 171.597437 119.448793 170.568413 
C 120.477818 169.539388 121.055999 168.143535 121.055999 166.688275 
C 121.055999 165.233014 120.477818 163.837161 119.448793 162.808137 
C 118.419769 161.779112 117.023916 161.200931 115.568655 161.200931 
C 114.113395 161.200931 112.717542 161.779112 111.688517 162.808137 
C 110.659493 163.837161 110.081311 165.233014 110.081311 166.688275 
C 110.081311 168.143535 110.659493 169.539388 111.688517 170.568413 
C 112.717542 171.597437 114.113395 172.175618 115.568655 172.175618 
z
" style="fill:#cccccc;opacity:0.05;stroke:#000000;stroke-linejoin:miter;"/>
    </g>
    <!-- 3 -->
    <defs>
     <path d="M 40.578125 39.3125 
Q 47.65625 37.796875 51.625 33 
Q 55.609375 28.21875 55.609375 21.1875 
Q 55.609375 10.40625 48.1875 4.484375 
Q 40.765625 -1.421875 27.09375 -1.421875 
Q 22.515625 -1.421875 17.65625 -0.515625 
Q 12.796875 0.390625 7.625 2.203125 
L 7.625 11.71875 
Q 11.71875 9.328125 16.59375 8.109375 
Q 21.484375 6.890625 26.8125 6.890625 
Q 36.078125 6.890625 40.9375 10.546875 
Q 45.796875 14.203125 45.796875 21.1875 
Q 45.796875 27.640625 41.28125 31.265625 
Q 36.765625 34.90625 28.71875 34.90625 
L 20.21875 34.90625 
L 20.21875 43.015625 
L 29.109375 43.015625 
Q 36.375 43.015625 40.234375 45.921875 
Q 44.09375 48.828125 44.09375 54.296875 
Q 44.09375 59.90625 40.109375 62.90625 
Q 36.140625 65.921875 28.71875 65.921875 
Q 24.65625 65.921875 20.015625 65.03125 
Q 15.375 64.15625 9.8125 62.3125 
L 9.8125 71.09375 
Q 15.4375 72.65625 20.34375 73.4375 
Q 25.25 74.21875 29.59375 74.21875 
Q 40.828125 74.21875 47.359375 69.109375 
Q 53.90625 64.015625 53.90625 55.328125 
Q 53.90625 49.265625 50.4375 45.09375 
Q 46.96875 40.921875 40.578125 39.3125 
z
" id="DejaVuSans-51"/>
    </defs>
    <g transform="translate(113.34178 168.619837)scale(0.07 -0.07)">
     <use xlink:href="#DejaVuSans-51"/>
    </g>
   </g>
   <g id="text_14">
    <g id="patch_12">
     <path d="M 122.159463 153.799742 
C 123.614724 153.799742 125.010577 153.221561 126.039601 152.192537 
C 127.068626 151.163512 127.646807 149.767659 127.646807 148.312399 
C 127.646807 146.857138 127.068626 145.461285 126.039601 144.432261 
C 125.010577 143.403236 123.614724 142.825055 122.159463 142.825055 
C 120.704203 142.825055 119.30835 143.403236 118.279325 144.432261 
C 117.250301 145.461285 116.672119 146.857138 116.672119 148.312399 
C 116.672119 149.767659 117.250301 151.163512 118.279325 152.192537 
C 119.30835 153.221561 120.704203 153.799742 122.159463 153.799742 
z
" style="fill:#cccccc;opacity:0.05;stroke:#000000;stroke-linejoin:miter;"/>
    </g>
    <!-- 4 -->
    <g style="fill:#fa5078;" transform="translate(119.932588 150.243961)scale(0.07 -0.07)">
     <use xlink:href="#DejaVuSans-52"/>
    </g>
   </g>
   <g id="text_15">
    <g id="patch_13">
     <path d="M 64.17381 139.135033 
C 65.629071 139.135033 67.024923 138.556851 68.053948 137.527827 
C 69.082973 136.498802 69.661154 135.102949 69.661154 133.647689 
C 69.661154 132.192428 69.082973 130.796575 68.053948 129.767551 
C 67.024923 128.738526 65.629071 128.160345 64.17381 128.160345 
C 62.718549 128.160345 61.322697 128.738526 60.293672 129.767551 
C 59.264647 130.796575 58.686466 132.192428 58.686466 133.647689 
C 58.686466 135.102949 59.264647 136.498802 60.293672 137.527827 
C 61.322697 138.556851 62.718549 139.135033 64.17381 139.135033 
z
" style="fill:#cccccc;opacity:0.05;stroke:#000000;stroke-linejoin:miter;"/>
    </g>
    <!-- 6 -->
    <g transform="translate(61.946935 135.579251)scale(0.07 -0.07)">
     <use xlink:href="#DejaVuSans-54"/>
    </g>
   </g>
   <g id="text_16">
    <g id="patch_14">
     <path d="M 106.34762 120.347577 
C 107.802881 120.347577 109.198733 119.769396 110.227758 118.740371 
C 111.256783 117.711347 111.834964 116.315494 111.834964 114.860233 
C 111.834964 113.404973 111.256783 112.00912 110.227758 110.980095 
C 109.198733 109.951071 107.802881 109.372889 106.34762 109.372889 
C 104.892359 109.372889 103.496507 109.951071 102.467482 110.980095 
C 101.438457 112.00912 100.860276 113.404973 100.860276 114.860233 
C 100.860276 116.315494 101.438457 117.711347 102.467482 118.740371 
C 103.496507 119.769396 104.892359 120.347577 106.34762 120.347577 
z
" style="fill:#cccccc;opacity:0.05;stroke:#000000;stroke-linejoin:miter;"/>
    </g>
    <!-- 5 -->
    <g style="fill:#005ac8;" transform="translate(104.120745 116.791796)scale(0.07 -0.07)">
     <use xlink:href="#DejaVuSans-53"/>
    </g>
   </g>
   <g id="text_17">
    <g id="patch_15">
     <path d="M 152.355413 133.302912 
C 153.810673 133.302912 155.206526 132.724731 156.235551 131.695706 
C 157.264575 130.666682 157.842756 129.270829 157.842756 127.815568 
C 157.842756 126.360308 157.264575 124.964455 156.235551 123.93543 
C 155.206526 122.906406 153.810673 122.328224 152.355413 122.328224 
C 150.900152 122.328224 149.504299 122.906406 148.475275 123.93543 
C 147.44625 124.964455 146.868069 126.360308 146.868069 127.815568 
C 146.868069 129.270829 147.44625 130.666682 148.475275 131.695706 
C 149.504299 132.724731 150.900152 133.302912 152.355413 133.302912 
z
" style="fill:#cccccc;opacity:0.05;stroke:#000000;stroke-linejoin:miter;"/>
    </g>
    <!-- 1 -->
    <g transform="translate(150.128538 129.747131)scale(0.07 -0.07)">
     <use xlink:href="#DejaVuSans-49"/>
    </g>
   </g>
   <g id="text_18">
    <g id="patch_16">
     <path d="M 125.517534 118.300729 
C 126.972794 118.300729 128.368647 117.722548 129.397672 116.693523 
C 130.426696 115.664498 131.004877 114.268646 131.004877 112.813385 
C 131.004877 111.358125 130.426696 109.962272 129.397672 108.933247 
C 128.368647 107.904222 126.972794 107.326041 125.517534 107.326041 
C 124.062273 107.326041 122.66642 107.904222 121.637396 108.933247 
C 120.608371 109.962272 120.03019 111.358125 120.03019 112.813385 
C 120.03019 114.268646 120.608371 115.664498 121.637396 116.693523 
C 122.66642 117.722548 124.062273 118.300729 125.517534 118.300729 
z
" style="fill:#cccccc;opacity:0.05;stroke:#000000;stroke-linejoin:miter;"/>
    </g>
    <!-- 2 -->
    <g transform="translate(123.290659 114.744948)scale(0.07 -0.07)">
     <use xlink:href="#DejaVuSans-50"/>
    </g>
   </g>
   <g id="text_19">
    <g id="patch_17">
     <path d="M 125.517534 134.330264 
C 126.972794 134.330264 128.368647 133.752083 129.397672 132.723058 
C 130.426696 131.694034 131.004877 130.298181 131.004877 128.84292 
C 131.004877 127.38766 130.426696 125.991807 129.397672 124.962782 
C 128.368647 123.933758 126.972794 123.355576 125.517534 123.355576 
C 124.062273 123.355576 122.66642 123.933758 121.637396 124.962782 
C 120.608371 125.991807 120.03019 127.38766 120.03019 128.84292 
C 120.03019 130.298181 120.608371 131.694034 121.637396 132.723058 
C 122.66642 133.752083 124.062273 134.330264 125.517534 134.330264 
z
" style="fill:#cccccc;opacity:0.05;stroke:#000000;stroke-linejoin:miter;"/>
    </g>
    <!-- 3 -->
    <g transform="translate(123.290659 130.774483)scale(0.07 -0.07)">
     <use xlink:href="#DejaVuSans-51"/>
    </g>
   </g>
   <g id="text_20">
    <g id="patch_18">
     <path d="M 106.34762 136.377112 
C 107.802881 136.377112 109.198733 135.798931 110.227758 134.769906 
C 111.256783 133.740882 111.834964 132.345029 111.834964 130.889768 
C 111.834964 129.434508 111.256783 128.038655 110.227758 127.00963 
C 109.198733 125.980606 107.802881 125.402425 106.34762 125.402425 
C 104.892359 125.402425 103.496507 125.980606 102.467482 127.00963 
C 101.438457 128.038655 100.860276 129.434508 100.860276 130.889768 
C 100.860276 132.345029 101.438457 133.740882 102.467482 134.769906 
C 103.496507 135.798931 104.892359 136.377112 106.34762 136.377112 
z
" style="fill:#cccccc;opacity:0.05;stroke:#000000;stroke-linejoin:miter;"/>
    </g>
    <!-- 4 -->
    <g style="fill:#fa5078;" transform="translate(104.120745 132.821331)scale(0.07 -0.07)">
     <use xlink:href="#DejaVuSans-52"/>
    </g>
   </g>
   <g id="text_21">
    <g id="patch_19">
     <path d="M 64.17381 94.820592 
C 65.629071 94.820592 67.024923 94.24241 68.053948 93.213386 
C 69.082973 92.184361 69.661154 90.788508 69.661154 89.333248 
C 69.661154 87.877987 69.082973 86.482135 68.053948 85.45311 
C 67.024923 84.424085 65.629071 83.845904 64.17381 83.845904 
C 62.718549 83.845904 61.322697 84.424085 60.293672 85.45311 
C 59.264647 86.482135 58.686466 87.877987 58.686466 89.333248 
C 58.686466 90.788508 59.264647 92.184361 60.293672 93.213386 
C 61.322697 94.24241 62.718549 94.820592 64.17381 94.820592 
z
" style="fill:#cccccc;opacity:0.05;stroke:#000000;stroke-linejoin:miter;"/>
    </g>
    <!-- 6 -->
    <g transform="translate(61.946935 91.26481)scale(0.07 -0.07)">
     <use xlink:href="#DejaVuSans-54"/>
    </g>
   </g>
   <g id="text_22">
    <g id="patch_20">
     <path d="M 102.513637 75.08645 
C 103.968898 75.08645 105.364751 74.508269 106.393775 73.479245 
C 107.4228 72.45022 108.000981 71.054367 108.000981 69.599107 
C 108.000981 68.143846 107.4228 66.747993 106.393775 65.718969 
C 105.364751 64.689944 103.968898 64.111763 102.513637 64.111763 
C 101.058377 64.111763 99.662524 64.689944 98.633499 65.718969 
C 97.604475 66.747993 97.026293 68.143846 97.026293 69.599107 
C 97.026293 71.054367 97.604475 72.45022 98.633499 73.479245 
C 99.662524 74.508269 101.058377 75.08645 102.513637 75.08645 
z
" style="fill:#cccccc;opacity:0.05;stroke:#000000;stroke-linejoin:miter;"/>
    </g>
    <!-- 5 -->
    <g style="fill:#005ac8;" transform="translate(100.286762 71.530669)scale(0.07 -0.07)">
     <use xlink:href="#DejaVuSans-53"/>
    </g>
   </g>
   <g id="text_23">
    <g id="patch_21">
     <path d="M 147.371235 90.538411 
C 148.826496 90.538411 150.222348 89.96023 151.251373 88.931206 
C 152.280398 87.902181 152.858579 86.506328 152.858579 85.051068 
C 152.858579 83.595807 152.280398 82.199954 151.251373 81.17093 
C 150.222348 80.141905 148.826496 79.563724 147.371235 79.563724 
C 145.915975 79.563724 144.520122 80.141905 143.491097 81.17093 
C 142.462073 82.199954 141.883891 83.595807 141.883891 85.051068 
C 141.883891 86.506328 142.462073 87.902181 143.491097 88.931206 
C 144.520122 89.96023 145.915975 90.538411 147.371235 90.538411 
z
" style="fill:#cccccc;opacity:0.05;stroke:#000000;stroke-linejoin:miter;"/>
    </g>
    <!-- 1 -->
    <g transform="translate(145.14436 86.98263)scale(0.07 -0.07)">
     <use xlink:href="#DejaVuSans-49"/>
    </g>
   </g>
   <g id="text_24">
    <g id="patch_22">
     <path d="M 118.999763 73.776643 
C 120.455024 73.776643 121.850876 73.198462 122.879901 72.169437 
C 123.908926 71.140413 124.487107 69.74456 124.487107 68.289299 
C 124.487107 66.834039 123.908926 65.438186 122.879901 64.409161 
C 121.850876 63.380137 120.455024 62.801955 118.999763 62.801955 
C 117.544502 62.801955 116.14865 63.380137 115.119625 64.409161 
C 114.0906 65.438186 113.512419 66.834039 113.512419 68.289299 
C 113.512419 69.74456 114.0906 71.140413 115.119625 72.169437 
C 116.14865 73.198462 117.544502 73.776643 118.999763 73.776643 
z
" style="fill:#cccccc;opacity:0.05;stroke:#000000;stroke-linejoin:miter;"/>
    </g>
    <!-- 2 -->
    <g transform="translate(116.772888 70.220862)scale(0.07 -0.07)">
     <use xlink:href="#DejaVuSans-50"/>
    </g>
   </g>
   <g id="text_25">
    <g id="patch_23">
     <path d="M 118.999763 89.806178 
C 120.455024 89.806178 121.850876 89.227997 122.879901 88.198972 
C 123.908926 87.169948 124.487107 85.774095 124.487107 84.318834 
C 124.487107 82.863574 123.908926 81.467721 122.879901 80.438696 
C 121.850876 79.409672 120.455024 78.831491 118.999763 78.831491 
C 117.544502 78.831491 116.14865 79.409672 115.119625 80.438696 
C 114.0906 81.467721 113.512419 82.863574 113.512419 84.318834 
C 113.512419 85.774095 114.0906 87.169948 115.119625 88.198972 
C 116.14865 89.227997 117.544502 89.806178 118.999763 89.806178 
z
" style="fill:#cccccc;opacity:0.05;stroke:#000000;stroke-linejoin:miter;"/>
    </g>
    <!-- 3 -->
    <g transform="translate(116.772888 86.250397)scale(0.07 -0.07)">
     <use xlink:href="#DejaVuSans-51"/>
    </g>
   </g>
   <g id="text_26">
    <g id="patch_24">
     <path d="M 102.513637 91.115986 
C 103.968898 91.115986 105.364751 90.537804 106.393775 89.50878 
C 107.4228 88.479755 108.000981 87.083902 108.000981 85.628642 
C 108.000981 84.173381 107.4228 82.777528 106.393775 81.748504 
C 105.364751 80.719479 103.968898 80.141298 102.513637 80.141298 
C 101.058377 80.141298 99.662524 80.719479 98.633499 81.748504 
C 97.604475 82.777528 97.026293 84.173381 97.026293 85.628642 
C 97.026293 87.083902 97.604475 88.479755 98.633499 89.50878 
C 99.662524 90.537804 101.058377 91.115986 102.513637 91.115986 
z
" style="fill:#cccccc;opacity:0.05;stroke:#000000;stroke-linejoin:miter;"/>
    </g>
    <!-- 4 -->
    <g style="fill:#fa5078;" transform="translate(100.286762 87.560204)scale(0.07 -0.07)">
     <use xlink:href="#DejaVuSans-52"/>
    </g>
   </g>
   <g id="text_27">
    <g id="patch_25">
     <path d="M 64.17381 52.488897 
C 65.629071 52.488897 67.024923 51.910716 68.053948 50.881691 
C 69.082973 49.852666 69.661154 48.456813 69.661154 47.001553 
C 69.661154 45.546292 69.082973 44.15044 68.053948 43.121415 
C 67.024923 42.09239 65.629071 41.514209 64.17381 41.514209 
C 62.718549 41.514209 61.322697 42.09239 60.293672 43.121415 
C 59.264647 44.15044 58.686466 45.546292 58.686466 47.001553 
C 58.686466 48.456813 59.264647 49.852666 60.293672 50.881691 
C 61.322697 51.910716 62.718549 52.488897 64.17381 52.488897 
z
" style="fill:#cccccc;opacity:0.05;stroke:#000000;stroke-linejoin:miter;"/>
    </g>
    <!-- 6 -->
    <g transform="translate(61.946935 48.933115)scale(0.07 -0.07)">
     <use xlink:href="#DejaVuSans-54"/>
    </g>
   </g>
   <g id="text_28">
    <g id="patch_26">
     <path d="M 106.34762 33.701441 
C 107.802881 33.701441 109.198733 33.12326 110.227758 32.094235 
C 111.256783 31.065211 111.834964 29.669358 111.834964 28.214097 
C 111.834964 26.758837 111.256783 25.362984 110.227758 24.333959 
C 109.198733 23.304935 107.802881 22.726754 106.34762 22.726754 
C 104.892359 22.726754 103.496507 23.304935 102.467482 24.333959 
C 101.438457 25.362984 100.860276 26.758837 100.860276 28.214097 
C 100.860276 29.669358 101.438457 31.065211 102.467482 32.094235 
C 103.496507 33.12326 104.892359 33.701441 106.34762 33.701441 
z
" style="fill:#cccccc;opacity:0.05;stroke:#000000;stroke-linejoin:miter;"/>
    </g>
    <!-- 5 -->
    <g style="fill:#005ac8;" transform="translate(104.120745 30.14566)scale(0.07 -0.07)">
     <use xlink:href="#DejaVuSans-53"/>
    </g>
   </g>
   <g id="text_29">
    <g id="patch_27">
     <path d="M 152.355413 46.656776 
C 153.810673 46.656776 155.206526 46.078595 156.235551 45.04957 
C 157.264575 44.020546 157.842756 42.624693 157.842756 41.169432 
C 157.842756 39.714172 157.264575 38.318319 156.235551 37.289294 
C 155.206526 36.26027 153.810673 35.682089 152.355413 35.682089 
C 150.900152 35.682089 149.504299 36.26027 148.475275 37.289294 
C 147.44625 38.318319 146.868069 39.714172 146.868069 41.169432 
C 146.868069 42.624693 147.44625 44.020546 148.475275 45.04957 
C 149.504299 46.078595 150.900152 46.656776 152.355413 46.656776 
z
" style="fill:#cccccc;opacity:0.05;stroke:#000000;stroke-linejoin:miter;"/>
    </g>
    <!-- 1 -->
    <g transform="translate(150.128538 43.100995)scale(0.07 -0.07)">
     <use xlink:href="#DejaVuSans-49"/>
    </g>
   </g>
   <g id="text_30">
    <g id="patch_28">
     <path d="M 125.517534 31.654593 
C 126.972794 31.654593 128.368647 31.076412 129.397672 30.047387 
C 130.426696 29.018363 131.004877 27.62251 131.004877 26.167249 
C 131.004877 24.711989 130.426696 23.316136 129.397672 22.287111 
C 128.368647 21.258087 126.972794 20.679905 125.517534 20.679905 
C 124.062273 20.679905 122.66642 21.258087 121.637396 22.287111 
C 120.608371 23.316136 120.03019 24.711989 120.03019 26.167249 
C 120.03019 27.62251 120.608371 29.018363 121.637396 30.047387 
C 122.66642 31.076412 124.062273 31.654593 125.517534 31.654593 
z
" style="fill:#cccccc;opacity:0.05;stroke:#000000;stroke-linejoin:miter;"/>
    </g>
    <!-- 2 -->
    <g transform="translate(123.290659 28.098812)scale(0.07 -0.07)">
     <use xlink:href="#DejaVuSans-50"/>
    </g>
   </g>
   <g id="text_31">
    <g id="patch_29">
     <path d="M 125.517534 47.684128 
C 126.972794 47.684128 128.368647 47.105947 129.397672 46.076922 
C 130.426696 45.047898 131.004877 43.652045 131.004877 42.196784 
C 131.004877 40.741524 130.426696 39.345671 129.397672 38.316646 
C 128.368647 37.287622 126.972794 36.709441 125.517534 36.709441 
C 124.062273 36.709441 122.66642 37.287622 121.637396 38.316646 
C 120.608371 39.345671 120.03019 40.741524 120.03019 42.196784 
C 120.03019 43.652045 120.608371 45.047898 121.637396 46.076922 
C 122.66642 47.105947 124.062273 47.684128 125.517534 47.684128 
z
" style="fill:#cccccc;opacity:0.05;stroke:#000000;stroke-linejoin:miter;"/>
    </g>
    <!-- 3 -->
    <g transform="translate(123.290659 44.128347)scale(0.07 -0.07)">
     <use xlink:href="#DejaVuSans-51"/>
    </g>
   </g>
   <g id="text_32">
    <g id="patch_30">
     <path d="M 106.34762 49.730976 
C 107.802881 49.730976 109.198733 49.152795 110.227758 48.12377 
C 111.256783 47.094746 111.834964 45.698893 111.834964 44.243632 
C 111.834964 42.788372 111.256783 41.392519 110.227758 40.363494 
C 109.198733 39.33447 107.802881 38.756289 106.34762 38.756289 
C 104.892359 38.756289 103.496507 39.33447 102.467482 40.363494 
C 101.438457 41.392519 100.860276 42.788372 100.860276 44.243632 
C 100.860276 45.698893 101.438457 47.094746 102.467482 48.12377 
C 103.496507 49.152795 104.892359 49.730976 106.34762 49.730976 
z
" style="fill:#cccccc;opacity:0.05;stroke:#000000;stroke-linejoin:miter;"/>
    </g>
    <!-- 4 -->
    <g style="fill:#fa5078;" transform="translate(104.120745 46.175195)scale(0.07 -0.07)">
     <use xlink:href="#DejaVuSans-52"/>
    </g>
   </g>
   <g id="text_33">
    <g id="patch_31">
     <path d="M 64.17381 227.251295 
C 65.629071 227.251295 67.024923 226.673114 68.053948 225.644089 
C 69.082973 224.615064 69.661154 223.219212 69.661154 221.763951 
C 69.661154 220.308691 69.082973 218.912838 68.053948 217.883813 
C 67.024923 216.854789 65.629071 216.276607 64.17381 216.276607 
C 62.718549 216.276607 61.322697 216.854789 60.293672 217.883813 
C 59.264647 218.912838 58.686466 220.308691 58.686466 221.763951 
C 58.686466 223.219212 59.264647 224.615064 60.293672 225.644089 
C 61.322697 226.673114 62.718549 227.251295 64.17381 227.251295 
z
" style="fill:#cccccc;opacity:0.05;stroke:#000000;stroke-linejoin:miter;"/>
    </g>
    <!-- 6 -->
    <g transform="translate(61.946935 223.695514)scale(0.07 -0.07)">
     <use xlink:href="#DejaVuSans-54"/>
    </g>
   </g>
   <g id="text_34">
    <g id="patch_32">
     <path d="M 132.894116 203.006063 
C 134.349377 203.006063 135.74523 202.427882 136.774254 201.398857 
C 137.803279 200.369833 138.38146 198.97398 138.38146 197.518719 
C 138.38146 196.063459 137.803279 194.667606 136.774254 193.638581 
C 135.74523 192.609557 134.349377 192.031376 132.894116 192.031376 
C 131.438856 192.031376 130.043003 192.609557 129.013978 193.638581 
C 127.984954 194.667606 127.406773 196.063459 127.406773 197.518719 
C 127.406773 198.97398 127.984954 200.369833 129.013978 201.398857 
C 130.043003 202.427882 131.438856 203.006063 132.894116 203.006063 
z
" style="fill:#cccccc;opacity:0.05;stroke:#000000;stroke-linejoin:miter;"/>
    </g>
    <!-- 5 -->
    <g style="fill:#005ac8;" transform="translate(130.667241 199.450282)scale(0.07 -0.07)">
     <use xlink:href="#DejaVuSans-53"/>
    </g>
   </g>
   <g id="text_35">
    <g id="patch_33">
     <path d="M 168.411749 219.93697 
C 169.86701 219.93697 171.262862 219.358789 172.291887 218.329765 
C 173.320912 217.30074 173.899093 215.904887 173.899093 214.449627 
C 173.899093 212.994366 173.320912 211.598513 172.291887 210.569489 
C 171.262862 209.540464 169.86701 208.962283 168.411749 208.962283 
C 166.956488 208.962283 165.560636 209.540464 164.531611 210.569489 
C 163.502586 211.598513 162.924405 212.994366 162.924405 214.449627 
C 162.924405 215.904887 163.502586 217.30074 164.531611 218.329765 
C 165.560636 219.358789 166.956488 219.93697 168.411749 219.93697 
z
" style="fill:#cccccc;opacity:0.05;stroke:#000000;stroke-linejoin:miter;"/>
    </g>
    <!-- 1 -->
    <g transform="translate(166.184874 216.381189)scale(0.07 -0.07)">
     <use xlink:href="#DejaVuSans-49"/>
    </g>
   </g>
   <g id="text_36">
    <g id="patch_34">
     <path d="M 139.850111 203.093903 
C 141.305372 203.093903 142.701225 202.515722 143.730249 201.486697 
C 144.759274 200.457672 145.337455 199.06182 145.337455 197.606559 
C 145.337455 196.151298 144.759274 194.755446 143.730249 193.726421 
C 142.701225 192.697396 141.305372 192.119215 139.850111 192.119215 
C 138.394851 192.119215 136.998998 192.697396 135.969973 193.726421 
C 134.940949 194.755446 134.362767 196.151298 134.362767 197.606559 
C 134.362767 199.06182 134.940949 200.457672 135.969973 201.486697 
C 136.998998 202.515722 138.394851 203.093903 139.850111 203.093903 
z
" style="fill:#cccccc;opacity:0.05;stroke:#000000;stroke-linejoin:miter;"/>
    </g>
    <!-- 2 -->
    <g transform="translate(137.623236 199.538122)scale(0.07 -0.07)">
     <use xlink:href="#DejaVuSans-50"/>
    </g>
   </g>
   <g id="text_37">
    <g id="patch_35">
     <path d="M 139.499302 219.052476 
C 140.954562 219.052476 142.350415 218.474295 143.37944 217.44527 
C 144.408464 216.416245 144.986646 215.020392 144.986646 213.565132 
C 144.986646 212.109871 144.408464 210.714019 143.37944 209.684994 
C 142.350415 208.655969 140.954562 208.077788 139.499302 208.077788 
C 138.044041 208.077788 136.648188 208.655969 135.619164 209.684994 
C 134.590139 210.714019 134.011958 212.109871 134.011958 213.565132 
C 134.011958 215.020392 134.590139 216.416245 135.619164 217.44527 
C 136.648188 218.474295 138.044041 219.052476 139.499302 219.052476 
z
" style="fill:#cccccc;opacity:0.05;stroke:#000000;stroke-linejoin:miter;"/>
    </g>
    <!-- 3 -->
    <g transform="translate(137.272427 215.496694)scale(0.07 -0.07)">
     <use xlink:href="#DejaVuSans-51"/>
    </g>
   </g>
   <g id="text_38">
    <g id="patch_36">
     <path d="M 118.635918 210.914991 
C 120.091179 210.914991 121.487031 210.33681 122.516056 209.307785 
C 123.545081 208.27876 124.123262 206.882908 124.123262 205.427647 
C 124.123262 203.972386 123.545081 202.576534 122.516056 201.547509 
C 121.487031 200.518484 120.091179 199.940303 118.635918 199.940303 
C 117.180657 199.940303 115.784805 200.518484 114.75578 201.547509 
C 113.726755 202.576534 113.148574 203.972386 113.148574 205.427647 
C 113.148574 206.882908 113.726755 208.27876 114.75578 209.307785 
C 115.784805 210.33681 117.180657 210.914991 118.635918 210.914991 
z
" style="fill:#cccccc;opacity:0.05;stroke:#000000;stroke-linejoin:miter;"/>
    </g>
    <!-- 4 -->
    <g style="fill:#fa5078;" transform="translate(116.409043 207.35921)scale(0.07 -0.07)">
     <use xlink:href="#DejaVuSans-52"/>
    </g>
   </g>
   <g id="text_39">
    <!-- Schmitz -->
    <defs>
     <path d="M 53.515625 70.515625 
L 53.515625 60.890625 
Q 47.90625 63.578125 42.921875 64.890625 
Q 37.9375 66.21875 33.296875 66.21875 
Q 25.25 66.21875 20.875 63.09375 
Q 16.5 59.96875 16.5 54.203125 
Q 16.5 49.359375 19.40625 46.890625 
Q 22.3125 44.4375 30.421875 42.921875 
L 36.375 41.703125 
Q 47.40625 39.59375 52.65625 34.296875 
Q 57.90625 29 57.90625 20.125 
Q 57.90625 9.515625 50.796875 4.046875 
Q 43.703125 -1.421875 29.984375 -1.421875 
Q 24.8125 -1.421875 18.96875 -0.25 
Q 13.140625 0.921875 6.890625 3.21875 
L 6.890625 13.375 
Q 12.890625 10.015625 18.65625 8.296875 
Q 24.421875 6.59375 29.984375 6.59375 
Q 38.421875 6.59375 43.015625 9.90625 
Q 47.609375 13.234375 47.609375 19.390625 
Q 47.609375 24.75 44.3125 27.78125 
Q 41.015625 30.8125 33.5 32.328125 
L 27.484375 33.5 
Q 16.453125 35.6875 11.515625 40.375 
Q 6.59375 45.0625 6.59375 53.421875 
Q 6.59375 63.09375 13.40625 68.65625 
Q 20.21875 74.21875 32.171875 74.21875 
Q 37.3125 74.21875 42.625 73.28125 
Q 47.953125 72.359375 53.515625 70.515625 
z
" id="DejaVuSans-83"/>
     <path d="M 48.78125 52.59375 
L 48.78125 44.1875 
Q 44.96875 46.296875 41.140625 47.34375 
Q 37.3125 48.390625 33.40625 48.390625 
Q 24.65625 48.390625 19.8125 42.84375 
Q 14.984375 37.3125 14.984375 27.296875 
Q 14.984375 17.28125 19.8125 11.734375 
Q 24.65625 6.203125 33.40625 6.203125 
Q 37.3125 6.203125 41.140625 7.25 
Q 44.96875 8.296875 48.78125 10.40625 
L 48.78125 2.09375 
Q 45.015625 0.34375 40.984375 -0.53125 
Q 36.96875 -1.421875 32.421875 -1.421875 
Q 20.0625 -1.421875 12.78125 6.34375 
Q 5.515625 14.109375 5.515625 27.296875 
Q 5.515625 40.671875 12.859375 48.328125 
Q 20.21875 56 33.015625 56 
Q 37.15625 56 41.109375 55.140625 
Q 45.0625 54.296875 48.78125 52.59375 
z
" id="DejaVuSans-99"/>
     <path d="M 54.890625 33.015625 
L 54.890625 0 
L 45.90625 0 
L 45.90625 32.71875 
Q 45.90625 40.484375 42.875 44.328125 
Q 39.84375 48.1875 33.796875 48.1875 
Q 26.515625 48.1875 22.3125 43.546875 
Q 18.109375 38.921875 18.109375 30.90625 
L 18.109375 0 
L 9.078125 0 
L 9.078125 75.984375 
L 18.109375 75.984375 
L 18.109375 46.1875 
Q 21.34375 51.125 25.703125 53.5625 
Q 30.078125 56 35.796875 56 
Q 45.21875 56 50.046875 50.171875 
Q 54.890625 44.34375 54.890625 33.015625 
z
" id="DejaVuSans-104"/>
     <path d="M 52 44.1875 
Q 55.375 50.25 60.0625 53.125 
Q 64.75 56 71.09375 56 
Q 79.640625 56 84.28125 50.015625 
Q 88.921875 44.046875 88.921875 33.015625 
L 88.921875 0 
L 79.890625 0 
L 79.890625 32.71875 
Q 79.890625 40.578125 77.09375 44.375 
Q 74.3125 48.1875 68.609375 48.1875 
Q 61.625 48.1875 57.5625 43.546875 
Q 53.515625 38.921875 53.515625 30.90625 
L 53.515625 0 
L 44.484375 0 
L 44.484375 32.71875 
Q 44.484375 40.625 41.703125 44.40625 
Q 38.921875 48.1875 33.109375 48.1875 
Q 26.21875 48.1875 22.15625 43.53125 
Q 18.109375 38.875 18.109375 30.90625 
L 18.109375 0 
L 9.078125 0 
L 9.078125 54.6875 
L 18.109375 54.6875 
L 18.109375 46.1875 
Q 21.1875 51.21875 25.484375 53.609375 
Q 29.78125 56 35.6875 56 
Q 41.65625 56 45.828125 52.96875 
Q 50 49.953125 52 44.1875 
z
" id="DejaVuSans-109"/>
     <path d="M 5.515625 54.6875 
L 48.1875 54.6875 
L 48.1875 46.484375 
L 14.40625 7.171875 
L 48.1875 7.171875 
L 48.1875 0 
L 4.296875 0 
L 4.296875 8.203125 
L 38.09375 47.515625 
L 5.515625 47.515625 
z
" id="DejaVuSans-122"/>
    </defs>
    <g transform="translate(181.954841 54.476915)scale(0.07 -0.07)">
     <use xlink:href="#DejaVuSans-83"/>
     <use x="63.476562" xlink:href="#DejaVuSans-99"/>
     <use x="118.457031" xlink:href="#DejaVuSans-104"/>
     <use x="181.835938" xlink:href="#DejaVuSans-109"/>
     <use x="279.248047" xlink:href="#DejaVuSans-105"/>
     <use x="307.03125" xlink:href="#DejaVuSans-116"/>
     <use x="346.240234" xlink:href="#DejaVuSans-122"/>
    </g>
   </g>
   <g id="text_40">
    <!-- $\mathrm{T\~{o}nisoo}$ -->
    <defs>
     <path d="M -0.296875 72.90625 
L 61.375 72.90625 
L 61.375 64.59375 
L 35.5 64.59375 
L 35.5 0 
L 25.59375 0 
L 25.59375 64.59375 
L -0.296875 64.59375 
z
" id="DejaVuSans-84"/>
     <path d="M -25.296875 66.890625 
L -28.078125 69.578125 
Q -29.15625 70.5625 -29.953125 71.015625 
Q -30.765625 71.484375 -31.390625 71.484375 
Q -33.25 71.484375 -34.125 69.703125 
Q -35.015625 67.921875 -35.109375 63.921875 
L -41.21875 63.921875 
Q -41.109375 70.515625 -38.625 74.09375 
Q -36.140625 77.6875 -31.6875 77.6875 
Q -29.828125 77.6875 -28.265625 77 
Q -26.703125 76.3125 -24.90625 74.703125 
L -22.125 72.015625 
Q -21.046875 71.046875 -20.234375 70.578125 
Q -19.4375 70.125 -18.796875 70.125 
Q -16.9375 70.125 -16.0625 71.90625 
Q -15.1875 73.6875 -15.09375 77.6875 
L -8.984375 77.6875 
Q -9.078125 71.09375 -11.5625 67.5 
Q -14.0625 63.921875 -18.5 63.921875 
Q -20.359375 63.921875 -21.921875 64.59375 
Q -23.484375 65.28125 -25.296875 66.890625 
z
" id="DejaVuSans-771"/>
     <path d="M 30.609375 48.390625 
Q 23.390625 48.390625 19.1875 42.75 
Q 14.984375 37.109375 14.984375 27.296875 
Q 14.984375 17.484375 19.15625 11.84375 
Q 23.34375 6.203125 30.609375 6.203125 
Q 37.796875 6.203125 41.984375 11.859375 
Q 46.1875 17.53125 46.1875 27.296875 
Q 46.1875 37.015625 41.984375 42.703125 
Q 37.796875 48.390625 30.609375 48.390625 
z
M 30.609375 56 
Q 42.328125 56 49.015625 48.375 
Q 55.71875 40.765625 55.71875 27.296875 
Q 55.71875 13.875 49.015625 6.21875 
Q 42.328125 -1.421875 30.609375 -1.421875 
Q 18.84375 -1.421875 12.171875 6.21875 
Q 5.515625 13.875 5.515625 27.296875 
Q 5.515625 40.765625 12.171875 48.375 
Q 18.84375 56 30.609375 56 
z
" id="DejaVuSans-111"/>
    </defs>
    <g transform="translate(182.705154 97.799983)scale(0.07 -0.07)">
     <use transform="translate(0 0.734375)" xlink:href="#DejaVuSans-84"/>
     <use transform="translate(124.598145 5.3125)" xlink:href="#DejaVuSans-771"/>
     <use transform="translate(61.083984 0.734375)" xlink:href="#DejaVuSans-111"/>
     <use transform="translate(122.265625 0.734375)" xlink:href="#DejaVuSans-110"/>
     <use transform="translate(185.644531 0.734375)" xlink:href="#DejaVuSans-105"/>
     <use transform="translate(213.427734 0.734375)" xlink:href="#DejaVuSans-115"/>
     <use transform="translate(265.527344 0.734375)" xlink:href="#DejaVuSans-111"/>
     <use transform="translate(326.708984 0.734375)" xlink:href="#DejaVuSans-111"/>
    </g>
   </g>
   <g id="text_41">
    <!-- Garcia -->
    <defs>
     <path d="M 59.515625 10.40625 
L 59.515625 29.984375 
L 43.40625 29.984375 
L 43.40625 38.09375 
L 69.28125 38.09375 
L 69.28125 6.78125 
Q 63.578125 2.734375 56.6875 0.65625 
Q 49.8125 -1.421875 42 -1.421875 
Q 24.90625 -1.421875 15.25 8.5625 
Q 5.609375 18.5625 5.609375 36.375 
Q 5.609375 54.25 15.25 64.234375 
Q 24.90625 74.21875 42 74.21875 
Q 49.125 74.21875 55.546875 72.453125 
Q 61.96875 70.703125 67.390625 67.28125 
L 67.390625 56.78125 
Q 61.921875 61.421875 55.765625 63.765625 
Q 49.609375 66.109375 42.828125 66.109375 
Q 29.4375 66.109375 22.71875 58.640625 
Q 16.015625 51.171875 16.015625 36.375 
Q 16.015625 21.625 22.71875 14.15625 
Q 29.4375 6.6875 42.828125 6.6875 
Q 48.046875 6.6875 52.140625 7.59375 
Q 56.25 8.5 59.515625 10.40625 
z
" id="DejaVuSans-71"/>
    </defs>
    <g transform="translate(187.19281 141.12305)scale(0.07 -0.07)">
     <use xlink:href="#DejaVuSans-71"/>
     <use x="77.490234" xlink:href="#DejaVuSans-97"/>
     <use x="138.769531" xlink:href="#DejaVuSans-114"/>
     <use x="179.851562" xlink:href="#DejaVuSans-99"/>
     <use x="234.832031" xlink:href="#DejaVuSans-105"/>
     <use x="262.615234" xlink:href="#DejaVuSans-97"/>
    </g>
   </g>
   <g id="text_42">
    <!-- $\Delta$KS -->
    <defs>
     <path d="M 34.1875 63.1875 
L 14.15625 8.203125 
L 54.25 8.203125 
z
M 0.78125 0 
L 28.609375 72.90625 
L 39.796875 72.90625 
L 67.578125 0 
z
" id="DejaVuSans-916"/>
     <path d="M 9.8125 72.90625 
L 19.671875 72.90625 
L 19.671875 42.09375 
L 52.390625 72.90625 
L 65.09375 72.90625 
L 28.90625 38.921875 
L 67.671875 0 
L 54.6875 0 
L 19.671875 35.109375 
L 19.671875 0 
L 9.8125 0 
z
" id="DejaVuSans-75"/>
    </defs>
    <g transform="translate(196.005154 184.446118)scale(0.07 -0.07)">
     <use transform="translate(0 0.78125)" xlink:href="#DejaVuSans-916"/>
     <use transform="translate(68.408203 0.78125)" xlink:href="#DejaVuSans-75"/>
     <use transform="translate(133.984375 0.78125)" xlink:href="#DejaVuSans-83"/>
    </g>
   </g>
   <g id="text_43">
    <!-- 1s -->
    <g transform="translate(201.764841 232.101493)scale(0.07 -0.07)">
     <use xlink:href="#DejaVuSans-49"/>
     <use x="63.623047" xlink:href="#DejaVuSans-115"/>
    </g>
   </g>
  </g>
 </g>
 <defs>
  <clipPath id="p3d9561b183">
   <rect height="233.944567" width="199.367102" x="22" y="13.32"/>
  </clipPath>
 </defs>
</svg>
