<?xml version="1.0" encoding="utf-8" standalone="no"?>
<!DOCTYPE svg PUBLIC "-//W3C//DTD SVG 1.1//EN"
  "http://www.w3.org/Graphics/SVG/1.1/DTD/svg11.dtd">
<!-- Created with matplotlib (https://matplotlib.org/) -->
<svg height="247.11436pt" version="1.1" viewBox="0 0 247.516235 247.11436" width="247.516235pt" xmlns="http://www.w3.org/2000/svg" xmlns:xlink="http://www.w3.org/1999/xlink">
 <defs>
  <style type="text/css">
*{stroke-linecap:butt;stroke-linejoin:round;white-space:pre;}
  </style>
 </defs>
 <g id="figure_1">
  <g id="patch_1">
   <path d="M 0 247.11436 
L 247.516235 247.11436 
L 247.516235 0 
L 0 0 
z
" style="fill:#ffffff;"/>
  </g>
  <g id="axes_1">
   <g id="patch_2">
    <path d="M 20.878125 209.55811 
L 240.316235 209.55811 
L 240.316235 7.2 
L 20.878125 7.2 
z
" style="fill:#ffffff;"/>
   </g>
   <g id="matplotlib.axis_1">
    <g id="xtick_1">
     <g id="line2d_1">
      <defs>
       <path d="M 0 0 
L 0 3.5 
" id="mf7eb18b0c3" style="stroke:#000000;stroke-width:0.8;"/>
      </defs>
      <g>
       <use style="stroke:#000000;stroke-width:0.8;" x="41.977943" xlink:href="#mf7eb18b0c3" y="209.55811"/>
      </g>
     </g>
     <g id="text_1">
      <!-- 284 -->
      <defs>
       <path d="M 19.1875 8.296875 
L 53.609375 8.296875 
L 53.609375 0 
L 7.328125 0 
L 7.328125 8.296875 
Q 12.9375 14.109375 22.625 23.890625 
Q 32.328125 33.6875 34.8125 36.53125 
Q 39.546875 41.84375 41.421875 45.53125 
Q 43.3125 49.21875 43.3125 52.78125 
Q 43.3125 58.59375 39.234375 62.25 
Q 35.15625 65.921875 28.609375 65.921875 
Q 23.96875 65.921875 18.8125 64.3125 
Q 13.671875 62.703125 7.8125 59.421875 
L 7.8125 69.390625 
Q 13.765625 71.78125 18.9375 73 
Q 24.125 74.21875 28.421875 74.21875 
Q 39.75 74.21875 46.484375 68.546875 
Q 53.21875 62.890625 53.21875 53.421875 
Q 53.21875 48.921875 51.53125 44.890625 
Q 49.859375 40.875 45.40625 35.40625 
Q 44.1875 33.984375 37.640625 27.21875 
Q 31.109375 20.453125 19.1875 8.296875 
z
" id="DejaVuSans-50"/>
       <path d="M 31.78125 34.625 
Q 24.75 34.625 20.71875 30.859375 
Q 16.703125 27.09375 16.703125 20.515625 
Q 16.703125 13.921875 20.71875 10.15625 
Q 24.75 6.390625 31.78125 6.390625 
Q 38.8125 6.390625 42.859375 10.171875 
Q 46.921875 13.96875 46.921875 20.515625 
Q 46.921875 27.09375 42.890625 30.859375 
Q 38.875 34.625 31.78125 34.625 
z
M 21.921875 38.8125 
Q 15.578125 40.375 12.03125 44.71875 
Q 8.5 49.078125 8.5 55.328125 
Q 8.5 64.0625 14.71875 69.140625 
Q 20.953125 74.21875 31.78125 74.21875 
Q 42.671875 74.21875 48.875 69.140625 
Q 55.078125 64.0625 55.078125 55.328125 
Q 55.078125 49.078125 51.53125 44.71875 
Q 48 40.375 41.703125 38.8125 
Q 48.828125 37.15625 52.796875 32.3125 
Q 56.78125 27.484375 56.78125 20.515625 
Q 56.78125 9.90625 50.3125 4.234375 
Q 43.84375 -1.421875 31.78125 -1.421875 
Q 19.734375 -1.421875 13.25 4.234375 
Q 6.78125 9.90625 6.78125 20.515625 
Q 6.78125 27.484375 10.78125 32.3125 
Q 14.796875 37.15625 21.921875 38.8125 
z
M 18.3125 54.390625 
Q 18.3125 48.734375 21.84375 45.5625 
Q 25.390625 42.390625 31.78125 42.390625 
Q 38.140625 42.390625 41.71875 45.5625 
Q 45.3125 48.734375 45.3125 54.390625 
Q 45.3125 60.0625 41.71875 63.234375 
Q 38.140625 66.40625 31.78125 66.40625 
Q 25.390625 66.40625 21.84375 63.234375 
Q 18.3125 60.0625 18.3125 54.390625 
z
" id="DejaVuSans-56"/>
       <path d="M 37.796875 64.3125 
L 12.890625 25.390625 
L 37.796875 25.390625 
z
M 35.203125 72.90625 
L 47.609375 72.90625 
L 47.609375 25.390625 
L 58.015625 25.390625 
L 58.015625 17.1875 
L 47.609375 17.1875 
L 47.609375 0 
L 37.796875 0 
L 37.796875 17.1875 
L 4.890625 17.1875 
L 4.890625 26.703125 
z
" id="DejaVuSans-52"/>
      </defs>
      <g transform="translate(32.434193 224.156548)scale(0.1 -0.1)">
       <use xlink:href="#DejaVuSans-50"/>
       <use x="63.623047" xlink:href="#DejaVuSans-56"/>
       <use x="127.246094" xlink:href="#DejaVuSans-52"/>
      </g>
     </g>
    </g>
    <g id="xtick_2">
     <g id="line2d_2">
      <g>
       <use style="stroke:#000000;stroke-width:0.8;" x="84.17758" xlink:href="#mf7eb18b0c3" y="209.55811"/>
      </g>
     </g>
     <g id="text_2">
      <!-- 285 -->
      <defs>
       <path d="M 10.796875 72.90625 
L 49.515625 72.90625 
L 49.515625 64.59375 
L 19.828125 64.59375 
L 19.828125 46.734375 
Q 21.96875 47.46875 24.109375 47.828125 
Q 26.265625 48.1875 28.421875 48.1875 
Q 40.625 48.1875 47.75 41.5 
Q 54.890625 34.8125 54.890625 23.390625 
Q 54.890625 11.625 47.5625 5.09375 
Q 40.234375 -1.421875 26.90625 -1.421875 
Q 22.3125 -1.421875 17.546875 -0.640625 
Q 12.796875 0.140625 7.71875 1.703125 
L 7.71875 11.625 
Q 12.109375 9.234375 16.796875 8.0625 
Q 21.484375 6.890625 26.703125 6.890625 
Q 35.15625 6.890625 40.078125 11.328125 
Q 45.015625 15.765625 45.015625 23.390625 
Q 45.015625 31 40.078125 35.4375 
Q 35.15625 39.890625 26.703125 39.890625 
Q 22.75 39.890625 18.8125 39.015625 
Q 14.890625 38.140625 10.796875 36.28125 
z
" id="DejaVuSans-53"/>
      </defs>
      <g transform="translate(74.63383 224.156548)scale(0.1 -0.1)">
       <use xlink:href="#DejaVuSans-50"/>
       <use x="63.623047" xlink:href="#DejaVuSans-56"/>
       <use x="127.246094" xlink:href="#DejaVuSans-53"/>
      </g>
     </g>
    </g>
    <g id="xtick_3">
     <g id="line2d_3">
      <g>
       <use style="stroke:#000000;stroke-width:0.8;" x="126.377216" xlink:href="#mf7eb18b0c3" y="209.55811"/>
      </g>
     </g>
     <g id="text_3">
      <!-- 286 -->
      <defs>
       <path d="M 33.015625 40.375 
Q 26.375 40.375 22.484375 35.828125 
Q 18.609375 31.296875 18.609375 23.390625 
Q 18.609375 15.53125 22.484375 10.953125 
Q 26.375 6.390625 33.015625 6.390625 
Q 39.65625 6.390625 43.53125 10.953125 
Q 47.40625 15.53125 47.40625 23.390625 
Q 47.40625 31.296875 43.53125 35.828125 
Q 39.65625 40.375 33.015625 40.375 
z
M 52.59375 71.296875 
L 52.59375 62.3125 
Q 48.875 64.0625 45.09375 64.984375 
Q 41.3125 65.921875 37.59375 65.921875 
Q 27.828125 65.921875 22.671875 59.328125 
Q 17.53125 52.734375 16.796875 39.40625 
Q 19.671875 43.65625 24.015625 45.921875 
Q 28.375 48.1875 33.59375 48.1875 
Q 44.578125 48.1875 50.953125 41.515625 
Q 57.328125 34.859375 57.328125 23.390625 
Q 57.328125 12.15625 50.6875 5.359375 
Q 44.046875 -1.421875 33.015625 -1.421875 
Q 20.359375 -1.421875 13.671875 8.265625 
Q 6.984375 17.96875 6.984375 36.375 
Q 6.984375 53.65625 15.1875 63.9375 
Q 23.390625 74.21875 37.203125 74.21875 
Q 40.921875 74.21875 44.703125 73.484375 
Q 48.484375 72.75 52.59375 71.296875 
z
" id="DejaVuSans-54"/>
      </defs>
      <g transform="translate(116.833466 224.156548)scale(0.1 -0.1)">
       <use xlink:href="#DejaVuSans-50"/>
       <use x="63.623047" xlink:href="#DejaVuSans-56"/>
       <use x="127.246094" xlink:href="#DejaVuSans-54"/>
      </g>
     </g>
    </g>
    <g id="xtick_4">
     <g id="line2d_4">
      <g>
       <use style="stroke:#000000;stroke-width:0.8;" x="168.576853" xlink:href="#mf7eb18b0c3" y="209.55811"/>
      </g>
     </g>
     <g id="text_4">
      <!-- 287 -->
      <defs>
       <path d="M 8.203125 72.90625 
L 55.078125 72.90625 
L 55.078125 68.703125 
L 28.609375 0 
L 18.3125 0 
L 43.21875 64.59375 
L 8.203125 64.59375 
z
" id="DejaVuSans-55"/>
      </defs>
      <g transform="translate(159.033103 224.156548)scale(0.1 -0.1)">
       <use xlink:href="#DejaVuSans-50"/>
       <use x="63.623047" xlink:href="#DejaVuSans-56"/>
       <use x="127.246094" xlink:href="#DejaVuSans-55"/>
      </g>
     </g>
    </g>
    <g id="xtick_5">
     <g id="line2d_5">
      <g>
       <use style="stroke:#000000;stroke-width:0.8;" x="210.77649" xlink:href="#mf7eb18b0c3" y="209.55811"/>
      </g>
     </g>
     <g id="text_5">
      <!-- 288 -->
      <g transform="translate(201.23274 224.156548)scale(0.1 -0.1)">
       <use xlink:href="#DejaVuSans-50"/>
       <use x="63.623047" xlink:href="#DejaVuSans-56"/>
       <use x="127.246094" xlink:href="#DejaVuSans-56"/>
      </g>
     </g>
    </g>
    <g id="text_6">
     <!-- binding energy / eV -->
     <defs>
      <path d="M 48.6875 27.296875 
Q 48.6875 37.203125 44.609375 42.84375 
Q 40.53125 48.484375 33.40625 48.484375 
Q 26.265625 48.484375 22.1875 42.84375 
Q 18.109375 37.203125 18.109375 27.296875 
Q 18.109375 17.390625 22.1875 11.75 
Q 26.265625 6.109375 33.40625 6.109375 
Q 40.53125 6.109375 44.609375 11.75 
Q 48.6875 17.390625 48.6875 27.296875 
z
M 18.109375 46.390625 
Q 20.953125 51.265625 25.265625 53.625 
Q 29.59375 56 35.59375 56 
Q 45.5625 56 51.78125 48.09375 
Q 58.015625 40.1875 58.015625 27.296875 
Q 58.015625 14.40625 51.78125 6.484375 
Q 45.5625 -1.421875 35.59375 -1.421875 
Q 29.59375 -1.421875 25.265625 0.953125 
Q 20.953125 3.328125 18.109375 8.203125 
L 18.109375 0 
L 9.078125 0 
L 9.078125 75.984375 
L 18.109375 75.984375 
z
" id="DejaVuSans-98"/>
      <path d="M 9.421875 54.6875 
L 18.40625 54.6875 
L 18.40625 0 
L 9.421875 0 
z
M 9.421875 75.984375 
L 18.40625 75.984375 
L 18.40625 64.59375 
L 9.421875 64.59375 
z
" id="DejaVuSans-105"/>
      <path d="M 54.890625 33.015625 
L 54.890625 0 
L 45.90625 0 
L 45.90625 32.71875 
Q 45.90625 40.484375 42.875 44.328125 
Q 39.84375 48.1875 33.796875 48.1875 
Q 26.515625 48.1875 22.3125 43.546875 
Q 18.109375 38.921875 18.109375 30.90625 
L 18.109375 0 
L 9.078125 0 
L 9.078125 54.6875 
L 18.109375 54.6875 
L 18.109375 46.1875 
Q 21.34375 51.125 25.703125 53.5625 
Q 30.078125 56 35.796875 56 
Q 45.21875 56 50.046875 50.171875 
Q 54.890625 44.34375 54.890625 33.015625 
z
" id="DejaVuSans-110"/>
      <path d="M 45.40625 46.390625 
L 45.40625 75.984375 
L 54.390625 75.984375 
L 54.390625 0 
L 45.40625 0 
L 45.40625 8.203125 
Q 42.578125 3.328125 38.25 0.953125 
Q 33.9375 -1.421875 27.875 -1.421875 
Q 17.96875 -1.421875 11.734375 6.484375 
Q 5.515625 14.40625 5.515625 27.296875 
Q 5.515625 40.1875 11.734375 48.09375 
Q 17.96875 56 27.875 56 
Q 33.9375 56 38.25 53.625 
Q 42.578125 51.265625 45.40625 46.390625 
z
M 14.796875 27.296875 
Q 14.796875 17.390625 18.875 11.75 
Q 22.953125 6.109375 30.078125 6.109375 
Q 37.203125 6.109375 41.296875 11.75 
Q 45.40625 17.390625 45.40625 27.296875 
Q 45.40625 37.203125 41.296875 42.84375 
Q 37.203125 48.484375 30.078125 48.484375 
Q 22.953125 48.484375 18.875 42.84375 
Q 14.796875 37.203125 14.796875 27.296875 
z
" id="DejaVuSans-100"/>
      <path d="M 45.40625 27.984375 
Q 45.40625 37.75 41.375 43.109375 
Q 37.359375 48.484375 30.078125 48.484375 
Q 22.859375 48.484375 18.828125 43.109375 
Q 14.796875 37.75 14.796875 27.984375 
Q 14.796875 18.265625 18.828125 12.890625 
Q 22.859375 7.515625 30.078125 7.515625 
Q 37.359375 7.515625 41.375 12.890625 
Q 45.40625 18.265625 45.40625 27.984375 
z
M 54.390625 6.78125 
Q 54.390625 -7.171875 48.1875 -13.984375 
Q 42 -20.796875 29.203125 -20.796875 
Q 24.46875 -20.796875 20.265625 -20.09375 
Q 16.0625 -19.390625 12.109375 -17.921875 
L 12.109375 -9.1875 
Q 16.0625 -11.328125 19.921875 -12.34375 
Q 23.78125 -13.375 27.78125 -13.375 
Q 36.625 -13.375 41.015625 -8.765625 
Q 45.40625 -4.15625 45.40625 5.171875 
L 45.40625 9.625 
Q 42.625 4.78125 38.28125 2.390625 
Q 33.9375 0 27.875 0 
Q 17.828125 0 11.671875 7.65625 
Q 5.515625 15.328125 5.515625 27.984375 
Q 5.515625 40.671875 11.671875 48.328125 
Q 17.828125 56 27.875 56 
Q 33.9375 56 38.28125 53.609375 
Q 42.625 51.21875 45.40625 46.390625 
L 45.40625 54.6875 
L 54.390625 54.6875 
z
" id="DejaVuSans-103"/>
      <path id="DejaVuSans-32"/>
      <path d="M 56.203125 29.59375 
L 56.203125 25.203125 
L 14.890625 25.203125 
Q 15.484375 15.921875 20.484375 11.0625 
Q 25.484375 6.203125 34.421875 6.203125 
Q 39.59375 6.203125 44.453125 7.46875 
Q 49.3125 8.734375 54.109375 11.28125 
L 54.109375 2.78125 
Q 49.265625 0.734375 44.1875 -0.34375 
Q 39.109375 -1.421875 33.890625 -1.421875 
Q 20.796875 -1.421875 13.15625 6.1875 
Q 5.515625 13.8125 5.515625 26.8125 
Q 5.515625 40.234375 12.765625 48.109375 
Q 20.015625 56 32.328125 56 
Q 43.359375 56 49.78125 48.890625 
Q 56.203125 41.796875 56.203125 29.59375 
z
M 47.21875 32.234375 
Q 47.125 39.59375 43.09375 43.984375 
Q 39.0625 48.390625 32.421875 48.390625 
Q 24.90625 48.390625 20.390625 44.140625 
Q 15.875 39.890625 15.1875 32.171875 
z
" id="DejaVuSans-101"/>
      <path d="M 41.109375 46.296875 
Q 39.59375 47.171875 37.8125 47.578125 
Q 36.03125 48 33.890625 48 
Q 26.265625 48 22.1875 43.046875 
Q 18.109375 38.09375 18.109375 28.8125 
L 18.109375 0 
L 9.078125 0 
L 9.078125 54.6875 
L 18.109375 54.6875 
L 18.109375 46.1875 
Q 20.953125 51.171875 25.484375 53.578125 
Q 30.03125 56 36.53125 56 
Q 37.453125 56 38.578125 55.875 
Q 39.703125 55.765625 41.0625 55.515625 
z
" id="DejaVuSans-114"/>
      <path d="M 32.171875 -5.078125 
Q 28.375 -14.84375 24.75 -17.8125 
Q 21.140625 -20.796875 15.09375 -20.796875 
L 7.90625 -20.796875 
L 7.90625 -13.28125 
L 13.1875 -13.28125 
Q 16.890625 -13.28125 18.9375 -11.515625 
Q 21 -9.765625 23.484375 -3.21875 
L 25.09375 0.875 
L 2.984375 54.6875 
L 12.5 54.6875 
L 29.59375 11.921875 
L 46.6875 54.6875 
L 56.203125 54.6875 
z
" id="DejaVuSans-121"/>
      <path d="M 25.390625 72.90625 
L 33.6875 72.90625 
L 8.296875 -9.28125 
L 0 -9.28125 
z
" id="DejaVuSans-47"/>
      <path d="M 28.609375 0 
L 0.78125 72.90625 
L 11.078125 72.90625 
L 34.1875 11.53125 
L 57.328125 72.90625 
L 67.578125 72.90625 
L 39.796875 0 
z
" id="DejaVuSans-86"/>
     </defs>
     <g transform="translate(81.500305 237.834673)scale(0.1 -0.1)">
      <use xlink:href="#DejaVuSans-98"/>
      <use x="63.476562" xlink:href="#DejaVuSans-105"/>
      <use x="91.259766" xlink:href="#DejaVuSans-110"/>
      <use x="154.638672" xlink:href="#DejaVuSans-100"/>
      <use x="218.115234" xlink:href="#DejaVuSans-105"/>
      <use x="245.898438" xlink:href="#DejaVuSans-110"/>
      <use x="309.277344" xlink:href="#DejaVuSans-103"/>
      <use x="372.753906" xlink:href="#DejaVuSans-32"/>
      <use x="404.541016" xlink:href="#DejaVuSans-101"/>
      <use x="466.064453" xlink:href="#DejaVuSans-110"/>
      <use x="529.443359" xlink:href="#DejaVuSans-101"/>
      <use x="590.966797" xlink:href="#DejaVuSans-114"/>
      <use x="632.064453" xlink:href="#DejaVuSans-103"/>
      <use x="695.541016" xlink:href="#DejaVuSans-121"/>
      <use x="754.720703" xlink:href="#DejaVuSans-32"/>
      <use x="786.507812" xlink:href="#DejaVuSans-47"/>
      <use x="820.199219" xlink:href="#DejaVuSans-32"/>
      <use x="851.986328" xlink:href="#DejaVuSans-101"/>
      <use x="913.509766" xlink:href="#DejaVuSans-86"/>
     </g>
    </g>
   </g>
   <g id="matplotlib.axis_2">
    <g id="text_7">
     <!-- intensity -->
     <defs>
      <path d="M 18.3125 70.21875 
L 18.3125 54.6875 
L 36.8125 54.6875 
L 36.8125 47.703125 
L 18.3125 47.703125 
L 18.3125 18.015625 
Q 18.3125 11.328125 20.140625 9.421875 
Q 21.96875 7.515625 27.59375 7.515625 
L 36.8125 7.515625 
L 36.8125 0 
L 27.59375 0 
Q 17.1875 0 13.234375 3.875 
Q 9.28125 7.765625 9.28125 18.015625 
L 9.28125 47.703125 
L 2.6875 47.703125 
L 2.6875 54.6875 
L 9.28125 54.6875 
L 9.28125 70.21875 
z
" id="DejaVuSans-116"/>
      <path d="M 44.28125 53.078125 
L 44.28125 44.578125 
Q 40.484375 46.53125 36.375 47.5 
Q 32.28125 48.484375 27.875 48.484375 
Q 21.1875 48.484375 17.84375 46.4375 
Q 14.5 44.390625 14.5 40.28125 
Q 14.5 37.15625 16.890625 35.375 
Q 19.28125 33.59375 26.515625 31.984375 
L 29.59375 31.296875 
Q 39.15625 29.25 43.1875 25.515625 
Q 47.21875 21.78125 47.21875 15.09375 
Q 47.21875 7.46875 41.1875 3.015625 
Q 35.15625 -1.421875 24.609375 -1.421875 
Q 20.21875 -1.421875 15.453125 -0.5625 
Q 10.6875 0.296875 5.421875 2 
L 5.421875 11.28125 
Q 10.40625 8.6875 15.234375 7.390625 
Q 20.0625 6.109375 24.8125 6.109375 
Q 31.15625 6.109375 34.5625 8.28125 
Q 37.984375 10.453125 37.984375 14.40625 
Q 37.984375 18.0625 35.515625 20.015625 
Q 33.0625 21.96875 24.703125 23.78125 
L 21.578125 24.515625 
Q 13.234375 26.265625 9.515625 29.90625 
Q 5.8125 33.546875 5.8125 39.890625 
Q 5.8125 47.609375 11.28125 51.796875 
Q 16.75 56 26.8125 56 
Q 31.78125 56 36.171875 55.265625 
Q 40.578125 54.546875 44.28125 53.078125 
z
" id="DejaVuSans-115"/>
     </defs>
     <g transform="translate(14.798438 130.055618)rotate(-90)scale(0.1 -0.1)">
      <use xlink:href="#DejaVuSans-105"/>
      <use x="27.783203" xlink:href="#DejaVuSans-110"/>
      <use x="91.162109" xlink:href="#DejaVuSans-116"/>
      <use x="130.371094" xlink:href="#DejaVuSans-101"/>
      <use x="191.894531" xlink:href="#DejaVuSans-110"/>
      <use x="255.273438" xlink:href="#DejaVuSans-115"/>
      <use x="307.373047" xlink:href="#DejaVuSans-105"/>
      <use x="335.15625" xlink:href="#DejaVuSans-116"/>
      <use x="374.365234" xlink:href="#DejaVuSans-121"/>
     </g>
    </g>
   </g>
   <g id="line2d_6">
    <path clip-path="url(#pb5e6b4366b)" d="M -1 200.319373 
L 9.562741 200.166486 
L 16.832386 199.861583 
L 22.28462 199.414647 
L 25.919443 198.957902 
L 29.554265 198.333361 
L 33.189088 197.504372 
L 36.823911 196.436587 
L 40.458733 195.102626 
L 44.093556 193.48752 
L 47.728378 191.594313 
L 51.363201 189.449047 
L 56.815435 185.880722 
L 65.902492 179.786554 
L 69.537314 177.654013 
L 73.172137 175.889973 
L 74.989548 175.181847 
L 76.80696 174.605225 
L 78.624371 174.168898 
L 80.441782 173.878918 
L 82.259194 173.738322 
L 84.076605 173.746933 
L 85.894016 173.901253 
L 87.711428 174.194448 
L 89.528839 174.616446 
L 93.163662 175.791603 
L 96.798484 177.291034 
L 105.885541 181.343935 
L 109.520364 182.636884 
L 113.155186 183.532572 
L 114.972598 183.804106 
L 116.790009 183.95023 
L 118.60742 183.969486 
L 120.424832 183.863985 
L 124.059654 183.30418 
L 127.694477 182.352194 
L 131.3293 181.129596 
L 140.416356 177.868561 
L 144.051179 176.867745 
L 147.686001 176.217005 
L 151.320824 175.986513 
L 153.138235 176.03982 
L 156.773058 176.484168 
L 160.407881 177.354683 
L 164.042703 178.598619 
L 167.677526 180.144325 
L 171.312349 181.910421 
L 178.581994 185.776163 
L 185.851639 189.609335 
L 191.303873 192.202749 
L 194.938696 193.732694 
L 198.573519 195.081432 
L 202.208341 196.241779 
L 205.843164 197.215634 
L 209.477987 198.012509 
L 214.930221 198.910817 
L 220.382455 199.513296 
L 225.834688 199.892875 
L 233.104334 200.167309 
L 244.008802 200.318427 
L 248.516235 200.339314 
L 248.516235 200.339314 
" style="fill:none;stroke:#377eb8;stroke-dasharray:3,0;stroke-dashoffset:0;stroke-width:3;"/>
   </g>
   <g id="line2d_7">
    <path clip-path="url(#pb5e6b4366b)" d="M -1 177.357335 
L 24.469841 177.254095 
L 34.760791 176.988631 
L 42.479003 176.542875 
L 47.624477 176.075789 
L 55.342689 175.094503 
L 65.633639 173.423591 
L 73.351851 172.223907 
L 78.497325 171.614171 
L 83.6428 171.211825 
L 91.361012 170.916917 
L 99.079224 170.597639 
L 104.224699 170.048605 
L 106.797436 169.600215 
L 109.370174 169.011376 
L 111.942911 168.271276 
L 114.515648 167.376743 
L 117.088386 166.333094 
L 122.23386 163.863673 
L 135.097547 156.989995 
L 137.670284 155.831466 
L 140.243022 154.842331 
L 142.815759 154.055213 
L 145.388496 153.495007 
L 147.961234 153.177872 
L 150.533971 153.110813 
L 153.106708 153.291831 
L 155.679446 153.710606 
L 158.252183 154.349598 
L 160.824921 155.185467 
L 163.397658 156.190644 
L 168.543133 158.587078 
L 176.261345 162.687353 
L 183.979557 166.757057 
L 189.125031 169.194973 
L 194.270506 171.304734 
L 199.415981 173.044965 
L 204.561455 174.412686 
L 209.70693 175.435308 
L 214.852405 176.161166 
L 219.99788 176.649242 
L 227.716092 177.065225 
L 238.007041 177.283909 
L 248.516235 177.343345 
L 248.516235 177.343345 
" style="fill:none;stroke:#ff7f00;stroke-dasharray:3,0;stroke-dashoffset:0;stroke-width:3;"/>
   </g>
   <g id="line2d_8">
    <path clip-path="url(#pb5e6b4366b)" d="M -1 154.35635 
L 24.626792 154.250862 
L 34.941887 153.980047 
L 41.818618 153.590886 
L 48.695348 152.957188 
L 55.572078 152.055008 
L 64.167991 150.650234 
L 74.483087 148.992717 
L 79.640635 148.356304 
L 86.517365 147.757848 
L 96.832461 146.9756 
L 100.270826 146.553672 
L 103.709191 145.96125 
L 107.147556 145.156497 
L 110.585921 144.115846 
L 114.024287 142.839368 
L 117.462652 141.353495 
L 122.6202 138.852808 
L 129.49693 135.441573 
L 132.935295 133.916736 
L 136.37366 132.634465 
L 139.812026 131.668792 
L 143.250391 131.071783 
L 146.688756 130.870124 
L 150.127121 131.064801 
L 153.565486 131.6336 
L 157.003852 132.535726 
L 160.442217 133.717599 
L 163.880582 135.11883 
L 169.03813 137.497222 
L 184.510773 144.96645 
L 189.668321 147.133633 
L 194.825869 149.00654 
L 199.983417 150.552364 
L 205.140964 151.767747 
L 210.298512 152.675373 
L 215.45606 153.317412 
L 220.613608 153.746647 
L 227.490338 154.08108 
L 236.086251 154.26832 
L 248.516235 154.344631 
L 248.516235 154.344631 
" style="fill:none;stroke:#4daf4a;stroke-dasharray:3,0;stroke-dashoffset:0;stroke-width:3;"/>
   </g>
   <g id="line2d_9">
    <path clip-path="url(#pb5e6b4366b)" d="M -1 131.355354 
L 25.156134 131.24205 
L 33.819911 131.023736 
L 40.750933 130.665369 
L 47.681955 130.06838 
L 54.612977 129.201226 
L 63.276754 127.829811 
L 71.940532 126.466516 
L 77.138798 125.847943 
L 82.337065 125.476212 
L 87.535331 125.366295 
L 94.466353 125.505172 
L 101.397375 125.62718 
L 104.862886 125.526584 
L 108.328397 125.233037 
L 111.793908 124.692477 
L 115.259419 123.866338 
L 118.72493 122.736869 
L 122.190441 121.310912 
L 125.655952 119.62167 
L 130.854218 116.729499 
L 139.517996 111.716363 
L 142.983506 109.954832 
L 146.449017 108.488395 
L 149.914528 107.401591 
L 151.647284 107.020725 
L 153.380039 106.75562 
L 155.112795 106.609564 
L 156.84555 106.583998 
L 158.578306 106.678531 
L 160.311061 106.891003 
L 163.776572 107.652896 
L 167.242083 108.821547 
L 170.707594 110.329849 
L 174.173105 112.098134 
L 179.371372 115.050821 
L 188.035149 120.09643 
L 193.233415 122.836708 
L 196.698926 124.451691 
L 200.164437 125.870587 
L 203.629948 127.085477 
L 207.095459 128.099633 
L 210.56097 128.925159 
L 214.026481 129.580431 
L 219.224748 130.29299 
L 224.423014 130.751655 
L 231.354036 131.094168 
L 240.017813 131.276168 
L 248.516235 131.335079 
L 248.516235 131.335079 
" style="fill:none;stroke:#f781bf;stroke-dasharray:3,0;stroke-dashoffset:0;stroke-width:3;"/>
   </g>
   <g id="line2d_10">
    <path clip-path="url(#pb5e6b4366b)" d="M -1 108.354345 
L 24.874068 108.24528 
L 34.968377 107.977034 
L 41.697917 107.598049 
L 48.427457 106.986396 
L 55.156997 106.11931 
L 63.568921 104.769956 
L 73.663231 103.186323 
L 78.710386 102.603419 
L 83.757541 102.222176 
L 90.48708 101.96577 
L 97.21662 101.730193 
L 100.58139 101.482131 
L 103.94616 101.064656 
L 107.31093 100.421875 
L 110.6757 99.511444 
L 114.040469 98.311187 
L 117.405239 96.824219 
L 120.770009 95.081825 
L 125.817164 92.126621 
L 134.229089 87.090379 
L 137.593859 85.367433 
L 140.958628 83.976263 
L 144.323398 83.004952 
L 146.005783 82.697148 
L 147.688168 82.514974 
L 149.370553 82.461159 
L 151.052938 82.536343 
L 152.735323 82.739107 
L 154.417708 83.066055 
L 157.782478 84.069841 
L 161.147248 85.486801 
L 164.512018 87.236129 
L 167.876787 89.225002 
L 176.288712 94.619962 
L 181.335867 97.726067 
L 184.700637 99.609661 
L 188.065407 101.298361 
L 191.430177 102.772044 
L 194.794946 104.02519 
L 198.159716 105.064288 
L 201.524486 105.904845 
L 204.889256 106.568361 
L 209.936411 107.285991 
L 214.983566 107.745947 
L 221.713105 108.089098 
L 230.12503 108.272427 
L 246.94888 108.350743 
L 248.516235 108.352052 
L 248.516235 108.352052 
" style="fill:none;stroke:#a65628;stroke-dasharray:3,0;stroke-dashoffset:0;stroke-width:3;"/>
   </g>
   <g id="line2d_11">
    <path clip-path="url(#pb5e6b4366b)" d="M -1 85.353346 
L 25.19476 85.239437 
L 35.337173 84.960068 
L 42.098782 84.566591 
L 48.860391 83.933445 
L 55.622 83.037693 
L 64.074011 81.638987 
L 74.216424 79.940187 
L 80.978033 79.042858 
L 89.430045 78.217277 
L 96.191654 77.553886 
L 101.26286 76.845364 
L 104.643665 76.200773 
L 108.024469 75.38952 
L 111.405274 74.404303 
L 116.47648 72.627812 
L 123.238089 69.884562 
L 131.6901 66.449174 
L 135.070905 65.259465 
L 138.451709 64.253693 
L 141.832514 63.474194 
L 145.213318 62.954725 
L 148.594123 62.72023 
L 151.974927 62.786656 
L 155.355732 63.160492 
L 158.736536 63.837963 
L 162.117341 64.804085 
L 165.498145 66.032001 
L 168.87895 67.483052 
L 173.950156 69.967998 
L 187.473374 76.982908 
L 192.544581 79.233162 
L 195.925385 80.519247 
L 199.30619 81.618977 
L 202.686994 82.53296 
L 206.067799 83.271518 
L 211.139006 84.089498 
L 216.210212 84.625877 
L 222.971821 85.033365 
L 231.423832 85.254028 
L 246.637453 85.346482 
L 248.516235 85.348918 
L 248.516235 85.348918 
" style="fill:none;stroke:#984ea3;stroke-dasharray:3,0;stroke-dashoffset:0;stroke-width:3;"/>
   </g>
   <g id="line2d_12">
    <path clip-path="url(#pb5e6b4366b)" d="M -1 62.352356 
L 24.485949 62.248854 
L 34.522041 61.99308 
L 41.212769 61.629408 
L 47.903497 61.037228 
L 54.594225 60.185824 
L 62.957635 58.82239 
L 76.33909 56.576506 
L 83.029818 55.711372 
L 98.083956 53.987728 
L 103.102002 53.083611 
L 106.447366 52.293239 
L 109.79273 51.337388 
L 114.810776 49.608742 
L 119.828822 47.607853 
L 131.537596 42.797191 
L 134.88296 41.640793 
L 138.228324 40.678541 
L 141.573688 39.953575 
L 144.919051 39.500921 
L 148.264415 39.346692 
L 151.609779 39.507207 
L 154.955143 39.987894 
L 158.300507 40.782093 
L 161.645871 41.870066 
L 164.991235 43.218696 
L 168.336599 44.78228 
L 173.354645 47.405832 
L 185.063419 53.709564 
L 190.081465 56.030655 
L 193.426829 57.358232 
L 196.772193 58.493833 
L 200.117557 59.437819 
L 203.462921 60.200708 
L 208.480967 61.045707 
L 213.499012 61.599872 
L 218.517058 61.941829 
L 225.207786 62.184582 
L 236.91656 62.325672 
L 248.516235 62.350423 
L 248.516235 62.350423 
" style="fill:none;stroke:#999999;stroke-dasharray:3,0;stroke-dashoffset:0;stroke-width:3;"/>
   </g>
   <g id="line2d_13">
    <path clip-path="url(#pb5e6b4366b)" d="M -1 39.351359 
L 24.909195 39.241617 
L 34.762443 38.981347 
L 41.331275 38.616799 
L 47.900106 38.026327 
L 54.468938 37.17395 
L 61.03777 36.079798 
L 72.533225 33.863778 
L 85.670889 31.430669 
L 93.881928 29.86803 
L 98.808552 28.753581 
L 103.735176 27.427351 
L 108.6618 25.871798 
L 115.230631 23.516248 
L 125.083879 19.89683 
L 130.010503 18.354715 
L 133.294919 17.524882 
L 136.579335 16.899852 
L 139.86375 16.514537 
L 143.148166 16.398096 
L 146.432582 16.572084 
L 149.716998 17.048248 
L 153.001414 17.826294 
L 156.28583 18.892108 
L 159.570246 20.216973 
L 162.854661 21.758213 
L 167.781285 24.354493 
L 179.276741 30.629027 
L 184.203365 32.950077 
L 187.48778 34.280767 
L 190.772196 35.421488 
L 194.056612 36.372129 
L 197.341028 37.1427 
L 202.267652 38.000017 
L 207.194276 38.566052 
L 212.120899 38.918262 
L 218.689731 39.171223 
L 228.542979 39.311724 
L 248.516235 39.351955 
L 248.516235 39.351955 
" style="fill:none;stroke:#e41a1c;stroke-dasharray:3,0;stroke-dashoffset:0;stroke-width:3;"/>
   </g>
   <g id="line2d_14">
    <path clip-path="url(#pb5e6b4366b)" d="M -1 177.357297 
L 23.093606 177.271941 
L 34.487508 176.999418 
L 43.032934 176.497921 
L 48.729885 175.950549 
L 54.426836 175.2137 
L 62.972262 173.819451 
L 74.366164 171.854064 
L 82.911591 170.667643 
L 97.153968 168.913161 
L 102.850919 167.827115 
L 105.699395 167.120901 
L 108.54787 166.295292 
L 114.244821 164.309868 
L 122.790247 160.830777 
L 128.487198 158.593484 
L 131.335674 157.621069 
L 134.184149 156.794845 
L 137.032625 156.143955 
L 139.8811 155.689848 
L 142.729576 155.445544 
L 145.578051 155.41554 
L 148.426527 155.596312 
L 151.275002 155.977272 
L 154.123478 156.542081 
L 156.971953 157.270134 
L 162.668904 159.121293 
L 168.365855 161.335428 
L 188.305183 169.549321 
L 194.002134 171.53342 
L 199.699085 173.213842 
L 205.396036 174.559122 
L 211.092987 175.571602 
L 216.789938 176.284634 
L 222.486889 176.752828 
L 231.032315 177.132024 
L 242.426217 177.31081 
L 248.516235 177.34005 
L 248.516235 177.34005 
" style="fill:none;stroke:#000000;stroke-dasharray:4,1,4,1;stroke-dashoffset:0;"/>
   </g>
   <g id="line2d_15">
    <path clip-path="url(#pb5e6b4366b)" d="M -1 131.355352 
L 23.937599 131.259363 
L 32.905021 131.056781 
L 40.07896 130.709559 
L 47.252898 130.113071 
L 54.426836 129.227331 
L 63.394259 127.807788 
L 72.361682 126.398606 
L 77.742135 125.769763 
L 83.122589 125.401101 
L 88.503043 125.293471 
L 102.850919 125.342204 
L 106.437888 125.098496 
L 110.024857 124.624714 
L 113.611826 123.877551 
L 117.198796 122.836755 
L 120.785765 121.509665 
L 124.372734 119.933015 
L 129.753187 117.248535 
L 136.927126 113.577152 
L 140.514095 111.946714 
L 144.101064 110.590154 
L 147.688033 109.588105 
L 151.275002 108.993858 
L 154.861971 108.829108 
L 158.44894 109.083666 
L 162.035909 109.719093 
L 165.622878 110.675533 
L 169.209848 111.880543 
L 174.590301 113.989519 
L 192.525147 121.365414 
L 197.9056 123.308851 
L 203.286054 125.064699 
L 208.666508 126.61097 
L 214.046961 127.924698 
L 219.427415 128.990115 
L 224.807869 129.807737 
L 230.188322 130.397855 
L 237.362261 130.894999 
L 244.536199 131.15727 
L 248.516235 131.236925 
L 248.516235 131.236925 
" style="fill:none;stroke:#000000;stroke-dasharray:4,1,4,1;stroke-dashoffset:0;"/>
   </g>
   <g id="line2d_16">
    <path clip-path="url(#pb5e6b4366b)" d="M -1 108.354344 
L 24.127497 108.255796 
L 34.635207 107.990453 
L 41.640346 107.600818 
L 48.645486 106.957057 
L 55.650626 106.029235 
L 64.40705 104.562772 
L 74.91476 102.765144 
L 81.919899 101.786455 
L 97.681464 99.828096 
L 102.935318 98.811106 
L 106.437888 97.926005 
L 109.940458 96.863569 
L 115.194313 94.97556 
L 129.204592 89.500021 
L 132.707162 88.425725 
L 136.209732 87.60573 
L 139.712302 87.083607 
L 143.214871 86.882094 
L 146.717441 87.002423 
L 150.220011 87.426031 
L 153.722581 88.11824 
L 157.225151 89.033305 
L 162.479006 90.711723 
L 169.484145 93.264714 
L 183.494425 98.447417 
L 190.499564 100.809547 
L 197.504704 102.919343 
L 202.758559 104.28969 
L 208.012413 105.445418 
L 213.266268 106.371039 
L 218.520123 107.070783 
L 223.773978 107.568114 
L 230.779117 107.980439 
L 239.535542 108.227566 
L 248.516235 108.319961 
L 248.516235 108.319961 
" style="fill:none;stroke:#000000;stroke-dasharray:4,1,4,1;stroke-dashoffset:0;"/>
   </g>
   <g id="line2d_17">
    <path clip-path="url(#pb5e6b4366b)" d="M -1 85.353351 
L 24.232996 85.253304 
L 34.487508 84.994909 
L 41.323849 84.620511 
L 48.16019 84.00339 
L 54.996531 83.106832 
L 61.832872 81.962972 
L 87.469152 77.370573 
L 94.305493 76.121642 
L 99.432749 74.96426 
L 104.560004 73.526392 
L 109.68726 71.796546 
L 116.523601 69.181826 
L 123.359942 66.592218 
L 126.778113 65.466575 
L 130.196284 64.535656 
L 133.614454 63.848703 
L 137.032625 63.440252 
L 140.450795 63.328164 
L 143.868966 63.513561 
L 147.287136 63.982422 
L 150.705307 64.708408 
L 154.123478 65.656398 
L 159.250733 67.40612 
L 164.377989 69.424335 
L 184.887013 77.840872 
L 190.014268 79.604137 
L 195.141524 81.119462 
L 200.26878 82.363628 
L 205.396036 83.335688 
L 210.523292 84.055819 
L 215.650548 84.560256 
L 222.486889 84.974712 
L 231.032315 85.222944 
L 244.704997 85.337463 
L 248.516235 85.345659 
L 248.516235 85.345659 
" style="fill:none;stroke:#000000;stroke-dasharray:4,1,4,1;stroke-dashoffset:0;"/>
   </g>
   <g id="line2d_18">
    <path clip-path="url(#pb5e6b4366b)" d="M -1 62.352366 
L 25.055889 62.240563 
L 33.706815 62.024873 
L 40.627555 61.670149 
L 47.548295 61.077362 
L 54.469036 60.211147 
L 63.119961 58.8197 
L 73.501072 57.101446 
L 80.421812 56.205765 
L 89.072738 55.409386 
L 95.993478 54.732529 
L 99.453848 54.236873 
L 102.914219 53.562233 
L 106.374589 52.665751 
L 109.834959 51.524686 
L 113.295329 50.142754 
L 116.755699 48.553508 
L 123.67644 45.030107 
L 128.866995 42.471427 
L 132.327365 41.010138 
L 135.787735 39.86025 
L 139.248106 39.096705 
L 142.708476 38.764072 
L 146.168846 38.872967 
L 149.629216 39.401041 
L 153.089586 40.298136 
L 156.549957 41.49455 
L 160.010327 42.910816 
L 166.931067 46.091988 
L 175.581993 50.101127 
L 180.772548 52.309579 
L 185.963103 54.309715 
L 191.153659 56.084438 
L 196.344214 57.623275 
L 201.534769 58.917142 
L 206.725325 59.962317 
L 211.91588 60.766726 
L 217.106435 61.35288 
L 224.027176 61.855995 
L 230.947916 62.129782 
L 241.329027 62.298169 
L 248.516235 62.335365 
L 248.516235 62.335365 
" style="fill:none;stroke:#000000;stroke-dasharray:4,1,4,1;stroke-dashoffset:0;"/>
   </g>
   <g id="line2d_19">
    <path clip-path="url(#pb5e6b4366b)" d="M -1 39.351352 
L 24.92929 39.241471 
L 33.791214 39.020794 
L 40.880753 38.652409 
L 47.970292 38.032937 
L 55.059831 37.12984 
L 63.921754 35.705194 
L 72.783678 34.297609 
L 78.100832 33.652709 
L 83.417986 33.234634 
L 88.735141 33.026952 
L 101.141834 32.6658 
L 104.686603 32.343715 
L 108.231373 31.824085 
L 111.776142 31.072329 
L 115.320912 30.07539 
L 118.865681 28.844783 
L 122.410451 27.416764 
L 129.49999 24.21823 
L 134.817144 21.836792 
L 138.361913 20.41718 
L 141.906683 19.22086 
L 145.451452 18.307418 
L 148.996222 17.717281 
L 152.540991 17.470115 
L 156.085761 17.565386 
L 159.63053 17.984751 
L 163.1753 18.69575 
L 166.720069 19.656199 
L 170.264839 20.818645 
L 175.581993 22.83484 
L 184.443916 26.55113 
L 193.30584 30.223465 
L 198.622994 32.227683 
L 203.940149 34.000626 
L 209.257303 35.498783 
L 214.574457 36.702733 
L 219.891611 37.618859 
L 225.208765 38.276502 
L 230.52592 38.720593 
L 237.615458 39.068389 
L 246.477382 39.262541 
L 248.516235 39.284907 
L 248.516235 39.284907 
" style="fill:none;stroke:#000000;stroke-dasharray:4,1,4,1;stroke-dashoffset:0;"/>
   </g>
   <g id="line2d_20">
    <path clip-path="url(#pb5e6b4366b)" d="M -1 200.356641 
L 19.991933 200.247479 
L 29.170354 199.975519 
L 34.677406 199.626159 
L 40.184459 199.05158 
L 45.691511 198.180681 
L 49.36288 197.411394 
L 54.869932 195.975139 
L 60.376985 194.267001 
L 71.39109 190.74529 
L 75.062458 189.803973 
L 78.733827 189.092382 
L 82.405195 188.650309 
L 86.076564 188.48458 
L 89.747932 188.563137 
L 95.254984 188.971866 
L 100.762037 189.379014 
L 104.433405 189.416238 
L 108.104774 189.103148 
L 109.940458 188.777656 
L 111.776142 188.323842 
L 113.611826 187.733494 
L 115.447511 187.001721 
L 117.283195 186.127261 
L 119.118879 185.112696 
L 122.790247 182.693334 
L 126.461616 179.842374 
L 131.968668 175.107696 
L 137.475721 170.442274 
L 141.147089 167.73723 
L 142.982773 166.582174 
L 144.818458 165.58681 
L 146.654142 164.767924 
L 148.489826 164.138382 
L 150.32551 163.70685 
L 152.161194 163.477662 
L 153.996879 163.450845 
L 155.832563 163.622279 
L 157.668247 163.98399 
L 159.503931 164.524563 
L 161.339615 165.229645 
L 163.1753 166.082517 
L 166.846668 168.156631 
L 170.518036 170.589381 
L 177.860773 175.921145 
L 183.367826 179.845873 
L 187.039194 182.277108 
L 190.710562 184.517042 
L 194.381931 186.556868 
L 198.053299 188.404338 
L 201.724668 190.075784 
L 207.23172 192.291889 
L 212.738773 194.198756 
L 218.245825 195.81762 
L 223.752878 197.151802 
L 229.25993 198.203422 
L 234.766983 198.98735 
L 240.274036 199.535934 
L 247.616772 199.98075 
L 248.516235 200.016191 
L 248.516235 200.016191 
" style="fill:none;stroke:#000000;stroke-dasharray:4,1,1,1;stroke-dashoffset:0;"/>
   </g>
   <g id="line2d_21">
    <path clip-path="url(#pb5e6b4366b)" d="M -1 108.354361 
L 24.809021 108.246132 
L 35.152152 107.968297 
L 42.047573 107.56867 
L 48.942993 106.915819 
L 55.838414 105.978013 
L 62.733835 104.79724 
L 95.487082 98.660266 
L 100.658648 97.310943 
L 105.830213 95.637471 
L 111.001779 93.666741 
L 123.068765 88.831285 
L 126.516475 87.719462 
L 129.964186 86.864322 
L 133.411896 86.319855 
L 136.859606 86.117714 
L 140.307316 86.264546 
L 143.755027 86.74255 
L 147.202737 87.513038 
L 150.650447 88.522318 
L 155.822013 90.349109 
L 166.165144 94.426939 
L 173.060564 97.048841 
L 179.955985 99.4533 
L 186.851406 101.622171 
L 193.746826 103.532119 
L 198.918392 104.763345 
L 204.089957 105.795857 
L 209.261523 106.617878 
L 214.433088 107.235439 
L 221.328509 107.78252 
L 228.223929 108.090488 
L 238.56706 108.287056 
L 248.516235 108.340827 
L 248.516235 108.340827 
" style="fill:none;stroke:#707070;stroke-dasharray:4,1,1,1;stroke-dashoffset:0;"/>
   </g>
   <g id="line2d_22">
    <path clip-path="url(#pb5e6b4366b)" d="M -1 200.35833 
L 24.92929 200.24833 
L 33.791214 200.026891 
L 40.880753 199.655522 
L 47.970292 199.024797 
L 53.287446 198.348851 
L 60.376985 197.180207 
L 67.466524 195.763469 
L 74.556063 194.15685 
L 79.873217 192.792558 
L 85.190371 191.168843 
L 88.735141 189.849383 
L 92.27991 188.263261 
L 95.82468 186.349071 
L 99.369449 184.064509 
L 102.914219 181.400388 
L 106.458988 178.392079 
L 111.776142 173.436037 
L 117.093296 168.39841 
L 120.638066 165.30972 
L 124.182835 162.667406 
L 125.95522 161.569522 
L 127.727605 160.645405 
L 129.49999 159.909668 
L 131.272374 159.373147 
L 133.044759 159.042626 
L 134.817144 158.920712 
L 136.589529 159.005858 
L 138.361913 159.292535 
L 140.134298 159.771523 
L 141.906683 160.430328 
L 143.679067 161.253676 
L 145.451452 162.224083 
L 148.996222 164.528681 
L 152.540991 167.182877 
L 166.720069 178.424143 
L 170.264839 180.901536 
L 173.809608 183.157462 
L 177.354377 185.192888 
L 180.899147 187.024223 
L 186.216301 189.442952 
L 191.533455 191.543493 
L 196.85061 193.388813 
L 202.167764 195.007533 
L 207.484918 196.400231 
L 212.802072 197.555976 
L 218.119226 198.46941 
L 223.436381 199.151163 
L 228.753535 199.629203 
L 235.843074 200.018873 
L 244.704997 200.246796 
L 248.516235 200.292929 
L 248.516235 200.292929 
" style="fill:none;stroke:#000000;stroke-dasharray:1,1;stroke-dashoffset:0;"/>
   </g>
   <g id="line2d_23">
    <path clip-path="url(#pb5e6b4366b)" d="M -1 177.357295 
L 23.578902 177.265968 
L 32.187628 177.082537 
L 40.796353 176.663 
L 46.535504 176.183792 
L 52.274655 175.513733 
L 58.013805 174.661797 
L 80.970407 170.909403 
L 98.187859 168.747305 
L 103.92701 167.581443 
L 106.796585 166.82828 
L 112.535736 164.972682 
L 118.274886 162.756324 
L 126.883612 159.325615 
L 129.753187 158.320262 
L 132.622763 157.451826 
L 135.492338 156.753546 
L 138.361913 156.250687 
L 141.231489 155.959264 
L 144.101064 155.88553 
L 146.970639 156.0262 
L 149.840214 156.369373 
L 152.70979 156.895998 
L 155.579365 157.58176 
L 161.318516 159.319599 
L 167.057666 161.360943 
L 184.275118 167.723963 
L 192.883844 170.562698 
L 198.622994 172.230665 
L 204.362145 173.669249 
L 210.101295 174.844214 
L 215.840446 175.744043 
L 221.579597 176.385854 
L 227.318747 176.810447 
L 235.927473 177.1551 
L 248.516235 177.32236 
L 248.516235 177.32236 
" style="fill:none;stroke:#000000;stroke-dasharray:1,1;stroke-dashoffset:0;"/>
   </g>
   <g id="line2d_24">
    <path clip-path="url(#pb5e6b4366b)" d="M -1 108.354344 
L 24.127497 108.255796 
L 34.635207 107.990453 
L 41.640346 107.600818 
L 48.645486 106.957057 
L 55.650626 106.029235 
L 64.40705 104.562772 
L 74.91476 102.765144 
L 81.919899 101.786455 
L 97.681464 99.828096 
L 102.935318 98.811106 
L 106.437888 97.926005 
L 109.940458 96.863569 
L 115.194313 94.97556 
L 129.204592 89.500021 
L 132.707162 88.425725 
L 136.209732 87.60573 
L 139.712302 87.083607 
L 143.214871 86.882094 
L 146.717441 87.002423 
L 150.220011 87.426031 
L 153.722581 88.11824 
L 157.225151 89.033305 
L 162.479006 90.711723 
L 169.484145 93.264714 
L 183.494425 98.447417 
L 190.499564 100.809547 
L 197.504704 102.919343 
L 202.758559 104.28969 
L 208.012413 105.445418 
L 213.266268 106.371039 
L 218.520123 107.070783 
L 223.773978 107.568114 
L 230.779117 107.980439 
L 239.535542 108.227566 
L 248.516235 108.319961 
L 248.516235 108.319961 
" style="fill:none;stroke:#000000;stroke-dasharray:1,1;stroke-dashoffset:0;"/>
   </g>
   <g id="line2d_25">
    <path clip-path="url(#pb5e6b4366b)" d="M -1 177.357348 
L 25.520085 177.238379 
L 34.382009 177.003987 
L 40.289958 176.697978 
L 46.197907 176.221008 
L 52.105856 175.547553 
L 60.96778 174.217842 
L 72.783678 172.378328 
L 78.691627 171.770879 
L 84.599576 171.536343 
L 90.507525 171.689085 
L 96.415474 172.123779 
L 105.277398 172.830975 
L 111.185347 172.957068 
L 114.139322 172.828359 
L 117.093296 172.545054 
L 120.047271 172.096871 
L 123.001246 171.482447 
L 125.95522 170.709611 
L 128.909195 169.795019 
L 134.817144 167.644749 
L 146.633042 163.014186 
L 152.540991 161.059219 
L 155.494966 160.252669 
L 158.44894 159.574827 
L 161.402915 159.03018 
L 164.356889 158.619498 
L 167.310864 158.341296 
L 170.264839 158.193117 
L 173.218813 158.17245 
L 176.172788 158.277165 
L 179.126762 158.505462 
L 182.080737 158.855436 
L 185.034711 159.324421 
L 190.94266 160.600861 
L 196.85061 162.275269 
L 202.758559 164.250057 
L 223.436381 171.591535 
L 229.34433 173.281698 
L 235.252279 174.639752 
L 241.160228 175.655272 
L 247.068177 176.359779 
L 248.516235 176.484011 
L 248.516235 176.484011 
" style="fill:none;stroke:#707070;stroke-dasharray:4,1,4,1,1,1;stroke-dashoffset:0;"/>
   </g>
   <g id="line2d_26">
    <path clip-path="url(#pb5e6b4366b)" d="M -1 177.357295 
L 23.578902 177.265968 
L 32.187628 177.082537 
L 40.796353 176.663 
L 46.535504 176.183792 
L 52.274655 175.513733 
L 58.013805 174.661797 
L 80.970407 170.909293 
L 98.187859 168.744436 
L 103.92701 167.574175 
L 106.796585 166.817051 
L 112.535736 164.947447 
L 118.274886 162.704033 
L 126.883612 159.192114 
L 129.753187 158.145396 
L 132.622763 157.227722 
L 135.492338 156.472661 
L 138.361913 155.906557 
L 141.231489 155.547404 
L 144.101064 155.404386 
L 146.970639 155.478089 
L 149.840214 155.761259 
L 152.70979 156.239998 
L 155.579365 156.895224 
L 158.44894 157.704263 
L 164.188091 159.68423 
L 169.927241 161.980712 
L 184.275118 167.995013 
L 190.014268 170.173287 
L 195.753419 172.084427 
L 201.49257 173.674071 
L 207.23172 174.920661 
L 212.970871 175.837362 
L 218.710021 176.466705 
L 224.449172 176.868748 
L 233.057898 177.18315 
L 244.536199 177.32393 
L 248.516235 177.339821 
L 248.516235 177.339821 
" style="fill:none;stroke:#000000;stroke-dasharray:4,1,4,1,1,1,1,1;stroke-dashoffset:0;"/>
   </g>
   <g id="patch_3">
    <path d="M 20.878125 209.55811 
L 20.878125 7.2 
" style="fill:none;stroke:#000000;stroke-linecap:square;stroke-linejoin:miter;stroke-width:0.8;"/>
   </g>
   <g id="patch_4">
    <path d="M 240.316235 209.55811 
L 240.316235 7.2 
" style="fill:none;stroke:#000000;stroke-linecap:square;stroke-linejoin:miter;stroke-width:0.8;"/>
   </g>
   <g id="patch_5">
    <path d="M 20.878125 209.55811 
L 240.316235 209.55811 
" style="fill:none;stroke:#000000;stroke-linecap:square;stroke-linejoin:miter;stroke-width:0.8;"/>
   </g>
   <g id="patch_6">
    <path d="M 20.878125 7.2 
L 240.316235 7.2 
" style="fill:none;stroke:#000000;stroke-linecap:square;stroke-linejoin:miter;stroke-width:0.8;"/>
   </g>
  </g>
  <g id="legend_1">
   <g id="line2d_27">
    <path d="M 185.962014 180.112675 
L 185.962014 180.112675 
" style="fill:none;stroke:#377eb8;stroke-dasharray:3,0;stroke-dashoffset:0;stroke-width:3;"/>
   </g>
   <g id="line2d_28"/>
   <g id="text_8">
    <!-- $EMIMB(CN)_{4}$ -->
    <defs>
     <path d="M 16.890625 72.90625 
L 62.984375 72.90625 
L 61.375 64.59375 
L 25.09375 64.59375 
L 20.90625 43.015625 
L 55.71875 43.015625 
L 54.109375 34.71875 
L 19.28125 34.71875 
L 14.203125 8.296875 
L 51.3125 8.296875 
L 49.703125 0 
L 2.6875 0 
z
" id="DejaVuSans-Oblique-69"/>
     <path d="M 16.890625 72.90625 
L 31.6875 72.90625 
L 40.1875 23.78125 
L 68.40625 72.90625 
L 83.59375 72.90625 
L 69.390625 0 
L 59.8125 0 
L 72.21875 63.921875 
L 43.609375 14.015625 
L 33.984375 14.015625 
L 24.703125 64.109375 
L 12.3125 0 
L 2.6875 0 
z
" id="DejaVuSans-Oblique-77"/>
     <path d="M 16.890625 72.90625 
L 26.8125 72.90625 
L 12.59375 0 
L 2.6875 0 
z
" id="DejaVuSans-Oblique-73"/>
     <path d="M 16.890625 72.90625 
L 42.09375 72.90625 
Q 52.34375 72.90625 57.421875 69.09375 
Q 62.5 65.28125 62.5 57.625 
Q 62.5 50.59375 58.125 45.484375 
Q 53.765625 40.375 46.6875 39.3125 
Q 52.734375 37.9375 55.765625 34.078125 
Q 58.796875 30.21875 58.796875 23.78125 
Q 58.796875 12.796875 50.65625 6.390625 
Q 42.53125 0 28.421875 0 
L 2.6875 0 
z
M 19.28125 34.8125 
L 14.109375 8.109375 
L 29.984375 8.109375 
Q 38.921875 8.109375 43.75 12.203125 
Q 48.578125 16.3125 48.578125 23.78125 
Q 48.578125 29.546875 45.375 32.171875 
Q 42.1875 34.8125 35.109375 34.8125 
z
M 25.09375 64.796875 
L 20.796875 42.828125 
L 35.5 42.828125 
Q 43.359375 42.828125 47.78125 46.234375 
Q 52.203125 49.65625 52.203125 55.71875 
Q 52.203125 60.453125 49.21875 62.625 
Q 46.234375 64.796875 39.703125 64.796875 
z
" id="DejaVuSans-Oblique-66"/>
     <path d="M 31 75.875 
Q 24.46875 64.65625 21.28125 53.65625 
Q 18.109375 42.671875 18.109375 31.390625 
Q 18.109375 20.125 21.3125 9.0625 
Q 24.515625 -2 31 -13.1875 
L 23.1875 -13.1875 
Q 15.875 -1.703125 12.234375 9.375 
Q 8.59375 20.453125 8.59375 31.390625 
Q 8.59375 42.28125 12.203125 53.3125 
Q 15.828125 64.359375 23.1875 75.875 
z
" id="DejaVuSans-40"/>
     <path d="M 69.484375 67.28125 
L 67.484375 56.890625 
Q 62.796875 61.625 57.546875 63.921875 
Q 52.296875 66.21875 46.1875 66.21875 
Q 37.84375 66.21875 31.515625 62.203125 
Q 25.203125 58.203125 20.609375 50 
Q 17.671875 44.734375 16.125 38.84375 
Q 14.59375 32.953125 14.59375 27 
Q 14.59375 17.046875 19.75 11.8125 
Q 24.90625 6.59375 34.71875 6.59375 
Q 41.5 6.59375 47.75 8.765625 
Q 54 10.9375 59.90625 15.28125 
L 57.625 3.609375 
Q 51.8125 1.125 45.875 -0.140625 
Q 39.9375 -1.421875 33.984375 -1.421875 
Q 19.96875 -1.421875 12.078125 6.1875 
Q 4.203125 13.8125 4.203125 27.390625 
Q 4.203125 36.078125 7.203125 44.46875 
Q 10.203125 52.875 15.828125 59.8125 
Q 21.78125 67.1875 29.421875 70.703125 
Q 37.0625 74.21875 47.21875 74.21875 
Q 53.46875 74.21875 59.0625 72.484375 
Q 64.65625 70.75 69.484375 67.28125 
z
" id="DejaVuSans-Oblique-67"/>
     <path d="M 16.890625 72.90625 
L 30.171875 72.90625 
L 50.296875 10.40625 
L 62.5 72.90625 
L 72.125 72.90625 
L 57.90625 0 
L 44.578125 0 
L 24.515625 62.890625 
L 12.3125 0 
L 2.6875 0 
z
" id="DejaVuSans-Oblique-78"/>
     <path d="M 8.015625 75.875 
L 15.828125 75.875 
Q 23.140625 64.359375 26.78125 53.3125 
Q 30.421875 42.28125 30.421875 31.390625 
Q 30.421875 20.453125 26.78125 9.375 
Q 23.140625 -1.703125 15.828125 -13.1875 
L 8.015625 -13.1875 
Q 14.5 -2 17.703125 9.0625 
Q 20.90625 20.125 20.90625 31.390625 
Q 20.90625 42.671875 17.703125 53.65625 
Q 14.5 64.65625 8.015625 75.875 
z
" id="DejaVuSans-41"/>
    </defs>
    <g transform="translate(191.562014 182.562675)scale(0.07 -0.07)">
     <use transform="translate(0 0.125)" xlink:href="#DejaVuSans-Oblique-69"/>
     <use transform="translate(63.183594 0.125)" xlink:href="#DejaVuSans-Oblique-77"/>
     <use transform="translate(149.462891 0.125)" xlink:href="#DejaVuSans-Oblique-73"/>
     <use transform="translate(178.955078 0.125)" xlink:href="#DejaVuSans-Oblique-77"/>
     <use transform="translate(265.234375 0.125)" xlink:href="#DejaVuSans-Oblique-66"/>
     <use transform="translate(333.837891 0.125)" xlink:href="#DejaVuSans-40"/>
     <use transform="translate(372.851562 0.125)" xlink:href="#DejaVuSans-Oblique-67"/>
     <use transform="translate(442.675781 0.125)" xlink:href="#DejaVuSans-Oblique-78"/>
     <use transform="translate(517.480469 0.125)" xlink:href="#DejaVuSans-41"/>
     <use transform="translate(557.451172 -16.28125)scale(0.7)" xlink:href="#DejaVuSans-52"/>
    </g>
   </g>
  </g>
  <g id="legend_2">
   <g id="line2d_29">
    <path d="M 185.962014 160.096412 
L 185.962014 160.096412 
" style="fill:none;stroke:#ff7f00;stroke-dasharray:3,0;stroke-dashoffset:0;stroke-width:3;"/>
   </g>
   <g id="line2d_30"/>
   <g id="text_9">
    <!-- $EMImTFSI$ -->
    <defs>
     <path d="M 89.796875 33.015625 
L 83.40625 0 
L 74.421875 0 
L 80.71875 32.71875 
Q 81.109375 34.8125 81.296875 36.328125 
Q 81.5 37.84375 81.5 38.921875 
Q 81.5 43.3125 79.046875 45.75 
Q 76.609375 48.1875 72.21875 48.1875 
Q 65.671875 48.1875 60.546875 43.28125 
Q 55.421875 38.375 53.90625 30.515625 
L 47.90625 0 
L 38.921875 0 
L 45.3125 32.71875 
Q 45.703125 34.515625 45.890625 36.046875 
Q 46.09375 37.59375 46.09375 38.8125 
Q 46.09375 43.265625 43.65625 45.71875 
Q 41.21875 48.1875 36.921875 48.1875 
Q 30.28125 48.1875 25.140625 43.28125 
Q 20.015625 38.375 18.5 30.515625 
L 12.5 0 
L 3.515625 0 
L 14.203125 54.6875 
L 23.1875 54.6875 
L 21.484375 46.1875 
Q 25.140625 50.984375 30.046875 53.484375 
Q 34.96875 56 40.578125 56 
Q 46.53125 56 50.359375 52.875 
Q 54.203125 49.75 54.984375 44.1875 
Q 59.078125 49.953125 64.46875 52.96875 
Q 69.875 56 75.875 56 
Q 82.90625 56 86.734375 51.953125 
Q 90.578125 47.90625 90.578125 40.484375 
Q 90.578125 38.875 90.375 36.9375 
Q 90.1875 35.015625 89.796875 33.015625 
z
" id="DejaVuSans-Oblique-109"/>
     <path d="M 5.90625 72.90625 
L 67.578125 72.90625 
L 66.015625 64.59375 
L 39.984375 64.59375 
L 27.484375 0 
L 17.578125 0 
L 30.078125 64.59375 
L 4.296875 64.59375 
z
" id="DejaVuSans-Oblique-84"/>
     <path d="M 16.890625 72.90625 
L 58.6875 72.90625 
L 57.078125 64.59375 
L 25.09375 64.59375 
L 20.90625 43.109375 
L 49.8125 43.109375 
L 48.1875 34.8125 
L 19.28125 34.8125 
L 12.5 0 
L 2.6875 0 
z
" id="DejaVuSans-Oblique-70"/>
     <path d="M 60.296875 70.515625 
L 58.40625 60.890625 
Q 53.46875 63.53125 48.609375 64.875 
Q 43.75 66.21875 39.203125 66.21875 
Q 30.375 66.21875 25.140625 62.359375 
Q 19.921875 58.5 19.921875 52.09375 
Q 19.921875 48.578125 21.84375 46.703125 
Q 23.78125 44.828125 31.78125 42.671875 
L 37.703125 41.21875 
Q 47.703125 38.625 51.609375 34.640625 
Q 55.515625 30.671875 55.515625 23.484375 
Q 55.515625 12.453125 46.84375 5.515625 
Q 38.1875 -1.421875 24.03125 -1.421875 
Q 18.21875 -1.421875 12.359375 -0.265625 
Q 6.5 0.875 0.59375 3.21875 
L 2.59375 13.375 
Q 8.015625 10.015625 13.453125 8.296875 
Q 18.890625 6.59375 24.3125 6.59375 
Q 33.546875 6.59375 39.109375 10.6875 
Q 44.671875 14.796875 44.671875 21.390625 
Q 44.671875 25.78125 42.453125 28.046875 
Q 40.234375 30.328125 32.90625 32.171875 
L 27 33.6875 
Q 16.890625 36.328125 13.203125 39.765625 
Q 9.515625 43.21875 9.515625 49.421875 
Q 9.515625 60.296875 17.890625 67.25 
Q 26.265625 74.21875 39.703125 74.21875 
Q 44.921875 74.21875 50.046875 73.28125 
Q 55.171875 72.359375 60.296875 70.515625 
z
" id="DejaVuSans-Oblique-83"/>
    </defs>
    <g transform="translate(191.562014 162.546412)scale(0.07 -0.07)">
     <use transform="translate(0 0.78125)" xlink:href="#DejaVuSans-Oblique-69"/>
     <use transform="translate(63.183594 0.78125)" xlink:href="#DejaVuSans-Oblique-77"/>
     <use transform="translate(149.462891 0.78125)" xlink:href="#DejaVuSans-Oblique-73"/>
     <use transform="translate(178.955078 0.78125)" xlink:href="#DejaVuSans-Oblique-109"/>
     <use transform="translate(276.367188 0.78125)" xlink:href="#DejaVuSans-Oblique-84"/>
     <use transform="translate(337.451172 0.78125)" xlink:href="#DejaVuSans-Oblique-70"/>
     <use transform="translate(394.970703 0.78125)" xlink:href="#DejaVuSans-Oblique-83"/>
     <use transform="translate(458.447266 0.78125)" xlink:href="#DejaVuSans-Oblique-73"/>
    </g>
   </g>
  </g>
  <g id="legend_3">
   <g id="line2d_31">
    <path d="M 185.962014 140.327263 
L 185.962014 140.327263 
" style="fill:none;stroke:#4daf4a;stroke-dasharray:3,0;stroke-dashoffset:0;stroke-width:3;"/>
   </g>
   <g id="line2d_32"/>
   <g id="text_10">
    <!-- $EMImFSI$ -->
    <g transform="translate(191.562014 142.777263)scale(0.07 -0.07)">
     <use transform="translate(0 0.78125)" xlink:href="#DejaVuSans-Oblique-69"/>
     <use transform="translate(63.183594 0.78125)" xlink:href="#DejaVuSans-Oblique-77"/>
     <use transform="translate(149.462891 0.78125)" xlink:href="#DejaVuSans-Oblique-73"/>
     <use transform="translate(178.955078 0.78125)" xlink:href="#DejaVuSans-Oblique-109"/>
     <use transform="translate(276.367188 0.78125)" xlink:href="#DejaVuSans-Oblique-70"/>
     <use transform="translate(333.886719 0.78125)" xlink:href="#DejaVuSans-Oblique-83"/>
     <use transform="translate(397.363281 0.78125)" xlink:href="#DejaVuSans-Oblique-73"/>
    </g>
   </g>
  </g>
  <g id="legend_4">
   <g id="line2d_33">
    <path d="M 185.962014 115.615827 
L 185.962014 115.615827 
" style="fill:none;stroke:#f781bf;stroke-dasharray:3,0;stroke-dashoffset:0;stroke-width:3;"/>
   </g>
   <g id="line2d_34"/>
   <g id="text_11">
    <!-- $EMImPF_{6}$ -->
    <defs>
     <path d="M 16.890625 72.90625 
L 39.703125 72.90625 
Q 49.65625 72.90625 54.875 68.265625 
Q 60.109375 63.625 60.109375 54.6875 
Q 60.109375 42.671875 52.390625 35.984375 
Q 44.671875 29.296875 30.71875 29.296875 
L 18.3125 29.296875 
L 12.59375 0 
L 2.6875 0 
z
M 25.203125 64.796875 
L 19.921875 37.40625 
L 32.328125 37.40625 
Q 40.71875 37.40625 45.203125 41.703125 
Q 49.703125 46 49.703125 54 
Q 49.703125 59.125 46.65625 61.953125 
Q 43.609375 64.796875 38.09375 64.796875 
z
" id="DejaVuSans-Oblique-80"/>
    </defs>
    <g transform="translate(191.562014 118.065827)scale(0.07 -0.07)">
     <use transform="translate(0 0.09375)" xlink:href="#DejaVuSans-Oblique-69"/>
     <use transform="translate(63.183594 0.09375)" xlink:href="#DejaVuSans-Oblique-77"/>
     <use transform="translate(149.462891 0.09375)" xlink:href="#DejaVuSans-Oblique-73"/>
     <use transform="translate(178.955078 0.09375)" xlink:href="#DejaVuSans-Oblique-109"/>
     <use transform="translate(276.367188 0.09375)" xlink:href="#DejaVuSans-Oblique-80"/>
     <use transform="translate(336.669922 0.09375)" xlink:href="#DejaVuSans-Oblique-70"/>
     <use transform="translate(394.189453 -16.3125)scale(0.7)" xlink:href="#DejaVuSans-54"/>
    </g>
   </g>
  </g>
  <g id="legend_5">
   <g id="line2d_35">
    <path d="M 185.962014 93.869763 
L 185.962014 93.869763 
" style="fill:none;stroke:#a65628;stroke-dasharray:3,0;stroke-dashoffset:0;stroke-width:3;"/>
   </g>
   <g id="line2d_36"/>
   <g id="text_12">
    <!-- $EMImBF_{4}$ -->
    <g transform="translate(191.562014 96.319763)scale(0.07 -0.07)">
     <use transform="translate(0 0.09375)" xlink:href="#DejaVuSans-Oblique-69"/>
     <use transform="translate(63.183594 0.09375)" xlink:href="#DejaVuSans-Oblique-77"/>
     <use transform="translate(149.462891 0.09375)" xlink:href="#DejaVuSans-Oblique-73"/>
     <use transform="translate(178.955078 0.09375)" xlink:href="#DejaVuSans-Oblique-109"/>
     <use transform="translate(276.367188 0.09375)" xlink:href="#DejaVuSans-Oblique-66"/>
     <use transform="translate(344.970703 0.09375)" xlink:href="#DejaVuSans-Oblique-70"/>
     <use transform="translate(402.490234 -16.3125)scale(0.7)" xlink:href="#DejaVuSans-52"/>
    </g>
   </g>
  </g>
  <g id="legend_6">
   <g id="line2d_37">
    <path d="M 185.962014 72.370814 
L 185.962014 72.370814 
" style="fill:none;stroke:#984ea3;stroke-dasharray:3,0;stroke-dashoffset:0;stroke-width:3;"/>
   </g>
   <g id="line2d_38"/>
   <g id="text_13">
    <!-- $EMImCl$ -->
    <defs>
     <path d="M 18.3125 75.984375 
L 27.296875 75.984375 
L 12.5 0 
L 3.515625 0 
z
" id="DejaVuSans-Oblique-108"/>
    </defs>
    <g transform="translate(191.562014 74.820814)scale(0.07 -0.07)">
     <use transform="translate(0 0.015625)" xlink:href="#DejaVuSans-Oblique-69"/>
     <use transform="translate(63.183594 0.015625)" xlink:href="#DejaVuSans-Oblique-77"/>
     <use transform="translate(149.462891 0.015625)" xlink:href="#DejaVuSans-Oblique-73"/>
     <use transform="translate(178.955078 0.015625)" xlink:href="#DejaVuSans-Oblique-109"/>
     <use transform="translate(276.367188 0.015625)" xlink:href="#DejaVuSans-Oblique-67"/>
     <use transform="translate(346.191406 0.015625)" xlink:href="#DejaVuSans-Oblique-108"/>
    </g>
   </g>
  </g>
  <g id="legend_7">
   <g id="line2d_39">
    <path d="M 185.962014 50.130522 
L 185.962014 50.130522 
" style="fill:none;stroke:#999999;stroke-dasharray:3,0;stroke-dashoffset:0;stroke-width:3;"/>
   </g>
   <g id="line2d_40"/>
   <g id="text_14">
    <!-- $EMImBr$ -->
    <defs>
     <path d="M 44.578125 46.390625 
Q 43.21875 47.125 41.453125 47.515625 
Q 39.703125 47.90625 37.703125 47.90625 
Q 30.515625 47.90625 25.140625 42.453125 
Q 19.78125 37.015625 18.015625 27.875 
L 12.5 0 
L 3.515625 0 
L 14.203125 54.6875 
L 23.1875 54.6875 
L 21.484375 46.1875 
Q 25.046875 50.921875 30 53.453125 
Q 34.96875 56 40.578125 56 
Q 42.046875 56 43.453125 55.828125 
Q 44.875 55.671875 46.296875 55.28125 
z
" id="DejaVuSans-Oblique-114"/>
    </defs>
    <g transform="translate(191.562014 52.580522)scale(0.07 -0.07)">
     <use transform="translate(0 0.09375)" xlink:href="#DejaVuSans-Oblique-69"/>
     <use transform="translate(63.183594 0.09375)" xlink:href="#DejaVuSans-Oblique-77"/>
     <use transform="translate(149.462891 0.09375)" xlink:href="#DejaVuSans-Oblique-73"/>
     <use transform="translate(178.955078 0.09375)" xlink:href="#DejaVuSans-Oblique-109"/>
     <use transform="translate(276.367188 0.09375)" xlink:href="#DejaVuSans-Oblique-66"/>
     <use transform="translate(344.970703 0.09375)" xlink:href="#DejaVuSans-Oblique-114"/>
    </g>
   </g>
  </g>
  <g id="legend_8">
   <g id="line2d_41">
    <path d="M 185.962014 24.183514 
L 185.962014 24.183514 
" style="fill:none;stroke:#e41a1c;stroke-dasharray:3,0;stroke-dashoffset:0;stroke-width:3;"/>
   </g>
   <g id="line2d_42"/>
   <g id="text_15">
    <!-- $EMImI$ -->
    <g transform="translate(191.562014 26.633514)scale(0.07 -0.07)">
     <use transform="translate(0 0.09375)" xlink:href="#DejaVuSans-Oblique-69"/>
     <use transform="translate(63.183594 0.09375)" xlink:href="#DejaVuSans-Oblique-77"/>
     <use transform="translate(149.462891 0.09375)" xlink:href="#DejaVuSans-Oblique-73"/>
     <use transform="translate(178.955078 0.09375)" xlink:href="#DejaVuSans-Oblique-109"/>
     <use transform="translate(276.367188 0.09375)" xlink:href="#DejaVuSans-Oblique-73"/>
    </g>
   </g>
  </g>
 </g>
 <defs>
  <clipPath id="pb5e6b4366b">
   <rect height="202.35811" width="219.43811" x="20.878125" y="7.2"/>
  </clipPath>
 </defs>
</svg>
