<?xml version="1.0" encoding="utf-8" standalone="no"?>
<!DOCTYPE svg PUBLIC "-//W3C//DTD SVG 1.1//EN"
  "http://www.w3.org/Graphics/SVG/1.1/DTD/svg11.dtd">
<!-- Created with matplotlib (http://matplotlib.org/) -->
<svg height="283.464567pt" version="1.1" viewBox="0 0 235.275591 283.464567" width="235.275591pt" xmlns="http://www.w3.org/2000/svg" xmlns:xlink="http://www.w3.org/1999/xlink">
 <defs>
  <style type="text/css">
*{stroke-linecap:butt;stroke-linejoin:round;}
  </style>
 </defs>
 <g id="figure_1">
  <g id="patch_1">
   <path d="M 0 283.464567 
L 235.275591 283.464567 
L 235.275591 0 
L 0 0 
z
" style="fill:#ffffff;"/>
  </g>
  <g id="axes_1">
   <g id="patch_2">
    <path d="M 22 247.264567 
L 221.367102 247.264567 
L 221.367102 13.32 
L 22 13.32 
z
" style="fill:#ffffff;"/>
   </g>
   <g id="PathCollection_1">
    <defs>
     <path d="M 0 1.732051 
C 0.459345 1.732051 0.899939 1.549551 1.224745 1.224745 
C 1.549551 0.899939 1.732051 0.459345 1.732051 0 
C 1.732051 -0.459345 1.549551 -0.899939 1.224745 -1.224745 
C 0.899939 -1.549551 0.459345 -1.732051 0 -1.732051 
C -0.459345 -1.732051 -0.899939 -1.549551 -1.224745 -1.224745 
C -1.549551 -0.899939 -1.732051 -0.459345 -1.732051 0 
C -1.732051 0.459345 -1.549551 0.899939 -1.224745 1.224745 
C -0.899939 1.549551 -0.459345 1.732051 0 1.732051 
z
" id="m025f563e53" style="stroke:#02ad51;"/>
    </defs>
    <g clip-path="url(#peac75794ca)">
     <use style="fill:#02ad51;stroke:#02ad51;" x="64.17381" xlink:href="#m025f563e53" y="232.51027"/>
    </g>
   </g>
   <g id="PathCollection_2">
    <g clip-path="url(#peac75794ca)">
     <use style="fill:#02ad51;stroke:#02ad51;" x="136.08399" xlink:href="#m025f563e53" y="211.089284"/>
    </g>
   </g>
   <g id="PathCollection_3">
    <g clip-path="url(#peac75794ca)">
     <use style="fill:#02ad51;stroke:#02ad51;" x="163.926373" xlink:href="#m025f563e53" y="227.008235"/>
    </g>
   </g>
   <g id="PathCollection_4">
    <g clip-path="url(#peac75794ca)">
     <use style="fill:#02ad51;stroke:#02ad51;" x="125.444688" xlink:href="#m025f563e53" y="210.802511"/>
    </g>
   </g>
   <g id="PathCollection_5">
    <g clip-path="url(#peac75794ca)">
     <use style="fill:#02ad51;stroke:#02ad51;" x="124.394177" xlink:href="#m025f563e53" y="211.153945"/>
    </g>
   </g>
   <g id="PathCollection_6">
    <g clip-path="url(#peac75794ca)">
     <use style="fill:#02ad51;stroke:#02ad51;" x="127.829425" xlink:href="#m025f563e53" y="210.259611"/>
    </g>
   </g>
   <g id="PathCollection_7">
    <g clip-path="url(#peac75794ca)">
     <use style="fill:#02ad51;stroke:#02ad51;" x="64.17381" xlink:href="#m025f563e53" y="195.572233"/>
    </g>
   </g>
   <g id="PathCollection_8">
    <g clip-path="url(#peac75794ca)">
     <use style="fill:#02ad51;stroke:#02ad51;" x="128.093817" xlink:href="#m025f563e53" y="171.280731"/>
    </g>
   </g>
   <g id="PathCollection_9">
    <g clip-path="url(#peac75794ca)">
     <use style="fill:#02ad51;stroke:#02ad51;" x="139.83581" xlink:href="#m025f563e53" y="178.749018"/>
    </g>
   </g>
   <g id="PathCollection_10">
    <g clip-path="url(#peac75794ca)">
     <use style="fill:#02ad51;stroke:#02ad51;" x="115.273132" xlink:href="#m025f563e53" y="172.653147"/>
    </g>
   </g>
   <g id="PathCollection_11">
    <g clip-path="url(#peac75794ca)">
     <use style="fill:#02ad51;stroke:#02ad51;" x="115.568655" xlink:href="#m025f563e53" y="172.500693"/>
    </g>
   </g>
   <g id="PathCollection_12">
    <g clip-path="url(#peac75794ca)">
     <use style="fill:#02ad51;stroke:#02ad51;" x="122.159463" xlink:href="#m025f563e53" y="170.520968"/>
    </g>
   </g>
   <g id="PathCollection_13">
    <g clip-path="url(#peac75794ca)">
     <use style="fill:#02ad51;stroke:#02ad51;" x="64.17381" xlink:href="#m025f563e53" y="159.388038"/>
    </g>
   </g>
   <g id="PathCollection_14">
    <g clip-path="url(#peac75794ca)">
     <use style="fill:#02ad51;stroke:#02ad51;" x="132.894116" xlink:href="#m025f563e53" y="138.931124"/>
    </g>
   </g>
   <g id="PathCollection_15">
    <g clip-path="url(#peac75794ca)">
     <use style="fill:#02ad51;stroke:#02ad51;" x="168.411749" xlink:href="#m025f563e53" y="153.216577"/>
    </g>
   </g>
   <g id="PathCollection_16">
    <g clip-path="url(#peac75794ca)">
     <use style="fill:#02ad51;stroke:#02ad51;" x="139.850111" xlink:href="#m025f563e53" y="139.005239"/>
    </g>
   </g>
   <g id="PathCollection_17">
    <g clip-path="url(#peac75794ca)">
     <use style="fill:#02ad51;stroke:#02ad51;" x="139.499302" xlink:href="#m025f563e53" y="138.945364"/>
    </g>
   </g>
   <g id="PathCollection_18">
    <g clip-path="url(#peac75794ca)">
     <use style="fill:#02ad51;stroke:#02ad51;" x="118.635918" xlink:href="#m025f563e53" y="145.604282"/>
    </g>
   </g>
   <g id="PathCollection_19">
    <g clip-path="url(#peac75794ca)">
     <use style="fill:#02ad51;stroke:#02ad51;" x="64.17381" xlink:href="#m025f563e53" y="121.593781"/>
    </g>
   </g>
   <g id="PathCollection_20">
    <g clip-path="url(#peac75794ca)">
     <use style="fill:#02ad51;stroke:#02ad51;" x="106.34762" xlink:href="#m025f563e53" y="105.741865"/>
    </g>
   </g>
   <g id="PathCollection_21">
    <g clip-path="url(#peac75794ca)">
     <use style="fill:#02ad51;stroke:#02ad51;" x="152.355413" xlink:href="#m025f563e53" y="116.672929"/>
    </g>
   </g>
   <g id="PathCollection_22">
    <g clip-path="url(#peac75794ca)">
     <use style="fill:#02ad51;stroke:#02ad51;" x="125.517534" xlink:href="#m025f563e53" y="104.014837"/>
    </g>
   </g>
   <g id="PathCollection_23">
    <g clip-path="url(#peac75794ca)">
     <use style="fill:#02ad51;stroke:#02ad51;" x="125.517534" xlink:href="#m025f563e53" y="104.014837"/>
    </g>
   </g>
   <g id="PathCollection_24">
    <g clip-path="url(#peac75794ca)">
     <use style="fill:#02ad51;stroke:#02ad51;" x="106.34762" xlink:href="#m025f563e53" y="105.741865"/>
    </g>
   </g>
   <g id="PathCollection_25">
    <g clip-path="url(#peac75794ca)">
     <use style="fill:#02ad51;stroke:#02ad51;" x="64.17381" xlink:href="#m025f563e53" y="84.203471"/>
    </g>
   </g>
   <g id="PathCollection_26">
    <g clip-path="url(#peac75794ca)">
     <use style="fill:#02ad51;stroke:#02ad51;" x="102.513637" xlink:href="#m025f563e53" y="67.55279"/>
    </g>
   </g>
   <g id="PathCollection_27">
    <g clip-path="url(#peac75794ca)">
     <use style="fill:#02ad51;stroke:#02ad51;" x="147.371235" xlink:href="#m025f563e53" y="80.590382"/>
    </g>
   </g>
   <g id="PathCollection_28">
    <g clip-path="url(#peac75794ca)">
     <use style="fill:#02ad51;stroke:#02ad51;" x="118.999763" xlink:href="#m025f563e53" y="66.447639"/>
    </g>
   </g>
   <g id="PathCollection_29">
    <g clip-path="url(#peac75794ca)">
     <use style="fill:#02ad51;stroke:#02ad51;" x="118.999763" xlink:href="#m025f563e53" y="66.447639"/>
    </g>
   </g>
   <g id="PathCollection_30">
    <g clip-path="url(#peac75794ca)">
     <use style="fill:#02ad51;stroke:#02ad51;" x="102.513637" xlink:href="#m025f563e53" y="67.55279"/>
    </g>
   </g>
   <g id="PathCollection_31">
    <g clip-path="url(#peac75794ca)">
     <use style="fill:#02ad51;stroke:#02ad51;" x="64.17381" xlink:href="#m025f563e53" y="48.486104"/>
    </g>
   </g>
   <g id="PathCollection_32">
    <g clip-path="url(#peac75794ca)">
     <use style="fill:#02ad51;stroke:#02ad51;" x="106.34762" xlink:href="#m025f563e53" y="32.634188"/>
    </g>
   </g>
   <g id="PathCollection_33">
    <g clip-path="url(#peac75794ca)">
     <use style="fill:#02ad51;stroke:#02ad51;" x="152.355413" xlink:href="#m025f563e53" y="43.565252"/>
    </g>
   </g>
   <g id="PathCollection_34">
    <g clip-path="url(#peac75794ca)">
     <use style="fill:#02ad51;stroke:#02ad51;" x="125.517534" xlink:href="#m025f563e53" y="30.90716"/>
    </g>
   </g>
   <g id="PathCollection_35">
    <g clip-path="url(#peac75794ca)">
     <use style="fill:#02ad51;stroke:#02ad51;" x="125.517534" xlink:href="#m025f563e53" y="30.90716"/>
    </g>
   </g>
   <g id="PathCollection_36">
    <g clip-path="url(#peac75794ca)">
     <use style="fill:#02ad51;stroke:#02ad51;" x="106.34762" xlink:href="#m025f563e53" y="32.634188"/>
    </g>
   </g>
   <g id="matplotlib.axis_1">
    <g id="xtick_1">
     <g id="line2d_1">
      <defs>
       <path d="M 0 0 
L 0 3.5 
" id="m1c82904eb9" style="stroke:#000000;stroke-width:0.8;"/>
      </defs>
      <g>
       <use style="stroke:#000000;stroke-width:0.8;" x="25.833983" xlink:href="#m1c82904eb9" y="247.264567"/>
      </g>
     </g>
     <g id="text_1">
      <!-- 284 -->
      <defs>
       <path d="M 19.1875 8.296875 
L 53.609375 8.296875 
L 53.609375 0 
L 7.328125 0 
L 7.328125 8.296875 
Q 12.9375 14.109375 22.625 23.890625 
Q 32.328125 33.6875 34.8125 36.53125 
Q 39.546875 41.84375 41.421875 45.53125 
Q 43.3125 49.21875 43.3125 52.78125 
Q 43.3125 58.59375 39.234375 62.25 
Q 35.15625 65.921875 28.609375 65.921875 
Q 23.96875 65.921875 18.8125 64.3125 
Q 13.671875 62.703125 7.8125 59.421875 
L 7.8125 69.390625 
Q 13.765625 71.78125 18.9375 73 
Q 24.125 74.21875 28.421875 74.21875 
Q 39.75 74.21875 46.484375 68.546875 
Q 53.21875 62.890625 53.21875 53.421875 
Q 53.21875 48.921875 51.53125 44.890625 
Q 49.859375 40.875 45.40625 35.40625 
Q 44.1875 33.984375 37.640625 27.21875 
Q 31.109375 20.453125 19.1875 8.296875 
z
" id="DejaVuSans-32"/>
       <path d="M 31.78125 34.625 
Q 24.75 34.625 20.71875 30.859375 
Q 16.703125 27.09375 16.703125 20.515625 
Q 16.703125 13.921875 20.71875 10.15625 
Q 24.75 6.390625 31.78125 6.390625 
Q 38.8125 6.390625 42.859375 10.171875 
Q 46.921875 13.96875 46.921875 20.515625 
Q 46.921875 27.09375 42.890625 30.859375 
Q 38.875 34.625 31.78125 34.625 
z
M 21.921875 38.8125 
Q 15.578125 40.375 12.03125 44.71875 
Q 8.5 49.078125 8.5 55.328125 
Q 8.5 64.0625 14.71875 69.140625 
Q 20.953125 74.21875 31.78125 74.21875 
Q 42.671875 74.21875 48.875 69.140625 
Q 55.078125 64.0625 55.078125 55.328125 
Q 55.078125 49.078125 51.53125 44.71875 
Q 48 40.375 41.703125 38.8125 
Q 48.828125 37.15625 52.796875 32.3125 
Q 56.78125 27.484375 56.78125 20.515625 
Q 56.78125 9.90625 50.3125 4.234375 
Q 43.84375 -1.421875 31.78125 -1.421875 
Q 19.734375 -1.421875 13.25 4.234375 
Q 6.78125 9.90625 6.78125 20.515625 
Q 6.78125 27.484375 10.78125 32.3125 
Q 14.796875 37.15625 21.921875 38.8125 
z
M 18.3125 54.390625 
Q 18.3125 48.734375 21.84375 45.5625 
Q 25.390625 42.390625 31.78125 42.390625 
Q 38.140625 42.390625 41.71875 45.5625 
Q 45.3125 48.734375 45.3125 54.390625 
Q 45.3125 60.0625 41.71875 63.234375 
Q 38.140625 66.40625 31.78125 66.40625 
Q 25.390625 66.40625 21.84375 63.234375 
Q 18.3125 60.0625 18.3125 54.390625 
z
" id="DejaVuSans-38"/>
       <path d="M 37.796875 64.3125 
L 12.890625 25.390625 
L 37.796875 25.390625 
z
M 35.203125 72.90625 
L 47.609375 72.90625 
L 47.609375 25.390625 
L 58.015625 25.390625 
L 58.015625 17.1875 
L 47.609375 17.1875 
L 47.609375 0 
L 37.796875 0 
L 37.796875 17.1875 
L 4.890625 17.1875 
L 4.890625 26.703125 
z
" id="DejaVuSans-34"/>
      </defs>
      <g transform="translate(19.153358 259.583473)scale(0.07 -0.07)">
       <use xlink:href="#DejaVuSans-32"/>
       <use x="63.623047" xlink:href="#DejaVuSans-38"/>
       <use x="127.246094" xlink:href="#DejaVuSans-34"/>
      </g>
     </g>
    </g>
    <g id="xtick_2">
     <g id="line2d_2">
      <g>
       <use style="stroke:#000000;stroke-width:0.8;" x="64.17381" xlink:href="#m1c82904eb9" y="247.264567"/>
      </g>
     </g>
     <g id="text_2">
      <!-- 285 -->
      <defs>
       <path d="M 10.796875 72.90625 
L 49.515625 72.90625 
L 49.515625 64.59375 
L 19.828125 64.59375 
L 19.828125 46.734375 
Q 21.96875 47.46875 24.109375 47.828125 
Q 26.265625 48.1875 28.421875 48.1875 
Q 40.625 48.1875 47.75 41.5 
Q 54.890625 34.8125 54.890625 23.390625 
Q 54.890625 11.625 47.5625 5.09375 
Q 40.234375 -1.421875 26.90625 -1.421875 
Q 22.3125 -1.421875 17.546875 -0.640625 
Q 12.796875 0.140625 7.71875 1.703125 
L 7.71875 11.625 
Q 12.109375 9.234375 16.796875 8.0625 
Q 21.484375 6.890625 26.703125 6.890625 
Q 35.15625 6.890625 40.078125 11.328125 
Q 45.015625 15.765625 45.015625 23.390625 
Q 45.015625 31 40.078125 35.4375 
Q 35.15625 39.890625 26.703125 39.890625 
Q 22.75 39.890625 18.8125 39.015625 
Q 14.890625 38.140625 10.796875 36.28125 
z
" id="DejaVuSans-35"/>
      </defs>
      <g transform="translate(57.493185 259.583473)scale(0.07 -0.07)">
       <use xlink:href="#DejaVuSans-32"/>
       <use x="63.623047" xlink:href="#DejaVuSans-38"/>
       <use x="127.246094" xlink:href="#DejaVuSans-35"/>
      </g>
     </g>
    </g>
    <g id="xtick_3">
     <g id="line2d_3">
      <g>
       <use style="stroke:#000000;stroke-width:0.8;" x="102.513637" xlink:href="#m1c82904eb9" y="247.264567"/>
      </g>
     </g>
     <g id="text_3">
      <!-- 286 -->
      <defs>
       <path d="M 33.015625 40.375 
Q 26.375 40.375 22.484375 35.828125 
Q 18.609375 31.296875 18.609375 23.390625 
Q 18.609375 15.53125 22.484375 10.953125 
Q 26.375 6.390625 33.015625 6.390625 
Q 39.65625 6.390625 43.53125 10.953125 
Q 47.40625 15.53125 47.40625 23.390625 
Q 47.40625 31.296875 43.53125 35.828125 
Q 39.65625 40.375 33.015625 40.375 
z
M 52.59375 71.296875 
L 52.59375 62.3125 
Q 48.875 64.0625 45.09375 64.984375 
Q 41.3125 65.921875 37.59375 65.921875 
Q 27.828125 65.921875 22.671875 59.328125 
Q 17.53125 52.734375 16.796875 39.40625 
Q 19.671875 43.65625 24.015625 45.921875 
Q 28.375 48.1875 33.59375 48.1875 
Q 44.578125 48.1875 50.953125 41.515625 
Q 57.328125 34.859375 57.328125 23.390625 
Q 57.328125 12.15625 50.6875 5.359375 
Q 44.046875 -1.421875 33.015625 -1.421875 
Q 20.359375 -1.421875 13.671875 8.265625 
Q 6.984375 17.96875 6.984375 36.375 
Q 6.984375 53.65625 15.1875 63.9375 
Q 23.390625 74.21875 37.203125 74.21875 
Q 40.921875 74.21875 44.703125 73.484375 
Q 48.484375 72.75 52.59375 71.296875 
z
" id="DejaVuSans-36"/>
      </defs>
      <g transform="translate(95.833012 259.583473)scale(0.07 -0.07)">
       <use xlink:href="#DejaVuSans-32"/>
       <use x="63.623047" xlink:href="#DejaVuSans-38"/>
       <use x="127.246094" xlink:href="#DejaVuSans-36"/>
      </g>
     </g>
    </g>
    <g id="xtick_4">
     <g id="line2d_4">
      <g>
       <use style="stroke:#000000;stroke-width:0.8;" x="140.853465" xlink:href="#m1c82904eb9" y="247.264567"/>
      </g>
     </g>
     <g id="text_4">
      <!-- 287 -->
      <defs>
       <path d="M 8.203125 72.90625 
L 55.078125 72.90625 
L 55.078125 68.703125 
L 28.609375 0 
L 18.3125 0 
L 43.21875 64.59375 
L 8.203125 64.59375 
z
" id="DejaVuSans-37"/>
      </defs>
      <g transform="translate(134.17284 259.583473)scale(0.07 -0.07)">
       <use xlink:href="#DejaVuSans-32"/>
       <use x="63.623047" xlink:href="#DejaVuSans-38"/>
       <use x="127.246094" xlink:href="#DejaVuSans-37"/>
      </g>
     </g>
    </g>
    <g id="xtick_5">
     <g id="line2d_5">
      <g>
       <use style="stroke:#000000;stroke-width:0.8;" x="179.193292" xlink:href="#m1c82904eb9" y="247.264567"/>
      </g>
     </g>
     <g id="text_5">
      <!-- 288 -->
      <g transform="translate(172.512667 259.583473)scale(0.07 -0.07)">
       <use xlink:href="#DejaVuSans-32"/>
       <use x="63.623047" xlink:href="#DejaVuSans-38"/>
       <use x="127.246094" xlink:href="#DejaVuSans-38"/>
      </g>
     </g>
    </g>
    <g id="xtick_6">
     <g id="line2d_6">
      <g>
       <use style="stroke:#000000;stroke-width:0.8;" x="217.533119" xlink:href="#m1c82904eb9" y="247.264567"/>
      </g>
     </g>
     <g id="text_6">
      <!-- 289 -->
      <defs>
       <path d="M 10.984375 1.515625 
L 10.984375 10.5 
Q 14.703125 8.734375 18.5 7.8125 
Q 22.3125 6.890625 25.984375 6.890625 
Q 35.75 6.890625 40.890625 13.453125 
Q 46.046875 20.015625 46.78125 33.40625 
Q 43.953125 29.203125 39.59375 26.953125 
Q 35.25 24.703125 29.984375 24.703125 
Q 19.046875 24.703125 12.671875 31.3125 
Q 6.296875 37.9375 6.296875 49.421875 
Q 6.296875 60.640625 12.9375 67.421875 
Q 19.578125 74.21875 30.609375 74.21875 
Q 43.265625 74.21875 49.921875 64.515625 
Q 56.59375 54.828125 56.59375 36.375 
Q 56.59375 19.140625 48.40625 8.859375 
Q 40.234375 -1.421875 26.421875 -1.421875 
Q 22.703125 -1.421875 18.890625 -0.6875 
Q 15.09375 0.046875 10.984375 1.515625 
z
M 30.609375 32.421875 
Q 37.25 32.421875 41.125 36.953125 
Q 45.015625 41.5 45.015625 49.421875 
Q 45.015625 57.28125 41.125 61.84375 
Q 37.25 66.40625 30.609375 66.40625 
Q 23.96875 66.40625 20.09375 61.84375 
Q 16.21875 57.28125 16.21875 49.421875 
Q 16.21875 41.5 20.09375 36.953125 
Q 23.96875 32.421875 30.609375 32.421875 
z
" id="DejaVuSans-39"/>
      </defs>
      <g transform="translate(210.852494 259.583473)scale(0.07 -0.07)">
       <use xlink:href="#DejaVuSans-32"/>
       <use x="63.623047" xlink:href="#DejaVuSans-38"/>
       <use x="127.246094" xlink:href="#DejaVuSans-39"/>
      </g>
     </g>
    </g>
    <g id="xtick_7">
     <g id="line2d_7">
      <defs>
       <path d="M 0 0 
L 0 2 
" id="mee842492b8" style="stroke:#000000;stroke-width:0.6;"/>
      </defs>
      <g>
       <use style="stroke:#000000;stroke-width:0.6;" x="33.501948" xlink:href="#mee842492b8" y="247.264567"/>
      </g>
     </g>
    </g>
    <g id="xtick_8">
     <g id="line2d_8">
      <g>
       <use style="stroke:#000000;stroke-width:0.6;" x="41.169914" xlink:href="#mee842492b8" y="247.264567"/>
      </g>
     </g>
    </g>
    <g id="xtick_9">
     <g id="line2d_9">
      <g>
       <use style="stroke:#000000;stroke-width:0.6;" x="48.837879" xlink:href="#mee842492b8" y="247.264567"/>
      </g>
     </g>
    </g>
    <g id="xtick_10">
     <g id="line2d_10">
      <g>
       <use style="stroke:#000000;stroke-width:0.6;" x="56.505845" xlink:href="#mee842492b8" y="247.264567"/>
      </g>
     </g>
    </g>
    <g id="xtick_11">
     <g id="line2d_11">
      <g>
       <use style="stroke:#000000;stroke-width:0.6;" x="71.841775" xlink:href="#mee842492b8" y="247.264567"/>
      </g>
     </g>
    </g>
    <g id="xtick_12">
     <g id="line2d_12">
      <g>
       <use style="stroke:#000000;stroke-width:0.6;" x="79.509741" xlink:href="#mee842492b8" y="247.264567"/>
      </g>
     </g>
    </g>
    <g id="xtick_13">
     <g id="line2d_13">
      <g>
       <use style="stroke:#000000;stroke-width:0.6;" x="87.177706" xlink:href="#mee842492b8" y="247.264567"/>
      </g>
     </g>
    </g>
    <g id="xtick_14">
     <g id="line2d_14">
      <g>
       <use style="stroke:#000000;stroke-width:0.6;" x="94.845672" xlink:href="#mee842492b8" y="247.264567"/>
      </g>
     </g>
    </g>
    <g id="xtick_15">
     <g id="line2d_15">
      <g>
       <use style="stroke:#000000;stroke-width:0.6;" x="110.181603" xlink:href="#mee842492b8" y="247.264567"/>
      </g>
     </g>
    </g>
    <g id="xtick_16">
     <g id="line2d_16">
      <g>
       <use style="stroke:#000000;stroke-width:0.6;" x="117.849568" xlink:href="#mee842492b8" y="247.264567"/>
      </g>
     </g>
    </g>
    <g id="xtick_17">
     <g id="line2d_17">
      <g>
       <use style="stroke:#000000;stroke-width:0.6;" x="125.517534" xlink:href="#mee842492b8" y="247.264567"/>
      </g>
     </g>
    </g>
    <g id="xtick_18">
     <g id="line2d_18">
      <g>
       <use style="stroke:#000000;stroke-width:0.6;" x="133.185499" xlink:href="#mee842492b8" y="247.264567"/>
      </g>
     </g>
    </g>
    <g id="xtick_19">
     <g id="line2d_19">
      <g>
       <use style="stroke:#000000;stroke-width:0.6;" x="148.52143" xlink:href="#mee842492b8" y="247.264567"/>
      </g>
     </g>
    </g>
    <g id="xtick_20">
     <g id="line2d_20">
      <g>
       <use style="stroke:#000000;stroke-width:0.6;" x="156.189395" xlink:href="#mee842492b8" y="247.264567"/>
      </g>
     </g>
    </g>
    <g id="xtick_21">
     <g id="line2d_21">
      <g>
       <use style="stroke:#000000;stroke-width:0.6;" x="163.857361" xlink:href="#mee842492b8" y="247.264567"/>
      </g>
     </g>
    </g>
    <g id="xtick_22">
     <g id="line2d_22">
      <g>
       <use style="stroke:#000000;stroke-width:0.6;" x="171.525326" xlink:href="#mee842492b8" y="247.264567"/>
      </g>
     </g>
    </g>
    <g id="xtick_23">
     <g id="line2d_23">
      <g>
       <use style="stroke:#000000;stroke-width:0.6;" x="186.861257" xlink:href="#mee842492b8" y="247.264567"/>
      </g>
     </g>
    </g>
    <g id="xtick_24">
     <g id="line2d_24">
      <g>
       <use style="stroke:#000000;stroke-width:0.6;" x="194.529223" xlink:href="#mee842492b8" y="247.264567"/>
      </g>
     </g>
    </g>
    <g id="xtick_25">
     <g id="line2d_25">
      <g>
       <use style="stroke:#000000;stroke-width:0.6;" x="202.197188" xlink:href="#mee842492b8" y="247.264567"/>
      </g>
     </g>
    </g>
    <g id="xtick_26">
     <g id="line2d_26">
      <g>
       <use style="stroke:#000000;stroke-width:0.6;" x="209.865154" xlink:href="#mee842492b8" y="247.264567"/>
      </g>
     </g>
    </g>
    <g id="text_7">
     <!-- binding energy / eV -->
     <defs>
      <path d="M 48.6875 27.296875 
Q 48.6875 37.203125 44.609375 42.84375 
Q 40.53125 48.484375 33.40625 48.484375 
Q 26.265625 48.484375 22.1875 42.84375 
Q 18.109375 37.203125 18.109375 27.296875 
Q 18.109375 17.390625 22.1875 11.75 
Q 26.265625 6.109375 33.40625 6.109375 
Q 40.53125 6.109375 44.609375 11.75 
Q 48.6875 17.390625 48.6875 27.296875 
z
M 18.109375 46.390625 
Q 20.953125 51.265625 25.265625 53.625 
Q 29.59375 56 35.59375 56 
Q 45.5625 56 51.78125 48.09375 
Q 58.015625 40.1875 58.015625 27.296875 
Q 58.015625 14.40625 51.78125 6.484375 
Q 45.5625 -1.421875 35.59375 -1.421875 
Q 29.59375 -1.421875 25.265625 0.953125 
Q 20.953125 3.328125 18.109375 8.203125 
L 18.109375 0 
L 9.078125 0 
L 9.078125 75.984375 
L 18.109375 75.984375 
z
" id="DejaVuSans-62"/>
      <path d="M 9.421875 54.6875 
L 18.40625 54.6875 
L 18.40625 0 
L 9.421875 0 
z
M 9.421875 75.984375 
L 18.40625 75.984375 
L 18.40625 64.59375 
L 9.421875 64.59375 
z
" id="DejaVuSans-69"/>
      <path d="M 54.890625 33.015625 
L 54.890625 0 
L 45.90625 0 
L 45.90625 32.71875 
Q 45.90625 40.484375 42.875 44.328125 
Q 39.84375 48.1875 33.796875 48.1875 
Q 26.515625 48.1875 22.3125 43.546875 
Q 18.109375 38.921875 18.109375 30.90625 
L 18.109375 0 
L 9.078125 0 
L 9.078125 54.6875 
L 18.109375 54.6875 
L 18.109375 46.1875 
Q 21.34375 51.125 25.703125 53.5625 
Q 30.078125 56 35.796875 56 
Q 45.21875 56 50.046875 50.171875 
Q 54.890625 44.34375 54.890625 33.015625 
z
" id="DejaVuSans-6e"/>
      <path d="M 45.40625 46.390625 
L 45.40625 75.984375 
L 54.390625 75.984375 
L 54.390625 0 
L 45.40625 0 
L 45.40625 8.203125 
Q 42.578125 3.328125 38.25 0.953125 
Q 33.9375 -1.421875 27.875 -1.421875 
Q 17.96875 -1.421875 11.734375 6.484375 
Q 5.515625 14.40625 5.515625 27.296875 
Q 5.515625 40.1875 11.734375 48.09375 
Q 17.96875 56 27.875 56 
Q 33.9375 56 38.25 53.625 
Q 42.578125 51.265625 45.40625 46.390625 
z
M 14.796875 27.296875 
Q 14.796875 17.390625 18.875 11.75 
Q 22.953125 6.109375 30.078125 6.109375 
Q 37.203125 6.109375 41.296875 11.75 
Q 45.40625 17.390625 45.40625 27.296875 
Q 45.40625 37.203125 41.296875 42.84375 
Q 37.203125 48.484375 30.078125 48.484375 
Q 22.953125 48.484375 18.875 42.84375 
Q 14.796875 37.203125 14.796875 27.296875 
z
" id="DejaVuSans-64"/>
      <path d="M 45.40625 27.984375 
Q 45.40625 37.75 41.375 43.109375 
Q 37.359375 48.484375 30.078125 48.484375 
Q 22.859375 48.484375 18.828125 43.109375 
Q 14.796875 37.75 14.796875 27.984375 
Q 14.796875 18.265625 18.828125 12.890625 
Q 22.859375 7.515625 30.078125 7.515625 
Q 37.359375 7.515625 41.375 12.890625 
Q 45.40625 18.265625 45.40625 27.984375 
z
M 54.390625 6.78125 
Q 54.390625 -7.171875 48.1875 -13.984375 
Q 42 -20.796875 29.203125 -20.796875 
Q 24.46875 -20.796875 20.265625 -20.09375 
Q 16.0625 -19.390625 12.109375 -17.921875 
L 12.109375 -9.1875 
Q 16.0625 -11.328125 19.921875 -12.34375 
Q 23.78125 -13.375 27.78125 -13.375 
Q 36.625 -13.375 41.015625 -8.765625 
Q 45.40625 -4.15625 45.40625 5.171875 
L 45.40625 9.625 
Q 42.625 4.78125 38.28125 2.390625 
Q 33.9375 0 27.875 0 
Q 17.828125 0 11.671875 7.65625 
Q 5.515625 15.328125 5.515625 27.984375 
Q 5.515625 40.671875 11.671875 48.328125 
Q 17.828125 56 27.875 56 
Q 33.9375 56 38.28125 53.609375 
Q 42.625 51.21875 45.40625 46.390625 
L 45.40625 54.6875 
L 54.390625 54.6875 
z
" id="DejaVuSans-67"/>
      <path id="DejaVuSans-20"/>
      <path d="M 56.203125 29.59375 
L 56.203125 25.203125 
L 14.890625 25.203125 
Q 15.484375 15.921875 20.484375 11.0625 
Q 25.484375 6.203125 34.421875 6.203125 
Q 39.59375 6.203125 44.453125 7.46875 
Q 49.3125 8.734375 54.109375 11.28125 
L 54.109375 2.78125 
Q 49.265625 0.734375 44.1875 -0.34375 
Q 39.109375 -1.421875 33.890625 -1.421875 
Q 20.796875 -1.421875 13.15625 6.1875 
Q 5.515625 13.8125 5.515625 26.8125 
Q 5.515625 40.234375 12.765625 48.109375 
Q 20.015625 56 32.328125 56 
Q 43.359375 56 49.78125 48.890625 
Q 56.203125 41.796875 56.203125 29.59375 
z
M 47.21875 32.234375 
Q 47.125 39.59375 43.09375 43.984375 
Q 39.0625 48.390625 32.421875 48.390625 
Q 24.90625 48.390625 20.390625 44.140625 
Q 15.875 39.890625 15.1875 32.171875 
z
" id="DejaVuSans-65"/>
      <path d="M 41.109375 46.296875 
Q 39.59375 47.171875 37.8125 47.578125 
Q 36.03125 48 33.890625 48 
Q 26.265625 48 22.1875 43.046875 
Q 18.109375 38.09375 18.109375 28.8125 
L 18.109375 0 
L 9.078125 0 
L 9.078125 54.6875 
L 18.109375 54.6875 
L 18.109375 46.1875 
Q 20.953125 51.171875 25.484375 53.578125 
Q 30.03125 56 36.53125 56 
Q 37.453125 56 38.578125 55.875 
Q 39.703125 55.765625 41.0625 55.515625 
z
" id="DejaVuSans-72"/>
      <path d="M 32.171875 -5.078125 
Q 28.375 -14.84375 24.75 -17.8125 
Q 21.140625 -20.796875 15.09375 -20.796875 
L 7.90625 -20.796875 
L 7.90625 -13.28125 
L 13.1875 -13.28125 
Q 16.890625 -13.28125 18.9375 -11.515625 
Q 21 -9.765625 23.484375 -3.21875 
L 25.09375 0.875 
L 2.984375 54.6875 
L 12.5 54.6875 
L 29.59375 11.921875 
L 46.6875 54.6875 
L 56.203125 54.6875 
z
" id="DejaVuSans-79"/>
      <path d="M 25.390625 72.90625 
L 33.6875 72.90625 
L 8.296875 -9.28125 
L 0 -9.28125 
z
" id="DejaVuSans-2f"/>
      <path d="M 28.609375 0 
L 0.78125 72.90625 
L 11.078125 72.90625 
L 34.1875 11.53125 
L 57.328125 72.90625 
L 67.578125 72.90625 
L 39.796875 0 
z
" id="DejaVuSans-56"/>
     </defs>
     <g transform="translate(82.406051 271.118004)scale(0.08 -0.08)">
      <use xlink:href="#DejaVuSans-62"/>
      <use x="63.476562" xlink:href="#DejaVuSans-69"/>
      <use x="91.259766" xlink:href="#DejaVuSans-6e"/>
      <use x="154.638672" xlink:href="#DejaVuSans-64"/>
      <use x="218.115234" xlink:href="#DejaVuSans-69"/>
      <use x="245.898438" xlink:href="#DejaVuSans-6e"/>
      <use x="309.277344" xlink:href="#DejaVuSans-67"/>
      <use x="372.753906" xlink:href="#DejaVuSans-20"/>
      <use x="404.541016" xlink:href="#DejaVuSans-65"/>
      <use x="466.064453" xlink:href="#DejaVuSans-6e"/>
      <use x="529.443359" xlink:href="#DejaVuSans-65"/>
      <use x="590.966797" xlink:href="#DejaVuSans-72"/>
      <use x="632.064453" xlink:href="#DejaVuSans-67"/>
      <use x="695.541016" xlink:href="#DejaVuSans-79"/>
      <use x="754.720703" xlink:href="#DejaVuSans-20"/>
      <use x="786.507812" xlink:href="#DejaVuSans-2f"/>
      <use x="820.199219" xlink:href="#DejaVuSans-20"/>
      <use x="851.986328" xlink:href="#DejaVuSans-65"/>
      <use x="913.509766" xlink:href="#DejaVuSans-56"/>
     </g>
    </g>
   </g>
   <g id="matplotlib.axis_2">
    <g id="text_8">
     <!-- intensity / arb. units -->
     <defs>
      <path d="M 18.3125 70.21875 
L 18.3125 54.6875 
L 36.8125 54.6875 
L 36.8125 47.703125 
L 18.3125 47.703125 
L 18.3125 18.015625 
Q 18.3125 11.328125 20.140625 9.421875 
Q 21.96875 7.515625 27.59375 7.515625 
L 36.8125 7.515625 
L 36.8125 0 
L 27.59375 0 
Q 17.1875 0 13.234375 3.875 
Q 9.28125 7.765625 9.28125 18.015625 
L 9.28125 47.703125 
L 2.6875 47.703125 
L 2.6875 54.6875 
L 9.28125 54.6875 
L 9.28125 70.21875 
z
" id="DejaVuSans-74"/>
      <path d="M 44.28125 53.078125 
L 44.28125 44.578125 
Q 40.484375 46.53125 36.375 47.5 
Q 32.28125 48.484375 27.875 48.484375 
Q 21.1875 48.484375 17.84375 46.4375 
Q 14.5 44.390625 14.5 40.28125 
Q 14.5 37.15625 16.890625 35.375 
Q 19.28125 33.59375 26.515625 31.984375 
L 29.59375 31.296875 
Q 39.15625 29.25 43.1875 25.515625 
Q 47.21875 21.78125 47.21875 15.09375 
Q 47.21875 7.46875 41.1875 3.015625 
Q 35.15625 -1.421875 24.609375 -1.421875 
Q 20.21875 -1.421875 15.453125 -0.5625 
Q 10.6875 0.296875 5.421875 2 
L 5.421875 11.28125 
Q 10.40625 8.6875 15.234375 7.390625 
Q 20.0625 6.109375 24.8125 6.109375 
Q 31.15625 6.109375 34.5625 8.28125 
Q 37.984375 10.453125 37.984375 14.40625 
Q 37.984375 18.0625 35.515625 20.015625 
Q 33.0625 21.96875 24.703125 23.78125 
L 21.578125 24.515625 
Q 13.234375 26.265625 9.515625 29.90625 
Q 5.8125 33.546875 5.8125 39.890625 
Q 5.8125 47.609375 11.28125 51.796875 
Q 16.75 56 26.8125 56 
Q 31.78125 56 36.171875 55.265625 
Q 40.578125 54.546875 44.28125 53.078125 
z
" id="DejaVuSans-73"/>
      <path d="M 34.28125 27.484375 
Q 23.390625 27.484375 19.1875 25 
Q 14.984375 22.515625 14.984375 16.5 
Q 14.984375 11.71875 18.140625 8.90625 
Q 21.296875 6.109375 26.703125 6.109375 
Q 34.1875 6.109375 38.703125 11.40625 
Q 43.21875 16.703125 43.21875 25.484375 
L 43.21875 27.484375 
z
M 52.203125 31.203125 
L 52.203125 0 
L 43.21875 0 
L 43.21875 8.296875 
Q 40.140625 3.328125 35.546875 0.953125 
Q 30.953125 -1.421875 24.3125 -1.421875 
Q 15.921875 -1.421875 10.953125 3.296875 
Q 6 8.015625 6 15.921875 
Q 6 25.140625 12.171875 29.828125 
Q 18.359375 34.515625 30.609375 34.515625 
L 43.21875 34.515625 
L 43.21875 35.40625 
Q 43.21875 41.609375 39.140625 45 
Q 35.0625 48.390625 27.6875 48.390625 
Q 23 48.390625 18.546875 47.265625 
Q 14.109375 46.140625 10.015625 43.890625 
L 10.015625 52.203125 
Q 14.9375 54.109375 19.578125 55.046875 
Q 24.21875 56 28.609375 56 
Q 40.484375 56 46.34375 49.84375 
Q 52.203125 43.703125 52.203125 31.203125 
z
" id="DejaVuSans-61"/>
      <path d="M 10.6875 12.40625 
L 21 12.40625 
L 21 0 
L 10.6875 0 
z
" id="DejaVuSans-2e"/>
      <path d="M 8.5 21.578125 
L 8.5 54.6875 
L 17.484375 54.6875 
L 17.484375 21.921875 
Q 17.484375 14.15625 20.5 10.265625 
Q 23.53125 6.390625 29.59375 6.390625 
Q 36.859375 6.390625 41.078125 11.03125 
Q 45.3125 15.671875 45.3125 23.6875 
L 45.3125 54.6875 
L 54.296875 54.6875 
L 54.296875 0 
L 45.3125 0 
L 45.3125 8.40625 
Q 42.046875 3.421875 37.71875 1 
Q 33.40625 -1.421875 27.6875 -1.421875 
Q 18.265625 -1.421875 13.375 4.4375 
Q 8.5 10.296875 8.5 21.578125 
z
M 31.109375 56 
z
" id="DejaVuSans-75"/>
     </defs>
     <g transform="translate(16.33625 170.534158)rotate(-90)scale(0.08 -0.08)">
      <use xlink:href="#DejaVuSans-69"/>
      <use x="27.783203" xlink:href="#DejaVuSans-6e"/>
      <use x="91.162109" xlink:href="#DejaVuSans-74"/>
      <use x="130.371094" xlink:href="#DejaVuSans-65"/>
      <use x="191.894531" xlink:href="#DejaVuSans-6e"/>
      <use x="255.273438" xlink:href="#DejaVuSans-73"/>
      <use x="307.373047" xlink:href="#DejaVuSans-69"/>
      <use x="335.15625" xlink:href="#DejaVuSans-74"/>
      <use x="374.365234" xlink:href="#DejaVuSans-79"/>
      <use x="433.544922" xlink:href="#DejaVuSans-20"/>
      <use x="465.332031" xlink:href="#DejaVuSans-2f"/>
      <use x="499.023438" xlink:href="#DejaVuSans-20"/>
      <use x="530.810547" xlink:href="#DejaVuSans-61"/>
      <use x="592.089844" xlink:href="#DejaVuSans-72"/>
      <use x="633.203125" xlink:href="#DejaVuSans-62"/>
      <use x="696.679688" xlink:href="#DejaVuSans-2e"/>
      <use x="728.466797" xlink:href="#DejaVuSans-20"/>
      <use x="760.253906" xlink:href="#DejaVuSans-75"/>
      <use x="823.632812" xlink:href="#DejaVuSans-6e"/>
      <use x="887.011719" xlink:href="#DejaVuSans-69"/>
      <use x="914.794922" xlink:href="#DejaVuSans-74"/>
      <use x="954.003906" xlink:href="#DejaVuSans-73"/>
     </g>
    </g>
   </g>
   <g id="line2d_27">
    <path clip-path="url(#peac75794ca)" d="M -1 239.93104 
L 11.814718 239.7784 
L 18.410549 239.530684 
L 25.006379 239.047062 
L 29.953252 238.467806 
L 34.900125 237.675294 
L 41.495956 236.320955 
L 53.038659 233.760717 
L 57.985532 232.969719 
L 61.283447 232.644978 
L 64.581362 232.502519 
L 67.879278 232.535012 
L 72.826151 232.834976 
L 81.070939 233.433004 
L 84.368854 233.440611 
L 87.666769 233.170285 
L 90.964684 232.538109 
L 94.2626 231.482967 
L 97.560515 229.976032 
L 100.85843 228.028474 
L 104.156345 225.696151 
L 107.454261 223.079944 
L 115.699049 216.289242 
L 118.996964 213.938388 
L 120.645922 212.928072 
L 122.294879 212.052038 
L 123.943837 211.325008 
L 125.592795 210.758407 
L 127.241752 210.360043 
L 128.89071 210.133915 
L 130.539668 210.080156 
L 132.188625 210.195134 
L 133.837583 210.471678 
L 135.48654 210.899441 
L 137.135498 211.465368 
L 140.433413 212.949325 
L 143.731329 214.787154 
L 148.678202 217.902047 
L 155.274032 222.121602 
L 160.220905 225.030004 
L 165.167778 227.633055 
L 170.114651 229.95063 
L 175.061524 232.02245 
L 180.008396 233.86623 
L 184.955269 235.469685 
L 189.902142 236.806981 
L 194.849015 237.861666 
L 199.795888 238.641395 
L 204.742761 239.179188 
L 211.338591 239.606089 
L 219.58338 239.845066 
L 232.775041 239.942212 
L 236.275591 239.947859 
L 236.275591 239.947859 
" style="fill:none;stroke:#000000;stroke-dasharray:1,3,1,1,3,1;stroke-dashoffset:0;"/>
   </g>
   <g id="line2d_28">
    <path clip-path="url(#peac75794ca)" d="M -1 203.377186 
L 11.823026 203.224347 
L 19.46555 202.918115 
L 25.579569 202.436281 
L 30.165084 201.883714 
L 34.750598 201.146437 
L 40.864617 199.900481 
L 54.621161 196.827289 
L 59.206675 196.086195 
L 63.79219 195.601489 
L 69.906209 195.275498 
L 76.020228 194.975989 
L 79.077238 194.660608 
L 82.134248 194.129837 
L 85.191257 193.312617 
L 88.248267 192.155111 
L 91.305276 190.629124 
L 94.362286 188.738619 
L 97.419296 186.523369 
L 102.00481 182.766174 
L 108.11883 177.574725 
L 111.175839 175.223268 
L 114.232849 173.227884 
L 115.761354 172.403949 
L 117.289858 171.714 
L 118.818363 171.169041 
L 120.346868 170.777705 
L 121.875373 170.546092 
L 123.403878 170.477673 
L 124.932383 170.57326 
L 126.460887 170.83105 
L 127.989392 171.246726 
L 129.517897 171.813619 
L 131.046402 172.522923 
L 134.103411 174.324421 
L 137.160421 176.548487 
L 140.217431 179.077105 
L 146.33145 184.560136 
L 150.916964 188.608589 
L 153.973974 191.111172 
L 157.030984 193.386514 
L 160.087993 195.398783 
L 163.145003 197.132042 
L 166.202013 198.587363 
L 169.259022 199.779215 
L 172.316032 200.731592 
L 175.373042 201.474278 
L 178.430051 202.039536 
L 183.015566 202.624316 
L 187.60108 202.979164 
L 193.715099 203.227912 
L 202.886128 203.362141 
L 227.342205 203.399728 
L 236.275591 203.399936 
L 236.275591 203.399936 
" style="fill:none;stroke:#000000;stroke-dasharray:1,0;stroke-dashoffset:0;"/>
   </g>
   <g id="line2d_29">
    <path clip-path="url(#peac75794ca)" d="M -1 166.8234 
L 10.995555 166.690187 
L 19.352478 166.370914 
L 24.366631 165.999601 
L 29.380785 165.437833 
L 34.394938 164.658056 
L 39.409092 163.670902 
L 56.122937 160.113095 
L 59.465706 159.683079 
L 62.808475 159.434731 
L 66.151244 159.375453 
L 69.494013 159.48922 
L 74.508167 159.89125 
L 81.193705 160.499215 
L 84.536474 160.64702 
L 87.879243 160.579223 
L 91.222012 160.224528 
L 94.564781 159.52959 
L 97.90755 158.464168 
L 101.250319 157.024726 
L 104.593088 155.236463 
L 107.935857 153.153673 
L 112.95001 149.663014 
L 119.635548 144.924691 
L 122.978318 142.81216 
L 126.321087 141.040619 
L 127.992471 140.316871 
L 129.663856 139.715879 
L 131.33524 139.245989 
L 133.006625 138.913097 
L 134.678009 138.720497 
L 136.349394 138.668814 
L 138.020778 138.756029 
L 139.692163 138.977585 
L 141.363547 139.326591 
L 144.706316 140.369448 
L 148.049085 141.794866 
L 151.391854 143.498941 
L 156.406008 146.351516 
L 166.434315 152.146245 
L 171.448468 154.792409 
L 176.462622 157.203484 
L 181.476775 159.365158 
L 186.490929 161.257988 
L 191.505083 162.855724 
L 196.519236 164.139011 
L 201.53339 165.109966 
L 206.547543 165.797415 
L 211.561697 166.251085 
L 218.247235 166.593334 
L 226.604157 166.772633 
L 236.275591 166.83208 
L 236.275591 166.83208 
" style="fill:none;stroke:#000000;stroke-dasharray:1,1,1,1,3,1;stroke-dashoffset:0;"/>
   </g>
   <g id="line2d_30">
    <path clip-path="url(#peac75794ca)" d="M -1 130.269499 
L 11.207339 130.131441 
L 19.162853 129.827499 
L 25.527264 129.332123 
L 30.300573 128.752126 
L 35.073881 127.967647 
L 39.84719 126.988011 
L 47.802704 125.073552 
L 55.758218 123.184132 
L 62.122629 121.939842 
L 76.442555 119.450019 
L 79.62476 118.637138 
L 82.806966 117.622594 
L 85.989172 116.38406 
L 89.171377 114.925702 
L 93.944686 112.405928 
L 103.491303 107.099618 
L 106.673509 105.600156 
L 109.855714 104.387512 
L 113.03792 103.529013 
L 116.220125 103.067116 
L 119.402331 103.016969 
L 122.584537 103.36711 
L 125.766742 104.08298 
L 128.948948 105.112581 
L 132.131154 106.393404 
L 136.904462 108.642387 
L 144.859976 112.786462 
L 154.406593 117.694648 
L 160.771005 120.697819 
L 165.544313 122.74494 
L 170.317622 124.5704 
L 175.09093 126.134003 
L 179.864239 127.409051 
L 184.637547 128.392207 
L 189.410856 129.105728 
L 194.184164 129.59172 
L 200.548576 129.975172 
L 208.50409 130.190786 
L 222.824015 130.283741 
L 236.275591 130.291771 
L 236.275591 130.291771 
" style="fill:none;stroke:#000000;stroke-dasharray:3,1,3,1;stroke-dashoffset:0;"/>
   </g>
   <g id="line2d_31">
    <path clip-path="url(#peac75794ca)" d="M -1 93.715732 
L 11.801606 93.563171 
L 19.632516 93.245492 
L 25.897243 92.737413 
L 30.595789 92.148605 
L 35.294335 91.355741 
L 39.992881 90.36425 
L 46.257609 88.806516 
L 61.919428 84.750726 
L 71.31652 82.362722 
L 76.015066 80.882264 
L 79.14743 79.695916 
L 82.279793 78.32396 
L 85.412157 76.769457 
L 90.110703 74.169361 
L 97.941613 69.716658 
L 101.073977 68.172682 
L 104.206341 66.912186 
L 107.338705 66.015535 
L 110.471068 65.537848 
L 112.03725 65.465037 
L 115.169614 65.651717 
L 118.301978 66.259443 
L 121.434342 67.239028 
L 124.566706 68.522209 
L 127.69907 70.030789 
L 132.397616 72.545693 
L 143.360889 78.553116 
L 149.625617 81.683119 
L 155.890345 84.516744 
L 160.588891 86.435988 
L 165.287436 88.153595 
L 169.985982 89.637571 
L 174.684528 90.861707 
L 179.383074 91.818137 
L 184.08162 92.52228 
L 188.780166 93.009298 
L 195.044893 93.400843 
L 202.875803 93.626864 
L 215.405259 93.724942 
L 236.275591 93.738286 
L 236.275591 93.738286 
" style="fill:none;stroke:#000000;stroke-dasharray:3,1,1,1;stroke-dashoffset:0;"/>
   </g>
   <g id="line2d_32">
    <path clip-path="url(#peac75794ca)" d="M -1 57.161821 
L 11.207339 57.023763 
L 19.162853 56.719822 
L 25.527264 56.224446 
L 30.300573 55.644449 
L 35.073881 54.85997 
L 39.84719 53.880334 
L 47.802704 51.965875 
L 55.758218 50.076455 
L 62.122629 48.832165 
L 76.442555 46.342342 
L 79.62476 45.529461 
L 82.806966 44.514917 
L 85.989172 43.276382 
L 89.171377 41.818025 
L 93.944686 39.298251 
L 103.491303 33.991941 
L 106.673509 32.492478 
L 109.855714 31.279834 
L 113.03792 30.421336 
L 116.220125 29.959439 
L 119.402331 29.909292 
L 122.584537 30.259433 
L 125.766742 30.975303 
L 128.948948 32.004904 
L 132.131154 33.285727 
L 136.904462 35.53471 
L 144.859976 39.678785 
L 154.406593 44.586971 
L 160.771005 47.590141 
L 165.544313 49.637263 
L 170.317622 51.462723 
L 175.09093 53.026326 
L 179.864239 54.301373 
L 184.637547 55.284529 
L 189.410856 55.998051 
L 194.184164 56.484043 
L 200.548576 56.867495 
L 208.50409 57.083109 
L 222.824015 57.176064 
L 236.275591 57.184094 
L 236.275591 57.184094 
" style="fill:none;stroke:#000000;stroke-dasharray:1,1;stroke-dashoffset:0;"/>
   </g>
   <g id="patch_3">
    <path d="M 22 247.264567 
L 22 13.32 
" style="fill:none;stroke:#000000;stroke-linecap:square;stroke-linejoin:miter;stroke-width:0.8;"/>
   </g>
   <g id="patch_4">
    <path d="M 221.367102 247.264567 
L 221.367102 13.32 
" style="fill:none;stroke:#000000;stroke-linecap:square;stroke-linejoin:miter;stroke-width:0.8;"/>
   </g>
   <g id="patch_5">
    <path d="M 22 247.264567 
L 221.367102 247.264567 
" style="fill:none;stroke:#000000;stroke-linecap:square;stroke-linejoin:miter;stroke-width:0.8;"/>
   </g>
   <g id="patch_6">
    <path d="M 22 13.32 
L 221.367102 13.32 
" style="fill:none;stroke:#000000;stroke-linecap:square;stroke-linejoin:miter;stroke-width:0.8;"/>
   </g>
   <g id="text_9">
    <g id="patch_7">
     <path d="M 64.17381 230.948514 
C 65.629071 230.948514 67.024923 230.370333 68.053948 229.341308 
C 69.082973 228.312283 69.661154 226.916431 69.661154 225.46117 
C 69.661154 224.00591 69.082973 222.610057 68.053948 221.581032 
C 67.024923 220.552008 65.629071 219.973826 64.17381 219.973826 
C 62.718549 219.973826 61.322697 220.552008 60.293672 221.581032 
C 59.264647 222.610057 58.686466 224.00591 58.686466 225.46117 
C 58.686466 226.916431 59.264647 228.312283 60.293672 229.341308 
C 61.322697 230.370333 62.718549 230.948514 64.17381 230.948514 
z
" style="fill:#cccccc;opacity:0.05;stroke:#000000;stroke-linejoin:miter;"/>
    </g>
    <!-- 6 -->
    <g transform="translate(61.946935 227.392733)scale(0.07 -0.07)">
     <use xlink:href="#DejaVuSans-36"/>
    </g>
   </g>
   <g id="text_10">
    <g id="patch_8">
     <path d="M 136.08399 209.527528 
C 137.539251 209.527528 138.935103 208.949347 139.964128 207.920322 
C 140.993153 206.891298 141.571334 205.495445 141.571334 204.040184 
C 141.571334 202.584924 140.993153 201.189071 139.964128 200.160046 
C 138.935103 199.131022 137.539251 198.552841 136.08399 198.552841 
C 134.628729 198.552841 133.232877 199.131022 132.203852 200.160046 
C 131.174827 201.189071 130.596646 202.584924 130.596646 204.040184 
C 130.596646 205.495445 131.174827 206.891298 132.203852 207.920322 
C 133.232877 208.949347 134.628729 209.527528 136.08399 209.527528 
z
" style="fill:#cccccc;opacity:0.05;stroke:#000000;stroke-linejoin:miter;"/>
    </g>
    <!-- 5 -->
    <g style="fill:#005ac8;" transform="translate(133.857115 205.971747)scale(0.07 -0.07)">
     <use xlink:href="#DejaVuSans-35"/>
    </g>
   </g>
   <g id="text_11">
    <g id="patch_9">
     <path d="M 163.926373 225.446479 
C 165.381633 225.446479 166.777486 224.868298 167.806511 223.839273 
C 168.835535 222.810248 169.413716 221.414396 169.413716 219.959135 
C 169.413716 218.503874 168.835535 217.108022 167.806511 216.078997 
C 166.777486 215.049972 165.381633 214.471791 163.926373 214.471791 
C 162.471112 214.471791 161.075259 215.049972 160.046235 216.078997 
C 159.01721 217.108022 158.439029 218.503874 158.439029 219.959135 
C 158.439029 221.414396 159.01721 222.810248 160.046235 223.839273 
C 161.075259 224.868298 162.471112 225.446479 163.926373 225.446479 
z
" style="fill:#cccccc;opacity:0.05;stroke:#000000;stroke-linejoin:miter;"/>
    </g>
    <!-- 1 -->
    <defs>
     <path d="M 12.40625 8.296875 
L 28.515625 8.296875 
L 28.515625 63.921875 
L 10.984375 60.40625 
L 10.984375 69.390625 
L 28.421875 72.90625 
L 38.28125 72.90625 
L 38.28125 8.296875 
L 54.390625 8.296875 
L 54.390625 0 
L 12.40625 0 
z
" id="DejaVuSans-31"/>
    </defs>
    <g transform="translate(161.699498 221.890698)scale(0.07 -0.07)">
     <use xlink:href="#DejaVuSans-31"/>
    </g>
   </g>
   <g id="text_12">
    <g id="patch_10">
     <path d="M 125.444688 209.240754 
C 126.899949 209.240754 128.295801 208.662573 129.324826 207.633549 
C 130.353851 206.604524 130.932032 205.208671 130.932032 203.753411 
C 130.932032 202.29815 130.353851 200.902297 129.324826 199.873273 
C 128.295801 198.844248 126.899949 198.266067 125.444688 198.266067 
C 123.989427 198.266067 122.593575 198.844248 121.56455 199.873273 
C 120.535525 200.902297 119.957344 202.29815 119.957344 203.753411 
C 119.957344 205.208671 120.535525 206.604524 121.56455 207.633549 
C 122.593575 208.662573 123.989427 209.240754 125.444688 209.240754 
z
" style="fill:#cccccc;opacity:0.05;stroke:#000000;stroke-linejoin:miter;"/>
    </g>
    <!-- 2 -->
    <g transform="translate(123.217813 205.684973)scale(0.07 -0.07)">
     <use xlink:href="#DejaVuSans-32"/>
    </g>
   </g>
   <g id="text_13">
    <g id="patch_11">
     <path d="M 124.394177 223.117109 
C 125.849437 223.117109 127.24529 222.538928 128.274315 221.509903 
C 129.303339 220.480879 129.88152 219.085026 129.88152 217.629765 
C 129.88152 216.174505 129.303339 214.778652 128.274315 213.749627 
C 127.24529 212.720603 125.849437 212.142422 124.394177 212.142422 
C 122.938916 212.142422 121.543063 212.720603 120.514039 213.749627 
C 119.485014 214.778652 118.906833 216.174505 118.906833 217.629765 
C 118.906833 219.085026 119.485014 220.480879 120.514039 221.509903 
C 121.543063 222.538928 122.938916 223.117109 124.394177 223.117109 
z
" style="fill:#cccccc;opacity:0.05;stroke:#000000;stroke-linejoin:miter;"/>
    </g>
    <!-- 3 -->
    <defs>
     <path d="M 40.578125 39.3125 
Q 47.65625 37.796875 51.625 33 
Q 55.609375 28.21875 55.609375 21.1875 
Q 55.609375 10.40625 48.1875 4.484375 
Q 40.765625 -1.421875 27.09375 -1.421875 
Q 22.515625 -1.421875 17.65625 -0.515625 
Q 12.796875 0.390625 7.625 2.203125 
L 7.625 11.71875 
Q 11.71875 9.328125 16.59375 8.109375 
Q 21.484375 6.890625 26.8125 6.890625 
Q 36.078125 6.890625 40.9375 10.546875 
Q 45.796875 14.203125 45.796875 21.1875 
Q 45.796875 27.640625 41.28125 31.265625 
Q 36.765625 34.90625 28.71875 34.90625 
L 20.21875 34.90625 
L 20.21875 43.015625 
L 29.109375 43.015625 
Q 36.375 43.015625 40.234375 45.921875 
Q 44.09375 48.828125 44.09375 54.296875 
Q 44.09375 59.90625 40.109375 62.90625 
Q 36.140625 65.921875 28.71875 65.921875 
Q 24.65625 65.921875 20.015625 65.03125 
Q 15.375 64.15625 9.8125 62.3125 
L 9.8125 71.09375 
Q 15.4375 72.65625 20.34375 73.4375 
Q 25.25 74.21875 29.59375 74.21875 
Q 40.828125 74.21875 47.359375 69.109375 
Q 53.90625 64.015625 53.90625 55.328125 
Q 53.90625 49.265625 50.4375 45.09375 
Q 46.96875 40.921875 40.578125 39.3125 
z
" id="DejaVuSans-33"/>
    </defs>
    <g transform="translate(122.167302 219.561328)scale(0.07 -0.07)">
     <use xlink:href="#DejaVuSans-33"/>
    </g>
   </g>
   <g id="text_14">
    <g id="patch_12">
     <path d="M 127.829425 235.747695 
C 129.284686 235.747695 130.680539 235.169514 131.709563 234.14049 
C 132.738588 233.111465 133.316769 231.715612 133.316769 230.260352 
C 133.316769 228.805091 132.738588 227.409238 131.709563 226.380214 
C 130.680539 225.351189 129.284686 224.773008 127.829425 224.773008 
C 126.374165 224.773008 124.978312 225.351189 123.949287 226.380214 
C 122.920263 227.409238 122.342081 228.805091 122.342081 230.260352 
C 122.342081 231.715612 122.920263 233.111465 123.949287 234.14049 
C 124.978312 235.169514 126.374165 235.747695 127.829425 235.747695 
z
" style="fill:#cccccc;opacity:0.05;stroke:#000000;stroke-linejoin:miter;"/>
    </g>
    <!-- 4 -->
    <g style="fill:#fa5078;" transform="translate(125.60255 232.191914)scale(0.07 -0.07)">
     <use xlink:href="#DejaVuSans-34"/>
    </g>
   </g>
   <g id="text_15">
    <g id="patch_13">
     <path d="M 64.17381 194.010477 
C 65.629071 194.010477 67.024923 193.432295 68.053948 192.403271 
C 69.082973 191.374246 69.661154 189.978393 69.661154 188.523133 
C 69.661154 187.067872 69.082973 185.672019 68.053948 184.642995 
C 67.024923 183.61397 65.629071 183.035789 64.17381 183.035789 
C 62.718549 183.035789 61.322697 183.61397 60.293672 184.642995 
C 59.264647 185.672019 58.686466 187.067872 58.686466 188.523133 
C 58.686466 189.978393 59.264647 191.374246 60.293672 192.403271 
C 61.322697 193.432295 62.718549 194.010477 64.17381 194.010477 
z
" style="fill:#cccccc;opacity:0.05;stroke:#000000;stroke-linejoin:miter;"/>
    </g>
    <!-- 6 -->
    <g transform="translate(61.946935 190.454695)scale(0.07 -0.07)">
     <use xlink:href="#DejaVuSans-36"/>
    </g>
   </g>
   <g id="text_16">
    <g id="patch_14">
     <path d="M 128.093817 169.718975 
C 129.549077 169.718975 130.94493 169.140794 131.973955 168.111769 
C 133.002979 167.082744 133.58116 165.686892 133.58116 164.231631 
C 133.58116 162.77637 133.002979 161.380518 131.973955 160.351493 
C 130.94493 159.322468 129.549077 158.744287 128.093817 158.744287 
C 126.638556 158.744287 125.242703 159.322468 124.213679 160.351493 
C 123.184654 161.380518 122.606473 162.77637 122.606473 164.231631 
C 122.606473 165.686892 123.184654 167.082744 124.213679 168.111769 
C 125.242703 169.140794 126.638556 169.718975 128.093817 169.718975 
z
" style="fill:#cccccc;opacity:0.05;stroke:#000000;stroke-linejoin:miter;"/>
    </g>
    <!-- 5 -->
    <g style="fill:#005ac8;" transform="translate(125.866942 166.163193)scale(0.07 -0.07)">
     <use xlink:href="#DejaVuSans-35"/>
    </g>
   </g>
   <g id="text_17">
    <g id="patch_15">
     <path d="M 139.83581 177.187262 
C 141.291071 177.187262 142.686924 176.60908 143.715948 175.580056 
C 144.744973 174.551031 145.323154 173.155178 145.323154 171.699918 
C 145.323154 170.244657 144.744973 168.848804 143.715948 167.81978 
C 142.686924 166.790755 141.291071 166.212574 139.83581 166.212574 
C 138.38055 166.212574 136.984697 166.790755 135.955672 167.81978 
C 134.926648 168.848804 134.348467 170.244657 134.348467 171.699918 
C 134.348467 173.155178 134.926648 174.551031 135.955672 175.580056 
C 136.984697 176.60908 138.38055 177.187262 139.83581 177.187262 
z
" style="fill:#cccccc;opacity:0.05;stroke:#000000;stroke-linejoin:miter;"/>
    </g>
    <!-- 1 -->
    <g transform="translate(137.608935 173.63148)scale(0.07 -0.07)">
     <use xlink:href="#DejaVuSans-31"/>
    </g>
   </g>
   <g id="text_18">
    <g id="patch_16">
     <path d="M 115.273132 171.091391 
C 116.728392 171.091391 118.124245 170.51321 119.15327 169.484185 
C 120.182294 168.455161 120.760476 167.059308 120.760476 165.604048 
C 120.760476 164.148787 120.182294 162.752934 119.15327 161.72391 
C 118.124245 160.694885 116.728392 160.116704 115.273132 160.116704 
C 113.817871 160.116704 112.422018 160.694885 111.392994 161.72391 
C 110.363969 162.752934 109.785788 164.148787 109.785788 165.604048 
C 109.785788 167.059308 110.363969 168.455161 111.392994 169.484185 
C 112.422018 170.51321 113.817871 171.091391 115.273132 171.091391 
z
" style="fill:#cccccc;opacity:0.05;stroke:#000000;stroke-linejoin:miter;"/>
    </g>
    <!-- 2 -->
    <g transform="translate(113.046257 167.53561)scale(0.07 -0.07)">
     <use xlink:href="#DejaVuSans-32"/>
    </g>
   </g>
   <g id="text_19">
    <g id="patch_17">
     <path d="M 115.568655 184.463857 
C 117.023916 184.463857 118.419769 183.885676 119.448793 182.856652 
C 120.477818 181.827627 121.055999 180.431774 121.055999 178.976514 
C 121.055999 177.521253 120.477818 176.1254 119.448793 175.096376 
C 118.419769 174.067351 117.023916 173.48917 115.568655 173.48917 
C 114.113395 173.48917 112.717542 174.067351 111.688517 175.096376 
C 110.659493 176.1254 110.081311 177.521253 110.081311 178.976514 
C 110.081311 180.431774 110.659493 181.827627 111.688517 182.856652 
C 112.717542 183.885676 114.113395 184.463857 115.568655 184.463857 
z
" style="fill:#cccccc;opacity:0.05;stroke:#000000;stroke-linejoin:miter;"/>
    </g>
    <!-- 3 -->
    <g transform="translate(113.34178 180.908076)scale(0.07 -0.07)">
     <use xlink:href="#DejaVuSans-33"/>
    </g>
   </g>
   <g id="text_20">
    <g id="patch_18">
     <path d="M 122.159463 168.959212 
C 123.614724 168.959212 125.010577 168.381031 126.039601 167.352006 
C 127.068626 166.322982 127.646807 164.927129 127.646807 163.471868 
C 127.646807 162.016608 127.068626 160.620755 126.039601 159.59173 
C 125.010577 158.562706 123.614724 157.984524 122.159463 157.984524 
C 120.704203 157.984524 119.30835 158.562706 118.279325 159.59173 
C 117.250301 160.620755 116.672119 162.016608 116.672119 163.471868 
C 116.672119 164.927129 117.250301 166.322982 118.279325 167.352006 
C 119.30835 168.381031 120.704203 168.959212 122.159463 168.959212 
z
" style="fill:#cccccc;opacity:0.05;stroke:#000000;stroke-linejoin:miter;"/>
    </g>
    <!-- 4 -->
    <g style="fill:#fa5078;" transform="translate(119.932588 165.403431)scale(0.07 -0.07)">
     <use xlink:href="#DejaVuSans-34"/>
    </g>
   </g>
   <g id="text_21">
    <g id="patch_19">
     <path d="M 64.17381 157.826282 
C 65.629071 157.826282 67.024923 157.248101 68.053948 156.219077 
C 69.082973 155.190052 69.661154 153.794199 69.661154 152.338939 
C 69.661154 150.883678 69.082973 149.487825 68.053948 148.458801 
C 67.024923 147.429776 65.629071 146.851595 64.17381 146.851595 
C 62.718549 146.851595 61.322697 147.429776 60.293672 148.458801 
C 59.264647 149.487825 58.686466 150.883678 58.686466 152.338939 
C 58.686466 153.794199 59.264647 155.190052 60.293672 156.219077 
C 61.322697 157.248101 62.718549 157.826282 64.17381 157.826282 
z
" style="fill:#cccccc;opacity:0.05;stroke:#000000;stroke-linejoin:miter;"/>
    </g>
    <!-- 6 -->
    <g transform="translate(61.946935 154.270501)scale(0.07 -0.07)">
     <use xlink:href="#DejaVuSans-36"/>
    </g>
   </g>
   <g id="text_22">
    <g id="patch_20">
     <path d="M 132.894116 137.369368 
C 134.349377 137.369368 135.74523 136.791187 136.774254 135.762162 
C 137.803279 134.733138 138.38146 133.337285 138.38146 131.882024 
C 138.38146 130.426764 137.803279 129.030911 136.774254 128.001886 
C 135.74523 126.972862 134.349377 126.39468 132.894116 126.39468 
C 131.438856 126.39468 130.043003 126.972862 129.013978 128.001886 
C 127.984954 129.030911 127.406773 130.426764 127.406773 131.882024 
C 127.406773 133.337285 127.984954 134.733138 129.013978 135.762162 
C 130.043003 136.791187 131.438856 137.369368 132.894116 137.369368 
z
" style="fill:#cccccc;opacity:0.05;stroke:#000000;stroke-linejoin:miter;"/>
    </g>
    <!-- 5 -->
    <g style="fill:#005ac8;" transform="translate(130.667241 133.813587)scale(0.07 -0.07)">
     <use xlink:href="#DejaVuSans-35"/>
    </g>
   </g>
   <g id="text_23">
    <g id="patch_21">
     <path d="M 168.411749 151.654821 
C 169.86701 151.654821 171.262862 151.07664 172.291887 150.047615 
C 173.320912 149.018591 173.899093 147.622738 173.899093 146.167477 
C 173.899093 144.712217 173.320912 143.316364 172.291887 142.287339 
C 171.262862 141.258315 169.86701 140.680133 168.411749 140.680133 
C 166.956488 140.680133 165.560636 141.258315 164.531611 142.287339 
C 163.502586 143.316364 162.924405 144.712217 162.924405 146.167477 
C 162.924405 147.622738 163.502586 149.018591 164.531611 150.047615 
C 165.560636 151.07664 166.956488 151.654821 168.411749 151.654821 
z
" style="fill:#cccccc;opacity:0.05;stroke:#000000;stroke-linejoin:miter;"/>
    </g>
    <!-- 1 -->
    <g transform="translate(166.184874 148.09904)scale(0.07 -0.07)">
     <use xlink:href="#DejaVuSans-31"/>
    </g>
   </g>
   <g id="text_24">
    <g id="patch_22">
     <path d="M 139.850111 137.443483 
C 141.305372 137.443483 142.701225 136.865302 143.730249 135.836277 
C 144.759274 134.807252 145.337455 133.4114 145.337455 131.956139 
C 145.337455 130.500878 144.759274 129.105026 143.730249 128.076001 
C 142.701225 127.046976 141.305372 126.468795 139.850111 126.468795 
C 138.394851 126.468795 136.998998 127.046976 135.969973 128.076001 
C 134.940949 129.105026 134.362767 130.500878 134.362767 131.956139 
C 134.362767 133.4114 134.940949 134.807252 135.969973 135.836277 
C 136.998998 136.865302 138.394851 137.443483 139.850111 137.443483 
z
" style="fill:#cccccc;opacity:0.05;stroke:#000000;stroke-linejoin:miter;"/>
    </g>
    <!-- 2 -->
    <g transform="translate(137.623236 133.887701)scale(0.07 -0.07)">
     <use xlink:href="#DejaVuSans-32"/>
    </g>
   </g>
   <g id="text_25">
    <g id="patch_23">
     <path d="M 139.499302 150.908529 
C 140.954562 150.908529 142.350415 150.330347 143.37944 149.301323 
C 144.408464 148.272298 144.986646 146.876445 144.986646 145.421185 
C 144.986646 143.965924 144.408464 142.570071 143.37944 141.541047 
C 142.350415 140.512022 140.954562 139.933841 139.499302 139.933841 
C 138.044041 139.933841 136.648188 140.512022 135.619164 141.541047 
C 134.590139 142.570071 134.011958 143.965924 134.011958 145.421185 
C 134.011958 146.876445 134.590139 148.272298 135.619164 149.301323 
C 136.648188 150.330347 138.044041 150.908529 139.499302 150.908529 
z
" style="fill:#cccccc;opacity:0.05;stroke:#000000;stroke-linejoin:miter;"/>
    </g>
    <!-- 3 -->
    <g transform="translate(137.272427 147.352747)scale(0.07 -0.07)">
     <use xlink:href="#DejaVuSans-33"/>
    </g>
   </g>
   <g id="text_26">
    <g id="patch_24">
     <path d="M 118.635918 144.042526 
C 120.091179 144.042526 121.487031 143.464345 122.516056 142.43532 
C 123.545081 141.406295 124.123262 140.010443 124.123262 138.555182 
C 124.123262 137.099921 123.545081 135.704069 122.516056 134.675044 
C 121.487031 133.646019 120.091179 133.067838 118.635918 133.067838 
C 117.180657 133.067838 115.784805 133.646019 114.75578 134.675044 
C 113.726755 135.704069 113.148574 137.099921 113.148574 138.555182 
C 113.148574 140.010443 113.726755 141.406295 114.75578 142.43532 
C 115.784805 143.464345 117.180657 144.042526 118.635918 144.042526 
z
" style="fill:#cccccc;opacity:0.05;stroke:#000000;stroke-linejoin:miter;"/>
    </g>
    <!-- 4 -->
    <g style="fill:#fa5078;" transform="translate(116.409043 140.486744)scale(0.07 -0.07)">
     <use xlink:href="#DejaVuSans-34"/>
    </g>
   </g>
   <g id="text_27">
    <g id="patch_25">
     <path d="M 64.17381 120.032025 
C 65.629071 120.032025 67.024923 119.453843 68.053948 118.424819 
C 69.082973 117.395794 69.661154 115.999941 69.661154 114.544681 
C 69.661154 113.08942 69.082973 111.693567 68.053948 110.664543 
C 67.024923 109.635518 65.629071 109.057337 64.17381 109.057337 
C 62.718549 109.057337 61.322697 109.635518 60.293672 110.664543 
C 59.264647 111.693567 58.686466 113.08942 58.686466 114.544681 
C 58.686466 115.999941 59.264647 117.395794 60.293672 118.424819 
C 61.322697 119.453843 62.718549 120.032025 64.17381 120.032025 
z
" style="fill:#cccccc;opacity:0.05;stroke:#000000;stroke-linejoin:miter;"/>
    </g>
    <!-- 6 -->
    <g transform="translate(61.946935 116.476243)scale(0.07 -0.07)">
     <use xlink:href="#DejaVuSans-36"/>
    </g>
   </g>
   <g id="text_28">
    <g id="patch_26">
     <path d="M 106.34762 104.180109 
C 107.802881 104.180109 109.198733 103.601928 110.227758 102.572903 
C 111.256783 101.543878 111.834964 100.148026 111.834964 98.692765 
C 111.834964 97.237505 111.256783 95.841652 110.227758 94.812627 
C 109.198733 93.783602 107.802881 93.205421 106.34762 93.205421 
C 104.892359 93.205421 103.496507 93.783602 102.467482 94.812627 
C 101.438457 95.841652 100.860276 97.237505 100.860276 98.692765 
C 100.860276 100.148026 101.438457 101.543878 102.467482 102.572903 
C 103.496507 103.601928 104.892359 104.180109 106.34762 104.180109 
z
" style="fill:#cccccc;opacity:0.05;stroke:#000000;stroke-linejoin:miter;"/>
    </g>
    <!-- 5 -->
    <g style="fill:#005ac8;" transform="translate(104.120745 100.624328)scale(0.07 -0.07)">
     <use xlink:href="#DejaVuSans-35"/>
    </g>
   </g>
   <g id="text_29">
    <g id="patch_27">
     <path d="M 152.355413 115.111173 
C 153.810673 115.111173 155.206526 114.532992 156.235551 113.503967 
C 157.264575 112.474942 157.842756 111.07909 157.842756 109.623829 
C 157.842756 108.168568 157.264575 106.772716 156.235551 105.743691 
C 155.206526 104.714666 153.810673 104.136485 152.355413 104.136485 
C 150.900152 104.136485 149.504299 104.714666 148.475275 105.743691 
C 147.44625 106.772716 146.868069 108.168568 146.868069 109.623829 
C 146.868069 111.07909 147.44625 112.474942 148.475275 113.503967 
C 149.504299 114.532992 150.900152 115.111173 152.355413 115.111173 
z
" style="fill:#cccccc;opacity:0.05;stroke:#000000;stroke-linejoin:miter;"/>
    </g>
    <!-- 1 -->
    <g transform="translate(150.128538 111.555392)scale(0.07 -0.07)">
     <use xlink:href="#DejaVuSans-31"/>
    </g>
   </g>
   <g id="text_30">
    <g id="patch_28">
     <path d="M 125.517534 102.453081 
C 126.972794 102.453081 128.368647 101.8749 129.397672 100.845875 
C 130.426696 99.81685 131.004877 98.420998 131.004877 96.965737 
C 131.004877 95.510476 130.426696 94.114624 129.397672 93.085599 
C 128.368647 92.056574 126.972794 91.478393 125.517534 91.478393 
C 124.062273 91.478393 122.66642 92.056574 121.637396 93.085599 
C 120.608371 94.114624 120.03019 95.510476 120.03019 96.965737 
C 120.03019 98.420998 120.608371 99.81685 121.637396 100.845875 
C 122.66642 101.8749 124.062273 102.453081 125.517534 102.453081 
z
" style="fill:#cccccc;opacity:0.05;stroke:#000000;stroke-linejoin:miter;"/>
    </g>
    <!-- 2 -->
    <g transform="translate(123.290659 98.8973)scale(0.07 -0.07)">
     <use xlink:href="#DejaVuSans-32"/>
    </g>
   </g>
   <g id="text_31">
    <g id="patch_29">
     <path d="M 125.517534 115.978001 
C 126.972794 115.978001 128.368647 115.39982 129.397672 114.370795 
C 130.426696 113.341771 131.004877 111.945918 131.004877 110.490657 
C 131.004877 109.035397 130.426696 107.639544 129.397672 106.610519 
C 128.368647 105.581495 126.972794 105.003314 125.517534 105.003314 
C 124.062273 105.003314 122.66642 105.581495 121.637396 106.610519 
C 120.608371 107.639544 120.03019 109.035397 120.03019 110.490657 
C 120.03019 111.945918 120.608371 113.341771 121.637396 114.370795 
C 122.66642 115.39982 124.062273 115.978001 125.517534 115.978001 
z
" style="fill:#cccccc;opacity:0.05;stroke:#000000;stroke-linejoin:miter;"/>
    </g>
    <!-- 3 -->
    <g transform="translate(123.290659 112.42222)scale(0.07 -0.07)">
     <use xlink:href="#DejaVuSans-33"/>
    </g>
   </g>
   <g id="text_32">
    <g id="patch_30">
     <path d="M 106.34762 117.705029 
C 107.802881 117.705029 109.198733 117.126848 110.227758 116.097823 
C 111.256783 115.068799 111.834964 113.672946 111.834964 112.217685 
C 111.834964 110.762425 111.256783 109.366572 110.227758 108.337547 
C 109.198733 107.308523 107.802881 106.730342 106.34762 106.730342 
C 104.892359 106.730342 103.496507 107.308523 102.467482 108.337547 
C 101.438457 109.366572 100.860276 110.762425 100.860276 112.217685 
C 100.860276 113.672946 101.438457 115.068799 102.467482 116.097823 
C 103.496507 117.126848 104.892359 117.705029 106.34762 117.705029 
z
" style="fill:#cccccc;opacity:0.05;stroke:#000000;stroke-linejoin:miter;"/>
    </g>
    <!-- 4 -->
    <g style="fill:#fa5078;" transform="translate(104.120745 114.149248)scale(0.07 -0.07)">
     <use xlink:href="#DejaVuSans-34"/>
    </g>
   </g>
   <g id="text_33">
    <g id="patch_31">
     <path d="M 64.17381 82.641715 
C 65.629071 82.641715 67.024923 82.063534 68.053948 81.034509 
C 69.082973 80.005485 69.661154 78.609632 69.661154 77.154371 
C 69.661154 75.699111 69.082973 74.303258 68.053948 73.274233 
C 67.024923 72.245209 65.629071 71.667028 64.17381 71.667028 
C 62.718549 71.667028 61.322697 72.245209 60.293672 73.274233 
C 59.264647 74.303258 58.686466 75.699111 58.686466 77.154371 
C 58.686466 78.609632 59.264647 80.005485 60.293672 81.034509 
C 61.322697 82.063534 62.718549 82.641715 64.17381 82.641715 
z
" style="fill:#cccccc;opacity:0.05;stroke:#000000;stroke-linejoin:miter;"/>
    </g>
    <!-- 6 -->
    <g transform="translate(61.946935 79.085934)scale(0.07 -0.07)">
     <use xlink:href="#DejaVuSans-36"/>
    </g>
   </g>
   <g id="text_34">
    <g id="patch_32">
     <path d="M 102.513637 65.991033 
C 103.968898 65.991033 105.364751 65.412852 106.393775 64.383828 
C 107.4228 63.354803 108.000981 61.95895 108.000981 60.50369 
C 108.000981 59.048429 107.4228 57.652576 106.393775 56.623552 
C 105.364751 55.594527 103.968898 55.016346 102.513637 55.016346 
C 101.058377 55.016346 99.662524 55.594527 98.633499 56.623552 
C 97.604475 57.652576 97.026293 59.048429 97.026293 60.50369 
C 97.026293 61.95895 97.604475 63.354803 98.633499 64.383828 
C 99.662524 65.412852 101.058377 65.991033 102.513637 65.991033 
z
" style="fill:#cccccc;opacity:0.05;stroke:#000000;stroke-linejoin:miter;"/>
    </g>
    <!-- 5 -->
    <g style="fill:#005ac8;" transform="translate(100.286762 62.435252)scale(0.07 -0.07)">
     <use xlink:href="#DejaVuSans-35"/>
    </g>
   </g>
   <g id="text_35">
    <g id="patch_33">
     <path d="M 147.371235 79.028625 
C 148.826496 79.028625 150.222348 78.450444 151.251373 77.42142 
C 152.280398 76.392395 152.858579 74.996542 152.858579 73.541282 
C 152.858579 72.086021 152.280398 70.690168 151.251373 69.661144 
C 150.222348 68.632119 148.826496 68.053938 147.371235 68.053938 
C 145.915975 68.053938 144.520122 68.632119 143.491097 69.661144 
C 142.462073 70.690168 141.883891 72.086021 141.883891 73.541282 
C 141.883891 74.996542 142.462073 76.392395 143.491097 77.42142 
C 144.520122 78.450444 145.915975 79.028625 147.371235 79.028625 
z
" style="fill:#cccccc;opacity:0.05;stroke:#000000;stroke-linejoin:miter;"/>
    </g>
    <!-- 1 -->
    <g transform="translate(145.14436 75.472844)scale(0.07 -0.07)">
     <use xlink:href="#DejaVuSans-31"/>
    </g>
   </g>
   <g id="text_36">
    <g id="patch_34">
     <path d="M 118.999763 64.885883 
C 120.455024 64.885883 121.850876 64.307702 122.879901 63.278678 
C 123.908926 62.249653 124.487107 60.8538 124.487107 59.39854 
C 124.487107 57.943279 123.908926 56.547426 122.879901 55.518402 
C 121.850876 54.489377 120.455024 53.911196 118.999763 53.911196 
C 117.544502 53.911196 116.14865 54.489377 115.119625 55.518402 
C 114.0906 56.547426 113.512419 57.943279 113.512419 59.39854 
C 113.512419 60.8538 114.0906 62.249653 115.119625 63.278678 
C 116.14865 64.307702 117.544502 64.885883 118.999763 64.885883 
z
" style="fill:#cccccc;opacity:0.05;stroke:#000000;stroke-linejoin:miter;"/>
    </g>
    <!-- 2 -->
    <g transform="translate(116.772888 61.330102)scale(0.07 -0.07)">
     <use xlink:href="#DejaVuSans-32"/>
    </g>
   </g>
   <g id="text_37">
    <g id="patch_35">
     <path d="M 118.999763 78.410804 
C 120.455024 78.410804 121.850876 77.832622 122.879901 76.803598 
C 123.908926 75.774573 124.487107 74.37872 124.487107 72.92346 
C 124.487107 71.468199 123.908926 70.072346 122.879901 69.043322 
C 121.850876 68.014297 120.455024 67.436116 118.999763 67.436116 
C 117.544502 67.436116 116.14865 68.014297 115.119625 69.043322 
C 114.0906 70.072346 113.512419 71.468199 113.512419 72.92346 
C 113.512419 74.37872 114.0906 75.774573 115.119625 76.803598 
C 116.14865 77.832622 117.544502 78.410804 118.999763 78.410804 
z
" style="fill:#cccccc;opacity:0.05;stroke:#000000;stroke-linejoin:miter;"/>
    </g>
    <!-- 3 -->
    <g transform="translate(116.772888 74.855022)scale(0.07 -0.07)">
     <use xlink:href="#DejaVuSans-33"/>
    </g>
   </g>
   <g id="text_38">
    <g id="patch_36">
     <path d="M 102.513637 79.515954 
C 103.968898 79.515954 105.364751 78.937773 106.393775 77.908748 
C 107.4228 76.879723 108.000981 75.48387 108.000981 74.02861 
C 108.000981 72.573349 107.4228 71.177497 106.393775 70.148472 
C 105.364751 69.119447 103.968898 68.541266 102.513637 68.541266 
C 101.058377 68.541266 99.662524 69.119447 98.633499 70.148472 
C 97.604475 71.177497 97.026293 72.573349 97.026293 74.02861 
C 97.026293 75.48387 97.604475 76.879723 98.633499 77.908748 
C 99.662524 78.937773 101.058377 79.515954 102.513637 79.515954 
z
" style="fill:#cccccc;opacity:0.05;stroke:#000000;stroke-linejoin:miter;"/>
    </g>
    <!-- 4 -->
    <g style="fill:#fa5078;" transform="translate(100.286762 75.960172)scale(0.07 -0.07)">
     <use xlink:href="#DejaVuSans-34"/>
    </g>
   </g>
   <g id="text_39">
    <g id="patch_37">
     <path d="M 64.17381 46.924347 
C 65.629071 46.924347 67.024923 46.346166 68.053948 45.317142 
C 69.082973 44.288117 69.661154 42.892264 69.661154 41.437004 
C 69.661154 39.981743 69.082973 38.58589 68.053948 37.556866 
C 67.024923 36.527841 65.629071 35.94966 64.17381 35.94966 
C 62.718549 35.94966 61.322697 36.527841 60.293672 37.556866 
C 59.264647 38.58589 58.686466 39.981743 58.686466 41.437004 
C 58.686466 42.892264 59.264647 44.288117 60.293672 45.317142 
C 61.322697 46.346166 62.718549 46.924347 64.17381 46.924347 
z
" style="fill:#cccccc;opacity:0.05;stroke:#000000;stroke-linejoin:miter;"/>
    </g>
    <!-- 6 -->
    <g transform="translate(61.946935 43.368566)scale(0.07 -0.07)">
     <use xlink:href="#DejaVuSans-36"/>
    </g>
   </g>
   <g id="text_40">
    <g id="patch_38">
     <path d="M 106.34762 31.072432 
C 107.802881 31.072432 109.198733 30.494251 110.227758 29.465226 
C 111.256783 28.436201 111.834964 27.040349 111.834964 25.585088 
C 111.834964 24.129827 111.256783 22.733975 110.227758 21.70495 
C 109.198733 20.675925 107.802881 20.097744 106.34762 20.097744 
C 104.892359 20.097744 103.496507 20.675925 102.467482 21.70495 
C 101.438457 22.733975 100.860276 24.129827 100.860276 25.585088 
C 100.860276 27.040349 101.438457 28.436201 102.467482 29.465226 
C 103.496507 30.494251 104.892359 31.072432 106.34762 31.072432 
z
" style="fill:#cccccc;opacity:0.05;stroke:#000000;stroke-linejoin:miter;"/>
    </g>
    <!-- 5 -->
    <g style="fill:#005ac8;" transform="translate(104.120745 27.51665)scale(0.07 -0.07)">
     <use xlink:href="#DejaVuSans-35"/>
    </g>
   </g>
   <g id="text_41">
    <g id="patch_39">
     <path d="M 152.355413 42.003496 
C 153.810673 42.003496 155.206526 41.425314 156.235551 40.39629 
C 157.264575 39.367265 157.842756 37.971412 157.842756 36.516152 
C 157.842756 35.060891 157.264575 33.665039 156.235551 32.636014 
C 155.206526 31.606989 153.810673 31.028808 152.355413 31.028808 
C 150.900152 31.028808 149.504299 31.606989 148.475275 32.636014 
C 147.44625 33.665039 146.868069 35.060891 146.868069 36.516152 
C 146.868069 37.971412 147.44625 39.367265 148.475275 40.39629 
C 149.504299 41.425314 150.900152 42.003496 152.355413 42.003496 
z
" style="fill:#cccccc;opacity:0.05;stroke:#000000;stroke-linejoin:miter;"/>
    </g>
    <!-- 1 -->
    <g transform="translate(150.128538 38.447714)scale(0.07 -0.07)">
     <use xlink:href="#DejaVuSans-31"/>
    </g>
   </g>
   <g id="text_42">
    <g id="patch_40">
     <path d="M 125.517534 29.345404 
C 126.972794 29.345404 128.368647 28.767222 129.397672 27.738198 
C 130.426696 26.709173 131.004877 25.31332 131.004877 23.85806 
C 131.004877 22.402799 130.426696 21.006946 129.397672 19.977922 
C 128.368647 18.948897 126.972794 18.370716 125.517534 18.370716 
C 124.062273 18.370716 122.66642 18.948897 121.637396 19.977922 
C 120.608371 21.006946 120.03019 22.402799 120.03019 23.85806 
C 120.03019 25.31332 120.608371 26.709173 121.637396 27.738198 
C 122.66642 28.767222 124.062273 29.345404 125.517534 29.345404 
z
" style="fill:#cccccc;opacity:0.05;stroke:#000000;stroke-linejoin:miter;"/>
    </g>
    <!-- 2 -->
    <g transform="translate(123.290659 25.789622)scale(0.07 -0.07)">
     <use xlink:href="#DejaVuSans-32"/>
    </g>
   </g>
   <g id="text_43">
    <g id="patch_41">
     <path d="M 125.517534 42.870324 
C 126.972794 42.870324 128.368647 42.292143 129.397672 41.263118 
C 130.426696 40.234093 131.004877 38.838241 131.004877 37.38298 
C 131.004877 35.92772 130.426696 34.531867 129.397672 33.502842 
C 128.368647 32.473818 126.972794 31.895636 125.517534 31.895636 
C 124.062273 31.895636 122.66642 32.473818 121.637396 33.502842 
C 120.608371 34.531867 120.03019 35.92772 120.03019 37.38298 
C 120.03019 38.838241 120.608371 40.234093 121.637396 41.263118 
C 122.66642 42.292143 124.062273 42.870324 125.517534 42.870324 
z
" style="fill:#cccccc;opacity:0.05;stroke:#000000;stroke-linejoin:miter;"/>
    </g>
    <!-- 3 -->
    <g transform="translate(123.290659 39.314543)scale(0.07 -0.07)">
     <use xlink:href="#DejaVuSans-33"/>
    </g>
   </g>
   <g id="text_44">
    <g id="patch_42">
     <path d="M 106.34762 44.597352 
C 107.802881 44.597352 109.198733 44.019171 110.227758 42.990146 
C 111.256783 41.961122 111.834964 40.565269 111.834964 39.110008 
C 111.834964 37.654748 111.256783 36.258895 110.227758 35.22987 
C 109.198733 34.200846 107.802881 33.622664 106.34762 33.622664 
C 104.892359 33.622664 103.496507 34.200846 102.467482 35.22987 
C 101.438457 36.258895 100.860276 37.654748 100.860276 39.110008 
C 100.860276 40.565269 101.438457 41.961122 102.467482 42.990146 
C 103.496507 44.019171 104.892359 44.597352 106.34762 44.597352 
z
" style="fill:#cccccc;opacity:0.05;stroke:#000000;stroke-linejoin:miter;"/>
    </g>
    <!-- 4 -->
    <g style="fill:#fa5078;" transform="translate(104.120745 41.041571)scale(0.07 -0.07)">
     <use xlink:href="#DejaVuSans-34"/>
    </g>
   </g>
   <g id="text_45">
    <!-- Schmitz -->
    <defs>
     <path d="M 53.515625 70.515625 
L 53.515625 60.890625 
Q 47.90625 63.578125 42.921875 64.890625 
Q 37.9375 66.21875 33.296875 66.21875 
Q 25.25 66.21875 20.875 63.09375 
Q 16.5 59.96875 16.5 54.203125 
Q 16.5 49.359375 19.40625 46.890625 
Q 22.3125 44.4375 30.421875 42.921875 
L 36.375 41.703125 
Q 47.40625 39.59375 52.65625 34.296875 
Q 57.90625 29 57.90625 20.125 
Q 57.90625 9.515625 50.796875 4.046875 
Q 43.703125 -1.421875 29.984375 -1.421875 
Q 24.8125 -1.421875 18.96875 -0.25 
Q 13.140625 0.921875 6.890625 3.21875 
L 6.890625 13.375 
Q 12.890625 10.015625 18.65625 8.296875 
Q 24.421875 6.59375 29.984375 6.59375 
Q 38.421875 6.59375 43.015625 9.90625 
Q 47.609375 13.234375 47.609375 19.390625 
Q 47.609375 24.75 44.3125 27.78125 
Q 41.015625 30.8125 33.5 32.328125 
L 27.484375 33.5 
Q 16.453125 35.6875 11.515625 40.375 
Q 6.59375 45.0625 6.59375 53.421875 
Q 6.59375 63.09375 13.40625 68.65625 
Q 20.21875 74.21875 32.171875 74.21875 
Q 37.3125 74.21875 42.625 73.28125 
Q 47.953125 72.359375 53.515625 70.515625 
z
" id="DejaVuSans-53"/>
     <path d="M 48.78125 52.59375 
L 48.78125 44.1875 
Q 44.96875 46.296875 41.140625 47.34375 
Q 37.3125 48.390625 33.40625 48.390625 
Q 24.65625 48.390625 19.8125 42.84375 
Q 14.984375 37.3125 14.984375 27.296875 
Q 14.984375 17.28125 19.8125 11.734375 
Q 24.65625 6.203125 33.40625 6.203125 
Q 37.3125 6.203125 41.140625 7.25 
Q 44.96875 8.296875 48.78125 10.40625 
L 48.78125 2.09375 
Q 45.015625 0.34375 40.984375 -0.53125 
Q 36.96875 -1.421875 32.421875 -1.421875 
Q 20.0625 -1.421875 12.78125 6.34375 
Q 5.515625 14.109375 5.515625 27.296875 
Q 5.515625 40.671875 12.859375 48.328125 
Q 20.21875 56 33.015625 56 
Q 37.15625 56 41.109375 55.140625 
Q 45.0625 54.296875 48.78125 52.59375 
z
" id="DejaVuSans-63"/>
     <path d="M 54.890625 33.015625 
L 54.890625 0 
L 45.90625 0 
L 45.90625 32.71875 
Q 45.90625 40.484375 42.875 44.328125 
Q 39.84375 48.1875 33.796875 48.1875 
Q 26.515625 48.1875 22.3125 43.546875 
Q 18.109375 38.921875 18.109375 30.90625 
L 18.109375 0 
L 9.078125 0 
L 9.078125 75.984375 
L 18.109375 75.984375 
L 18.109375 46.1875 
Q 21.34375 51.125 25.703125 53.5625 
Q 30.078125 56 35.796875 56 
Q 45.21875 56 50.046875 50.171875 
Q 54.890625 44.34375 54.890625 33.015625 
z
" id="DejaVuSans-68"/>
     <path d="M 52 44.1875 
Q 55.375 50.25 60.0625 53.125 
Q 64.75 56 71.09375 56 
Q 79.640625 56 84.28125 50.015625 
Q 88.921875 44.046875 88.921875 33.015625 
L 88.921875 0 
L 79.890625 0 
L 79.890625 32.71875 
Q 79.890625 40.578125 77.09375 44.375 
Q 74.3125 48.1875 68.609375 48.1875 
Q 61.625 48.1875 57.5625 43.546875 
Q 53.515625 38.921875 53.515625 30.90625 
L 53.515625 0 
L 44.484375 0 
L 44.484375 32.71875 
Q 44.484375 40.625 41.703125 44.40625 
Q 38.921875 48.1875 33.109375 48.1875 
Q 26.21875 48.1875 22.15625 43.53125 
Q 18.109375 38.875 18.109375 30.90625 
L 18.109375 0 
L 9.078125 0 
L 9.078125 54.6875 
L 18.109375 54.6875 
L 18.109375 46.1875 
Q 21.1875 51.21875 25.484375 53.609375 
Q 29.78125 56 35.6875 56 
Q 41.65625 56 45.828125 52.96875 
Q 50 49.953125 52 44.1875 
z
" id="DejaVuSans-6d"/>
     <path d="M 5.515625 54.6875 
L 48.1875 54.6875 
L 48.1875 46.484375 
L 14.40625 7.171875 
L 48.1875 7.171875 
L 48.1875 0 
L 4.296875 0 
L 4.296875 8.203125 
L 38.09375 47.515625 
L 5.515625 47.515625 
z
" id="DejaVuSans-7a"/>
    </defs>
    <g transform="translate(181.954841 48.046147)scale(0.07 -0.07)">
     <use xlink:href="#DejaVuSans-53"/>
     <use x="63.476562" xlink:href="#DejaVuSans-63"/>
     <use x="118.457031" xlink:href="#DejaVuSans-68"/>
     <use x="181.835938" xlink:href="#DejaVuSans-6d"/>
     <use x="279.248047" xlink:href="#DejaVuSans-69"/>
     <use x="307.03125" xlink:href="#DejaVuSans-74"/>
     <use x="346.240234" xlink:href="#DejaVuSans-7a"/>
    </g>
   </g>
   <g id="text_46">
    <!-- $\mathrm{T\~{o}nisoo}$ -->
    <defs>
     <path d="M -0.296875 72.90625 
L 61.375 72.90625 
L 61.375 64.59375 
L 35.5 64.59375 
L 35.5 0 
L 25.59375 0 
L 25.59375 64.59375 
L -0.296875 64.59375 
z
" id="DejaVuSans-54"/>
     <path d="M -25.296875 66.890625 
L -28.078125 69.578125 
Q -29.15625 70.5625 -29.953125 71.015625 
Q -30.765625 71.484375 -31.390625 71.484375 
Q -33.25 71.484375 -34.125 69.703125 
Q -35.015625 67.921875 -35.109375 63.921875 
L -41.21875 63.921875 
Q -41.109375 70.515625 -38.625 74.09375 
Q -36.140625 77.6875 -31.6875 77.6875 
Q -29.828125 77.6875 -28.265625 77 
Q -26.703125 76.3125 -24.90625 74.703125 
L -22.125 72.015625 
Q -21.046875 71.046875 -20.234375 70.578125 
Q -19.4375 70.125 -18.796875 70.125 
Q -16.9375 70.125 -16.0625 71.90625 
Q -15.1875 73.6875 -15.09375 77.6875 
L -8.984375 77.6875 
Q -9.078125 71.09375 -11.5625 67.5 
Q -14.0625 63.921875 -18.5 63.921875 
Q -20.359375 63.921875 -21.921875 64.59375 
Q -23.484375 65.28125 -25.296875 66.890625 
z
" id="DejaVuSans-303"/>
     <path d="M 30.609375 48.390625 
Q 23.390625 48.390625 19.1875 42.75 
Q 14.984375 37.109375 14.984375 27.296875 
Q 14.984375 17.484375 19.15625 11.84375 
Q 23.34375 6.203125 30.609375 6.203125 
Q 37.796875 6.203125 41.984375 11.859375 
Q 46.1875 17.53125 46.1875 27.296875 
Q 46.1875 37.015625 41.984375 42.703125 
Q 37.796875 48.390625 30.609375 48.390625 
z
M 30.609375 56 
Q 42.328125 56 49.015625 48.375 
Q 55.71875 40.765625 55.71875 27.296875 
Q 55.71875 13.875 49.015625 6.21875 
Q 42.328125 -1.421875 30.609375 -1.421875 
Q 18.84375 -1.421875 12.171875 6.21875 
Q 5.515625 13.875 5.515625 27.296875 
Q 5.515625 40.765625 12.171875 48.375 
Q 18.84375 56 30.609375 56 
z
" id="DejaVuSans-6f"/>
    </defs>
    <g transform="translate(182.705154 84.599985)scale(0.07 -0.07)">
     <use transform="translate(0 0.734375)" xlink:href="#DejaVuSans-54"/>
     <use transform="translate(124.598145 5.3125)" xlink:href="#DejaVuSans-303"/>
     <use transform="translate(61.083984 0.734375)" xlink:href="#DejaVuSans-6f"/>
     <use transform="translate(122.265625 0.734375)" xlink:href="#DejaVuSans-6e"/>
     <use transform="translate(185.644531 0.734375)" xlink:href="#DejaVuSans-69"/>
     <use transform="translate(213.427734 0.734375)" xlink:href="#DejaVuSans-73"/>
     <use transform="translate(265.527344 0.734375)" xlink:href="#DejaVuSans-6f"/>
     <use transform="translate(326.708984 0.734375)" xlink:href="#DejaVuSans-6f"/>
    </g>
   </g>
   <g id="text_47">
    <!-- Garcia -->
    <defs>
     <path d="M 59.515625 10.40625 
L 59.515625 29.984375 
L 43.40625 29.984375 
L 43.40625 38.09375 
L 69.28125 38.09375 
L 69.28125 6.78125 
Q 63.578125 2.734375 56.6875 0.65625 
Q 49.8125 -1.421875 42 -1.421875 
Q 24.90625 -1.421875 15.25 8.5625 
Q 5.609375 18.5625 5.609375 36.375 
Q 5.609375 54.25 15.25 64.234375 
Q 24.90625 74.21875 42 74.21875 
Q 49.125 74.21875 55.546875 72.453125 
Q 61.96875 70.703125 67.390625 67.28125 
L 67.390625 56.78125 
Q 61.921875 61.421875 55.765625 63.765625 
Q 49.609375 66.109375 42.828125 66.109375 
Q 29.4375 66.109375 22.71875 58.640625 
Q 16.015625 51.171875 16.015625 36.375 
Q 16.015625 21.625 22.71875 14.15625 
Q 29.4375 6.6875 42.828125 6.6875 
Q 48.046875 6.6875 52.140625 7.59375 
Q 56.25 8.5 59.515625 10.40625 
z
" id="DejaVuSans-47"/>
    </defs>
    <g transform="translate(187.19281 121.153824)scale(0.07 -0.07)">
     <use xlink:href="#DejaVuSans-47"/>
     <use x="77.490234" xlink:href="#DejaVuSans-61"/>
     <use x="138.769531" xlink:href="#DejaVuSans-72"/>
     <use x="179.851562" xlink:href="#DejaVuSans-63"/>
     <use x="234.832031" xlink:href="#DejaVuSans-69"/>
     <use x="262.615234" xlink:href="#DejaVuSans-61"/>
    </g>
   </g>
   <g id="text_48">
    <!-- 1s -->
    <g transform="translate(201.764841 157.707662)scale(0.07 -0.07)">
     <use xlink:href="#DejaVuSans-31"/>
     <use x="63.623047" xlink:href="#DejaVuSans-73"/>
    </g>
   </g>
   <g id="text_49">
    <!-- $\Delta$KS -->
    <defs>
     <path d="M 34.1875 63.1875 
L 14.15625 8.203125 
L 54.25 8.203125 
z
M 0.78125 0 
L 28.609375 72.90625 
L 39.796875 72.90625 
L 67.578125 0 
z
" id="DejaVuSans-394"/>
     <path d="M 9.8125 72.90625 
L 19.671875 72.90625 
L 19.671875 42.09375 
L 52.390625 72.90625 
L 65.09375 72.90625 
L 28.90625 38.921875 
L 67.671875 0 
L 54.6875 0 
L 19.671875 35.109375 
L 19.671875 0 
L 9.8125 0 
z
" id="DejaVuSans-4b"/>
    </defs>
    <g transform="translate(196.005154 197.916885)scale(0.07 -0.07)">
     <use transform="translate(0 0.78125)" xlink:href="#DejaVuSans-394"/>
     <use transform="translate(68.408203 0.78125)" xlink:href="#DejaVuSans-4b"/>
     <use transform="translate(133.984375 0.78125)" xlink:href="#DejaVuSans-53"/>
    </g>
   </g>
   <g id="text_50">
    <!-- GW -->
    <defs>
     <path d="M 3.328125 72.90625 
L 13.28125 72.90625 
L 28.609375 11.28125 
L 43.890625 72.90625 
L 54.984375 72.90625 
L 70.3125 11.28125 
L 85.59375 72.90625 
L 95.609375 72.90625 
L 77.296875 0 
L 64.890625 0 
L 49.515625 63.28125 
L 33.984375 0 
L 21.578125 0 
z
" id="DejaVuSans-57"/>
    </defs>
    <g transform="translate(197.519997 234.470723)scale(0.07 -0.07)">
     <use xlink:href="#DejaVuSans-47"/>
     <use x="77.490234" xlink:href="#DejaVuSans-57"/>
    </g>
   </g>
  </g>
 </g>
 <defs>
  <clipPath id="peac75794ca">
   <rect height="233.944567" width="199.367102" x="22" y="13.32"/>
  </clipPath>
 </defs>
</svg>
