<?xml version="1.0" encoding="utf-8" standalone="no"?>
<!DOCTYPE svg PUBLIC "-//W3C//DTD SVG 1.1//EN"
  "http://www.w3.org/Graphics/SVG/1.1/DTD/svg11.dtd">
<!-- Created with matplotlib (https://matplotlib.org/) -->
<svg height="277.361754pt" version="1.1" viewBox="0 0 229.009602 277.361754" width="229.009602pt" xmlns="http://www.w3.org/2000/svg" xmlns:xlink="http://www.w3.org/1999/xlink">
 <defs>
  <style type="text/css">
*{stroke-linecap:butt;stroke-linejoin:round;}
  </style>
 </defs>
 <g id="figure_1">
  <g id="patch_1">
   <path d="M 0 277.361754 
L 229.009602 277.361754 
L 229.009602 0 
L 0 0 
z
" style="fill:#ffffff;"/>
  </g>
  <g id="axes_1">
   <g id="patch_2">
    <path d="M 18.9425 244.644567 
L 218.309602 244.644567 
L 218.309602 10.7 
L 18.9425 10.7 
z
" style="fill:#ffffff;"/>
   </g>
   <g id="PathCollection_1">
    <defs>
     <path d="M 0 1.322876 
C 0.350831 1.322876 0.68734 1.183489 0.935414 0.935414 
C 1.183489 0.68734 1.322876 0.350831 1.322876 0 
C 1.322876 -0.350831 1.183489 -0.68734 0.935414 -0.935414 
C 0.68734 -1.183489 0.350831 -1.322876 0 -1.322876 
C -0.350831 -1.322876 -0.68734 -1.183489 -0.935414 -0.935414 
C -1.183489 -0.68734 -1.322876 -0.350831 -1.322876 0 
C -1.322876 0.350831 -1.183489 0.68734 -0.935414 0.935414 
C -0.68734 1.183489 -0.350831 1.322876 0 1.322876 
z
" id="m17003ceb70" style="stroke:#dc143c;"/>
    </defs>
    <g clip-path="url(#p8e7b5ddf82)">
     <use style="fill:#dc143c;stroke:#dc143c;" x="61.11631" xlink:href="#m17003ceb70" y="183.379578"/>
    </g>
   </g>
   <g id="PathCollection_2">
    <g clip-path="url(#p8e7b5ddf82)">
     <use style="fill:#dc143c;stroke:#dc143c;" x="125.036317" xlink:href="#m17003ceb70" y="154.58965"/>
    </g>
   </g>
   <g id="PathCollection_3">
    <g clip-path="url(#p8e7b5ddf82)">
     <use style="fill:#dc143c;stroke:#dc143c;" x="136.77831" xlink:href="#m17003ceb70" y="163.440953"/>
    </g>
   </g>
   <g id="PathCollection_4">
    <g clip-path="url(#p8e7b5ddf82)">
     <use style="fill:#dc143c;stroke:#dc143c;" x="112.215632" xlink:href="#m17003ceb70" y="156.216218"/>
    </g>
   </g>
   <g id="PathCollection_5">
    <g clip-path="url(#p8e7b5ddf82)">
     <use style="fill:#dc143c;stroke:#dc143c;" x="112.511155" xlink:href="#m17003ceb70" y="156.035532"/>
    </g>
   </g>
   <g id="PathCollection_6">
    <g clip-path="url(#p8e7b5ddf82)">
     <use style="fill:#dc143c;stroke:#dc143c;" x="119.101963" xlink:href="#m17003ceb70" y="153.689191"/>
    </g>
   </g>
   <g id="PathCollection_7">
    <g clip-path="url(#p8e7b5ddf82)">
     <use style="fill:#dc143c;stroke:#dc143c;" x="61.11631" xlink:href="#m17003ceb70" y="139.024481"/>
    </g>
   </g>
   <g id="PathCollection_8">
    <g clip-path="url(#p8e7b5ddf82)">
     <use style="fill:#dc143c;stroke:#dc143c;" x="103.29012" xlink:href="#m17003ceb70" y="120.237025"/>
    </g>
   </g>
   <g id="PathCollection_9">
    <g clip-path="url(#p8e7b5ddf82)">
     <use style="fill:#dc143c;stroke:#dc143c;" x="149.297913" xlink:href="#m17003ceb70" y="133.19236"/>
    </g>
   </g>
   <g id="PathCollection_10">
    <g clip-path="url(#p8e7b5ddf82)">
     <use style="fill:#dc143c;stroke:#dc143c;" x="122.460034" xlink:href="#m17003ceb70" y="118.190177"/>
    </g>
   </g>
   <g id="PathCollection_11">
    <g clip-path="url(#p8e7b5ddf82)">
     <use style="fill:#dc143c;stroke:#dc143c;" x="122.460034" xlink:href="#m17003ceb70" y="118.190177"/>
    </g>
   </g>
   <g id="PathCollection_12">
    <g clip-path="url(#p8e7b5ddf82)">
     <use style="fill:#dc143c;stroke:#dc143c;" x="103.29012" xlink:href="#m17003ceb70" y="120.237025"/>
    </g>
   </g>
   <g id="PathCollection_13">
    <g clip-path="url(#p8e7b5ddf82)">
     <use style="fill:#dc143c;stroke:#dc143c;" x="61.11631" xlink:href="#m17003ceb70" y="94.71004"/>
    </g>
   </g>
   <g id="PathCollection_14">
    <g clip-path="url(#p8e7b5ddf82)">
     <use style="fill:#dc143c;stroke:#dc143c;" x="99.456137" xlink:href="#m17003ceb70" y="74.975899"/>
    </g>
   </g>
   <g id="PathCollection_15">
    <g clip-path="url(#p8e7b5ddf82)">
     <use style="fill:#dc143c;stroke:#dc143c;" x="144.313735" xlink:href="#m17003ceb70" y="90.42786"/>
    </g>
   </g>
   <g id="PathCollection_16">
    <g clip-path="url(#p8e7b5ddf82)">
     <use style="fill:#dc143c;stroke:#dc143c;" x="115.942263" xlink:href="#m17003ceb70" y="73.666091"/>
    </g>
   </g>
   <g id="PathCollection_17">
    <g clip-path="url(#p8e7b5ddf82)">
     <use style="fill:#dc143c;stroke:#dc143c;" x="115.942263" xlink:href="#m17003ceb70" y="73.666091"/>
    </g>
   </g>
   <g id="PathCollection_18">
    <g clip-path="url(#p8e7b5ddf82)">
     <use style="fill:#dc143c;stroke:#dc143c;" x="99.456137" xlink:href="#m17003ceb70" y="74.975899"/>
    </g>
   </g>
   <g id="PathCollection_19">
    <g clip-path="url(#p8e7b5ddf82)">
     <use style="fill:#dc143c;stroke:#dc143c;" x="61.11631" xlink:href="#m17003ceb70" y="52.378345"/>
    </g>
   </g>
   <g id="PathCollection_20">
    <g clip-path="url(#p8e7b5ddf82)">
     <use style="fill:#dc143c;stroke:#dc143c;" x="103.29012" xlink:href="#m17003ceb70" y="33.590889"/>
    </g>
   </g>
   <g id="PathCollection_21">
    <g clip-path="url(#p8e7b5ddf82)">
     <use style="fill:#dc143c;stroke:#dc143c;" x="149.297913" xlink:href="#m17003ceb70" y="46.546224"/>
    </g>
   </g>
   <g id="PathCollection_22">
    <g clip-path="url(#p8e7b5ddf82)">
     <use style="fill:#dc143c;stroke:#dc143c;" x="122.460034" xlink:href="#m17003ceb70" y="31.544041"/>
    </g>
   </g>
   <g id="PathCollection_23">
    <g clip-path="url(#p8e7b5ddf82)">
     <use style="fill:#dc143c;stroke:#dc143c;" x="122.460034" xlink:href="#m17003ceb70" y="31.544041"/>
    </g>
   </g>
   <g id="PathCollection_24">
    <g clip-path="url(#p8e7b5ddf82)">
     <use style="fill:#dc143c;stroke:#dc143c;" x="103.29012" xlink:href="#m17003ceb70" y="33.590889"/>
    </g>
   </g>
   <g id="PathCollection_25">
    <g clip-path="url(#p8e7b5ddf82)">
     <use style="fill:#dc143c;stroke:#dc143c;" x="61.11631" xlink:href="#m17003ceb70" y="227.140743"/>
    </g>
   </g>
   <g id="PathCollection_26">
    <g clip-path="url(#p8e7b5ddf82)">
     <use style="fill:#dc143c;stroke:#dc143c;" x="129.836616" xlink:href="#m17003ceb70" y="202.895511"/>
    </g>
   </g>
   <g id="PathCollection_27">
    <g clip-path="url(#p8e7b5ddf82)">
     <use style="fill:#dc143c;stroke:#dc143c;" x="165.354249" xlink:href="#m17003ceb70" y="219.826419"/>
    </g>
   </g>
   <g id="PathCollection_28">
    <g clip-path="url(#p8e7b5ddf82)">
     <use style="fill:#dc143c;stroke:#dc143c;" x="136.792611" xlink:href="#m17003ceb70" y="202.983351"/>
    </g>
   </g>
   <g id="PathCollection_29">
    <g clip-path="url(#p8e7b5ddf82)">
     <use style="fill:#dc143c;stroke:#dc143c;" x="136.441802" xlink:href="#m17003ceb70" y="202.912389"/>
    </g>
   </g>
   <g id="PathCollection_30">
    <g clip-path="url(#p8e7b5ddf82)">
     <use style="fill:#dc143c;stroke:#dc143c;" x="115.578418" xlink:href="#m17003ceb70" y="210.804439"/>
    </g>
   </g>
   <g id="matplotlib.axis_1">
    <g id="xtick_1">
     <g id="line2d_1">
      <defs>
       <path d="M 0 0 
L 0 3.5 
" id="me10cf86b3a" style="stroke:#000000;stroke-width:0.8;"/>
      </defs>
      <g>
       <use style="stroke:#000000;stroke-width:0.8;" x="22.776483" xlink:href="#me10cf86b3a" y="244.644567"/>
      </g>
     </g>
     <g id="text_1">
      <!-- 284 -->
      <defs>
       <path d="M 19.1875 8.296875 
L 53.609375 8.296875 
L 53.609375 0 
L 7.328125 0 
L 7.328125 8.296875 
Q 12.9375 14.109375 22.625 23.890625 
Q 32.328125 33.6875 34.8125 36.53125 
Q 39.546875 41.84375 41.421875 45.53125 
Q 43.3125 49.21875 43.3125 52.78125 
Q 43.3125 58.59375 39.234375 62.25 
Q 35.15625 65.921875 28.609375 65.921875 
Q 23.96875 65.921875 18.8125 64.3125 
Q 13.671875 62.703125 7.8125 59.421875 
L 7.8125 69.390625 
Q 13.765625 71.78125 18.9375 73 
Q 24.125 74.21875 28.421875 74.21875 
Q 39.75 74.21875 46.484375 68.546875 
Q 53.21875 62.890625 53.21875 53.421875 
Q 53.21875 48.921875 51.53125 44.890625 
Q 49.859375 40.875 45.40625 35.40625 
Q 44.1875 33.984375 37.640625 27.21875 
Q 31.109375 20.453125 19.1875 8.296875 
z
" id="DejaVuSans-50"/>
       <path d="M 31.78125 34.625 
Q 24.75 34.625 20.71875 30.859375 
Q 16.703125 27.09375 16.703125 20.515625 
Q 16.703125 13.921875 20.71875 10.15625 
Q 24.75 6.390625 31.78125 6.390625 
Q 38.8125 6.390625 42.859375 10.171875 
Q 46.921875 13.96875 46.921875 20.515625 
Q 46.921875 27.09375 42.890625 30.859375 
Q 38.875 34.625 31.78125 34.625 
z
M 21.921875 38.8125 
Q 15.578125 40.375 12.03125 44.71875 
Q 8.5 49.078125 8.5 55.328125 
Q 8.5 64.0625 14.71875 69.140625 
Q 20.953125 74.21875 31.78125 74.21875 
Q 42.671875 74.21875 48.875 69.140625 
Q 55.078125 64.0625 55.078125 55.328125 
Q 55.078125 49.078125 51.53125 44.71875 
Q 48 40.375 41.703125 38.8125 
Q 48.828125 37.15625 52.796875 32.3125 
Q 56.78125 27.484375 56.78125 20.515625 
Q 56.78125 9.90625 50.3125 4.234375 
Q 43.84375 -1.421875 31.78125 -1.421875 
Q 19.734375 -1.421875 13.25 4.234375 
Q 6.78125 9.90625 6.78125 20.515625 
Q 6.78125 27.484375 10.78125 32.3125 
Q 14.796875 37.15625 21.921875 38.8125 
z
M 18.3125 54.390625 
Q 18.3125 48.734375 21.84375 45.5625 
Q 25.390625 42.390625 31.78125 42.390625 
Q 38.140625 42.390625 41.71875 45.5625 
Q 45.3125 48.734375 45.3125 54.390625 
Q 45.3125 60.0625 41.71875 63.234375 
Q 38.140625 66.40625 31.78125 66.40625 
Q 25.390625 66.40625 21.84375 63.234375 
Q 18.3125 60.0625 18.3125 54.390625 
z
" id="DejaVuSans-56"/>
       <path d="M 37.796875 64.3125 
L 12.890625 25.390625 
L 37.796875 25.390625 
z
M 35.203125 72.90625 
L 47.609375 72.90625 
L 47.609375 25.390625 
L 58.015625 25.390625 
L 58.015625 17.1875 
L 47.609375 17.1875 
L 47.609375 0 
L 37.796875 0 
L 37.796875 17.1875 
L 4.890625 17.1875 
L 4.890625 26.703125 
z
" id="DejaVuSans-52"/>
      </defs>
      <g transform="translate(16.095858 256.963473)scale(0.07 -0.07)">
       <use xlink:href="#DejaVuSans-50"/>
       <use x="63.623047" xlink:href="#DejaVuSans-56"/>
       <use x="127.246094" xlink:href="#DejaVuSans-52"/>
      </g>
     </g>
    </g>
    <g id="xtick_2">
     <g id="line2d_2">
      <g>
       <use style="stroke:#000000;stroke-width:0.8;" x="61.11631" xlink:href="#me10cf86b3a" y="244.644567"/>
      </g>
     </g>
     <g id="text_2">
      <!-- 285 -->
      <defs>
       <path d="M 10.796875 72.90625 
L 49.515625 72.90625 
L 49.515625 64.59375 
L 19.828125 64.59375 
L 19.828125 46.734375 
Q 21.96875 47.46875 24.109375 47.828125 
Q 26.265625 48.1875 28.421875 48.1875 
Q 40.625 48.1875 47.75 41.5 
Q 54.890625 34.8125 54.890625 23.390625 
Q 54.890625 11.625 47.5625 5.09375 
Q 40.234375 -1.421875 26.90625 -1.421875 
Q 22.3125 -1.421875 17.546875 -0.640625 
Q 12.796875 0.140625 7.71875 1.703125 
L 7.71875 11.625 
Q 12.109375 9.234375 16.796875 8.0625 
Q 21.484375 6.890625 26.703125 6.890625 
Q 35.15625 6.890625 40.078125 11.328125 
Q 45.015625 15.765625 45.015625 23.390625 
Q 45.015625 31 40.078125 35.4375 
Q 35.15625 39.890625 26.703125 39.890625 
Q 22.75 39.890625 18.8125 39.015625 
Q 14.890625 38.140625 10.796875 36.28125 
z
" id="DejaVuSans-53"/>
      </defs>
      <g transform="translate(54.435685 256.963473)scale(0.07 -0.07)">
       <use xlink:href="#DejaVuSans-50"/>
       <use x="63.623047" xlink:href="#DejaVuSans-56"/>
       <use x="127.246094" xlink:href="#DejaVuSans-53"/>
      </g>
     </g>
    </g>
    <g id="xtick_3">
     <g id="line2d_3">
      <g>
       <use style="stroke:#000000;stroke-width:0.8;" x="99.456137" xlink:href="#me10cf86b3a" y="244.644567"/>
      </g>
     </g>
     <g id="text_3">
      <!-- 286 -->
      <defs>
       <path d="M 33.015625 40.375 
Q 26.375 40.375 22.484375 35.828125 
Q 18.609375 31.296875 18.609375 23.390625 
Q 18.609375 15.53125 22.484375 10.953125 
Q 26.375 6.390625 33.015625 6.390625 
Q 39.65625 6.390625 43.53125 10.953125 
Q 47.40625 15.53125 47.40625 23.390625 
Q 47.40625 31.296875 43.53125 35.828125 
Q 39.65625 40.375 33.015625 40.375 
z
M 52.59375 71.296875 
L 52.59375 62.3125 
Q 48.875 64.0625 45.09375 64.984375 
Q 41.3125 65.921875 37.59375 65.921875 
Q 27.828125 65.921875 22.671875 59.328125 
Q 17.53125 52.734375 16.796875 39.40625 
Q 19.671875 43.65625 24.015625 45.921875 
Q 28.375 48.1875 33.59375 48.1875 
Q 44.578125 48.1875 50.953125 41.515625 
Q 57.328125 34.859375 57.328125 23.390625 
Q 57.328125 12.15625 50.6875 5.359375 
Q 44.046875 -1.421875 33.015625 -1.421875 
Q 20.359375 -1.421875 13.671875 8.265625 
Q 6.984375 17.96875 6.984375 36.375 
Q 6.984375 53.65625 15.1875 63.9375 
Q 23.390625 74.21875 37.203125 74.21875 
Q 40.921875 74.21875 44.703125 73.484375 
Q 48.484375 72.75 52.59375 71.296875 
z
" id="DejaVuSans-54"/>
      </defs>
      <g transform="translate(92.775512 256.963473)scale(0.07 -0.07)">
       <use xlink:href="#DejaVuSans-50"/>
       <use x="63.623047" xlink:href="#DejaVuSans-56"/>
       <use x="127.246094" xlink:href="#DejaVuSans-54"/>
      </g>
     </g>
    </g>
    <g id="xtick_4">
     <g id="line2d_4">
      <g>
       <use style="stroke:#000000;stroke-width:0.8;" x="137.795965" xlink:href="#me10cf86b3a" y="244.644567"/>
      </g>
     </g>
     <g id="text_4">
      <!-- 287 -->
      <defs>
       <path d="M 8.203125 72.90625 
L 55.078125 72.90625 
L 55.078125 68.703125 
L 28.609375 0 
L 18.3125 0 
L 43.21875 64.59375 
L 8.203125 64.59375 
z
" id="DejaVuSans-55"/>
      </defs>
      <g transform="translate(131.11534 256.963473)scale(0.07 -0.07)">
       <use xlink:href="#DejaVuSans-50"/>
       <use x="63.623047" xlink:href="#DejaVuSans-56"/>
       <use x="127.246094" xlink:href="#DejaVuSans-55"/>
      </g>
     </g>
    </g>
    <g id="xtick_5">
     <g id="line2d_5">
      <g>
       <use style="stroke:#000000;stroke-width:0.8;" x="176.135792" xlink:href="#me10cf86b3a" y="244.644567"/>
      </g>
     </g>
     <g id="text_5">
      <!-- 288 -->
      <g transform="translate(169.455167 256.963473)scale(0.07 -0.07)">
       <use xlink:href="#DejaVuSans-50"/>
       <use x="63.623047" xlink:href="#DejaVuSans-56"/>
       <use x="127.246094" xlink:href="#DejaVuSans-56"/>
      </g>
     </g>
    </g>
    <g id="xtick_6">
     <g id="line2d_6">
      <g>
       <use style="stroke:#000000;stroke-width:0.8;" x="214.475619" xlink:href="#me10cf86b3a" y="244.644567"/>
      </g>
     </g>
     <g id="text_6">
      <!-- 289 -->
      <defs>
       <path d="M 10.984375 1.515625 
L 10.984375 10.5 
Q 14.703125 8.734375 18.5 7.8125 
Q 22.3125 6.890625 25.984375 6.890625 
Q 35.75 6.890625 40.890625 13.453125 
Q 46.046875 20.015625 46.78125 33.40625 
Q 43.953125 29.203125 39.59375 26.953125 
Q 35.25 24.703125 29.984375 24.703125 
Q 19.046875 24.703125 12.671875 31.3125 
Q 6.296875 37.9375 6.296875 49.421875 
Q 6.296875 60.640625 12.9375 67.421875 
Q 19.578125 74.21875 30.609375 74.21875 
Q 43.265625 74.21875 49.921875 64.515625 
Q 56.59375 54.828125 56.59375 36.375 
Q 56.59375 19.140625 48.40625 8.859375 
Q 40.234375 -1.421875 26.421875 -1.421875 
Q 22.703125 -1.421875 18.890625 -0.6875 
Q 15.09375 0.046875 10.984375 1.515625 
z
M 30.609375 32.421875 
Q 37.25 32.421875 41.125 36.953125 
Q 45.015625 41.5 45.015625 49.421875 
Q 45.015625 57.28125 41.125 61.84375 
Q 37.25 66.40625 30.609375 66.40625 
Q 23.96875 66.40625 20.09375 61.84375 
Q 16.21875 57.28125 16.21875 49.421875 
Q 16.21875 41.5 20.09375 36.953125 
Q 23.96875 32.421875 30.609375 32.421875 
z
" id="DejaVuSans-57"/>
      </defs>
      <g transform="translate(207.794994 256.963473)scale(0.07 -0.07)">
       <use xlink:href="#DejaVuSans-50"/>
       <use x="63.623047" xlink:href="#DejaVuSans-56"/>
       <use x="127.246094" xlink:href="#DejaVuSans-57"/>
      </g>
     </g>
    </g>
    <g id="xtick_7">
     <g id="line2d_7">
      <defs>
       <path d="M 0 0 
L 0 2 
" id="m702d894d3b" style="stroke:#000000;stroke-width:0.6;"/>
      </defs>
      <g>
       <use style="stroke:#000000;stroke-width:0.6;" x="30.444448" xlink:href="#m702d894d3b" y="244.644567"/>
      </g>
     </g>
    </g>
    <g id="xtick_8">
     <g id="line2d_8">
      <g>
       <use style="stroke:#000000;stroke-width:0.6;" x="38.112414" xlink:href="#m702d894d3b" y="244.644567"/>
      </g>
     </g>
    </g>
    <g id="xtick_9">
     <g id="line2d_9">
      <g>
       <use style="stroke:#000000;stroke-width:0.6;" x="45.780379" xlink:href="#m702d894d3b" y="244.644567"/>
      </g>
     </g>
    </g>
    <g id="xtick_10">
     <g id="line2d_10">
      <g>
       <use style="stroke:#000000;stroke-width:0.6;" x="53.448345" xlink:href="#m702d894d3b" y="244.644567"/>
      </g>
     </g>
    </g>
    <g id="xtick_11">
     <g id="line2d_11">
      <g>
       <use style="stroke:#000000;stroke-width:0.6;" x="68.784275" xlink:href="#m702d894d3b" y="244.644567"/>
      </g>
     </g>
    </g>
    <g id="xtick_12">
     <g id="line2d_12">
      <g>
       <use style="stroke:#000000;stroke-width:0.6;" x="76.452241" xlink:href="#m702d894d3b" y="244.644567"/>
      </g>
     </g>
    </g>
    <g id="xtick_13">
     <g id="line2d_13">
      <g>
       <use style="stroke:#000000;stroke-width:0.6;" x="84.120206" xlink:href="#m702d894d3b" y="244.644567"/>
      </g>
     </g>
    </g>
    <g id="xtick_14">
     <g id="line2d_14">
      <g>
       <use style="stroke:#000000;stroke-width:0.6;" x="91.788172" xlink:href="#m702d894d3b" y="244.644567"/>
      </g>
     </g>
    </g>
    <g id="xtick_15">
     <g id="line2d_15">
      <g>
       <use style="stroke:#000000;stroke-width:0.6;" x="107.124103" xlink:href="#m702d894d3b" y="244.644567"/>
      </g>
     </g>
    </g>
    <g id="xtick_16">
     <g id="line2d_16">
      <g>
       <use style="stroke:#000000;stroke-width:0.6;" x="114.792068" xlink:href="#m702d894d3b" y="244.644567"/>
      </g>
     </g>
    </g>
    <g id="xtick_17">
     <g id="line2d_17">
      <g>
       <use style="stroke:#000000;stroke-width:0.6;" x="122.460034" xlink:href="#m702d894d3b" y="244.644567"/>
      </g>
     </g>
    </g>
    <g id="xtick_18">
     <g id="line2d_18">
      <g>
       <use style="stroke:#000000;stroke-width:0.6;" x="130.127999" xlink:href="#m702d894d3b" y="244.644567"/>
      </g>
     </g>
    </g>
    <g id="xtick_19">
     <g id="line2d_19">
      <g>
       <use style="stroke:#000000;stroke-width:0.6;" x="145.46393" xlink:href="#m702d894d3b" y="244.644567"/>
      </g>
     </g>
    </g>
    <g id="xtick_20">
     <g id="line2d_20">
      <g>
       <use style="stroke:#000000;stroke-width:0.6;" x="153.131895" xlink:href="#m702d894d3b" y="244.644567"/>
      </g>
     </g>
    </g>
    <g id="xtick_21">
     <g id="line2d_21">
      <g>
       <use style="stroke:#000000;stroke-width:0.6;" x="160.799861" xlink:href="#m702d894d3b" y="244.644567"/>
      </g>
     </g>
    </g>
    <g id="xtick_22">
     <g id="line2d_22">
      <g>
       <use style="stroke:#000000;stroke-width:0.6;" x="168.467826" xlink:href="#m702d894d3b" y="244.644567"/>
      </g>
     </g>
    </g>
    <g id="xtick_23">
     <g id="line2d_23">
      <g>
       <use style="stroke:#000000;stroke-width:0.6;" x="183.803757" xlink:href="#m702d894d3b" y="244.644567"/>
      </g>
     </g>
    </g>
    <g id="xtick_24">
     <g id="line2d_24">
      <g>
       <use style="stroke:#000000;stroke-width:0.6;" x="191.471723" xlink:href="#m702d894d3b" y="244.644567"/>
      </g>
     </g>
    </g>
    <g id="xtick_25">
     <g id="line2d_25">
      <g>
       <use style="stroke:#000000;stroke-width:0.6;" x="199.139688" xlink:href="#m702d894d3b" y="244.644567"/>
      </g>
     </g>
    </g>
    <g id="xtick_26">
     <g id="line2d_26">
      <g>
       <use style="stroke:#000000;stroke-width:0.6;" x="206.807654" xlink:href="#m702d894d3b" y="244.644567"/>
      </g>
     </g>
    </g>
    <g id="text_7">
     <!-- binding energy / eV -->
     <defs>
      <path d="M 48.6875 27.296875 
Q 48.6875 37.203125 44.609375 42.84375 
Q 40.53125 48.484375 33.40625 48.484375 
Q 26.265625 48.484375 22.1875 42.84375 
Q 18.109375 37.203125 18.109375 27.296875 
Q 18.109375 17.390625 22.1875 11.75 
Q 26.265625 6.109375 33.40625 6.109375 
Q 40.53125 6.109375 44.609375 11.75 
Q 48.6875 17.390625 48.6875 27.296875 
z
M 18.109375 46.390625 
Q 20.953125 51.265625 25.265625 53.625 
Q 29.59375 56 35.59375 56 
Q 45.5625 56 51.78125 48.09375 
Q 58.015625 40.1875 58.015625 27.296875 
Q 58.015625 14.40625 51.78125 6.484375 
Q 45.5625 -1.421875 35.59375 -1.421875 
Q 29.59375 -1.421875 25.265625 0.953125 
Q 20.953125 3.328125 18.109375 8.203125 
L 18.109375 0 
L 9.078125 0 
L 9.078125 75.984375 
L 18.109375 75.984375 
z
" id="DejaVuSans-98"/>
      <path d="M 9.421875 54.6875 
L 18.40625 54.6875 
L 18.40625 0 
L 9.421875 0 
z
M 9.421875 75.984375 
L 18.40625 75.984375 
L 18.40625 64.59375 
L 9.421875 64.59375 
z
" id="DejaVuSans-105"/>
      <path d="M 54.890625 33.015625 
L 54.890625 0 
L 45.90625 0 
L 45.90625 32.71875 
Q 45.90625 40.484375 42.875 44.328125 
Q 39.84375 48.1875 33.796875 48.1875 
Q 26.515625 48.1875 22.3125 43.546875 
Q 18.109375 38.921875 18.109375 30.90625 
L 18.109375 0 
L 9.078125 0 
L 9.078125 54.6875 
L 18.109375 54.6875 
L 18.109375 46.1875 
Q 21.34375 51.125 25.703125 53.5625 
Q 30.078125 56 35.796875 56 
Q 45.21875 56 50.046875 50.171875 
Q 54.890625 44.34375 54.890625 33.015625 
z
" id="DejaVuSans-110"/>
      <path d="M 45.40625 46.390625 
L 45.40625 75.984375 
L 54.390625 75.984375 
L 54.390625 0 
L 45.40625 0 
L 45.40625 8.203125 
Q 42.578125 3.328125 38.25 0.953125 
Q 33.9375 -1.421875 27.875 -1.421875 
Q 17.96875 -1.421875 11.734375 6.484375 
Q 5.515625 14.40625 5.515625 27.296875 
Q 5.515625 40.1875 11.734375 48.09375 
Q 17.96875 56 27.875 56 
Q 33.9375 56 38.25 53.625 
Q 42.578125 51.265625 45.40625 46.390625 
z
M 14.796875 27.296875 
Q 14.796875 17.390625 18.875 11.75 
Q 22.953125 6.109375 30.078125 6.109375 
Q 37.203125 6.109375 41.296875 11.75 
Q 45.40625 17.390625 45.40625 27.296875 
Q 45.40625 37.203125 41.296875 42.84375 
Q 37.203125 48.484375 30.078125 48.484375 
Q 22.953125 48.484375 18.875 42.84375 
Q 14.796875 37.203125 14.796875 27.296875 
z
" id="DejaVuSans-100"/>
      <path d="M 45.40625 27.984375 
Q 45.40625 37.75 41.375 43.109375 
Q 37.359375 48.484375 30.078125 48.484375 
Q 22.859375 48.484375 18.828125 43.109375 
Q 14.796875 37.75 14.796875 27.984375 
Q 14.796875 18.265625 18.828125 12.890625 
Q 22.859375 7.515625 30.078125 7.515625 
Q 37.359375 7.515625 41.375 12.890625 
Q 45.40625 18.265625 45.40625 27.984375 
z
M 54.390625 6.78125 
Q 54.390625 -7.171875 48.1875 -13.984375 
Q 42 -20.796875 29.203125 -20.796875 
Q 24.46875 -20.796875 20.265625 -20.09375 
Q 16.0625 -19.390625 12.109375 -17.921875 
L 12.109375 -9.1875 
Q 16.0625 -11.328125 19.921875 -12.34375 
Q 23.78125 -13.375 27.78125 -13.375 
Q 36.625 -13.375 41.015625 -8.765625 
Q 45.40625 -4.15625 45.40625 5.171875 
L 45.40625 9.625 
Q 42.625 4.78125 38.28125 2.390625 
Q 33.9375 0 27.875 0 
Q 17.828125 0 11.671875 7.65625 
Q 5.515625 15.328125 5.515625 27.984375 
Q 5.515625 40.671875 11.671875 48.328125 
Q 17.828125 56 27.875 56 
Q 33.9375 56 38.28125 53.609375 
Q 42.625 51.21875 45.40625 46.390625 
L 45.40625 54.6875 
L 54.390625 54.6875 
z
" id="DejaVuSans-103"/>
      <path id="DejaVuSans-32"/>
      <path d="M 56.203125 29.59375 
L 56.203125 25.203125 
L 14.890625 25.203125 
Q 15.484375 15.921875 20.484375 11.0625 
Q 25.484375 6.203125 34.421875 6.203125 
Q 39.59375 6.203125 44.453125 7.46875 
Q 49.3125 8.734375 54.109375 11.28125 
L 54.109375 2.78125 
Q 49.265625 0.734375 44.1875 -0.34375 
Q 39.109375 -1.421875 33.890625 -1.421875 
Q 20.796875 -1.421875 13.15625 6.1875 
Q 5.515625 13.8125 5.515625 26.8125 
Q 5.515625 40.234375 12.765625 48.109375 
Q 20.015625 56 32.328125 56 
Q 43.359375 56 49.78125 48.890625 
Q 56.203125 41.796875 56.203125 29.59375 
z
M 47.21875 32.234375 
Q 47.125 39.59375 43.09375 43.984375 
Q 39.0625 48.390625 32.421875 48.390625 
Q 24.90625 48.390625 20.390625 44.140625 
Q 15.875 39.890625 15.1875 32.171875 
z
" id="DejaVuSans-101"/>
      <path d="M 41.109375 46.296875 
Q 39.59375 47.171875 37.8125 47.578125 
Q 36.03125 48 33.890625 48 
Q 26.265625 48 22.1875 43.046875 
Q 18.109375 38.09375 18.109375 28.8125 
L 18.109375 0 
L 9.078125 0 
L 9.078125 54.6875 
L 18.109375 54.6875 
L 18.109375 46.1875 
Q 20.953125 51.171875 25.484375 53.578125 
Q 30.03125 56 36.53125 56 
Q 37.453125 56 38.578125 55.875 
Q 39.703125 55.765625 41.0625 55.515625 
z
" id="DejaVuSans-114"/>
      <path d="M 32.171875 -5.078125 
Q 28.375 -14.84375 24.75 -17.8125 
Q 21.140625 -20.796875 15.09375 -20.796875 
L 7.90625 -20.796875 
L 7.90625 -13.28125 
L 13.1875 -13.28125 
Q 16.890625 -13.28125 18.9375 -11.515625 
Q 21 -9.765625 23.484375 -3.21875 
L 25.09375 0.875 
L 2.984375 54.6875 
L 12.5 54.6875 
L 29.59375 11.921875 
L 46.6875 54.6875 
L 56.203125 54.6875 
z
" id="DejaVuSans-121"/>
      <path d="M 25.390625 72.90625 
L 33.6875 72.90625 
L 8.296875 -9.28125 
L 0 -9.28125 
z
" id="DejaVuSans-47"/>
      <path d="M 28.609375 0 
L 0.78125 72.90625 
L 11.078125 72.90625 
L 34.1875 11.53125 
L 57.328125 72.90625 
L 67.578125 72.90625 
L 39.796875 0 
z
" id="DejaVuSans-86"/>
     </defs>
     <g transform="translate(79.348551 268.498004)scale(0.08 -0.08)">
      <use xlink:href="#DejaVuSans-98"/>
      <use x="63.476562" xlink:href="#DejaVuSans-105"/>
      <use x="91.259766" xlink:href="#DejaVuSans-110"/>
      <use x="154.638672" xlink:href="#DejaVuSans-100"/>
      <use x="218.115234" xlink:href="#DejaVuSans-105"/>
      <use x="245.898438" xlink:href="#DejaVuSans-110"/>
      <use x="309.277344" xlink:href="#DejaVuSans-103"/>
      <use x="372.753906" xlink:href="#DejaVuSans-32"/>
      <use x="404.541016" xlink:href="#DejaVuSans-101"/>
      <use x="466.064453" xlink:href="#DejaVuSans-110"/>
      <use x="529.443359" xlink:href="#DejaVuSans-101"/>
      <use x="590.966797" xlink:href="#DejaVuSans-114"/>
      <use x="632.064453" xlink:href="#DejaVuSans-103"/>
      <use x="695.541016" xlink:href="#DejaVuSans-121"/>
      <use x="754.720703" xlink:href="#DejaVuSans-32"/>
      <use x="786.507812" xlink:href="#DejaVuSans-47"/>
      <use x="820.199219" xlink:href="#DejaVuSans-32"/>
      <use x="851.986328" xlink:href="#DejaVuSans-101"/>
      <use x="913.509766" xlink:href="#DejaVuSans-86"/>
     </g>
    </g>
   </g>
   <g id="matplotlib.axis_2">
    <g id="text_8">
     <!-- intensity / arb. units -->
     <defs>
      <path d="M 18.3125 70.21875 
L 18.3125 54.6875 
L 36.8125 54.6875 
L 36.8125 47.703125 
L 18.3125 47.703125 
L 18.3125 18.015625 
Q 18.3125 11.328125 20.140625 9.421875 
Q 21.96875 7.515625 27.59375 7.515625 
L 36.8125 7.515625 
L 36.8125 0 
L 27.59375 0 
Q 17.1875 0 13.234375 3.875 
Q 9.28125 7.765625 9.28125 18.015625 
L 9.28125 47.703125 
L 2.6875 47.703125 
L 2.6875 54.6875 
L 9.28125 54.6875 
L 9.28125 70.21875 
z
" id="DejaVuSans-116"/>
      <path d="M 44.28125 53.078125 
L 44.28125 44.578125 
Q 40.484375 46.53125 36.375 47.5 
Q 32.28125 48.484375 27.875 48.484375 
Q 21.1875 48.484375 17.84375 46.4375 
Q 14.5 44.390625 14.5 40.28125 
Q 14.5 37.15625 16.890625 35.375 
Q 19.28125 33.59375 26.515625 31.984375 
L 29.59375 31.296875 
Q 39.15625 29.25 43.1875 25.515625 
Q 47.21875 21.78125 47.21875 15.09375 
Q 47.21875 7.46875 41.1875 3.015625 
Q 35.15625 -1.421875 24.609375 -1.421875 
Q 20.21875 -1.421875 15.453125 -0.5625 
Q 10.6875 0.296875 5.421875 2 
L 5.421875 11.28125 
Q 10.40625 8.6875 15.234375 7.390625 
Q 20.0625 6.109375 24.8125 6.109375 
Q 31.15625 6.109375 34.5625 8.28125 
Q 37.984375 10.453125 37.984375 14.40625 
Q 37.984375 18.0625 35.515625 20.015625 
Q 33.0625 21.96875 24.703125 23.78125 
L 21.578125 24.515625 
Q 13.234375 26.265625 9.515625 29.90625 
Q 5.8125 33.546875 5.8125 39.890625 
Q 5.8125 47.609375 11.28125 51.796875 
Q 16.75 56 26.8125 56 
Q 31.78125 56 36.171875 55.265625 
Q 40.578125 54.546875 44.28125 53.078125 
z
" id="DejaVuSans-115"/>
      <path d="M 34.28125 27.484375 
Q 23.390625 27.484375 19.1875 25 
Q 14.984375 22.515625 14.984375 16.5 
Q 14.984375 11.71875 18.140625 8.90625 
Q 21.296875 6.109375 26.703125 6.109375 
Q 34.1875 6.109375 38.703125 11.40625 
Q 43.21875 16.703125 43.21875 25.484375 
L 43.21875 27.484375 
z
M 52.203125 31.203125 
L 52.203125 0 
L 43.21875 0 
L 43.21875 8.296875 
Q 40.140625 3.328125 35.546875 0.953125 
Q 30.953125 -1.421875 24.3125 -1.421875 
Q 15.921875 -1.421875 10.953125 3.296875 
Q 6 8.015625 6 15.921875 
Q 6 25.140625 12.171875 29.828125 
Q 18.359375 34.515625 30.609375 34.515625 
L 43.21875 34.515625 
L 43.21875 35.40625 
Q 43.21875 41.609375 39.140625 45 
Q 35.0625 48.390625 27.6875 48.390625 
Q 23 48.390625 18.546875 47.265625 
Q 14.109375 46.140625 10.015625 43.890625 
L 10.015625 52.203125 
Q 14.9375 54.109375 19.578125 55.046875 
Q 24.21875 56 28.609375 56 
Q 40.484375 56 46.34375 49.84375 
Q 52.203125 43.703125 52.203125 31.203125 
z
" id="DejaVuSans-97"/>
      <path d="M 10.6875 12.40625 
L 21 12.40625 
L 21 0 
L 10.6875 0 
z
" id="DejaVuSans-46"/>
      <path d="M 8.5 21.578125 
L 8.5 54.6875 
L 17.484375 54.6875 
L 17.484375 21.921875 
Q 17.484375 14.15625 20.5 10.265625 
Q 23.53125 6.390625 29.59375 6.390625 
Q 36.859375 6.390625 41.078125 11.03125 
Q 45.3125 15.671875 45.3125 23.6875 
L 45.3125 54.6875 
L 54.296875 54.6875 
L 54.296875 0 
L 45.3125 0 
L 45.3125 8.40625 
Q 42.046875 3.421875 37.71875 1 
Q 33.40625 -1.421875 27.6875 -1.421875 
Q 18.265625 -1.421875 13.375 4.4375 
Q 8.5 10.296875 8.5 21.578125 
z
M 31.109375 56 
z
" id="DejaVuSans-117"/>
     </defs>
     <g transform="translate(13.27875 167.914158)rotate(-90)scale(0.08 -0.08)">
      <use xlink:href="#DejaVuSans-105"/>
      <use x="27.783203" xlink:href="#DejaVuSans-110"/>
      <use x="91.162109" xlink:href="#DejaVuSans-116"/>
      <use x="130.371094" xlink:href="#DejaVuSans-101"/>
      <use x="191.894531" xlink:href="#DejaVuSans-110"/>
      <use x="255.273438" xlink:href="#DejaVuSans-115"/>
      <use x="307.373047" xlink:href="#DejaVuSans-105"/>
      <use x="335.15625" xlink:href="#DejaVuSans-116"/>
      <use x="374.365234" xlink:href="#DejaVuSans-121"/>
      <use x="433.544922" xlink:href="#DejaVuSans-32"/>
      <use x="465.332031" xlink:href="#DejaVuSans-47"/>
      <use x="499.023438" xlink:href="#DejaVuSans-32"/>
      <use x="530.810547" xlink:href="#DejaVuSans-97"/>
      <use x="592.089844" xlink:href="#DejaVuSans-114"/>
      <use x="633.203125" xlink:href="#DejaVuSans-98"/>
      <use x="696.679688" xlink:href="#DejaVuSans-46"/>
      <use x="728.466797" xlink:href="#DejaVuSans-32"/>
      <use x="760.253906" xlink:href="#DejaVuSans-117"/>
      <use x="823.632812" xlink:href="#DejaVuSans-110"/>
      <use x="887.011719" xlink:href="#DejaVuSans-105"/>
      <use x="914.794922" xlink:href="#DejaVuSans-116"/>
      <use x="954.003906" xlink:href="#DejaVuSans-115"/>
     </g>
    </g>
   </g>
   <g id="line2d_27">
    <path clip-path="url(#p8e7b5ddf82)" d="M -1 192.611085 
L 8.765526 192.448751 
L 14.879545 192.184232 
L 20.993564 191.687273 
L 25.579079 191.102007 
L 30.164593 190.301678 
L 34.750108 189.286547 
L 40.864127 187.678706 
L 50.035156 185.220062 
L 54.62067 184.248701 
L 59.206185 183.572372 
L 63.791699 183.183016 
L 74.491233 182.512175 
L 77.548243 182.022128 
L 80.605252 181.232822 
L 83.662262 180.068904 
L 86.719272 178.480627 
L 89.776281 176.452855 
L 92.833291 174.01121 
L 95.890301 171.224392 
L 100.475815 166.646392 
L 105.06133 162.049199 
L 108.118339 159.262287 
L 111.175349 156.897387 
L 112.703854 155.920871 
L 114.232358 155.103154 
L 115.760863 154.457277 
L 117.289368 153.993471 
L 118.817873 153.718967 
L 120.346378 153.637877 
L 121.874883 153.751166 
L 123.403387 154.056695 
L 124.931892 154.549348 
L 126.460397 155.221221 
L 127.988902 156.061878 
L 129.517407 157.058651 
L 132.574416 159.46081 
L 135.631426 162.295351 
L 140.21694 167.041792 
L 147.859464 175.12637 
L 150.916474 178.092396 
L 153.973484 180.789097 
L 157.030493 183.174008 
L 160.087503 185.228242 
L 163.144513 186.953066 
L 166.201522 188.365631 
L 169.258532 189.494374 
L 172.315542 190.374595 
L 175.372551 191.04453 
L 179.958066 191.737603 
L 184.54358 192.158163 
L 190.657599 192.452976 
L 199.828628 192.612062 
L 221.227696 192.656319 
L 230.009602 192.656818 
L 230.009602 192.656818 
" style="fill:none;stroke:#000000;stroke-dasharray:1,0;stroke-dashoffset:0;"/>
   </g>
   <g id="line2d_28">
    <path clip-path="url(#p8e7b5ddf82)" d="M -1 149.288044 
L 9.740941 149.094858 
L 16.105353 148.782962 
L 20.878661 148.374837 
L 25.65197 147.763839 
L 30.425278 146.91578 
L 35.198587 145.827751 
L 41.562998 144.084082 
L 52.700718 140.909341 
L 57.474026 139.772382 
L 63.838438 138.509326 
L 70.202849 137.258973 
L 73.385055 136.483726 
L 76.56726 135.520311 
L 79.749466 134.317889 
L 82.931672 132.849997 
L 86.113877 131.121572 
L 89.296083 129.171809 
L 102.024906 120.921135 
L 105.207111 119.30236 
L 108.389317 118.066771 
L 109.98042 117.614386 
L 111.571523 117.280025 
L 113.162625 117.066953 
L 114.753728 116.97638 
L 116.344831 117.007519 
L 117.935934 117.157695 
L 121.11814 117.795998 
L 124.300345 118.839035 
L 127.482551 120.217876 
L 130.664757 121.855432 
L 135.438065 124.63011 
L 154.531299 136.223742 
L 159.304608 138.79739 
L 164.077916 141.141692 
L 168.851225 143.206563 
L 173.624533 144.948042 
L 176.806739 145.916653 
L 181.580047 147.081874 
L 186.353356 147.92753 
L 191.126664 148.50352 
L 195.899973 148.871107 
L 202.264384 149.14025 
L 211.811001 149.290965 
L 230.009602 149.332572 
L 230.009602 149.332572 
" style="fill:none;stroke:#000000;stroke-dasharray:3,1,3,1;stroke-dashoffset:0;"/>
   </g>
   <g id="line2d_29">
    <path clip-path="url(#p8e7b5ddf82)" d="M -1 105.965013 
L 8.744106 105.803017 
L 15.008834 105.529327 
L 21.273561 105.007052 
L 25.972107 104.385236 
L 30.670653 103.527312 
L 35.369199 102.427502 
L 40.067745 101.119154 
L 49.464836 98.186863 
L 58.861928 95.358638 
L 66.692838 93.041228 
L 71.391384 91.400944 
L 74.523748 90.097337 
L 77.656111 88.582735 
L 80.788475 86.846124 
L 85.487021 83.876581 
L 96.450295 76.5904 
L 99.582659 74.915078 
L 102.715023 73.626533 
L 104.281205 73.153968 
L 105.847386 72.806117 
L 107.413568 72.58782 
L 108.97975 72.501526 
L 110.545932 72.547276 
L 112.112114 72.722776 
L 113.678296 73.023529 
L 116.81066 73.973096 
L 119.943024 75.325108 
L 123.075388 76.991366 
L 127.773934 79.874446 
L 141.869571 88.972811 
L 146.568117 91.722956 
L 151.266663 94.27538 
L 155.965209 96.622593 
L 160.663754 98.741969 
L 165.3623 100.597209 
L 170.060846 102.153024 
L 174.759392 103.391665 
L 179.457938 104.322221 
L 184.156484 104.979529 
L 188.855029 105.415205 
L 195.119757 105.748743 
L 202.950667 105.929609 
L 218.612486 106.005999 
L 230.009602 106.010348 
L 230.009602 106.010348 
" style="fill:none;stroke:#000000;stroke-dasharray:3,1,1,1;stroke-dashoffset:0;"/>
   </g>
   <g id="line2d_30">
    <path clip-path="url(#p8e7b5ddf82)" d="M -1 62.641908 
L 9.740941 62.448722 
L 16.105353 62.136826 
L 20.878661 61.728701 
L 25.65197 61.117703 
L 30.425278 60.269644 
L 35.198587 59.181615 
L 41.562998 57.437946 
L 52.700718 54.263206 
L 57.474026 53.126246 
L 63.838438 51.86319 
L 70.202849 50.612837 
L 73.385055 49.83759 
L 76.56726 48.874176 
L 79.749466 47.671753 
L 82.931672 46.203861 
L 86.113877 44.475437 
L 89.296083 42.525673 
L 102.024906 34.274999 
L 105.207111 32.656224 
L 108.389317 31.420636 
L 109.98042 30.96825 
L 111.571523 30.633889 
L 113.162625 30.420817 
L 114.753728 30.330244 
L 116.344831 30.361383 
L 117.935934 30.511559 
L 121.11814 31.149862 
L 124.300345 32.192899 
L 127.482551 33.57174 
L 130.664757 35.209296 
L 135.438065 37.983974 
L 154.531299 49.577606 
L 159.304608 52.151254 
L 164.077916 54.495556 
L 168.851225 56.560427 
L 173.624533 58.301906 
L 176.806739 59.270517 
L 181.580047 60.435739 
L 186.353356 61.281394 
L 191.126664 61.857384 
L 195.899973 62.224971 
L 202.264384 62.494114 
L 211.811001 62.644829 
L 230.009602 62.686436 
L 230.009602 62.686436 
" style="fill:none;stroke:#000000;stroke-dasharray:1,1;stroke-dashoffset:0;"/>
   </g>
   <g id="line2d_31">
    <path clip-path="url(#p8e7b5ddf82)" d="M -1 235.934111 
L 9.60944 235.745466 
L 16.294978 235.416744 
L 21.309131 234.97667 
L 26.323285 234.31087 
L 31.337438 233.38669 
L 36.351592 232.21673 
L 51.394052 228.326223 
L 54.736822 227.719876 
L 58.079591 227.31517 
L 61.42236 227.133456 
L 64.765129 227.169918 
L 69.779282 227.553358 
L 79.807589 228.571312 
L 83.150358 228.630331 
L 86.493127 228.389362 
L 89.835896 227.77367 
L 93.178665 226.733075 
L 96.521434 225.24714 
L 99.864203 223.328523 
L 103.206972 221.024409 
L 106.549741 218.415865 
L 118.249433 208.705527 
L 121.592202 206.386389 
L 123.263587 205.395653 
L 124.934971 204.537878 
L 126.606356 203.825591 
L 128.27774 203.268685 
L 129.949125 202.874146 
L 131.620509 202.645879 
L 133.291894 202.584626 
L 134.963278 202.687991 
L 136.634663 202.950576 
L 138.306047 203.364213 
L 139.977432 203.918297 
L 143.320201 205.395702 
L 146.66297 207.266022 
L 150.005739 209.403785 
L 158.362661 215.184405 
L 163.376815 218.557877 
L 168.390968 221.694071 
L 173.405122 224.551642 
L 178.419275 227.113625 
L 183.433429 229.356979 
L 186.776198 230.660054 
L 190.118967 231.7995 
L 193.461736 232.771526 
L 196.804505 233.578345 
L 201.818659 234.499519 
L 206.832812 235.122042 
L 211.846966 235.513566 
L 218.532504 235.793064 
L 228.560811 235.942 
L 230.009602 235.950329 
L 230.009602 235.950329 
" style="fill:none;stroke:#000000;stroke-dasharray:1,1,1,1,3,1;stroke-dashoffset:0;"/>
   </g>
   <g id="patch_3">
    <path d="M 18.9425 244.644567 
L 18.9425 10.7 
" style="fill:none;stroke:#000000;stroke-linecap:square;stroke-linejoin:miter;stroke-width:0.8;"/>
   </g>
   <g id="patch_4">
    <path d="M 218.309602 244.644567 
L 218.309602 10.7 
" style="fill:none;stroke:#000000;stroke-linecap:square;stroke-linejoin:miter;stroke-width:0.8;"/>
   </g>
   <g id="patch_5">
    <path d="M 18.9425 244.644567 
L 218.309602 244.644567 
" style="fill:none;stroke:#000000;stroke-linecap:square;stroke-linejoin:miter;stroke-width:0.8;"/>
   </g>
   <g id="patch_6">
    <path d="M 18.9425 10.7 
L 218.309602 10.7 
" style="fill:none;stroke:#000000;stroke-linecap:square;stroke-linejoin:miter;stroke-width:0.8;"/>
   </g>
   <g id="text_9">
    <g id="patch_7">
     <path d="M 61.11631 180.87013 
C 62.571571 180.87013 63.967423 180.291949 64.996448 179.262924 
C 66.025473 178.2339 66.603654 176.838047 66.603654 175.382786 
C 66.603654 173.927526 66.025473 172.531673 64.996448 171.502648 
C 63.967423 170.473624 62.571571 169.895442 61.11631 169.895442 
C 59.661049 169.895442 58.265197 170.473624 57.236172 171.502648 
C 56.207147 172.531673 55.628966 173.927526 55.628966 175.382786 
C 55.628966 176.838047 56.207147 178.2339 57.236172 179.262924 
C 58.265197 180.291949 59.661049 180.87013 61.11631 180.87013 
z
" style="fill:#808080;opacity:0.05;stroke:#000000;stroke-linejoin:miter;"/>
    </g>
    <!-- 6 -->
    <g transform="translate(58.889435 177.314349)scale(0.07 -0.07)">
     <use xlink:href="#DejaVuSans-54"/>
    </g>
   </g>
   <g id="text_10">
    <g id="patch_8">
     <path d="M 125.036317 152.080202 
C 126.491577 152.080202 127.88743 151.502021 128.916455 150.472996 
C 129.945479 149.443971 130.52366 148.048119 130.52366 146.592858 
C 130.52366 145.137598 129.945479 143.741745 128.916455 142.71272 
C 127.88743 141.683695 126.491577 141.105514 125.036317 141.105514 
C 123.581056 141.105514 122.185203 141.683695 121.156179 142.71272 
C 120.127154 143.741745 119.548973 145.137598 119.548973 146.592858 
C 119.548973 148.048119 120.127154 149.443971 121.156179 150.472996 
C 122.185203 151.502021 123.581056 152.080202 125.036317 152.080202 
z
" style="fill:#808080;opacity:0.05;stroke:#000000;stroke-linejoin:miter;"/>
    </g>
    <!-- 5 -->
    <g style="fill:#0077aa;" transform="translate(122.809442 148.524421)scale(0.07 -0.07)">
     <use xlink:href="#DejaVuSans-53"/>
    </g>
   </g>
   <g id="text_11">
    <g id="patch_9">
     <path d="M 136.77831 160.931505 
C 138.233571 160.931505 139.629424 160.353324 140.658448 159.324299 
C 141.687473 158.295274 142.265654 156.899422 142.265654 155.444161 
C 142.265654 153.9889 141.687473 152.593048 140.658448 151.564023 
C 139.629424 150.534998 138.233571 149.956817 136.77831 149.956817 
C 135.32305 149.956817 133.927197 150.534998 132.898172 151.564023 
C 131.869148 152.593048 131.290967 153.9889 131.290967 155.444161 
C 131.290967 156.899422 131.869148 158.295274 132.898172 159.324299 
C 133.927197 160.353324 135.32305 160.931505 136.77831 160.931505 
z
" style="fill:#808080;opacity:0.05;stroke:#000000;stroke-linejoin:miter;"/>
    </g>
    <!-- 1 -->
    <defs>
     <path d="M 12.40625 8.296875 
L 28.515625 8.296875 
L 28.515625 63.921875 
L 10.984375 60.40625 
L 10.984375 69.390625 
L 28.421875 72.90625 
L 38.28125 72.90625 
L 38.28125 8.296875 
L 54.390625 8.296875 
L 54.390625 0 
L 12.40625 0 
z
" id="DejaVuSans-49"/>
    </defs>
    <g transform="translate(134.551435 157.375724)scale(0.07 -0.07)">
     <use xlink:href="#DejaVuSans-49"/>
    </g>
   </g>
   <g id="text_12">
    <g id="patch_10">
     <path d="M 112.215632 153.70677 
C 113.670892 153.70677 115.066745 153.128588 116.09577 152.099564 
C 117.124794 151.070539 117.702976 149.674686 117.702976 148.219426 
C 117.702976 146.764165 117.124794 145.368312 116.09577 144.339288 
C 115.066745 143.310263 113.670892 142.732082 112.215632 142.732082 
C 110.760371 142.732082 109.364518 143.310263 108.335494 144.339288 
C 107.306469 145.368312 106.728288 146.764165 106.728288 148.219426 
C 106.728288 149.674686 107.306469 151.070539 108.335494 152.099564 
C 109.364518 153.128588 110.760371 153.70677 112.215632 153.70677 
z
" style="fill:#808080;opacity:0.05;stroke:#000000;stroke-linejoin:miter;"/>
    </g>
    <!-- 2 -->
    <g transform="translate(109.988757 150.150988)scale(0.07 -0.07)">
     <use xlink:href="#DejaVuSans-50"/>
    </g>
   </g>
   <g id="text_13">
    <g id="patch_11">
     <path d="M 112.511155 169.555618 
C 113.966416 169.555618 115.362269 168.977437 116.391293 167.948413 
C 117.420318 166.919388 117.998499 165.523535 117.998499 164.068275 
C 117.998499 162.613014 117.420318 161.217161 116.391293 160.188137 
C 115.362269 159.159112 113.966416 158.580931 112.511155 158.580931 
C 111.055895 158.580931 109.660042 159.159112 108.631017 160.188137 
C 107.601993 161.217161 107.023811 162.613014 107.023811 164.068275 
C 107.023811 165.523535 107.601993 166.919388 108.631017 167.948413 
C 109.660042 168.977437 111.055895 169.555618 112.511155 169.555618 
z
" style="fill:#808080;opacity:0.05;stroke:#000000;stroke-linejoin:miter;"/>
    </g>
    <!-- 3 -->
    <defs>
     <path d="M 40.578125 39.3125 
Q 47.65625 37.796875 51.625 33 
Q 55.609375 28.21875 55.609375 21.1875 
Q 55.609375 10.40625 48.1875 4.484375 
Q 40.765625 -1.421875 27.09375 -1.421875 
Q 22.515625 -1.421875 17.65625 -0.515625 
Q 12.796875 0.390625 7.625 2.203125 
L 7.625 11.71875 
Q 11.71875 9.328125 16.59375 8.109375 
Q 21.484375 6.890625 26.8125 6.890625 
Q 36.078125 6.890625 40.9375 10.546875 
Q 45.796875 14.203125 45.796875 21.1875 
Q 45.796875 27.640625 41.28125 31.265625 
Q 36.765625 34.90625 28.71875 34.90625 
L 20.21875 34.90625 
L 20.21875 43.015625 
L 29.109375 43.015625 
Q 36.375 43.015625 40.234375 45.921875 
Q 44.09375 48.828125 44.09375 54.296875 
Q 44.09375 59.90625 40.109375 62.90625 
Q 36.140625 65.921875 28.71875 65.921875 
Q 24.65625 65.921875 20.015625 65.03125 
Q 15.375 64.15625 9.8125 62.3125 
L 9.8125 71.09375 
Q 15.4375 72.65625 20.34375 73.4375 
Q 25.25 74.21875 29.59375 74.21875 
Q 40.828125 74.21875 47.359375 69.109375 
Q 53.90625 64.015625 53.90625 55.328125 
Q 53.90625 49.265625 50.4375 45.09375 
Q 46.96875 40.921875 40.578125 39.3125 
z
" id="DejaVuSans-51"/>
    </defs>
    <g transform="translate(110.28428 165.999837)scale(0.07 -0.07)">
     <use xlink:href="#DejaVuSans-51"/>
    </g>
   </g>
   <g id="text_14">
    <g id="patch_12">
     <path d="M 119.101963 151.179742 
C 120.557224 151.179742 121.953077 150.601561 122.982101 149.572537 
C 124.011126 148.543512 124.589307 147.147659 124.589307 145.692399 
C 124.589307 144.237138 124.011126 142.841285 122.982101 141.812261 
C 121.953077 140.783236 120.557224 140.205055 119.101963 140.205055 
C 117.646703 140.205055 116.25085 140.783236 115.221825 141.812261 
C 114.192801 142.841285 113.614619 144.237138 113.614619 145.692399 
C 113.614619 147.147659 114.192801 148.543512 115.221825 149.572537 
C 116.25085 150.601561 117.646703 151.179742 119.101963 151.179742 
z
" style="fill:#808080;opacity:0.05;stroke:#000000;stroke-linejoin:miter;"/>
    </g>
    <!-- 4 -->
    <g style="fill:#ff5c00;" transform="translate(116.875088 147.623961)scale(0.07 -0.07)">
     <use xlink:href="#DejaVuSans-52"/>
    </g>
   </g>
   <g id="text_15">
    <g id="patch_13">
     <path d="M 61.11631 136.515033 
C 62.571571 136.515033 63.967423 135.936851 64.996448 134.907827 
C 66.025473 133.878802 66.603654 132.482949 66.603654 131.027689 
C 66.603654 129.572428 66.025473 128.176575 64.996448 127.147551 
C 63.967423 126.118526 62.571571 125.540345 61.11631 125.540345 
C 59.661049 125.540345 58.265197 126.118526 57.236172 127.147551 
C 56.207147 128.176575 55.628966 129.572428 55.628966 131.027689 
C 55.628966 132.482949 56.207147 133.878802 57.236172 134.907827 
C 58.265197 135.936851 59.661049 136.515033 61.11631 136.515033 
z
" style="fill:#808080;opacity:0.05;stroke:#000000;stroke-linejoin:miter;"/>
    </g>
    <!-- 6 -->
    <g transform="translate(58.889435 132.959251)scale(0.07 -0.07)">
     <use xlink:href="#DejaVuSans-54"/>
    </g>
   </g>
   <g id="text_16">
    <g id="patch_14">
     <path d="M 103.29012 117.727577 
C 104.745381 117.727577 106.141233 117.149396 107.170258 116.120371 
C 108.199283 115.091347 108.777464 113.695494 108.777464 112.240233 
C 108.777464 110.784973 108.199283 109.38912 107.170258 108.360095 
C 106.141233 107.331071 104.745381 106.752889 103.29012 106.752889 
C 101.834859 106.752889 100.439007 107.331071 99.409982 108.360095 
C 98.380957 109.38912 97.802776 110.784973 97.802776 112.240233 
C 97.802776 113.695494 98.380957 115.091347 99.409982 116.120371 
C 100.439007 117.149396 101.834859 117.727577 103.29012 117.727577 
z
" style="fill:#808080;opacity:0.05;stroke:#000000;stroke-linejoin:miter;"/>
    </g>
    <!-- 5 -->
    <g style="fill:#0077aa;" transform="translate(101.063245 114.171796)scale(0.07 -0.07)">
     <use xlink:href="#DejaVuSans-53"/>
    </g>
   </g>
   <g id="text_17">
    <g id="patch_15">
     <path d="M 149.297913 130.682912 
C 150.753173 130.682912 152.149026 130.104731 153.178051 129.075706 
C 154.207075 128.046682 154.785256 126.650829 154.785256 125.195568 
C 154.785256 123.740308 154.207075 122.344455 153.178051 121.31543 
C 152.149026 120.286406 150.753173 119.708224 149.297913 119.708224 
C 147.842652 119.708224 146.446799 120.286406 145.417775 121.31543 
C 144.38875 122.344455 143.810569 123.740308 143.810569 125.195568 
C 143.810569 126.650829 144.38875 128.046682 145.417775 129.075706 
C 146.446799 130.104731 147.842652 130.682912 149.297913 130.682912 
z
" style="fill:#808080;opacity:0.05;stroke:#000000;stroke-linejoin:miter;"/>
    </g>
    <!-- 1 -->
    <g transform="translate(147.071038 127.127131)scale(0.07 -0.07)">
     <use xlink:href="#DejaVuSans-49"/>
    </g>
   </g>
   <g id="text_18">
    <g id="patch_16">
     <path d="M 122.460034 115.680729 
C 123.915294 115.680729 125.311147 115.102548 126.340172 114.073523 
C 127.369196 113.044498 127.947377 111.648646 127.947377 110.193385 
C 127.947377 108.738125 127.369196 107.342272 126.340172 106.313247 
C 125.311147 105.284222 123.915294 104.706041 122.460034 104.706041 
C 121.004773 104.706041 119.60892 105.284222 118.579896 106.313247 
C 117.550871 107.342272 116.97269 108.738125 116.97269 110.193385 
C 116.97269 111.648646 117.550871 113.044498 118.579896 114.073523 
C 119.60892 115.102548 121.004773 115.680729 122.460034 115.680729 
z
" style="fill:#808080;opacity:0.05;stroke:#000000;stroke-linejoin:miter;"/>
    </g>
    <!-- 2 -->
    <g transform="translate(120.233159 112.124948)scale(0.07 -0.07)">
     <use xlink:href="#DejaVuSans-50"/>
    </g>
   </g>
   <g id="text_19">
    <g id="patch_17">
     <path d="M 122.460034 131.710264 
C 123.915294 131.710264 125.311147 131.132083 126.340172 130.103058 
C 127.369196 129.074034 127.947377 127.678181 127.947377 126.22292 
C 127.947377 124.76766 127.369196 123.371807 126.340172 122.342782 
C 125.311147 121.313758 123.915294 120.735576 122.460034 120.735576 
C 121.004773 120.735576 119.60892 121.313758 118.579896 122.342782 
C 117.550871 123.371807 116.97269 124.76766 116.97269 126.22292 
C 116.97269 127.678181 117.550871 129.074034 118.579896 130.103058 
C 119.60892 131.132083 121.004773 131.710264 122.460034 131.710264 
z
" style="fill:#808080;opacity:0.05;stroke:#000000;stroke-linejoin:miter;"/>
    </g>
    <!-- 3 -->
    <g transform="translate(120.233159 128.154483)scale(0.07 -0.07)">
     <use xlink:href="#DejaVuSans-51"/>
    </g>
   </g>
   <g id="text_20">
    <g id="patch_18">
     <path d="M 103.29012 133.757112 
C 104.745381 133.757112 106.141233 133.178931 107.170258 132.149906 
C 108.199283 131.120882 108.777464 129.725029 108.777464 128.269768 
C 108.777464 126.814508 108.199283 125.418655 107.170258 124.38963 
C 106.141233 123.360606 104.745381 122.782425 103.29012 122.782425 
C 101.834859 122.782425 100.439007 123.360606 99.409982 124.38963 
C 98.380957 125.418655 97.802776 126.814508 97.802776 128.269768 
C 97.802776 129.725029 98.380957 131.120882 99.409982 132.149906 
C 100.439007 133.178931 101.834859 133.757112 103.29012 133.757112 
z
" style="fill:#808080;opacity:0.05;stroke:#000000;stroke-linejoin:miter;"/>
    </g>
    <!-- 4 -->
    <g style="fill:#ff5c00;" transform="translate(101.063245 130.201331)scale(0.07 -0.07)">
     <use xlink:href="#DejaVuSans-52"/>
    </g>
   </g>
   <g id="text_21">
    <g id="patch_19">
     <path d="M 61.11631 92.200592 
C 62.571571 92.200592 63.967423 91.62241 64.996448 90.593386 
C 66.025473 89.564361 66.603654 88.168508 66.603654 86.713248 
C 66.603654 85.257987 66.025473 83.862135 64.996448 82.83311 
C 63.967423 81.804085 62.571571 81.225904 61.11631 81.225904 
C 59.661049 81.225904 58.265197 81.804085 57.236172 82.83311 
C 56.207147 83.862135 55.628966 85.257987 55.628966 86.713248 
C 55.628966 88.168508 56.207147 89.564361 57.236172 90.593386 
C 58.265197 91.62241 59.661049 92.200592 61.11631 92.200592 
z
" style="fill:#808080;opacity:0.05;stroke:#000000;stroke-linejoin:miter;"/>
    </g>
    <!-- 6 -->
    <g transform="translate(58.889435 88.64481)scale(0.07 -0.07)">
     <use xlink:href="#DejaVuSans-54"/>
    </g>
   </g>
   <g id="text_22">
    <g id="patch_20">
     <path d="M 99.456137 72.46645 
C 100.911398 72.46645 102.307251 71.888269 103.336275 70.859245 
C 104.3653 69.83022 104.943481 68.434367 104.943481 66.979107 
C 104.943481 65.523846 104.3653 64.127993 103.336275 63.098969 
C 102.307251 62.069944 100.911398 61.491763 99.456137 61.491763 
C 98.000877 61.491763 96.605024 62.069944 95.575999 63.098969 
C 94.546975 64.127993 93.968793 65.523846 93.968793 66.979107 
C 93.968793 68.434367 94.546975 69.83022 95.575999 70.859245 
C 96.605024 71.888269 98.000877 72.46645 99.456137 72.46645 
z
" style="fill:#808080;opacity:0.05;stroke:#000000;stroke-linejoin:miter;"/>
    </g>
    <!-- 5 -->
    <g style="fill:#0077aa;" transform="translate(97.229262 68.910669)scale(0.07 -0.07)">
     <use xlink:href="#DejaVuSans-53"/>
    </g>
   </g>
   <g id="text_23">
    <g id="patch_21">
     <path d="M 144.313735 87.918411 
C 145.768996 87.918411 147.164848 87.34023 148.193873 86.311206 
C 149.222898 85.282181 149.801079 83.886328 149.801079 82.431068 
C 149.801079 80.975807 149.222898 79.579954 148.193873 78.55093 
C 147.164848 77.521905 145.768996 76.943724 144.313735 76.943724 
C 142.858475 76.943724 141.462622 77.521905 140.433597 78.55093 
C 139.404573 79.579954 138.826391 80.975807 138.826391 82.431068 
C 138.826391 83.886328 139.404573 85.282181 140.433597 86.311206 
C 141.462622 87.34023 142.858475 87.918411 144.313735 87.918411 
z
" style="fill:#808080;opacity:0.05;stroke:#000000;stroke-linejoin:miter;"/>
    </g>
    <!-- 1 -->
    <g transform="translate(142.08686 84.36263)scale(0.07 -0.07)">
     <use xlink:href="#DejaVuSans-49"/>
    </g>
   </g>
   <g id="text_24">
    <g id="patch_22">
     <path d="M 115.942263 71.156643 
C 117.397524 71.156643 118.793376 70.578462 119.822401 69.549437 
C 120.851426 68.520413 121.429607 67.12456 121.429607 65.669299 
C 121.429607 64.214039 120.851426 62.818186 119.822401 61.789161 
C 118.793376 60.760137 117.397524 60.181955 115.942263 60.181955 
C 114.487002 60.181955 113.09115 60.760137 112.062125 61.789161 
C 111.0331 62.818186 110.454919 64.214039 110.454919 65.669299 
C 110.454919 67.12456 111.0331 68.520413 112.062125 69.549437 
C 113.09115 70.578462 114.487002 71.156643 115.942263 71.156643 
z
" style="fill:#808080;opacity:0.05;stroke:#000000;stroke-linejoin:miter;"/>
    </g>
    <!-- 2 -->
    <g transform="translate(113.715388 67.600862)scale(0.07 -0.07)">
     <use xlink:href="#DejaVuSans-50"/>
    </g>
   </g>
   <g id="text_25">
    <g id="patch_23">
     <path d="M 115.942263 87.186178 
C 117.397524 87.186178 118.793376 86.607997 119.822401 85.578972 
C 120.851426 84.549948 121.429607 83.154095 121.429607 81.698834 
C 121.429607 80.243574 120.851426 78.847721 119.822401 77.818696 
C 118.793376 76.789672 117.397524 76.211491 115.942263 76.211491 
C 114.487002 76.211491 113.09115 76.789672 112.062125 77.818696 
C 111.0331 78.847721 110.454919 80.243574 110.454919 81.698834 
C 110.454919 83.154095 111.0331 84.549948 112.062125 85.578972 
C 113.09115 86.607997 114.487002 87.186178 115.942263 87.186178 
z
" style="fill:#808080;opacity:0.05;stroke:#000000;stroke-linejoin:miter;"/>
    </g>
    <!-- 3 -->
    <g transform="translate(113.715388 83.630397)scale(0.07 -0.07)">
     <use xlink:href="#DejaVuSans-51"/>
    </g>
   </g>
   <g id="text_26">
    <g id="patch_24">
     <path d="M 99.456137 88.495986 
C 100.911398 88.495986 102.307251 87.917804 103.336275 86.88878 
C 104.3653 85.859755 104.943481 84.463902 104.943481 83.008642 
C 104.943481 81.553381 104.3653 80.157528 103.336275 79.128504 
C 102.307251 78.099479 100.911398 77.521298 99.456137 77.521298 
C 98.000877 77.521298 96.605024 78.099479 95.575999 79.128504 
C 94.546975 80.157528 93.968793 81.553381 93.968793 83.008642 
C 93.968793 84.463902 94.546975 85.859755 95.575999 86.88878 
C 96.605024 87.917804 98.000877 88.495986 99.456137 88.495986 
z
" style="fill:#808080;opacity:0.05;stroke:#000000;stroke-linejoin:miter;"/>
    </g>
    <!-- 4 -->
    <g style="fill:#ff5c00;" transform="translate(97.229262 84.940204)scale(0.07 -0.07)">
     <use xlink:href="#DejaVuSans-52"/>
    </g>
   </g>
   <g id="text_27">
    <g id="patch_25">
     <path d="M 61.11631 49.868897 
C 62.571571 49.868897 63.967423 49.290716 64.996448 48.261691 
C 66.025473 47.232666 66.603654 45.836813 66.603654 44.381553 
C 66.603654 42.926292 66.025473 41.53044 64.996448 40.501415 
C 63.967423 39.47239 62.571571 38.894209 61.11631 38.894209 
C 59.661049 38.894209 58.265197 39.47239 57.236172 40.501415 
C 56.207147 41.53044 55.628966 42.926292 55.628966 44.381553 
C 55.628966 45.836813 56.207147 47.232666 57.236172 48.261691 
C 58.265197 49.290716 59.661049 49.868897 61.11631 49.868897 
z
" style="fill:#808080;opacity:0.05;stroke:#000000;stroke-linejoin:miter;"/>
    </g>
    <!-- 6 -->
    <g transform="translate(58.889435 46.313115)scale(0.07 -0.07)">
     <use xlink:href="#DejaVuSans-54"/>
    </g>
   </g>
   <g id="text_28">
    <g id="patch_26">
     <path d="M 103.29012 31.081441 
C 104.745381 31.081441 106.141233 30.50326 107.170258 29.474235 
C 108.199283 28.445211 108.777464 27.049358 108.777464 25.594097 
C 108.777464 24.138837 108.199283 22.742984 107.170258 21.713959 
C 106.141233 20.684935 104.745381 20.106754 103.29012 20.106754 
C 101.834859 20.106754 100.439007 20.684935 99.409982 21.713959 
C 98.380957 22.742984 97.802776 24.138837 97.802776 25.594097 
C 97.802776 27.049358 98.380957 28.445211 99.409982 29.474235 
C 100.439007 30.50326 101.834859 31.081441 103.29012 31.081441 
z
" style="fill:#808080;opacity:0.05;stroke:#000000;stroke-linejoin:miter;"/>
    </g>
    <!-- 5 -->
    <g style="fill:#0077aa;" transform="translate(101.063245 27.52566)scale(0.07 -0.07)">
     <use xlink:href="#DejaVuSans-53"/>
    </g>
   </g>
   <g id="text_29">
    <g id="patch_27">
     <path d="M 149.297913 44.036776 
C 150.753173 44.036776 152.149026 43.458595 153.178051 42.42957 
C 154.207075 41.400546 154.785256 40.004693 154.785256 38.549432 
C 154.785256 37.094172 154.207075 35.698319 153.178051 34.669294 
C 152.149026 33.64027 150.753173 33.062089 149.297913 33.062089 
C 147.842652 33.062089 146.446799 33.64027 145.417775 34.669294 
C 144.38875 35.698319 143.810569 37.094172 143.810569 38.549432 
C 143.810569 40.004693 144.38875 41.400546 145.417775 42.42957 
C 146.446799 43.458595 147.842652 44.036776 149.297913 44.036776 
z
" style="fill:#808080;opacity:0.05;stroke:#000000;stroke-linejoin:miter;"/>
    </g>
    <!-- 1 -->
    <g transform="translate(147.071038 40.480995)scale(0.07 -0.07)">
     <use xlink:href="#DejaVuSans-49"/>
    </g>
   </g>
   <g id="text_30">
    <g id="patch_28">
     <path d="M 122.460034 29.034593 
C 123.915294 29.034593 125.311147 28.456412 126.340172 27.427387 
C 127.369196 26.398363 127.947377 25.00251 127.947377 23.547249 
C 127.947377 22.091989 127.369196 20.696136 126.340172 19.667111 
C 125.311147 18.638087 123.915294 18.059905 122.460034 18.059905 
C 121.004773 18.059905 119.60892 18.638087 118.579896 19.667111 
C 117.550871 20.696136 116.97269 22.091989 116.97269 23.547249 
C 116.97269 25.00251 117.550871 26.398363 118.579896 27.427387 
C 119.60892 28.456412 121.004773 29.034593 122.460034 29.034593 
z
" style="fill:#808080;opacity:0.05;stroke:#000000;stroke-linejoin:miter;"/>
    </g>
    <!-- 2 -->
    <g transform="translate(120.233159 25.478812)scale(0.07 -0.07)">
     <use xlink:href="#DejaVuSans-50"/>
    </g>
   </g>
   <g id="text_31">
    <g id="patch_29">
     <path d="M 122.460034 45.064128 
C 123.915294 45.064128 125.311147 44.485947 126.340172 43.456922 
C 127.369196 42.427898 127.947377 41.032045 127.947377 39.576784 
C 127.947377 38.121524 127.369196 36.725671 126.340172 35.696646 
C 125.311147 34.667622 123.915294 34.089441 122.460034 34.089441 
C 121.004773 34.089441 119.60892 34.667622 118.579896 35.696646 
C 117.550871 36.725671 116.97269 38.121524 116.97269 39.576784 
C 116.97269 41.032045 117.550871 42.427898 118.579896 43.456922 
C 119.60892 44.485947 121.004773 45.064128 122.460034 45.064128 
z
" style="fill:#808080;opacity:0.05;stroke:#000000;stroke-linejoin:miter;"/>
    </g>
    <!-- 3 -->
    <g transform="translate(120.233159 41.508347)scale(0.07 -0.07)">
     <use xlink:href="#DejaVuSans-51"/>
    </g>
   </g>
   <g id="text_32">
    <g id="patch_30">
     <path d="M 103.29012 47.110976 
C 104.745381 47.110976 106.141233 46.532795 107.170258 45.50377 
C 108.199283 44.474746 108.777464 43.078893 108.777464 41.623632 
C 108.777464 40.168372 108.199283 38.772519 107.170258 37.743494 
C 106.141233 36.71447 104.745381 36.136289 103.29012 36.136289 
C 101.834859 36.136289 100.439007 36.71447 99.409982 37.743494 
C 98.380957 38.772519 97.802776 40.168372 97.802776 41.623632 
C 97.802776 43.078893 98.380957 44.474746 99.409982 45.50377 
C 100.439007 46.532795 101.834859 47.110976 103.29012 47.110976 
z
" style="fill:#808080;opacity:0.05;stroke:#000000;stroke-linejoin:miter;"/>
    </g>
    <!-- 4 -->
    <g style="fill:#ff5c00;" transform="translate(101.063245 43.555195)scale(0.07 -0.07)">
     <use xlink:href="#DejaVuSans-52"/>
    </g>
   </g>
   <g id="text_33">
    <g id="patch_31">
     <path d="M 61.11631 224.631295 
C 62.571571 224.631295 63.967423 224.053114 64.996448 223.024089 
C 66.025473 221.995064 66.603654 220.599212 66.603654 219.143951 
C 66.603654 217.688691 66.025473 216.292838 64.996448 215.263813 
C 63.967423 214.234789 62.571571 213.656607 61.11631 213.656607 
C 59.661049 213.656607 58.265197 214.234789 57.236172 215.263813 
C 56.207147 216.292838 55.628966 217.688691 55.628966 219.143951 
C 55.628966 220.599212 56.207147 221.995064 57.236172 223.024089 
C 58.265197 224.053114 59.661049 224.631295 61.11631 224.631295 
z
" style="fill:#808080;opacity:0.05;stroke:#000000;stroke-linejoin:miter;"/>
    </g>
    <!-- 6 -->
    <g transform="translate(58.889435 221.075514)scale(0.07 -0.07)">
     <use xlink:href="#DejaVuSans-54"/>
    </g>
   </g>
   <g id="text_34">
    <g id="patch_32">
     <path d="M 129.836616 200.386063 
C 131.291877 200.386063 132.68773 199.807882 133.716754 198.778857 
C 134.745779 197.749833 135.32396 196.35398 135.32396 194.898719 
C 135.32396 193.443459 134.745779 192.047606 133.716754 191.018581 
C 132.68773 189.989557 131.291877 189.411376 129.836616 189.411376 
C 128.381356 189.411376 126.985503 189.989557 125.956478 191.018581 
C 124.927454 192.047606 124.349273 193.443459 124.349273 194.898719 
C 124.349273 196.35398 124.927454 197.749833 125.956478 198.778857 
C 126.985503 199.807882 128.381356 200.386063 129.836616 200.386063 
z
" style="fill:#808080;opacity:0.05;stroke:#000000;stroke-linejoin:miter;"/>
    </g>
    <!-- 5 -->
    <g style="fill:#0077aa;" transform="translate(127.609741 196.830282)scale(0.07 -0.07)">
     <use xlink:href="#DejaVuSans-53"/>
    </g>
   </g>
   <g id="text_35">
    <g id="patch_33">
     <path d="M 165.354249 217.31697 
C 166.80951 217.31697 168.205362 216.738789 169.234387 215.709765 
C 170.263412 214.68074 170.841593 213.284887 170.841593 211.829627 
C 170.841593 210.374366 170.263412 208.978513 169.234387 207.949489 
C 168.205362 206.920464 166.80951 206.342283 165.354249 206.342283 
C 163.898988 206.342283 162.503136 206.920464 161.474111 207.949489 
C 160.445086 208.978513 159.866905 210.374366 159.866905 211.829627 
C 159.866905 213.284887 160.445086 214.68074 161.474111 215.709765 
C 162.503136 216.738789 163.898988 217.31697 165.354249 217.31697 
z
" style="fill:#808080;opacity:0.05;stroke:#000000;stroke-linejoin:miter;"/>
    </g>
    <!-- 1 -->
    <g transform="translate(163.127374 213.761189)scale(0.07 -0.07)">
     <use xlink:href="#DejaVuSans-49"/>
    </g>
   </g>
   <g id="text_36">
    <g id="patch_34">
     <path d="M 136.792611 200.473903 
C 138.247872 200.473903 139.643725 199.895722 140.672749 198.866697 
C 141.701774 197.837672 142.279955 196.44182 142.279955 194.986559 
C 142.279955 193.531298 141.701774 192.135446 140.672749 191.106421 
C 139.643725 190.077396 138.247872 189.499215 136.792611 189.499215 
C 135.337351 189.499215 133.941498 190.077396 132.912473 191.106421 
C 131.883449 192.135446 131.305267 193.531298 131.305267 194.986559 
C 131.305267 196.44182 131.883449 197.837672 132.912473 198.866697 
C 133.941498 199.895722 135.337351 200.473903 136.792611 200.473903 
z
" style="fill:#808080;opacity:0.05;stroke:#000000;stroke-linejoin:miter;"/>
    </g>
    <!-- 2 -->
    <g transform="translate(134.565736 196.918122)scale(0.07 -0.07)">
     <use xlink:href="#DejaVuSans-50"/>
    </g>
   </g>
   <g id="text_37">
    <g id="patch_35">
     <path d="M 136.441802 216.432476 
C 137.897062 216.432476 139.292915 215.854295 140.32194 214.82527 
C 141.350964 213.796245 141.929146 212.400392 141.929146 210.945132 
C 141.929146 209.489871 141.350964 208.094019 140.32194 207.064994 
C 139.292915 206.035969 137.897062 205.457788 136.441802 205.457788 
C 134.986541 205.457788 133.590688 206.035969 132.561664 207.064994 
C 131.532639 208.094019 130.954458 209.489871 130.954458 210.945132 
C 130.954458 212.400392 131.532639 213.796245 132.561664 214.82527 
C 133.590688 215.854295 134.986541 216.432476 136.441802 216.432476 
z
" style="fill:#808080;opacity:0.05;stroke:#000000;stroke-linejoin:miter;"/>
    </g>
    <!-- 3 -->
    <g transform="translate(134.214927 212.876694)scale(0.07 -0.07)">
     <use xlink:href="#DejaVuSans-51"/>
    </g>
   </g>
   <g id="text_38">
    <g id="patch_36">
     <path d="M 115.578418 208.294991 
C 117.033679 208.294991 118.429531 207.71681 119.458556 206.687785 
C 120.487581 205.65876 121.065762 204.262908 121.065762 202.807647 
C 121.065762 201.352386 120.487581 199.956534 119.458556 198.927509 
C 118.429531 197.898484 117.033679 197.320303 115.578418 197.320303 
C 114.123157 197.320303 112.727305 197.898484 111.69828 198.927509 
C 110.669255 199.956534 110.091074 201.352386 110.091074 202.807647 
C 110.091074 204.262908 110.669255 205.65876 111.69828 206.687785 
C 112.727305 207.71681 114.123157 208.294991 115.578418 208.294991 
z
" style="fill:#808080;opacity:0.05;stroke:#000000;stroke-linejoin:miter;"/>
    </g>
    <!-- 4 -->
    <g style="fill:#ff5c00;" transform="translate(113.351543 204.73921)scale(0.07 -0.07)">
     <use xlink:href="#DejaVuSans-52"/>
    </g>
   </g>
   <g id="text_39">
    <!-- Schmitz -->
    <defs>
     <path d="M 53.515625 70.515625 
L 53.515625 60.890625 
Q 47.90625 63.578125 42.921875 64.890625 
Q 37.9375 66.21875 33.296875 66.21875 
Q 25.25 66.21875 20.875 63.09375 
Q 16.5 59.96875 16.5 54.203125 
Q 16.5 49.359375 19.40625 46.890625 
Q 22.3125 44.4375 30.421875 42.921875 
L 36.375 41.703125 
Q 47.40625 39.59375 52.65625 34.296875 
Q 57.90625 29 57.90625 20.125 
Q 57.90625 9.515625 50.796875 4.046875 
Q 43.703125 -1.421875 29.984375 -1.421875 
Q 24.8125 -1.421875 18.96875 -0.25 
Q 13.140625 0.921875 6.890625 3.21875 
L 6.890625 13.375 
Q 12.890625 10.015625 18.65625 8.296875 
Q 24.421875 6.59375 29.984375 6.59375 
Q 38.421875 6.59375 43.015625 9.90625 
Q 47.609375 13.234375 47.609375 19.390625 
Q 47.609375 24.75 44.3125 27.78125 
Q 41.015625 30.8125 33.5 32.328125 
L 27.484375 33.5 
Q 16.453125 35.6875 11.515625 40.375 
Q 6.59375 45.0625 6.59375 53.421875 
Q 6.59375 63.09375 13.40625 68.65625 
Q 20.21875 74.21875 32.171875 74.21875 
Q 37.3125 74.21875 42.625 73.28125 
Q 47.953125 72.359375 53.515625 70.515625 
z
" id="DejaVuSans-83"/>
     <path d="M 48.78125 52.59375 
L 48.78125 44.1875 
Q 44.96875 46.296875 41.140625 47.34375 
Q 37.3125 48.390625 33.40625 48.390625 
Q 24.65625 48.390625 19.8125 42.84375 
Q 14.984375 37.3125 14.984375 27.296875 
Q 14.984375 17.28125 19.8125 11.734375 
Q 24.65625 6.203125 33.40625 6.203125 
Q 37.3125 6.203125 41.140625 7.25 
Q 44.96875 8.296875 48.78125 10.40625 
L 48.78125 2.09375 
Q 45.015625 0.34375 40.984375 -0.53125 
Q 36.96875 -1.421875 32.421875 -1.421875 
Q 20.0625 -1.421875 12.78125 6.34375 
Q 5.515625 14.109375 5.515625 27.296875 
Q 5.515625 40.671875 12.859375 48.328125 
Q 20.21875 56 33.015625 56 
Q 37.15625 56 41.109375 55.140625 
Q 45.0625 54.296875 48.78125 52.59375 
z
" id="DejaVuSans-99"/>
     <path d="M 54.890625 33.015625 
L 54.890625 0 
L 45.90625 0 
L 45.90625 32.71875 
Q 45.90625 40.484375 42.875 44.328125 
Q 39.84375 48.1875 33.796875 48.1875 
Q 26.515625 48.1875 22.3125 43.546875 
Q 18.109375 38.921875 18.109375 30.90625 
L 18.109375 0 
L 9.078125 0 
L 9.078125 75.984375 
L 18.109375 75.984375 
L 18.109375 46.1875 
Q 21.34375 51.125 25.703125 53.5625 
Q 30.078125 56 35.796875 56 
Q 45.21875 56 50.046875 50.171875 
Q 54.890625 44.34375 54.890625 33.015625 
z
" id="DejaVuSans-104"/>
     <path d="M 52 44.1875 
Q 55.375 50.25 60.0625 53.125 
Q 64.75 56 71.09375 56 
Q 79.640625 56 84.28125 50.015625 
Q 88.921875 44.046875 88.921875 33.015625 
L 88.921875 0 
L 79.890625 0 
L 79.890625 32.71875 
Q 79.890625 40.578125 77.09375 44.375 
Q 74.3125 48.1875 68.609375 48.1875 
Q 61.625 48.1875 57.5625 43.546875 
Q 53.515625 38.921875 53.515625 30.90625 
L 53.515625 0 
L 44.484375 0 
L 44.484375 32.71875 
Q 44.484375 40.625 41.703125 44.40625 
Q 38.921875 48.1875 33.109375 48.1875 
Q 26.21875 48.1875 22.15625 43.53125 
Q 18.109375 38.875 18.109375 30.90625 
L 18.109375 0 
L 9.078125 0 
L 9.078125 54.6875 
L 18.109375 54.6875 
L 18.109375 46.1875 
Q 21.1875 51.21875 25.484375 53.609375 
Q 29.78125 56 35.6875 56 
Q 41.65625 56 45.828125 52.96875 
Q 50 49.953125 52 44.1875 
z
" id="DejaVuSans-109"/>
     <path d="M 5.515625 54.6875 
L 48.1875 54.6875 
L 48.1875 46.484375 
L 14.40625 7.171875 
L 48.1875 7.171875 
L 48.1875 0 
L 4.296875 0 
L 4.296875 8.203125 
L 38.09375 47.515625 
L 5.515625 47.515625 
z
" id="DejaVuSans-122"/>
    </defs>
    <g transform="translate(178.897341 51.856915)scale(0.07 -0.07)">
     <use xlink:href="#DejaVuSans-83"/>
     <use x="63.476562" xlink:href="#DejaVuSans-99"/>
     <use x="118.457031" xlink:href="#DejaVuSans-104"/>
     <use x="181.835938" xlink:href="#DejaVuSans-109"/>
     <use x="279.248047" xlink:href="#DejaVuSans-105"/>
     <use x="307.03125" xlink:href="#DejaVuSans-116"/>
     <use x="346.240234" xlink:href="#DejaVuSans-122"/>
    </g>
   </g>
   <g id="text_40">
    <!-- $\mathrm{T\~{o}nisoo}$ -->
    <defs>
     <path d="M -0.296875 72.90625 
L 61.375 72.90625 
L 61.375 64.59375 
L 35.5 64.59375 
L 35.5 0 
L 25.59375 0 
L 25.59375 64.59375 
L -0.296875 64.59375 
z
" id="DejaVuSans-84"/>
     <path d="M -25.296875 66.890625 
L -28.078125 69.578125 
Q -29.15625 70.5625 -29.953125 71.015625 
Q -30.765625 71.484375 -31.390625 71.484375 
Q -33.25 71.484375 -34.125 69.703125 
Q -35.015625 67.921875 -35.109375 63.921875 
L -41.21875 63.921875 
Q -41.109375 70.515625 -38.625 74.09375 
Q -36.140625 77.6875 -31.6875 77.6875 
Q -29.828125 77.6875 -28.265625 77 
Q -26.703125 76.3125 -24.90625 74.703125 
L -22.125 72.015625 
Q -21.046875 71.046875 -20.234375 70.578125 
Q -19.4375 70.125 -18.796875 70.125 
Q -16.9375 70.125 -16.0625 71.90625 
Q -15.1875 73.6875 -15.09375 77.6875 
L -8.984375 77.6875 
Q -9.078125 71.09375 -11.5625 67.5 
Q -14.0625 63.921875 -18.5 63.921875 
Q -20.359375 63.921875 -21.921875 64.59375 
Q -23.484375 65.28125 -25.296875 66.890625 
z
" id="DejaVuSans-771"/>
     <path d="M 30.609375 48.390625 
Q 23.390625 48.390625 19.1875 42.75 
Q 14.984375 37.109375 14.984375 27.296875 
Q 14.984375 17.484375 19.15625 11.84375 
Q 23.34375 6.203125 30.609375 6.203125 
Q 37.796875 6.203125 41.984375 11.859375 
Q 46.1875 17.53125 46.1875 27.296875 
Q 46.1875 37.015625 41.984375 42.703125 
Q 37.796875 48.390625 30.609375 48.390625 
z
M 30.609375 56 
Q 42.328125 56 49.015625 48.375 
Q 55.71875 40.765625 55.71875 27.296875 
Q 55.71875 13.875 49.015625 6.21875 
Q 42.328125 -1.421875 30.609375 -1.421875 
Q 18.84375 -1.421875 12.171875 6.21875 
Q 5.515625 13.875 5.515625 27.296875 
Q 5.515625 40.765625 12.171875 48.375 
Q 18.84375 56 30.609375 56 
z
" id="DejaVuSans-111"/>
    </defs>
    <g transform="translate(179.647654 95.179983)scale(0.07 -0.07)">
     <use transform="translate(0 0.734375)" xlink:href="#DejaVuSans-84"/>
     <use transform="translate(124.598145 5.3125)" xlink:href="#DejaVuSans-771"/>
     <use transform="translate(61.083984 0.734375)" xlink:href="#DejaVuSans-111"/>
     <use transform="translate(122.265625 0.734375)" xlink:href="#DejaVuSans-110"/>
     <use transform="translate(185.644531 0.734375)" xlink:href="#DejaVuSans-105"/>
     <use transform="translate(213.427734 0.734375)" xlink:href="#DejaVuSans-115"/>
     <use transform="translate(265.527344 0.734375)" xlink:href="#DejaVuSans-111"/>
     <use transform="translate(326.708984 0.734375)" xlink:href="#DejaVuSans-111"/>
    </g>
   </g>
   <g id="text_41">
    <!-- Garcia -->
    <defs>
     <path d="M 59.515625 10.40625 
L 59.515625 29.984375 
L 43.40625 29.984375 
L 43.40625 38.09375 
L 69.28125 38.09375 
L 69.28125 6.78125 
Q 63.578125 2.734375 56.6875 0.65625 
Q 49.8125 -1.421875 42 -1.421875 
Q 24.90625 -1.421875 15.25 8.5625 
Q 5.609375 18.5625 5.609375 36.375 
Q 5.609375 54.25 15.25 64.234375 
Q 24.90625 74.21875 42 74.21875 
Q 49.125 74.21875 55.546875 72.453125 
Q 61.96875 70.703125 67.390625 67.28125 
L 67.390625 56.78125 
Q 61.921875 61.421875 55.765625 63.765625 
Q 49.609375 66.109375 42.828125 66.109375 
Q 29.4375 66.109375 22.71875 58.640625 
Q 16.015625 51.171875 16.015625 36.375 
Q 16.015625 21.625 22.71875 14.15625 
Q 29.4375 6.6875 42.828125 6.6875 
Q 48.046875 6.6875 52.140625 7.59375 
Q 56.25 8.5 59.515625 10.40625 
z
" id="DejaVuSans-71"/>
    </defs>
    <g transform="translate(184.13531 138.50305)scale(0.07 -0.07)">
     <use xlink:href="#DejaVuSans-71"/>
     <use x="77.490234" xlink:href="#DejaVuSans-97"/>
     <use x="138.769531" xlink:href="#DejaVuSans-114"/>
     <use x="179.851562" xlink:href="#DejaVuSans-99"/>
     <use x="234.832031" xlink:href="#DejaVuSans-105"/>
     <use x="262.615234" xlink:href="#DejaVuSans-97"/>
    </g>
   </g>
   <g id="text_42">
    <!-- $\Delta$KS -->
    <defs>
     <path d="M 34.1875 63.1875 
L 14.15625 8.203125 
L 54.25 8.203125 
z
M 0.78125 0 
L 28.609375 72.90625 
L 39.796875 72.90625 
L 67.578125 0 
z
" id="DejaVuSans-916"/>
     <path d="M 9.8125 72.90625 
L 19.671875 72.90625 
L 19.671875 42.09375 
L 52.390625 72.90625 
L 65.09375 72.90625 
L 28.90625 38.921875 
L 67.671875 0 
L 54.6875 0 
L 19.671875 35.109375 
L 19.671875 0 
L 9.8125 0 
z
" id="DejaVuSans-75"/>
    </defs>
    <g transform="translate(192.947654 181.826118)scale(0.07 -0.07)">
     <use transform="translate(0 0.78125)" xlink:href="#DejaVuSans-916"/>
     <use transform="translate(68.408203 0.78125)" xlink:href="#DejaVuSans-75"/>
     <use transform="translate(133.984375 0.78125)" xlink:href="#DejaVuSans-83"/>
    </g>
   </g>
   <g id="text_43">
    <!-- 1s -->
    <g transform="translate(198.707341 229.481493)scale(0.07 -0.07)">
     <use xlink:href="#DejaVuSans-49"/>
     <use x="63.623047" xlink:href="#DejaVuSans-115"/>
    </g>
   </g>
  </g>
 </g>
 <defs>
  <clipPath id="p8e7b5ddf82">
   <rect height="233.944567" width="199.367102" x="18.9425" y="10.7"/>
  </clipPath>
 </defs>
</svg>
